<svg xmlns="http://www.w3.org/2000/svg" viewBox="0 0 573.7 512"><defs><style>.cls-1{fill:#2598dd;}</style></defs><title>logo</title><g id="Capa_2" data-name="Capa 2"><g id="Capa_1-2" data-name="Capa 1"><path class="cls-1" d="M147.34,100.9c-36.46,33.33-52,71.6-58.42,91.42a211.72,211.72,0,0,0,44.41,74.48c3.72-10.51,10.51-23.85,23.67-31.3,24-13.56,46,5.4,93.29,11.92,12.33,1.7,59.53,7.14,110.9-12.67a208.36,208.36,0,0,0,69.88-44.58A201.66,201.66,0,0,0,466.78,143c-6.42-10-56.26-84.86-153.56-96C303.31,45.84,216.78,37.41,147.34,100.9Zm235.76-9a15.25,15.25,0,1,1-15.24,15.24A15.24,15.24,0,0,1,383.1,91.9Z"/><path class="cls-1" d="M133.07,84.33a223.9,223.9,0,0,1,113.05-42,211.94,211.94,0,0,1,103,4.15C342.58,41.41,250-27.26,138.47,12.14,36,48.34,3.67,145.38.26,156.22c-1.89,15.2,6.64,29.56,20,34.67,15.22,5.82,33.55-1.59,40.91-17.66A223.66,223.66,0,0,1,133.07,84.33Z"/><path class="cls-1" d="M183.83,300.87a80.24,80.24,0,0,0,46.35-49.25l-31.87-10.81a80,80,0,0,1-14.48,60.06Z"/><path class="cls-1" d="M568.48,314.43c-17.35-75.86-70.94-115.89-84-125.1C458.63,271,388.14,329.8,305.85,338.75c-92.76,10.09-183.7-45.05-220.08-135.44C76.14,235.25,70.3,331.66,128.61,406.1c95.31,121.68,256.78,137.41,421.12,52.81C557.45,444.14,585.08,387,568.48,314.43Z"/></g></g></svg>