<svg id="GuppyDigital" xmlns="http://www.w3.org/2000/svg" viewBox="0 0 120 120"><defs><style>.cls-1{fill:#283b4a;}.cls-2,.cls-21{fill:#10131a;}.cls-3{fill:#0e303e;}.cls-4{fill:#fff;}.cls-5{fill:#393a3a;}.cls-6{fill:#4d4d4d;}.cls-7{fill:#f2f9ff;}.cls-8{fill:#8fc4d6;}.cls-9{fill:#d6ebff;}.cls-10{fill:#d82113;}.cls-11{fill:#ffca01;}.cls-12{fill:#2acb6d;}.cls-13{fill:#d4d3d3;}.cls-14{fill:#ce2819;}.cls-15{fill:#b39fa4;}.cls-16{fill:#f8c302;}.cls-17{fill:#2eda77;}.cls-18{fill:#8641a1;}.cls-19{fill:#a5ddff;}.cls-20{fill:#e82613;}.cls-21{opacity:0.15;}.cls-22{fill:#e5e4e3;}.cls-23{fill:#67dddf;}.cls-24{fill:#f18d13;}.cls-25{fill:#505153;}</style></defs><title>icon1</title><g id="Icon1"><path class="cls-1" d="M1195.67,233.76A60,60,0,0,1,1153,291.2l-.31.1a60,60,0,1,1,43-57.54Z" transform="translate(-1075.67 -173.76)"/><path class="cls-2" d="M1195.67,233.76a60,60,0,0,1-43,57.54,1.24,1.24,0,0,1-.36-.19,1.81,1.81,0,0,1-.65-.28,1.62,1.62,0,0,1-.64-.29,1.52,1.52,0,0,1-.65-.28,1.65,1.65,0,0,1-.65-.28,1.69,1.69,0,0,1-.64-.29,1.52,1.52,0,0,1-.65-.28,1.48,1.48,0,0,1-.64-.28,1.65,1.65,0,0,1-.65-.28,1.67,1.67,0,0,1-.65-.29,124.16,124.16,0,0,0-1.29-.56,1.61,1.61,0,0,1-.64-.28,1.67,1.67,0,0,1-.65-.29,1.52,1.52,0,0,1-.65-.28,1.48,1.48,0,0,1-.64-.28,1.81,1.81,0,0,1-.65-.28,1.67,1.67,0,0,1-.65-.29,124.16,124.16,0,0,0-1.29-.56,1.76,1.76,0,0,1-.64-.28,1.67,1.67,0,0,1-.65-.29,124.16,124.16,0,0,1-1.29-.56,1.81,1.81,0,0,1-.65-.28,1.62,1.62,0,0,1-.64-.29,1.52,1.52,0,0,1-.65-.28,1.52,1.52,0,0,1-.65-.28,1.76,1.76,0,0,1-.64-.28,1.67,1.67,0,0,1-.65-.29,124.16,124.16,0,0,1-1.29-.56,1.81,1.81,0,0,1-.65-.28,1.62,1.62,0,0,1-.64-.29,9943523557513.59,9943523557513.59,0,0,0-1.3-.56,1.84,1.84,0,0,1-.64-.28,1.67,1.67,0,0,1-.65-.29,1.48,1.48,0,0,1-.64-.28,1.52,1.52,0,0,1-.65-.28,1.81,1.81,0,0,1-.65-.28,1.62,1.62,0,0,1-.64-.29,1.52,1.52,0,0,1-.65-.28,1.52,1.52,0,0,1-.65-.28,1.84,1.84,0,0,1-.64-.28,1.67,1.67,0,0,1-.65-.29,1.48,1.48,0,0,1-.64-.28,1.52,1.52,0,0,1-.65-.28,1.81,1.81,0,0,1-.65-.28,1.69,1.69,0,0,1-.64-.29,1.52,1.52,0,0,1-.65-.28,1.55,1.55,0,0,1-.64-.28,1.67,1.67,0,0,1-.65-.29,1.52,1.52,0,0,1-.65-.28,1.48,1.48,0,0,1-.64-.28,1.65,1.65,0,0,1-.65-.28,1.67,1.67,0,0,1-.65-.29,124.16,124.16,0,0,0-1.29-.56,1.61,1.61,0,0,1-.64-.28,1.67,1.67,0,0,1-.65-.29,124.16,124.16,0,0,1-1.29-.56,1.65,1.65,0,0,1-.65-.28,1.56,1.56,0,0,1-.64-.29,4971761781030.93,4971761781030.93,0,0,1-1.3-.56,1.76,1.76,0,0,1-.64-.28,1.67,1.67,0,0,1-.65-.29,124.16,124.16,0,0,1-1.29-.56,1.81,1.81,0,0,1-.65-.28,1.62,1.62,0,0,1-.64-.29,1.52,1.52,0,0,1-.65-.28,1.52,1.52,0,0,1-.65-.28,1.84,1.84,0,0,1-.64-.28,1.67,1.67,0,0,1-.65-.29,1.43,1.43,0,0,1-.64-.28,1.52,1.52,0,0,1-.65-.28,1.81,1.81,0,0,1-.65-.28,1.62,1.62,0,0,1-.64-.29,9943523559860.8,9943523559860.8,0,0,1-1.3-.56,1.84,1.84,0,0,1-.64-.28,1.67,1.67,0,0,1-.65-.29,1.48,1.48,0,0,1-.64-.28,1.52,1.52,0,0,1-.65-.28,1.81,1.81,0,0,1-.65-.28,1.69,1.69,0,0,1-.64-.29,1.62,1.62,0,0,1-1.32-1.58V225.14a1.62,1.62,0,0,1,1.62-1.61h4.38V202.26a1.17,1.17,0,0,1,1.17-1.17H1176a1.13,1.13,0,0,1,.77.31,1.16,1.16,0,0,1,.65.28,1.1,1.1,0,0,1,.64.28,1.17,1.17,0,0,1,.65.29,1.1,1.1,0,0,1,.65.28,1.13,1.13,0,0,1,.64.28,1.16,1.16,0,0,1,.65.28,1.17,1.17,0,0,1,.65.29,1.07,1.07,0,0,1,.64.28,1.16,1.16,0,0,1,.65.28,1.2,1.2,0,0,1,.64.28,1.17,1.17,0,0,1,.65.29,1.1,1.1,0,0,1,.65.28,1.13,1.13,0,0,1,.64.28,1.24,1.24,0,0,1,.65.28,1.11,1.11,0,0,1,.64.29,1.1,1.1,0,0,1,.65.28,1.16,1.16,0,0,1,.65.28,1.2,1.2,0,0,1,.64.28,1.17,1.17,0,0,1,.65.29,1.1,1.1,0,0,1,.26.06A59.69,59.69,0,0,1,1195.67,233.76Z" transform="translate(-1075.67 -173.76)"/><path class="cls-3" d="M25.68,27.41h74.64a1.17,1.17,0,0,1,1.17,1.17v50a0,0,0,0,1,0,0h-77a0,0,0,0,1,0,0v-50A1.17,1.17,0,0,1,25.68,27.41Z"/><path class="cls-4" d="M1101.35,252.35H1176a1.17,1.17,0,0,1,1.17,1.17v4.15a0,0,0,0,1,0,0h-77a0,0,0,0,1,0,0v-4.15A1.17,1.17,0,0,1,1101.35,252.35Z" transform="translate(1201.67 336.26) rotate(180)"/><rect class="cls-5" x="27.45" y="30.41" width="71.09" height="45.18" rx="0.97"/><rect class="cls-6" x="28.38" y="36.78" width="69.3" height="37.67" rx="0.95"/><rect class="cls-7" x="47.52" y="90.13" width="30.96" height="1.58"/><polygon class="cls-8" points="73.1 90.13 52.89 90.13 55.47 83.91 70.53 83.91 73.1 90.13"/><rect class="cls-9" x="28.38" y="31.69" width="69.3" height="4.42" rx="0.44"/><circle class="cls-10" cx="32.4" cy="33.91" r="1.42"/><circle class="cls-11" cx="35.88" cy="33.91" r="1.42"/><circle class="cls-12" cx="39.39" cy="33.91" r="1.42"/><rect class="cls-13" x="36.77" y="38.21" width="0.37" height="34.83" rx="0.11"/><rect class="cls-13" x="29.19" y="38.9" width="4.95" height="1.43" rx="0.43"/><polygon class="cls-14" points="30.54 40.83 31.39 40.83 30.97 41.44 30.54 42.04 30.12 41.44 29.69 40.83 30.54 40.83"/><rect class="cls-15" x="30.54" y="42.8" width="4.38" height="1.3"/><rect class="cls-15" x="30.54" y="45.35" width="4.38" height="1.3"/><rect class="cls-15" x="30.54" y="47.91" width="4.38" height="1.3"/><rect class="cls-16" x="56.09" y="46.65" width="12.52" height="1.36"/><rect class="cls-17" x="40.43" y="41.24" width="12.53" height="1.36"/><rect class="cls-17" x="40.41" y="49.59" width="4.19" height="1.36"/><rect class="cls-18" x="55.63" y="41.24" width="19.99" height="1.36"/><rect class="cls-19" x="43.57" y="46.65" width="10.48" height="1.36"/><rect class="cls-19" x="38.44" y="38.93" width="14.22" height="1.36"/><rect class="cls-20" x="43.57" y="44" width="4.53" height="1.36"/><rect class="cls-4" x="49.93" y="44" width="15.07" height="1.36"/><rect class="cls-4" x="69.36" y="46.65" width="12.52" height="1.36"/><rect class="cls-16" x="55.44" y="58.78" width="11.87" height="1.36"/><rect class="cls-16" x="59.29" y="56.13" width="12.57" height="1.36"/><rect class="cls-17" x="40.41" y="53.35" width="10.02" height="1.36"/><rect class="cls-17" x="40.41" y="61.72" width="12.16" height="1.36"/><rect class="cls-18" x="53.89" y="61.72" width="19.4" height="1.36"/><rect class="cls-18" x="43.28" y="67.69" width="25.68" height="1.36"/><rect class="cls-19" x="43.57" y="58.78" width="9.94" height="1.36"/><rect class="cls-19" x="38.44" y="69.87" width="4.74" height="1.36"/><rect class="cls-19" x="73.57" y="56.13" width="17.54" height="1.36"/><rect class="cls-20" x="43.57" y="56.13" width="5.64" height="1.36"/><rect class="cls-20" x="39.94" y="64.66" width="3.7" height="1.36"/><rect class="cls-4" x="51.49" y="56.13" width="5.93" height="1.36"/><rect class="cls-4" x="68.02" y="58.78" width="11.88" height="1.36"/><path class="cls-21" d="M1187.16,255.52v9.06A60.08,60.08,0,0,1,1153,291.2l-.2-.08a1.21,1.21,0,0,1-.2-.09l-.2-.08-.2-.09a.72.72,0,0,1-.2-.09l-.2-.08-.2-.09a.72.72,0,0,1-.2-.09l-.2-.08-.2-.09-.2-.08-.2-.09a1.21,1.21,0,0,1-.2-.09l-.2-.08-.2-.09a.72.72,0,0,1-.2-.09l-.2-.08-.2-.09a.72.72,0,0,1-.2-.09l-.2-.08a1.21,1.21,0,0,1-.2-.09l-.2-.08-.2-.09a.72.72,0,0,1-.2-.09l-.2-.08-.2-.09a.72.72,0,0,1-.2-.09l-.2-.08-.2-.09-.2-.08-.2-.09a1.21,1.21,0,0,1-.2-.09l-.2-.08-.2-.09a.88.88,0,0,1-.2-.09l-.2-.08-.2-.09a.88.88,0,0,1-.2-.09l-.2-.08-.2-.09-.2-.08-.2-.09a.88.88,0,0,1-.2-.09l-.2-.08-.2-.09a.88.88,0,0,1-.2-.09l-.2-.08-.2-.09-.2-.08-.2-.09-.2-.09-.2-.08-.2-.09a.88.88,0,0,1-.2-.09l-.2-.08-.2-.09a.88.88,0,0,1-.2-.09l-.2-.08-.2-.09-.2-.08-.2-.09-.2-.09-.2-.08-.2-.09-.2-.09-.19-.08-.2-.09-.2-.08-.2-.09a1.21,1.21,0,0,1-.2-.09l-.2-.08-.2-.09a.72.72,0,0,1-.2-.09l-.2-.08-.2-.09a.72.72,0,0,1-.2-.09l-.2-.08a1.21,1.21,0,0,1-.2-.09l-.2-.08-.2-.09a.72.72,0,0,1-.2-.09l-.2-.08-.2-.09a.72.72,0,0,1-.2-.09l-.2-.08-.2-.09-.2-.08-.2-.09a1.21,1.21,0,0,1-.2-.09l-.2-.08-.2-.09a.72.72,0,0,1-.2-.09l-.2-.08-.2-.09a.72.72,0,0,1-.2-.09l-.2-.08a1.21,1.21,0,0,1-.2-.09l-.2-.08-.2-.09a.72.72,0,0,1-.2-.09l-.2-.08-.2-.09a.72.72,0,0,1-.2-.09l-.2-.08-.2-.09-.2-.08-.2-.09-.2-.09-.2-.08-.2-.09a.88.88,0,0,1-.2-.09l-.2-.08-.2-.09a.88.88,0,0,1-.2-.09l-.2-.08-.2-.09-.2-.08-.2-.09-.2-.09-.2-.08-.2-.09a.88.88,0,0,1-.2-.09l-.2-.08-.2-.09-.2-.08-.2-.09-.2-.09-.2-.08-.2-.09a.88.88,0,0,1-.2-.09l-.2-.08-.2-.09a.88.88,0,0,1-.2-.09l-.2-.08-.2-.09-.2-.08-.2-.09-.2-.09-.2-.08-.19-.09-.21-.09-.19-.08-.2-.09-.2-.08-.2-.09a1.21,1.21,0,0,1-.2-.09l-.2-.08-.2-.09a.72.72,0,0,1-.2-.09l-.2-.08-.2-.09a.72.72,0,0,1-.2-.09l-.2-.08a1.21,1.21,0,0,1-.2-.09l-.2-.08-.2-.09a1.21,1.21,0,0,1-.2-.09l-.2-.08-.2-.09a.72.72,0,0,1-.2-.09l-.2-.08-.2-.09-.2-.08-.2-.09a1.21,1.21,0,0,1-.2-.09l-.2-.08-.2-.09a.72.72,0,0,1-.2-.09l-.2-.08-.2-.09a.72.72,0,0,1-.2-.09l-.2-.08a1.21,1.21,0,0,1-.2-.09l-.2-.08-.2-.09a1.21,1.21,0,0,1-.2-.09l-.2-.08-.2-.09a.72.72,0,0,1-.2-.09l-.2-.08-.2-.09a.88.88,0,0,1-.2-.09l-.2-.08-.2-.09-.2-.08-.2-.09a.88.88,0,0,1-.2-.09l-.2-.08-.2-.09a.88.88,0,0,1-.2-.09l-.2-.08-.2-.09-.2-.08-.2-.09-.2-.09-.2-.08-.2-.09a.88.88,0,0,1-.2-.09l-.2-.08-.2-.09a.88.88,0,0,1-.2-.09l-.2-.08-.2-.09-.2-.08-.2-.09a.88.88,0,0,1-.2-.09l-.2-.08-.2-.09-.2-.09-.2-.08-.2-.09-.2-.08-.19-.09a1.21,1.21,0,0,1-.2-.09l-.2-.08-.2-.09a.72.72,0,0,1-.2-.09l-.2-.08-.2-.09-.2-.08-.2-.09a1.21,1.21,0,0,1-.2-.09l-.2-.08-.2-.09a.72.72,0,0,1-.2-.09l-.2-.08-.2-.09a.72.72,0,0,1-.2-.09l-.2-.08a1.21,1.21,0,0,1-.2-.09l-.2-.08-.2-.09a1.21,1.21,0,0,1-.2-.09l-.2-.08-.2-.09a.72.72,0,0,1-.2-.09l-.2-.08-.2-.09a.72.72,0,0,1-.2-.09l-.2-.08a1.21,1.21,0,0,1-.2-.09l-.2-.08-.2-.09a.72.72,0,0,1-.2-.09l-.2-.08-.2-.09a.72.72,0,0,1-.2-.09l-.2-.08a1.21,1.21,0,0,1-.2-.09l-.2-.08-.2-.09a1.21,1.21,0,0,1-.2-.09l-.2-.08-.2-.09a.88.88,0,0,1-.2-.09l-.2-.08-.2-.09a.88.88,0,0,1-.2-.09l-.2-.08-.2-.09-.2-.08-.2-.09a.88.88,0,0,1-.2-.09l-.2-.08-.2-.09a.88.88,0,0,1-.2-.09l-.2-.08-.2-.09-.2-.08-.2-.09-.2-.09-.2-.08-.2-.09a.88.88,0,0,1-.2-.09l-.2-.08-.2-.09a.88.88,0,0,1-.2-.09l-.2-.08-.2-.09-.2-.08-.2-.09-.2-.09-.2-.08-.2-.09a.82.82,0,0,1-.19-.09l-.2-.08-.2-.09-.2-.08-.2-.09a1.62,1.62,0,0,1-1.09-1.52V225.23a1.63,1.63,0,0,1,1.62-1.62h19.59a1.61,1.61,0,0,1,.73.18l.2.09a1.21,1.21,0,0,1,.2.09l.2.08.2.09a.72.72,0,0,1,.2.09l.2.08.2.09.2.08.2.09a1.21,1.21,0,0,1,.2.09l.2.08.2.09a.72.72,0,0,1,.2.09l.2.08.2.09a.72.72,0,0,1,.2.09l.2.08.2.09.2.08.2.09.2.09.2.08.2.09a.88.88,0,0,1,.2.09l.2.08.2.09.2.08.2.09.2.09.2.08.2.09a.88.88,0,0,1,.2.09l.2.08.2.09a.88.88,0,0,1,.2.09l.2.08.2.09.2.08.2.09.2.09.2.08.2.09a.88.88,0,0,1,.2.09l.2.08.2.09.2.08.2.09.2.09.19.08.2.09a.72.72,0,0,1,.2.09l.2.08.2.09a.72.72,0,0,1,.2.09l.2.08.2.09.2.08.2.09a1.21,1.21,0,0,1,.2.09l.2.08.2.09a.72.72,0,0,1,.2.09l.2.08.2.09.2.08.2.09a1.21,1.21,0,0,1,.2.09l.2.08.2.09a.72.72,0,0,1,.2.09l.2.08.2.09a.72.72,0,0,1,.2.09l.2.08a1.21,1.21,0,0,1,.2.09l.2.08.2.09a1.21,1.21,0,0,1,.2.09l.2.08.2.09a.72.72,0,0,1,.2.09l.2.08.2.09a.72.72,0,0,1,.2.09l.2.08a1.21,1.21,0,0,1,.2.09l.2.08.2.09a.88.88,0,0,1,.2.09l.2.08.2.09a.88.88,0,0,1,.2.09l.2.08.2.09.2.08.2.09.2.09.2.08.2.09a.88.88,0,0,1,.2.09l.2.08.2.09a.88.88,0,0,1,.2.09l.2.08.2.09.2.08.2.09a.88.88,0,0,1,.2.09l.2.08.2.09a.88.88,0,0,1,.2.09l.2.08.2.09.2.08.2.09.2.09.2.08.2.09.2.09.2.08.2.09.2.09.19.08a1.21,1.21,0,0,1,.2.09l.2.08.2.09a.72.72,0,0,1,.2.09l.2.08.2.09a.72.72,0,0,1,.2.09l.2.08.2.09.2.08.2.09a1.21,1.21,0,0,1,.2.09l.2.08.2.09a.72.72,0,0,1,.2.09l.2.08.2.09a.72.72,0,0,1,.2.09l.2.08a1.21,1.21,0,0,1,.2.09l.2.08.2.09a.72.72,0,0,1,.2.09l.2.08.2.09a.72.72,0,0,1,.2.09l.2.08.2.09.2.08.2.09a1.21,1.21,0,0,1,.2.09l.2.08.2.09a.72.72,0,0,1,.2.09l.2.08.2.09a.72.72,0,0,1,.2.09l.2.08a1.21,1.21,0,0,1,.2.09l.2.08.2.09a.88.88,0,0,1,.2.09l.2.08.2.09a.88.88,0,0,1,.2.09l.2.08.2.09.2.08.2.09.2.09.2.08.2.09a.88.88,0,0,1,.2.09l.2.08.2.09a.88.88,0,0,1,.2.09l.2.08.2.09.2.08.2.09a.88.88,0,0,1,.2.09l.2.08.2.09a.88.88,0,0,1,.2.09l.2.08.2.09.2.08.2.09.2.09.2.08.2.09a.82.82,0,0,1,.19.09l.2.08.2.09a.72.72,0,0,1,.2.09l.2.08a1.21,1.21,0,0,1,.2.09l.2.08.2.09a.72.72,0,0,1,.2.09l.2.08.2.09a.72.72,0,0,1,.2.09l.2.08.2.09.2.08.2.09a1.21,1.21,0,0,1,.2.09l.2.08.2.09a.72.72,0,0,1,.2.09l.2.08.2.09a.72.72,0,0,1,.2.09l.2.08a1.21,1.21,0,0,1,.2.09l.2.08.2.09a.72.72,0,0,1,.2.09l.2.08.2.09a.72.72,0,0,1,.2.09l.2.08.2.09.2.08.2.09a1.21,1.21,0,0,1,.2.09l.2.08.2.09a.72.72,0,0,1,.2.09l.2.08.2.09a.88.88,0,0,1,.2.09l.2.08.2.09.2.08.2.09a.88.88,0,0,1,.2.09l.2.08.2.09a.88.88,0,0,1,.2.09l.2.08.2.09.2.08.2.09.2.09.2.08.2.09a.88.88,0,0,1,.2.09l.2.08.2.09a.88.88,0,0,1,.2.09l.2.08.2.09.2.08.2.09a.88.88,0,0,1,.2.09l.2.08.2.09a.88.88,0,0,1,.2.09l.2.08.2.09.2.08.2.09.2.09.19.08.2.09a.72.72,0,0,1,.2.09l.2.08.2.09a.72.72,0,0,1,.2.09l.2.08a1.21,1.21,0,0,1,.2.09l.2.08.2.09a.72.72,0,0,1,.2.09l.2.08.2.09a.72.72,0,0,1,.2.09l.2.08.2.09.2.08.2.09a1.21,1.21,0,0,1,.2.09l.2.08.2.09a.72.72,0,0,1,.2.09l.2.08.2.09a.72.72,0,0,1,.2.09l.2.08a1.21,1.21,0,0,1,.2.09l.2.08.2.09a.72.72,0,0,1,.2.09l.2.08.2.09a.72.72,0,0,1,.2.09l.2.08.2.09.2.08.2.09a1.21,1.21,0,0,1,.2.09l.2.08.2.09a.88.88,0,0,1,.2.09l.2.08.2.09a.88.88,0,0,1,.2.09l.2.08.2.09.2.08.2.09.2.09.2.08.2.09a.88.88,0,0,1,.2.09l.2.08.2.09.2.08.2.09.2.09.2.08.2.09a.88.88,0,0,1,.2.09l.2.08.2.09a.88.88,0,0,1,.2.09l.2.08.2.09.2.08.2.09.2.09.2.08.2.09.2.09.2.08.19.09.2.08.2.09a1.21,1.21,0,0,1,.2.09l.2.08.2.09a.72.72,0,0,1,.2.09l.2.08.2.09a.72.72,0,0,1,.2.09A1.61,1.61,0,0,1,1187.16,255.52Z" transform="translate(-1075.67 -173.76)"/><rect class="cls-13" x="29.19" y="54.52" width="4.95" height="1.43" rx="0.43"/><polygon class="cls-14" points="30.54 56.45 31.39 56.45 30.97 57.06 30.54 57.66 30.12 57.06 29.69 56.45 30.54 56.45"/><rect class="cls-15" x="30.54" y="58.21" width="4.38" height="1.3"/><rect class="cls-15" x="30.54" y="60.77" width="4.38" height="1.3"/><rect class="cls-15" x="30.54" y="63.33" width="4.38" height="1.3"/><rect class="cls-3" x="18.51" y="49.85" width="22.83" height="42.75" rx="1.62"/><rect class="cls-22" x="19.78" y="51.38" width="20.29" height="39.64" rx="1.26"/><rect class="cls-3" x="22.76" y="50.09" width="14.33" height="2.58" rx="0.84"/><rect class="cls-23" x="21.3" y="54.7" width="17.63" height="10.64"/><rect class="cls-23" x="21.11" y="80.72" width="17.63" height="5.32"/><rect class="cls-24" x="21.3" y="66.62" width="9.24" height="12.82"/><rect class="cls-24" x="21.11" y="87.13" width="9.24" height="3.89"/><rect class="cls-24" x="32.4" y="87.13" width="6.04" height="3.89"/><rect class="cls-25" x="31.8" y="67.02" width="6.93" height="0.83"/><rect class="cls-25" x="31.8" y="69.26" width="5.54" height="0.83"/><rect class="cls-25" x="31.8" y="71.5" width="6.16" height="0.83"/><rect class="cls-25" x="31.8" y="73.74" width="4.6" height="0.83"/><rect class="cls-25" x="31.8" y="75.97" width="5.92" height="0.83"/><rect class="cls-25" x="31.8" y="78.21" width="6.93" height="0.83"/></g></svg>