<svg id="Capa_6" data-name="Capa 6" xmlns="http://www.w3.org/2000/svg" viewBox="0 0 382.5 341.37"><defs><style>.cls-1{fill:#fff;}</style></defs><title>Guppy</title><path class="cls-1" d="M2331.7,1377.62c-6.61-.76-64.3-6.38-110.6,36a142.37,142.37,0,0,0-38.95,61,141.25,141.25,0,0,0,29.61,49.66c2.48-7,7-15.9,15.78-20.87,16-9,30.7,3.6,62.2,8,8.22,1.13,39.69,4.76,73.94-8.45a138.9,138.9,0,0,0,46.59-29.72,134.29,134.29,0,0,0,23.81-31.48C2429.8,1435,2396.57,1385,2331.7,1377.62Zm46.59,50.28a10.17,10.17,0,1,1,10.17-10.17A10.16,10.16,0,0,1,2378.29,1427.9Z" transform="translate(-2122.86 -1346.3)"/><path class="cls-1" d="M2355.66,1377.28c-4.39-3.37-66.13-49.16-140.47-22.89-68.32,24.14-89.88,88.83-92.15,96.06-1.27,10.14,4.42,19.71,13.32,23.12,10.14,3.88,22.37-1.06,27.28-11.78A148.19,148.19,0,0,1,2287,1374.51a141.38,141.38,0,0,1,68.7,2.77Z" transform="translate(-2122.86 -1346.3)"/><path class="cls-1" d="M2255.09,1506.85l21.24,7.21a53.57,53.57,0,0,1-30.9,32.84,53.37,53.37,0,0,0,9.66-40.05Z" transform="translate(-2122.86 -1346.3)"/><path class="cls-1" d="M2180.05,1481.85c24.26,60.27,84.89,97,146.73,90.3,54.87-6,101.87-45.2,119.11-99.62,8.7,6.14,44.43,32.83,56,83.4,11.07,48.4-7.36,86.49-12.5,96.34-109.57,56.4-217.23,45.92-280.78-35.21C2169.73,1567.43,2173.63,1503.14,2180.05,1481.85Z" transform="translate(-2122.86 -1346.3)"/></svg>