<svg xmlns="http://www.w3.org/2000/svg" viewBox="0 0 159.41 142.39"><defs><style>.cls-1{fill:#fff;}</style></defs><title>Guppy</title><g id="Capa_4" data-name="Capa 4"><path class="cls-1" d="M99,14.82a58.94,58.94,0,0,0-28.64-1.15A61.88,61.88,0,0,0,18.9,50.06h0l-.12.28A8.81,8.81,0,0,1,2,46.63,9.08,9.08,0,0,1,2.37,44c0-.07,0-.15.08-.22A61.78,61.78,0,0,1,99,14.82Z" transform="translate(-1.98 -1.77)"/><path class="cls-1" d="M161.39,102.34a58.17,58.17,0,0,1-6.67,27.13h0a122.28,122.28,0,0,1-58.44,14.67c-3.57-.09-24.64-1-43.52-14.68-.87-.62-1.73-1.28-2.58-2h0a67.82,67.82,0,0,1-11.7-12A70.37,70.37,0,0,1,27.13,93.19a75.44,75.44,0,0,1-1.83-7.38h0a76.75,76.75,0,0,1-1.39-13.1v-.26h0c0-.23,0-.45,0-.67,0-1.27.09-2.53.2-3.77h0a58,58,0,0,1,1.63-9.57c.06.18.13.35.19.52h0a58.35,58.35,0,0,0,4.34,8.92q1.2,2,2.56,3.93a59,59,0,0,0,5.64,6.79,58.29,58.29,0,0,0,8.4,7.19c.5.36,1,.71,1.54,1h0c.46.31.93.61,1.41.91h0l.84.51a58.87,58.87,0,0,0,8.2,4,58.51,58.51,0,0,0,77.71-37.74c.55.38,1.08.77,1.61,1.17A58.36,58.36,0,0,1,161.39,102.34Z" transform="translate(-1.98 -1.77)"/><path class="cls-1" d="M65.89,71.85a22,22,0,0,1-.9,2.3h0a22.37,22.37,0,0,1-8.11,9.38,21.28,21.28,0,0,1-3.88,2,22.11,22.11,0,0,0,4.31-13.16A21.65,21.65,0,0,0,57,68.85,59.57,59.57,0,0,0,65.89,71.85Z" transform="translate(-1.98 -1.77)"/><path class="cls-1" d="M82.35,14.59A58.43,58.43,0,0,0,31.21,44.73c-.26.45-.5.91-.74,1.37-.52,1-1,2-1.47,3-.31.69-.61,1.39-.89,2.09l-.17.44-.09.22a1.43,1.43,0,0,0-.08.22c-.12.29-.23.58-.34.88l-.08.22-.13.37-.08.22c-.05.17-.11.34-.17.51l-.09.27-.09.26a2.76,2.76,0,0,0-.08.27,2.41,2.41,0,0,0-.08.25h0A58.84,58.84,0,0,0,39,76.07l0-.13a.65.65,0,0,1,0-.13h0a.56.56,0,0,0,0-.12l0-.14.09-.26a3214605226504.1,3214605226504.1,0,0,0,.1-.26s0-.08,0-.12h0s0-.07,0-.11l.07-.16a.54.54,0,0,1,0-.11,1.08,1.08,0,0,1,.08-.19l.09-.19.06-.13.06-.12.06-.13,0-.11,0,0a.93.93,0,0,1,.05-.1l.06-.12s.05-.1.08-.14l0-.08a.64.64,0,0,0,.08-.14l.07-.11a.41.41,0,0,0,0-.09l.05-.07,0-.09.07-.11.11-.17s.07-.11.11-.17l0,0,.06-.09.16-.23.08-.1.11-.15.1-.13.07-.09.06-.08a1.34,1.34,0,0,0,.11-.14l.08-.09.36-.42h0l0-.06.19-.2a.94.94,0,0,1,.1-.1.3.3,0,0,1,.08-.08l.14-.15.28-.27.06-.05.13-.12.07-.06.07-.06.11-.09,0,0,.09-.08.19-.16.1-.07.39-.3.1-.07.08-.06.08-.05.11-.08.14-.1.12-.08.07,0,.1-.07.15-.09.08,0,.09,0,.07,0h0l.1-.06.14-.08.23-.12.12-.07.15-.07a.31.31,0,0,1,.1,0h0l.12-.06.13-.06.13-.06.12-.06.25-.11.16-.07.14,0,.36-.14.13-.05.27-.09.13,0,.13,0,.13,0,.19-.06.09,0,.28-.08.08,0H49l.08,0h.11l.12,0h0l.06,0,.13,0h.09l.1,0h0l.12,0,.08,0H50l.13,0,.15,0h.19l.12,0h.12l.13,0,.28,0h1.2a14.14,14.14,0,0,1,4.24.65h0l.38.13h0a14.08,14.08,0,0,1,1.55.65h0l.31.13h0a58.12,58.12,0,0,0,6.57,2.18h0l.34.09h0l.64.16c.67.17,1.35.33,2,.47.93.2,1.87.37,2.82.52,1.41.23,2.84.4,4.29.52,1.12.1,2.25.16,3.38.19h1.6A58.3,58.3,0,0,0,126.84,49a57.91,57.91,0,0,0,4.82-7.33A58.4,58.4,0,0,0,82.35,14.59Zm26.13,21.2a4.24,4.24,0,1,1,4.23-4.24A4.24,4.24,0,0,1,108.48,35.79Z" transform="translate(-1.98 -1.77)"/></g></svg>