<svg xmlns="http://www.w3.org/2000/svg" xmlns:xlink="http://www.w3.org/1999/xlink" viewBox="0 0 360 220"><defs><style>.cls-1{fill:#ffb000;}.cls-2{opacity:0.5;}.cls-3{fill:#d18b00;}.cls-4{fill:#21201e;}.cls-5{fill:#005ac6;}.cls-6{fill:#e6e6e6;}.cls-7{fill:#656364;opacity:0.25;}.cls-8{fill:#e8edf2;}.cls-9{fill:#c5d3dd;}.cls-10{fill:#fff;}.cls-11{fill:#111;}.cls-12{fill:#e02d4b;}.cls-13{fill:#ffaa01;}.cls-14{fill:#dd3636;}.cls-15{fill:url(#Degradado_sin_nombre_4);}.cls-16{fill:url(#Degradado_sin_nombre_4-2);}.cls-17{fill:url(#Degradado_sin_nombre_4-3);}.cls-18{fill:url(#Degradado_sin_nombre_4-4);}</style><linearGradient id="Degradado_sin_nombre_4" x1="197.7" y1="119.99" x2="174.31" y2="70.59" gradientUnits="userSpaceOnUse"><stop offset="0" stop-color="#1e2349"/><stop offset="0.14" stop-color="#1e274e"/><stop offset="0.3" stop-color="#1f315b"/><stop offset="0.46" stop-color="#204371"/><stop offset="0.63" stop-color="#215c91"/><stop offset="0.81" stop-color="#237bb9"/><stop offset="0.98" stop-color="#26a2e9"/><stop offset="1" stop-color="#26a6ef"/></linearGradient><linearGradient id="Degradado_sin_nombre_4-2" x1="191.15" y1="123.09" x2="167.77" y2="73.68" xlink:href="#Degradado_sin_nombre_4"/><linearGradient id="Degradado_sin_nombre_4-3" x1="186.94" y1="125.08" x2="163.56" y2="75.67" xlink:href="#Degradado_sin_nombre_4"/><linearGradient id="Degradado_sin_nombre_4-4" x1="195.93" y1="120.83" x2="172.54" y2="71.42" xlink:href="#Degradado_sin_nombre_4"/></defs><title>Animacion-Logos</title><g id="Ãconos"><rect class="cls-1" width="360" height="220"/><g class="cls-2"><path class="cls-3" d="M250.88,45.2a6,6,0,0,1,0,3.44,6.34,6.34,0,0,1-2,3,10.42,10.42,0,0,1-3.91,2,9.8,9.8,0,0,1-5.07.33,6.58,6.58,0,0,1-2.78-1.45,4.94,4.94,0,0,1-1.59-2.29A1.8,1.8,0,0,1,236.81,48a1.6,1.6,0,0,1,1.18.08,3.36,3.36,0,0,1,1.09,1,8,8,0,0,0,1.26,1.31,3.47,3.47,0,0,0,1.52.67,4.8,4.8,0,0,0,2.18-.21,4.9,4.9,0,0,0,2.6-1.67,2.55,2.55,0,0,0,.48-2.36,2.21,2.21,0,0,0-1.06-1.39,3.93,3.93,0,0,0-1.8-.47c-.68,0-1.58,0-2.7.07a18.88,18.88,0,0,1-3.85-.1,5.85,5.85,0,0,1-2.77-1.12,4.78,4.78,0,0,1-1.67-2.57,5,5,0,0,1,0-3.11,5.77,5.77,0,0,1,2-2.67,10.77,10.77,0,0,1,3.7-1.84,10.39,10.39,0,0,1,3.22-.48,6.87,6.87,0,0,1,2.52.54,5,5,0,0,1,1.73,1.16,3.91,3.91,0,0,1,.87,1.46,2,2,0,0,1-.12,1.42,1.68,1.68,0,0,1-1.07.93,1.44,1.44,0,0,1-1.13,0,5,5,0,0,1-1.1-.88,5.25,5.25,0,0,0-1.78-1.34,3.89,3.89,0,0,0-2.57.1,4.3,4.3,0,0,0-2.26,1.41,2,2,0,0,0-.45,1.89,1.68,1.68,0,0,0,.61.91,3,3,0,0,0,1.1.47,6.17,6.17,0,0,0,1.27.14c.41,0,1.09,0,2-.06a29.53,29.53,0,0,1,3.23,0,9.09,9.09,0,0,1,2.6.45,4.66,4.66,0,0,1,2,1.24A5.52,5.52,0,0,1,250.88,45.2Z"/><path class="cls-3" d="M263.87,29.8,255,32.45l1.43,4.78,8.16-2.44a2,2,0,0,1,1.47,0,1.41,1.41,0,0,1,.76.93,1.49,1.49,0,0,1-.11,1.21,2,2,0,0,1-1.23.82l-8.17,2.45L259,45.72,268.14,43a2.15,2.15,0,0,1,1.53,0,1.55,1.55,0,0,1,.81,1,1.53,1.53,0,0,1-.13,1.26,2.11,2.11,0,0,1-1.27.85l-10.7,3.2a2.16,2.16,0,0,1-3.14-1.69L250.88,33a3.44,3.44,0,0,1-.17-1.46,1.63,1.63,0,0,1,.56-1,3.51,3.51,0,0,1,1.3-.66L263,26.77a2.07,2.07,0,0,1,1.52,0,1.46,1.46,0,0,1,.79.95,1.5,1.5,0,0,1-.13,1.25A2,2,0,0,1,263.87,29.8Z"/><path class="cls-3" d="M276.72,22.29a10.78,10.78,0,0,1,5.55-.32,8.33,8.33,0,0,1,4.33,2.5,12.53,12.53,0,0,1,2.7,5,13.5,13.5,0,0,1,.61,4.28,9.29,9.29,0,0,1-.87,3.74,8.36,8.36,0,0,1-2.38,3,12.26,12.26,0,0,1-8.16,2.42,8.45,8.45,0,0,1-3.63-1.17A9.33,9.33,0,0,1,272.08,39a13.89,13.89,0,0,1-1.83-3.88,13,13,0,0,1-.58-4.31,9.07,9.07,0,0,1,.91-3.73,8.34,8.34,0,0,1,2.37-2.9A11.21,11.21,0,0,1,276.72,22.29Zm8.58,8.33a9.63,9.63,0,0,0-1.8-3.5,5.38,5.38,0,0,0-2.67-1.77,5.66,5.66,0,0,0-3.18.07,5.55,5.55,0,0,0-2,1.1,4.9,4.9,0,0,0-1.33,1.81,6.36,6.36,0,0,0-.5,2.5,10.28,10.28,0,0,0,.47,3.09,10.55,10.55,0,0,0,1.31,2.87,6.34,6.34,0,0,0,1.85,1.87,5.19,5.19,0,0,0,2.14.8,5.7,5.7,0,0,0,2.3-.21,5.48,5.48,0,0,0,2.55-1.59,5.37,5.37,0,0,0,1.32-2.93A9.47,9.47,0,0,0,285.3,30.62Z"/><path class="cls-3" d="M319.06,59a2.27,2.27,0,0,0-.73-.8,1.64,1.64,0,0,0,.88,0,1.53,1.53,0,0,0,.7-.48,3.48,3.48,0,0,0,.55-.94,3.52,3.52,0,0,0,.27-1.1,1.83,1.83,0,0,0-.16-.91,2.09,2.09,0,0,0-.6-.74,4.05,4.05,0,0,0-1-.58l-2.14-.87L313,61.9l2.47,1a3.07,3.07,0,0,0,1.15.25,2.2,2.2,0,0,0,1-.23,2.67,2.67,0,0,0,.77-.67,4.4,4.4,0,0,0,.58-1,3.81,3.81,0,0,0,.3-1.21A2,2,0,0,0,319.06,59ZM317.7,54.1l.31.12a8.54,8.54,0,0,1,1.05.52,1,1,0,0,1,.46.61,1.83,1.83,0,0,1-.19,1,2.74,2.74,0,0,1-.49.84.94.94,0,0,1-.63.32,2.26,2.26,0,0,1-.93-.19l-.77-.32Zm-.81,7.82a1.47,1.47,0,0,1-1.33-.07l-.87-.35,1.42-3.5.77.31a2,2,0,0,1,.83.57,1.25,1.25,0,0,1,.25.8,2.76,2.76,0,0,1-.24,1A2.46,2.46,0,0,1,316.89,61.92Z"/><polygon class="cls-3" points="326.2 56.43 324.9 55.91 321.13 65.2 324.8 66.69 325.18 65.76 322.8 64.8 326.2 56.43"/><path class="cls-3" d="M335.24,60.43a3,3,0,0,0-1.34-1,3,3,0,0,0-1.64-.26,2.14,2.14,0,0,0-1.22.68,5.09,5.09,0,0,0-.88,1.48l-1.44,3.52a5.65,5.65,0,0,0-.41,1.7,2.25,2.25,0,0,0,.38,1.38A3.08,3.08,0,0,0,330,69a2.89,2.89,0,0,0,1.65.23,2.23,2.23,0,0,0,1.22-.73A4.69,4.69,0,0,0,333.8,67l1.44-3.53a4.71,4.71,0,0,0,.39-1.67A2.14,2.14,0,0,0,335.24,60.43Zm-2.86,6.28a3.9,3.9,0,0,1-.46.87,1.11,1.11,0,0,1-.59.45,1.7,1.7,0,0,1-1.57-.64,1.14,1.14,0,0,1-.12-.74,4.22,4.22,0,0,1,.28-.94l1.65-4.07a3.92,3.92,0,0,1,.45-.85,1.08,1.08,0,0,1,.6-.43,1.76,1.76,0,0,1,1.57.64,1.07,1.07,0,0,1,.12.72,4,4,0,0,1-.27.92Z"/><path class="cls-3" d="M340,68.56l1.18.48-.26.64a6.15,6.15,0,0,1-.58,1.13,1.4,1.4,0,0,1-.67.56,1.21,1.21,0,0,1-.88-.08,1.33,1.33,0,0,1-.69-.53,1.21,1.21,0,0,1-.1-.82,5.35,5.35,0,0,1,.35-1.15l1.4-3.44a8.59,8.59,0,0,1,.48-1,1.35,1.35,0,0,1,.62-.59,1.22,1.22,0,0,1,.94.07,1.35,1.35,0,0,1,.69.51,1,1,0,0,1,.1.7,5.18,5.18,0,0,1-.33,1l-.11.29,1.21.49.14-.34a4.42,4.42,0,0,0,.38-1.62,1.83,1.83,0,0,0-.41-1.21,3.24,3.24,0,0,0-1.29-.87,2.81,2.81,0,0,0-1.67-.23,2,2,0,0,0-1.2.78,6.33,6.33,0,0,0-.92,1.65l-1.27,3.11a6.09,6.09,0,0,0-.46,1.81,2.27,2.27,0,0,0,.32,1.39,2.57,2.57,0,0,0,1.24.94,1.77,1.77,0,0,0,1.22.11,2.06,2.06,0,0,0,.91-.62l-.3,1.12.81.33,1.87-4.6-2.35-1Z"/><path class="cls-3" d="M354.18,50.57,319.5,36.47a4,4,0,0,0-5.19,2.18L304.43,63a4,4,0,0,0,2.19,5.19l34.67,14.1a4,4,0,0,0,5.19-2.19l9.88-24.29A4,4,0,0,0,354.18,50.57Zm-9.36,28.81a2.2,2.2,0,0,1-2.85,1.2L307.3,66.47a2.17,2.17,0,0,1-1.2-2.84L316,39.33a2.19,2.19,0,0,1,2.84-1.2l34.68,14.1a2.2,2.2,0,0,1,1.2,2.85Z"/><path class="cls-3" d="M319.12,43.21a1.3,1.3,0,1,0-.71-1.69A1.31,1.31,0,0,0,319.12,43.21Z"/><path class="cls-3" d="M324,45.2a1.3,1.3,0,1,0-.72-1.7A1.31,1.31,0,0,0,324,45.2Z"/><path class="cls-3" d="M328.9,47.19a1.31,1.31,0,0,0,1.7-.72,1.31,1.31,0,1,0-1.7.72Z"/><rect class="cls-3" x="332.58" y="33.06" width="1.56" height="37.65" transform="translate(159.72 341.15) rotate(-67.87)"/><path class="cls-3" d="M282.06,72.9a1.9,1.9,0,0,0-1.73-.37l-26.49,7.61a1.88,1.88,0,0,0,1,3.62l23.77-6.83L277,91.12l-16.75,4.82L245.32,78a1.89,1.89,0,0,0-2-.6l-4.74,1.36a1.88,1.88,0,0,0,1,3.62l3.56-1,15,18a1.91,1.91,0,0,0,2,.61l19.14-5.51a1.89,1.89,0,0,0,1.35-1.59l2.1-18.25A1.9,1.9,0,0,0,282.06,72.9Z"/><path class="cls-3" d="M261.26,102.54a5.35,5.35,0,1,0,6.61,3.66A5.35,5.35,0,0,0,261.26,102.54Zm1.91,6.66a1.58,1.58,0,1,1,1.08-2A1.58,1.58,0,0,1,263.17,109.2Z"/><path class="cls-3" d="M278.88,97.48a5.34,5.34,0,1,0,6.62,3.66A5.35,5.35,0,0,0,278.88,97.48Zm1.92,6.65a1.58,1.58,0,1,1,1.08-1.95A1.57,1.57,0,0,1,280.8,104.13Z"/><path class="cls-3" d="M332.93,124.9a.3.3,0,0,0-.37-.1l-17.64,8.3a.3.3,0,0,0-.15.4l3.37,7.17a.31.31,0,0,0,.41.14l9.55-4.49a11.79,11.79,0,0,1-1.61,6.84h0a11.46,11.46,0,0,1-5,4.52,11.62,11.62,0,0,1-13.37-2.57h0A11.73,11.73,0,0,1,306,142a12,12,0,0,1-1-3.57h0a11.53,11.53,0,0,1,14.39-12.68.3.3,0,0,0,.36-.19l2.81-7.8a.29.29,0,0,0,0-.24.35.35,0,0,0-.18-.16,20.27,20.27,0,0,0-23.18,8.6,20.83,20.83,0,0,0,4.57,27.11h0A20.72,20.72,0,0,0,314,157.5a20.26,20.26,0,0,0,21.36-12.25,20.89,20.89,0,0,0,1-13.08,21,21,0,0,0-3.42-7.27Z"/><path class="cls-3" d="M290.74,202.77a5.18,5.18,0,0,0-5.8,2.64,5.47,5.47,0,0,0-.44,1.2A5.18,5.18,0,1,0,294.58,209a5,5,0,0,0,.13-1.49A5.21,5.21,0,0,0,290.74,202.77Z"/><path class="cls-3" d="M292.78,194.21a14,14,0,0,0-12.52,3.15.31.31,0,0,0-.06.38l3.19,5.34a.3.3,0,0,0,.19.14h0a.35.35,0,0,0,.26-.11A7.35,7.35,0,0,1,296.67,206a.28.28,0,0,0,.18.2.29.29,0,0,0,.27,0l5.23-3.31a.32.32,0,0,0,.12-.37A14,14,0,0,0,292.78,194.21Z"/><path class="cls-3" d="M294.82,185.65a22.68,22.68,0,0,0-19.1,4.07.31.31,0,0,0-.08.39l3.12,5.22a.31.31,0,0,0,.18.14h0a.32.32,0,0,0,.25-.07,16.13,16.13,0,0,1,25.08,5.85.26.26,0,0,0,.18.16.27.27,0,0,0,.25,0l5.13-3.25a.3.3,0,0,0,.11-.39A22.75,22.75,0,0,0,294.82,185.65Z"/><path class="cls-3" d="M317.42,193a31.54,31.54,0,0,0-46.23-10.89.3.3,0,0,0-.08.4l3.1,5.2a.3.3,0,0,0,.19.14h0a.29.29,0,0,0,.24-.05,24.9,24.9,0,0,1,37.12,8.71.33.33,0,0,0,.19.16.4.4,0,0,0,.24,0l5.12-3.23A.3.3,0,0,0,317.42,193Z"/><path class="cls-3" d="M21.19,34a6,6,0,0,1,0,3.44,6.25,6.25,0,0,1-2,3,10.42,10.42,0,0,1-3.91,2,9.8,9.8,0,0,1-5.07.33,6.67,6.67,0,0,1-2.78-1.44A5,5,0,0,1,5.88,39a1.8,1.8,0,0,1,1.24-2.27,1.6,1.6,0,0,1,1.18.09,3.36,3.36,0,0,1,1.09,1,8.38,8.38,0,0,0,1.26,1.31,3.35,3.35,0,0,0,1.52.66,4.54,4.54,0,0,0,2.18-.21A4.89,4.89,0,0,0,17,37.92a2.57,2.57,0,0,0,.48-2.37,2.23,2.23,0,0,0-1.06-1.39,4.06,4.06,0,0,0-1.8-.47c-.68,0-1.58,0-2.7.08A19.63,19.63,0,0,1,8,33.67a6,6,0,0,1-2.77-1.12A4.82,4.82,0,0,1,3.58,30a5,5,0,0,1,0-3.11,5.75,5.75,0,0,1,2-2.68,10.94,10.94,0,0,1,3.7-1.83,9.83,9.83,0,0,1,3.22-.48,6.68,6.68,0,0,1,2.52.53,5.15,5.15,0,0,1,1.73,1.17A3.83,3.83,0,0,1,17.6,25a1.93,1.93,0,0,1-.12,1.41,1.63,1.63,0,0,1-1.07.93,1.44,1.44,0,0,1-1.13,0,4.48,4.48,0,0,1-1.1-.88,5.21,5.21,0,0,0-1.78-1.33,3.89,3.89,0,0,0-2.57.1,4.29,4.29,0,0,0-2.26,1.4,2,2,0,0,0-.45,1.89,1.68,1.68,0,0,0,.61.91,2.82,2.82,0,0,0,1.1.47,6.17,6.17,0,0,0,1.27.14c.41,0,1.09,0,2-.06a32.27,32.27,0,0,1,3.23,0,9.09,9.09,0,0,1,2.6.45,4.86,4.86,0,0,1,2,1.24A5.59,5.59,0,0,1,21.19,34Z"/><path class="cls-3" d="M34.18,18.58l-8.87,2.65L26.74,26l8.16-2.44a2,2,0,0,1,1.47,0,1.4,1.4,0,0,1,.76.94A1.49,1.49,0,0,1,37,25.71a2,2,0,0,1-1.23.82L27.62,29l1.66,5.53,9.17-2.74a2,2,0,0,1,1.53,0,1.53,1.53,0,0,1,.81,1A1.56,1.56,0,0,1,40.66,34a2.1,2.1,0,0,1-1.27.84l-10.7,3.2a2.66,2.66,0,0,1-2,0,2.7,2.7,0,0,1-1.12-1.68L21.19,21.78A3.42,3.42,0,0,1,21,20.32a1.63,1.63,0,0,1,.56-1,3.36,3.36,0,0,1,1.3-.65l10.39-3.11a2.07,2.07,0,0,1,1.52,0,1.5,1.5,0,0,1,.79,1,1.48,1.48,0,0,1-.13,1.24A2.1,2.1,0,0,1,34.18,18.58Z"/><path class="cls-3" d="M47,11.07a10.89,10.89,0,0,1,5.55-.33,8.34,8.34,0,0,1,4.33,2.51,12.42,12.42,0,0,1,2.7,5,13.54,13.54,0,0,1,.61,4.28,9.29,9.29,0,0,1-.87,3.74,8.4,8.4,0,0,1-2.38,3,11.36,11.36,0,0,1-3.86,1.93,11.1,11.1,0,0,1-4.3.49,8.6,8.6,0,0,1-3.63-1.18,9.21,9.21,0,0,1-2.79-2.68,13.76,13.76,0,0,1-1.83-3.88,12.9,12.9,0,0,1-.58-4.3,9.12,9.12,0,0,1,.91-3.74A8.43,8.43,0,0,1,43.26,13,11,11,0,0,1,47,11.07Zm8.58,8.32a9.58,9.58,0,0,0-1.8-3.49,5.34,5.34,0,0,0-2.67-1.78A5.66,5.66,0,0,0,48,14.2a5.53,5.53,0,0,0-2.05,1.09,5,5,0,0,0-1.33,1.81,6.41,6.41,0,0,0-.5,2.51,10.37,10.37,0,0,0,.47,3.09,10.69,10.69,0,0,0,1.31,2.87,6.47,6.47,0,0,0,1.85,1.87,5.17,5.17,0,0,0,2.14.79,5.37,5.37,0,0,0,2.3-.21,5.48,5.48,0,0,0,2.55-1.59A5.34,5.34,0,0,0,56,23.5,9.49,9.49,0,0,0,55.61,19.39Z"/><path class="cls-3" d="M79.71,33.75A2.19,2.19,0,0,0,79,33a1.44,1.44,0,0,0,1.58-.49,3.41,3.41,0,0,0,.55-.93,3.52,3.52,0,0,0,.27-1.1,1.83,1.83,0,0,0-.16-.91,2,2,0,0,0-.6-.74,4.24,4.24,0,0,0-1-.59l-2.14-.86-3.78,9.29,2.48,1a3,3,0,0,0,1.15.24,2,2,0,0,0,1-.23A2.28,2.28,0,0,0,79,37a4.63,4.63,0,0,0,.59-1,3.58,3.58,0,0,0,.29-1.21A1.91,1.91,0,0,0,79.71,33.75Zm-1.36-4.93.31.12a6.39,6.39,0,0,1,1,.52,1,1,0,0,1,.46.6,1.82,1.82,0,0,1-.19,1,2.89,2.89,0,0,1-.49.85.94.94,0,0,1-.64.32,2.12,2.12,0,0,1-.92-.2l-.77-.31Zm-.81,7.82a1.47,1.47,0,0,1-1.33-.07l-.87-.35,1.42-3.5.77.31a1.93,1.93,0,0,1,.83.57,1.29,1.29,0,0,1,.25.8,2.8,2.8,0,0,1-.24,1A2.51,2.51,0,0,1,77.54,36.64Z"/><polygon class="cls-3" points="86.85 31.15 85.55 30.62 81.78 39.92 85.45 41.41 85.82 40.48 83.45 39.51 86.85 31.15"/><path class="cls-3" d="M95.89,35.15a2.89,2.89,0,0,0-1.34-1,3,3,0,0,0-1.64-.26,2.14,2.14,0,0,0-1.22.68,4.76,4.76,0,0,0-.88,1.48l-1.44,3.52a5.31,5.31,0,0,0-.41,1.7,2.19,2.19,0,0,0,.38,1.38,2.93,2.93,0,0,0,1.35,1,2.82,2.82,0,0,0,1.65.24,2.26,2.26,0,0,0,1.22-.73,5,5,0,0,0,.89-1.48l1.44-3.54a4.67,4.67,0,0,0,.39-1.67A2.19,2.19,0,0,0,95.89,35.15ZM93,41.43a4.14,4.14,0,0,1-.46.87,1.1,1.1,0,0,1-.6.45,1.31,1.31,0,0,1-.86-.11,1.34,1.34,0,0,1-.7-.53,1.14,1.14,0,0,1-.12-.74,4,4,0,0,1,.27-.94l1.66-4.07a4.27,4.27,0,0,1,.45-.86,1.08,1.08,0,0,1,.6-.42,1.43,1.43,0,0,1,.87.12,1.38,1.38,0,0,1,.69.51,1,1,0,0,1,.13.72,3.94,3.94,0,0,1-.27.93Z"/><path class="cls-3" d="M100.6,43.28l1.18.48-.26.64a6.5,6.5,0,0,1-.58,1.13,1.4,1.4,0,0,1-.67.56,1.26,1.26,0,0,1-.88-.08,1.3,1.3,0,0,1-.69-.53,1.17,1.17,0,0,1-.1-.82A5.19,5.19,0,0,1,99,43.51l1.4-3.45a10.51,10.51,0,0,1,.48-1,1.32,1.32,0,0,1,.62-.58,1.19,1.19,0,0,1,.93.07,1.33,1.33,0,0,1,.7.5,1,1,0,0,1,.1.71,5.93,5.93,0,0,1-.33,1l-.11.28,1.21.5.14-.35a4.37,4.37,0,0,0,.38-1.61,1.88,1.88,0,0,0-.41-1.21,3.24,3.24,0,0,0-1.29-.87,2.91,2.91,0,0,0-1.67-.24,2.11,2.11,0,0,0-1.2.79A6.33,6.33,0,0,0,99,39.73l-1.27,3.11a6.09,6.09,0,0,0-.46,1.81A2.28,2.28,0,0,0,97.57,46a2.53,2.53,0,0,0,1.24.94,1.74,1.74,0,0,0,1.21.1,2.07,2.07,0,0,0,.92-.61l-.3,1.12.81.33,1.87-4.6-2.35-1Z"/><path class="cls-3" d="M114.82,25.28,80.15,11.18A4,4,0,0,0,75,13.37l-9.88,24.3a4,4,0,0,0,2.19,5.19L101.94,57a4,4,0,0,0,5.19-2.19L117,30.47A4,4,0,0,0,114.82,25.28Zm-9.35,28.81a2.18,2.18,0,0,1-2.85,1.2L68,41.19a2.17,2.17,0,0,1-1.2-2.84l9.88-24.3a2.18,2.18,0,0,1,2.84-1.2L114.15,27a2.2,2.2,0,0,1,1.2,2.85Z"/><path class="cls-3" d="M79.77,17.93a1.3,1.3,0,1,0-.71-1.7A1.31,1.31,0,0,0,79.77,17.93Z"/><path class="cls-3" d="M84.66,19.92a1.3,1.3,0,1,0-.72-1.7A1.3,1.3,0,0,0,84.66,19.92Z"/><path class="cls-3" d="M89.55,21.91a1.31,1.31,0,1,0-.72-1.7A1.3,1.3,0,0,0,89.55,21.91Z"/><rect class="cls-3" x="93.23" y="7.78" width="1.56" height="37.65" transform="translate(33.95 103.67) rotate(-67.87)"/><path class="cls-3" d="M52.37,61.68a1.88,1.88,0,0,0-1.73-.38L24.15,68.92a1.88,1.88,0,1,0,1,3.61L49,65.7,47.33,79.9,30.58,84.71,15.63,66.77a1.89,1.89,0,0,0-2-.61L8.92,67.53a1.88,1.88,0,1,0,1,3.61l3.56-1,15,17.94a1.89,1.89,0,0,0,2,.61l19.14-5.5a1.89,1.89,0,0,0,1.35-1.6L53,63.33A1.88,1.88,0,0,0,52.37,61.68Z"/><path class="cls-3" d="M31.57,91.32A5.34,5.34,0,1,0,38.18,95,5.34,5.34,0,0,0,31.57,91.32ZM33.48,98a1.57,1.57,0,0,1-2-1.08,1.58,1.58,0,1,1,3-.87A1.57,1.57,0,0,1,33.48,98Z"/><path class="cls-3" d="M49.19,86.25a5.34,5.34,0,1,0,6.61,3.66A5.36,5.36,0,0,0,49.19,86.25Zm1.92,6.66a1.58,1.58,0,1,1,1.08-2A1.59,1.59,0,0,1,51.11,92.91Z"/><path class="cls-3" d="M76.65,128.1a.31.31,0,0,0-.38-.1l-17.63,8.3a.3.3,0,0,0-.15.41l3.37,7.16a.3.3,0,0,0,.41.14l9.55-4.49a11.8,11.8,0,0,1-1.62,6.84h0a11.35,11.35,0,0,1-5,4.52,11.59,11.59,0,0,1-13.36-2.57h0a11.82,11.82,0,0,1-2.12-3.11,11.59,11.59,0,0,1-1-3.58h0a11.52,11.52,0,0,1,14.38-12.68.3.3,0,0,0,.37-.19l2.81-7.8a.32.32,0,0,0-.2-.4,20.27,20.27,0,0,0-23.17,8.6,20.83,20.83,0,0,0,4.57,27.11h0a20.56,20.56,0,0,0,10.26,4.44,20.26,20.26,0,0,0,21.36-12.25,20.85,20.85,0,0,0-2.43-20.35Z"/><path class="cls-3" d="M29.52,202a5.18,5.18,0,0,0-5.8,2.64,5.21,5.21,0,0,0,3.39,7.44,5.18,5.18,0,0,0,6.25-3.84,4.9,4.9,0,0,0,.13-1.48A5.2,5.2,0,0,0,29.52,202Z"/><path class="cls-3" d="M31.56,193.43A14,14,0,0,0,19,196.58.29.29,0,0,0,19,197l3.19,5.34a.3.3,0,0,0,.19.14h0a.32.32,0,0,0,.26-.1,7.35,7.35,0,0,1,12.79,2.89.28.28,0,0,0,.18.2.32.32,0,0,0,.27,0l5.23-3.32a.3.3,0,0,0,.12-.36A14,14,0,0,0,31.56,193.43Z"/><path class="cls-3" d="M33.6,184.87a22.71,22.71,0,0,0-19.1,4.06.31.31,0,0,0-.08.4l3.12,5.21a.31.31,0,0,0,.18.14h0a.32.32,0,0,0,.25-.07,16.14,16.14,0,0,1,25.08,5.84.3.3,0,0,0,.18.17.31.31,0,0,0,.25,0l5.13-3.25a.3.3,0,0,0,.11-.39A22.73,22.73,0,0,0,33.6,184.87Z"/><path class="cls-3" d="M56.2,192.23A31.54,31.54,0,0,0,10,181.34a.3.3,0,0,0-.08.4l3.1,5.2a.3.3,0,0,0,.19.14h0a.34.34,0,0,0,.24-.06,24.91,24.91,0,0,1,37.12,8.72.32.32,0,0,0,.19.15.33.33,0,0,0,.24,0l5.12-3.23A.3.3,0,0,0,56.2,192.23Z"/><path class="cls-3" d="M121,67.84a5.85,5.85,0,0,1,0,3.44,6.27,6.27,0,0,1-2,3,10.34,10.34,0,0,1-3.91,2,9.8,9.8,0,0,1-5.07.33,6.73,6.73,0,0,1-2.78-1.44,4.91,4.91,0,0,1-1.58-2.3,1.73,1.73,0,0,1,.13-1.37,1.76,1.76,0,0,1,1.11-.89,1.57,1.57,0,0,1,1.17.08,3.26,3.26,0,0,1,1.09,1A7.69,7.69,0,0,0,110.49,73a3.41,3.41,0,0,0,1.52.66,5.61,5.61,0,0,0,4.77-1.88,2.55,2.55,0,0,0,.49-2.36A2.27,2.27,0,0,0,116.21,68a4,4,0,0,0-1.8-.47c-.69,0-1.59,0-2.7.07a18.86,18.86,0,0,1-3.85-.1,5.79,5.79,0,0,1-2.78-1.12,4.84,4.84,0,0,1-1.67-2.56,5.11,5.11,0,0,1,0-3.12,5.84,5.84,0,0,1,2-2.67,10.68,10.68,0,0,1,3.7-1.83,9.85,9.85,0,0,1,3.23-.48,6.68,6.68,0,0,1,2.52.53,5.35,5.35,0,0,1,1.72,1.16,3.66,3.66,0,0,1,.87,1.46,2,2,0,0,1-.12,1.42,1.68,1.68,0,0,1-1.07.93,1.45,1.45,0,0,1-1.13,0,4.72,4.72,0,0,1-1.09-.88A5.12,5.12,0,0,0,112.23,59a3.88,3.88,0,0,0-2.57.09,4.4,4.4,0,0,0-2.26,1.41A2,2,0,0,0,107,62.4a1.7,1.7,0,0,0,.62.91,2.78,2.78,0,0,0,1.09.47,6.25,6.25,0,0,0,1.27.14c.42,0,1.09,0,2-.06a29.56,29.56,0,0,1,3.23,0,9.16,9.16,0,0,1,2.61.45,4.82,4.82,0,0,1,2,1.24A5.57,5.57,0,0,1,121,67.84Z"/><path class="cls-3" d="M134,52.44l-8.87,2.66,1.43,4.77,8.17-2.44a2,2,0,0,1,1.46,0,1.45,1.45,0,0,1,.77.93,1.48,1.48,0,0,1-.12,1.21,2,2,0,0,1-1.23.83l-8.16,2.44,1.65,5.53,9.18-2.75a2.07,2.07,0,0,1,1.52,0,1.55,1.55,0,0,1,.82,1,1.53,1.53,0,0,1-.14,1.26,2.08,2.08,0,0,1-1.27.85L128.52,72a2.15,2.15,0,0,1-3.13-1.69L121,55.65a3.41,3.41,0,0,1-.16-1.46,1.62,1.62,0,0,1,.55-1,3.44,3.44,0,0,1,1.3-.65l10.4-3.11a2.07,2.07,0,0,1,1.52,0,1.42,1.42,0,0,1,.78,1,1.5,1.5,0,0,1-.12,1.25A2.07,2.07,0,0,1,134,52.44Z"/><path class="cls-3" d="M146.86,44.93a10.82,10.82,0,0,1,5.56-.32,8.28,8.28,0,0,1,4.32,2.51,12.42,12.42,0,0,1,2.7,5,13.81,13.81,0,0,1,.62,4.28,9.14,9.14,0,0,1-.88,3.74,8.27,8.27,0,0,1-2.38,3A11.31,11.31,0,0,1,153,65a11.13,11.13,0,0,1-4.31.48A8.45,8.45,0,0,1,145,64.32a9.22,9.22,0,0,1-2.79-2.68,13.35,13.35,0,0,1-1.83-3.88,13,13,0,0,1-.59-4.31,9.23,9.23,0,0,1,.91-3.73,8.34,8.34,0,0,1,2.37-2.9A11.4,11.4,0,0,1,146.86,44.93Zm8.58,8.33a9.42,9.42,0,0,0-1.79-3.49A5.36,5.36,0,0,0,151,48a5.62,5.62,0,0,0-3.17.07,5.55,5.55,0,0,0-2.05,1.1A5,5,0,0,0,144.41,51a6.38,6.38,0,0,0-.49,2.51,10,10,0,0,0,.47,3.08,10.13,10.13,0,0,0,1.31,2.87,6.32,6.32,0,0,0,1.84,1.87,5.23,5.23,0,0,0,2.15.8,5.72,5.72,0,0,0,2.3-.21,5.59,5.59,0,0,0,2.55-1.59,5.4,5.4,0,0,0,1.31-2.93A9.34,9.34,0,0,0,155.44,53.26Z"/><path class="cls-3" d="M195.92,77.64a2.11,2.11,0,0,0-.73-.8,1.54,1.54,0,0,0,.88,0,1.48,1.48,0,0,0,.7-.48,3.18,3.18,0,0,0,.55-.93,3.59,3.59,0,0,0,.27-1.1,1.87,1.87,0,0,0-.16-.92,2.18,2.18,0,0,0-.6-.74,4.38,4.38,0,0,0-1-.58l-2.13-.87-3.78,9.3,2.48,1a3,3,0,0,0,1.15.25,2.06,2.06,0,0,0,1-.23,2.38,2.38,0,0,0,.77-.66,4.47,4.47,0,0,0,.58-1,3.76,3.76,0,0,0,.3-1.2A1.9,1.9,0,0,0,195.92,77.64Zm-1.36-4.94.31.13a7.41,7.41,0,0,1,1,.51,1,1,0,0,1,.46.61,1.89,1.89,0,0,1-.18,1,2.9,2.9,0,0,1-.49.84.94.94,0,0,1-.64.33,2.14,2.14,0,0,1-.93-.2l-.76-.31Zm-.81,7.82a1.43,1.43,0,0,1-1.33-.06l-.87-.36L193,76.6l.77.32a1.79,1.79,0,0,1,.83.57,1.16,1.16,0,0,1,.25.8,2.8,2.8,0,0,1-.24,1A2.47,2.47,0,0,1,193.75,80.52Z"/><polygon class="cls-3" points="203.06 75.04 201.77 74.51 197.99 83.8 201.66 85.3 202.04 84.37 199.66 83.4 203.06 75.04"/><path class="cls-3" d="M212.11,79a2.87,2.87,0,0,0-1.35-1,2.9,2.9,0,0,0-1.64-.26,2.09,2.09,0,0,0-1.21.68A4.65,4.65,0,0,0,207,80l-1.43,3.52a5.05,5.05,0,0,0-.41,1.7,2.13,2.13,0,0,0,.37,1.37,2.91,2.91,0,0,0,1.36,1,2.77,2.77,0,0,0,1.64.23,2.18,2.18,0,0,0,1.22-.72,4.81,4.81,0,0,0,.89-1.48L212.1,82a4.71,4.71,0,0,0,.39-1.67A2.1,2.1,0,0,0,212.11,79Zm-2.87,6.28a4.56,4.56,0,0,1-.45.86,1.19,1.19,0,0,1-.6.46,1.34,1.34,0,0,1-.87-.11,1.38,1.38,0,0,1-.7-.53,1.15,1.15,0,0,1-.12-.74,4.45,4.45,0,0,1,.28-.94l1.65-4.08a4.44,4.44,0,0,1,.46-.85,1.05,1.05,0,0,1,.59-.42,1.4,1.4,0,0,1,.87.11,1.43,1.43,0,0,1,.7.52,1.09,1.09,0,0,1,.12.72,4.23,4.23,0,0,1-.27.93Z"/><path class="cls-3" d="M216.81,87.17l1.18.48-.26.64a5.87,5.87,0,0,1-.58,1.13,1.46,1.46,0,0,1-.67.56,1.26,1.26,0,0,1-.88-.08,1.4,1.4,0,0,1-.69-.54,1.19,1.19,0,0,1-.1-.81,6.18,6.18,0,0,1,.36-1.16l1.4-3.44a7.19,7.19,0,0,1,.48-1,1.38,1.38,0,0,1,.61-.59,1.23,1.23,0,0,1,.94.08,1.42,1.42,0,0,1,.7.5,1,1,0,0,1,.09.71,5.47,5.47,0,0,1-.32,1L219,85l1.22.5.14-.35a4.54,4.54,0,0,0,.37-1.62,1.8,1.8,0,0,0-.41-1.21,3.12,3.12,0,0,0-1.28-.86,2.93,2.93,0,0,0-1.68-.24,2.14,2.14,0,0,0-1.2.79,6.64,6.64,0,0,0-.92,1.65l-1.26,3.11a5.75,5.75,0,0,0-.46,1.8,2.23,2.23,0,0,0,.31,1.4,2.57,2.57,0,0,0,1.24.94,1.77,1.77,0,0,0,1.22.1,2.13,2.13,0,0,0,.92-.61l-.31,1.11.81.34,1.87-4.6-2.35-1Z"/><path class="cls-3" d="M231,69.17l-34.68-14.1a4,4,0,0,0-5.19,2.19l-9.88,24.3a4,4,0,0,0,2.19,5.19l34.68,14.1a4,4,0,0,0,5.19-2.19l9.88-24.3A4,4,0,0,0,231,69.17ZM221.68,98a2.18,2.18,0,0,1-2.85,1.2l-34.67-14.1a2.19,2.19,0,0,1-1.2-2.85l9.88-24.29a2.18,2.18,0,0,1,2.85-1.2l34.67,14.1a2.18,2.18,0,0,1,1.2,2.84Z"/><path class="cls-3" d="M196,61.82a1.3,1.3,0,1,0-.72-1.7A1.3,1.3,0,0,0,196,61.82Z"/><path class="cls-3" d="M200.87,63.81a1.31,1.31,0,1,0-.71-1.7A1.3,1.3,0,0,0,200.87,63.81Z"/><path class="cls-3" d="M205.76,65.79a1.3,1.3,0,1,0-.71-1.69A1.28,1.28,0,0,0,205.76,65.79Z"/><rect class="cls-3" x="209.44" y="51.67" width="1.56" height="37.65" transform="translate(65.73 238.68) rotate(-67.87)"/><path class="cls-3" d="M131.42,173a1.89,1.89,0,0,0-1.74-.37l-26.48,7.61a1.88,1.88,0,0,0,1,3.62L128,177l-1.63,14.19-16.76,4.82-15-18a1.87,1.87,0,0,0-2-.6L88,178.86a1.88,1.88,0,0,0,1,3.62l3.57-1,15,18a1.86,1.86,0,0,0,2,.6l19.14-5.5a1.86,1.86,0,0,0,1.35-1.59l2.1-18.25A1.89,1.89,0,0,0,131.42,173Z"/><path class="cls-3" d="M110.61,202.65a5.35,5.35,0,1,0,6.61,3.66A5.36,5.36,0,0,0,110.61,202.65Zm1.91,6.66a1.58,1.58,0,1,1,1.09-2A1.58,1.58,0,0,1,112.52,209.31Z"/><path class="cls-3" d="M128.24,197.59a5.34,5.34,0,1,0,6.61,3.66A5.34,5.34,0,0,0,128.24,197.59Zm1.91,6.65a1.58,1.58,0,1,1,1.08-2A1.58,1.58,0,0,1,130.15,204.24Z"/><path class="cls-3" d="M225.33,180.28a.3.3,0,0,0-.38-.09l-17.64,8.29a.3.3,0,0,0-.14.41l3.37,7.16a.3.3,0,0,0,.4.15l9.56-4.5a11.83,11.83,0,0,1-1.62,6.85h0a11.54,11.54,0,0,1-18.34,1.94h0a11.89,11.89,0,0,1-2.12-3.11,12.16,12.16,0,0,1-1-3.58h0a11.53,11.53,0,0,1,14.39-12.68.31.31,0,0,0,.37-.19l2.8-7.8a.29.29,0,0,0,0-.24.3.3,0,0,0-.18-.15,20.24,20.24,0,0,0-23.18,8.6,20.84,20.84,0,0,0,4.57,27.1h0a20.63,20.63,0,0,0,10.27,4.44,20.22,20.22,0,0,0,21.36-12.25,20.77,20.77,0,0,0-.38-16.88A21.24,21.24,0,0,0,225.33,180.28Z"/><path class="cls-3" d="M177.48,37a5.18,5.18,0,0,0-5.8,2.64,5.33,5.33,0,0,0-.45,1.2,5.19,5.19,0,1,0,10.09,2.41,5.34,5.34,0,0,0,.13-1.49A5.22,5.22,0,0,0,177.48,37Z"/><path class="cls-3" d="M179.52,28.41A14,14,0,0,0,167,31.56a.29.29,0,0,0-.06.38l3.18,5.34a.33.33,0,0,0,.19.14h.05a.33.33,0,0,0,.25-.11,7.35,7.35,0,0,1,12.79,2.89.3.3,0,0,0,.18.2.31.31,0,0,0,.28,0l5.23-3.31a.32.32,0,0,0,.12-.37A14,14,0,0,0,179.52,28.41Z"/><path class="cls-3" d="M181.56,19.85a22.67,22.67,0,0,0-19.1,4.07.3.3,0,0,0-.08.39l3.11,5.22a.3.3,0,0,0,.19.14h0a.29.29,0,0,0,.24-.07A16.13,16.13,0,0,1,191,35.45a.3.3,0,0,0,.19.16.28.28,0,0,0,.25,0l5.13-3.25a.3.3,0,0,0,.11-.39A22.75,22.75,0,0,0,181.56,19.85Z"/><path class="cls-3" d="M204.16,27.21a31.54,31.54,0,0,0-46.23-10.89.3.3,0,0,0-.08.4l3.1,5.2a.3.3,0,0,0,.19.14h0a.3.3,0,0,0,.24,0,24.91,24.91,0,0,1,37.12,8.71.33.33,0,0,0,.19.16.4.4,0,0,0,.24,0l5.12-3.23A.31.31,0,0,0,204.16,27.21Z"/></g><path class="cls-4" d="M290.94,44V170.8H69.06V44a6.5,6.5,0,0,1,6.25-6.7H284.69A6.5,6.5,0,0,1,290.94,44Z"/><path d="M290.94,172.25H69.06a1.6,1.6,0,0,1-1.72-1.45V44a8.07,8.07,0,0,1,8-8.15H284.69a8.07,8.07,0,0,1,8,8.15V170.8A1.6,1.6,0,0,1,290.94,172.25Zm-220.16-2.9H289.22V44c0-2.85-2.08-5.25-4.53-5.25H75.31c-2.45,0-4.53,2.4-4.53,5.25Z"/><rect class="cls-5" x="80.44" y="46.96" width="199.11" height="113.41" rx="2.18"/><path class="cls-6" d="M308.59,170.8c-1.64,6.79-8.8,11.95-17.33,11.95H68.74c-8.53,0-15.69-5.16-17.33-11.95Z"/><path d="M291.26,184.2H68.74c-9.19,0-17.19-5.51-19-13.11a1.29,1.29,0,0,1,.36-1.21,1.82,1.82,0,0,1,1.33-.53H308.59a1.82,1.82,0,0,1,1.33.53,1.29,1.29,0,0,1,.36,1.21C308.45,178.69,300.45,184.2,291.26,184.2ZM53.67,172.25c2.2,5.34,8.24,9.05,15.07,9.05H291.26c6.83,0,12.87-3.71,15.07-9.05Z"/><path class="cls-7" d="M204.41,171.75v.46c0,2.38-2.31,4.33-5.13,4.33H160.72c-2.82,0-5.13-1.95-5.13-4.33v-.46a3.75,3.75,0,0,1,.13-.95h48.56A3.75,3.75,0,0,1,204.41,171.75Z"/><path class="cls-8" d="M240.81,125.92H119.19c-5.22,0-9.44-3.69-9.44-8.23V62.22c0-4.55,4.22-8.23,9.44-8.23H240.82c5.21,0,9.43,3.68,9.43,8.23v55.47c0,4.54-4.22,8.23-9.44,8.23Z"/><path class="cls-9" d="M240.82,54h-8c5.21,0,9.44,3.68,9.44,8.23v55.47c0,4.54-4.23,8.23-9.44,8.23h8c5.21,0,9.43-3.69,9.43-8.23V62.22C250.25,57.67,246,54,240.82,54Z"/><path d="M240.81,51.8H119.19c-6.59,0-12,4.67-12,10.42v55.47c0,5.74,5.37,10.42,12,10.42h17a2.21,2.21,0,1,0,0-4.38h-17c-3.82,0-6.93-2.71-6.93-6V62.22c0-3.33,3.11-6,6.93-6H240.81c3.82,0,6.93,2.71,6.93,6v55.47c0,3.33-3.11,6-6.93,6H146.22a2.21,2.21,0,1,0,0,4.38h94.59c6.59,0,12-4.68,12-10.42V62.22c0-5.75-5.37-10.42-12-10.42Z"/><path class="cls-10" d="M124.83,141l-10.52-6.27a1.08,1.08,0,0,0-1.07,0,1.06,1.06,0,0,0-.53.92V148.2a1.06,1.06,0,0,0,.53.92,1.13,1.13,0,0,0,.53.14,1.08,1.08,0,0,0,.54-.15l10.52-6.27a1,1,0,0,0,0-1.81Z"/><path class="cls-11" d="M113.77,150.79a2.57,2.57,0,0,1-2.59-2.59V135.67a2.59,2.59,0,0,1,3.91-2.23l10.53,6.27a2.59,2.59,0,0,1,0,4.45l-10.53,6.27A2.57,2.57,0,0,1,113.77,150.79Zm.47-14.28v10.86l9.12-5.43Zm9.81,5.84h0Zm0,0h0Z"/><path class="cls-12" d="M192,136.61v9.83H134a2,2,0,0,1-2-2v-5.78a2,2,0,0,1,2-2Z"/><rect class="cls-13" x="131.97" y="136.61" width="60.01" height="9.83" rx="2.02"/><path class="cls-5" d="M163.48,126.9l-3,2.49a3.34,3.34,0,0,1-4.27,0l-3-2.49a1.68,1.68,0,0,1-.6-1.28V118a1.66,1.66,0,0,1,1.66-1.67h8.1a1.66,1.66,0,0,1,1.66,1.67v7.59a1.67,1.67,0,0,1-.59,1.28Z"/><path d="M160.43,134.54v-2.72a6.55,6.55,0,0,0,1.4-.85l3-2.5a3.65,3.65,0,0,0,1.33-2.85V118a3.74,3.74,0,0,0-3.71-3.73h-8.11a3.74,3.74,0,0,0-3.72,3.73v7.6a3.72,3.72,0,0,0,1.33,2.85l3,2.5a5.89,5.89,0,0,0,1.4.85v2.72H134a4.09,4.09,0,0,0-4.08,4.1v5.78A4.08,4.08,0,0,0,134,148.5h22.31v4.95a2.06,2.06,0,1,0,4.12,0V148.5H192v-14Zm29.48,9.85H160.43v-5.72h29.48ZM134,138.67h22.27v5.72H134Zm20.67-13.25v-7H162v7l-2.85,2.39a1.2,1.2,0,0,1-.81.3h0a1.23,1.23,0,0,1-.8-.3Z"/><path d="M244.73,134.54H192v14h52.75a4.09,4.09,0,0,0,4.09-4.08v-5.78A4.1,4.1,0,0,0,244.73,134.54Zm0,9.85H230v-5.72H244.7Z"/><rect class="cls-14" x="193.98" y="138.67" width="50.72" height="5.72"/><path class="cls-15" d="M164.89,73.16a23.18,23.18,0,0,0-6.32,9.9,22.77,22.77,0,0,0,2.32,4.82,22.32,22.32,0,0,0,2.49,3.24,6.11,6.11,0,0,1,2.56-3.39c2.6-1.47,5,.59,10.1,1.29a24.76,24.76,0,0,0,12-1.37,22.62,22.62,0,0,0,7.57-4.83,21.53,21.53,0,0,0,3.86-5.11c-.69-1.08-6.09-9.19-16.62-10.39A23.82,23.82,0,0,0,164.89,73.16Zm25.53-1a1.66,1.66,0,1,1-1.65,1.65A1.65,1.65,0,0,1,190.42,72.18Z"/><path class="cls-16" d="M163.35,71.36a24.24,24.24,0,0,1,12.24-4.55,23.65,23.65,0,0,1,5.63-.46,23,23,0,0,1,5.53.91c-.72-.54-10.74-8-22.82-3.71-11.09,3.92-14.59,14.42-15,15.6A3.44,3.44,0,0,0,155.56,81,24.19,24.19,0,0,1,163.35,71.36Z"/><path class="cls-17" d="M168.85,94.81a8.77,8.77,0,0,0,3.24-2.27,8.6,8.6,0,0,0,1.77-3.06l-3.45-1.17a8.59,8.59,0,0,1-.1,3.31A8.92,8.92,0,0,1,168.85,94.81Z"/><path class="cls-18" d="M210.49,96.28a23.2,23.2,0,0,0-9.09-13.55,22.77,22.77,0,0,1-43.17,1.52c-1,3.46-1.68,13.89,4.64,22,10.32,13.17,27.8,14.87,45.59,5.71A23.08,23.08,0,0,0,210.49,96.28Z"/></g></svg>