<svg id="Capa_1" data-name="Capa 1" xmlns="http://www.w3.org/2000/svg" viewBox="0 0 475 356.25"><defs><style>.cls-1{fill:#21201e;}.cls-2{fill:#165c82;}.cls-3{fill:#e8edf2;}.cls-4{fill:#e62117;}.cls-5{fill:#f4d100;}.cls-6{fill:#7daf35;}.cls-7{fill:#aaa;}.cls-8{fill:#ff9100;}.cls-9{fill:#0c0c0c;}.cls-10{fill:#161616;}.cls-11{fill:#f9f9f9;}.cls-12{fill:#d1d2d4;}.cls-13{fill:#e6e6e6;}.cls-14{fill:#656364;opacity:0.15;}.cls-15{fill:none;}</style></defs><title>DisenoPaginasWebResponsive</title><path class="cls-1" d="M426.44,15.53V90.38H343.61a10.17,10.17,0,0,0-10.16,10.16v139H6.94v-224A8.56,8.56,0,0,1,15.49,7h402.4A8.57,8.57,0,0,1,426.44,15.53Z"/><path class="cls-1" d="M426.44,111.66v2.84H349.91c-1.37,0-2.49,1.59-2.49,3.55V239.56h-2V118.05c0-3.52,2-6.39,4.49-6.39Z"/><path d="M426.44,111.66v2.84h6.94v-2.84Zm-81,184.18v6.94h2v-6.94Zm0-56.28v6.94h2v-6.94Z"/><path class="cls-2" d="M417.22,53.42v37H343.61a10.17,10.17,0,0,0-10.16,10.16V226.83H16.17V53.42Z"/><path class="cls-2" d="M417.22,111.66v2.84H349.91c-1.37,0-2.49,1.59-2.49,3.55V226.83h-2V118.05c0-3.52,2-6.39,4.49-6.39Z"/><rect class="cls-3" x="16.17" y="18.18" width="401.05" height="35.24"/><circle class="cls-4" cx="36.64" cy="35.8" r="7.66"/><circle class="cls-5" cx="60.47" cy="35.8" r="7.66"/><circle class="cls-6" cx="84.3" cy="35.8" r="7.66"/><rect class="cls-7" x="216.52" y="28.14" width="187.89" height="15.32" rx="7.66"/><rect class="cls-8" x="36.66" y="70.82" width="236.16" height="115.61" rx="3.49"/><path class="cls-9" d="M269.33,187.92H40.15a5,5,0,0,1-5-5V74.31a5,5,0,0,1,5-5H269.33a5,5,0,0,1,5,5V182.93A5,5,0,0,1,269.33,187.92ZM40.15,72.32a2,2,0,0,0-2,2V182.93a2,2,0,0,0,2,2H269.33a2,2,0,0,0,2-2V74.31a2,2,0,0,0-2-2Z"/><rect class="cls-9" x="36.16" y="198.96" width="119.58" height="11.97" rx="5.98"/><path class="cls-10" d="M398.23,89.22a4.91,4.91,0,0,1-.14,1.16H343.61a10.17,10.17,0,0,0-7.87,3.74H292.57a4.91,4.91,0,0,1-4.9-4.9,4.92,4.92,0,0,1,4.9-4.9H393.33A4.91,4.91,0,0,1,398.23,89.22Z"/><rect class="cls-10" x="287.66" y="103.41" width="41.69" height="9.8" rx="4.9"/><path class="cls-10" d="M333.45,122.5v9.81H292.57a4.91,4.91,0,0,1,0-9.81Z"/><rect class="cls-10" x="345.42" y="122.5" width="2" height="9.81"/><path class="cls-10" d="M333.45,141.59v9.81H292.57a4.91,4.91,0,0,1,0-9.81Z"/><rect class="cls-10" x="345.42" y="141.59" width="2" height="9.81"/><rect class="cls-10" x="287.66" y="160.68" width="32.82" height="9.8" rx="4.9"/><circle class="cls-11" cx="268.15" cy="204.76" r="6.17"/><circle class="cls-11" cx="246.46" cy="204.76" r="6.17"/><polygon class="cls-12" points="270.95 332.63 162.43 332.63 169.57 302.78 263.81 302.78 270.95 332.63"/><path class="cls-13" d="M229.68,271.17a13,13,0,1,1-13-13A13,13,0,0,1,229.68,271.17Z"/><path class="cls-13" d="M345.42,246.5v49.34h2V246.5Zm-338.48,0v40.79a8.55,8.55,0,0,0,8.55,8.55h318V246.5Zm209.75,37.67a13,13,0,1,1,13-13A13,13,0,0,1,216.69,284.17Z"/><path class="cls-13" d="M306.46,341.78a7.54,7.54,0,0,1-7.53,7.53H134.45a7.53,7.53,0,0,1-7.2-9.74H306.13A7.49,7.49,0,0,1,306.46,341.78Z"/><path class="cls-14" d="M229.68,271.17a13,13,0,1,1-13-13A13,13,0,0,1,229.68,271.17Z"/><line class="cls-15" x1="469.7" y1="347.51" x2="468.09" y2="344.37"/><path d="M464.84,90.38H433.38V15.53A15.51,15.51,0,0,0,417.89,0H15.49A15.51,15.51,0,0,0,0,15.53V287.29a15.51,15.51,0,0,0,15.49,15.49h147l-7.14,29.85H125a3.5,3.5,0,0,0-3,1.67,14.48,14.48,0,0,0,12.38,21.95H298.93a14.48,14.48,0,0,0,14.47-14.47,14.33,14.33,0,0,0-2.1-7.48,3.48,3.48,0,0,0-3-1.67H278.08l-7.14-29.85h62.51v43.31a10.19,10.19,0,0,0,10.16,10.16H464.84A10.19,10.19,0,0,0,475,346.09V100.54A10.19,10.19,0,0,0,464.84,90.38ZM306.13,339.57a7.53,7.53,0,0,1-7.2,9.74H134.45a7.53,7.53,0,0,1-7.2-9.74ZM271,332.63H162.43l7.14-29.85h94.24Zm62.5-36.79h-318a8.55,8.55,0,0,1-8.55-8.55V246.5H333.45Zm2.29-201.72a10.12,10.12,0,0,0-2.29,6.42v139H6.94v-224A8.56,8.56,0,0,1,15.49,7h402.4a8.57,8.57,0,0,1,8.55,8.55V90.38H343.61A10.17,10.17,0,0,0,335.74,94.12ZM468.11,340.19a7.87,7.87,0,0,1-1.58,4.67,8.1,8.1,0,0,1-6.39,3.15H348.38a8,8,0,0,1-8-7.82V106.44a7.32,7.32,0,0,1,1.65-4.67,7.86,7.86,0,0,1,6.39-3.14h27.81a5.92,5.92,0,0,0,6,5.88h44.24a5.93,5.93,0,0,0,4.09-1.68,5.75,5.75,0,0,0,1.81-4.19h27.8a7.89,7.89,0,0,1,8,7.81Z"/><path d="M458.54,111.66H349.91c-2.47,0-4.49,2.87-4.49,6.39V304.94c0,3.52,2,6.39,4.49,6.39H458.54c2.47,0,4.49-2.87,4.49-6.39V118.05C463,114.53,461,111.66,458.54,111.66ZM461,304.94c0,1.95-1.12,3.54-2.49,3.54H349.91c-1.37,0-2.49-1.59-2.49-3.54V118.05c0-2,1.12-3.55,2.49-3.55H458.54c1.37,0,2.49,1.59,2.49,3.55Z"/><path d="M421.8,328.69a3.82,3.82,0,0,1-3.82,3.82H349.24a3.82,3.82,0,0,1,0-7.64H418A3.83,3.83,0,0,1,421.8,328.69Z"/><circle cx="445.23" cy="328.57" r="3.94"/><circle cx="459.09" cy="328.57" r="3.94"/><path class="cls-2" d="M460.14,98.63h-27.8a5.75,5.75,0,0,1-1.81,4.19,5.93,5.93,0,0,1-4.09,1.68H382.2a5.92,5.92,0,0,1-6-5.88H348.38a7.86,7.86,0,0,0-6.39,3.14,7.32,7.32,0,0,0-1.65,4.67V340.19a8,8,0,0,0,8,7.82H460.14a8.1,8.1,0,0,0,6.39-3.15,7.87,7.87,0,0,0,1.58-4.67V106.44A7.89,7.89,0,0,0,460.14,98.63ZM420.68,331.39a3.84,3.84,0,0,1-2.7,1.12H349.24a3.82,3.82,0,0,1,0-7.64H418a3.82,3.82,0,0,1,2.7,6.52Zm24.55,1.12a3.94,3.94,0,1,1,3.94-3.94A3.93,3.93,0,0,1,445.23,332.51Zm13.86,0a3.94,3.94,0,1,1,3.94-3.94A3.93,3.93,0,0,1,459.09,332.51ZM463,304.94c0,3.52-2,6.39-4.49,6.39H349.91c-2.47,0-4.49-2.87-4.49-6.39V118.05c0-3.52,2-6.39,4.49-6.39H458.54c2.47,0,4.49,2.87,4.49,6.39Z"/><path class="cls-2" d="M458.54,111.66H349.91c-2.47,0-4.49,2.87-4.49,6.39V304.94c0,3.52,2,6.39,4.49,6.39H458.54c2.47,0,4.49-2.87,4.49-6.39V118.05C463,114.53,461,111.66,458.54,111.66ZM461,304.94c0,1.95-1.12,3.54-2.49,3.54H349.91c-1.37,0-2.49-1.59-2.49-3.54V118.05c0-2,1.12-3.55,2.49-3.55H458.54c1.37,0,2.49,1.59,2.49,3.55Z"/><path class="cls-2" d="M421.8,328.69a3.82,3.82,0,0,1-3.82,3.82H349.24a3.82,3.82,0,0,1,0-7.64H418A3.83,3.83,0,0,1,421.8,328.69Z"/><circle class="cls-2" cx="445.23" cy="328.57" r="3.94"/><circle class="cls-2" cx="459.09" cy="328.57" r="3.94"/><path class="cls-8" d="M458.54,113.08H349.91a3.5,3.5,0,0,0-3.49,3.49V306.42a3.5,3.5,0,0,0,3.49,3.49H458.54a3.5,3.5,0,0,0,3.49-3.49V116.57A3.5,3.5,0,0,0,458.54,113.08ZM461,304.94c0,1.95-1.12,3.54-2.49,3.54H349.91c-1.37,0-2.49-1.59-2.49-3.54V118.05c0-2,1.12-3.55,2.49-3.55H458.54c1.37,0,2.49,1.59,2.49,3.55Z"/><path class="cls-9" d="M458.54,111.66H349.91c-2.47,0-4.49,2.87-4.49,6.39V304.94c0,3.52,2,6.39,4.49,6.39H458.54c2.47,0,4.49-2.87,4.49-6.39V118.05C463,114.53,461,111.66,458.54,111.66ZM461,304.94c0,1.95-1.12,3.54-2.49,3.54H349.91c-1.37,0-2.49-1.59-2.49-3.54V118.05c0-2,1.12-3.55,2.49-3.55H458.54c1.37,0,2.49,1.59,2.49,3.55Z"/><path class="cls-8" d="M461,118.05V304.94c0,1.95-1.12,3.54-2.49,3.54H349.91c-1.37,0-2.49-1.59-2.49-3.54V118.05c0-2,1.12-3.55,2.49-3.55H458.54C459.91,114.5,461,116.09,461,118.05Z"/><path class="cls-9" d="M421.8,328.69a3.82,3.82,0,0,1-3.82,3.82H349.24a3.82,3.82,0,0,1,0-7.64H418A3.83,3.83,0,0,1,421.8,328.69Z"/><circle class="cls-11" cx="459.09" cy="328.57" r="3.94"/><circle class="cls-11" cx="445.23" cy="328.57" r="3.94"/></svg>