<svg xmlns="http://www.w3.org/2000/svg" viewBox="0 0 360 220"><defs><style>.cls-1{fill:#165c82;}.cls-2,.cls-4{opacity:0.1;}.cls-3,.cls-4{fill:#fff;}.cls-5{fill:#21201e;}.cls-6{fill:#ff9100;}.cls-7{fill:#e6e6e6;}.cls-8{fill:#656364;opacity:0.25;}.cls-9{fill:#e8edf2;}.cls-10{fill:#c5d3dd;}.cls-11{fill:#e62117;}.cls-12{fill:#111;}.cls-13{fill:#e02d4b;}.cls-14{fill:#ffaa01;}.cls-15{fill:#005ac6;}.cls-16{fill:#dd3636;}</style></defs><title>Edicion-Videos</title><g id="Ãconos"><rect class="cls-1" width="360" height="220"/><g class="cls-2"><path class="cls-3" d="M252.09,45.1a5.93,5.93,0,0,1,0,3.44,6.27,6.27,0,0,1-2,3,10.42,10.42,0,0,1-3.91,2,9.8,9.8,0,0,1-5.07.33,6.67,6.67,0,0,1-2.78-1.44,5,5,0,0,1-1.59-2.3,1.77,1.77,0,0,1,.13-1.37A1.75,1.75,0,0,1,238,47.9a1.57,1.57,0,0,1,1.17.08,3.26,3.26,0,0,1,1.09,1,8,8,0,0,0,1.26,1.31,3.36,3.36,0,0,0,1.52.67A5.62,5.62,0,0,0,247.85,49a2.53,2.53,0,0,0,.48-2.36,2.21,2.21,0,0,0-1.06-1.39,3.93,3.93,0,0,0-1.8-.47c-.68,0-1.58,0-2.7.07a18.91,18.91,0,0,1-3.85-.1,5.85,5.85,0,0,1-2.77-1.12,4.78,4.78,0,0,1-1.67-2.57,5.08,5.08,0,0,1,0-3.11,5.84,5.84,0,0,1,2-2.67,10.59,10.59,0,0,1,3.7-1.83,10.16,10.16,0,0,1,3.23-.49,6.87,6.87,0,0,1,2.52.54,5,5,0,0,1,1.72,1.16,3.91,3.91,0,0,1,.87,1.46,2,2,0,0,1-.12,1.42,1.68,1.68,0,0,1-1.07.93,1.45,1.45,0,0,1-1.13,0,4.52,4.52,0,0,1-1.09-.88,5.21,5.21,0,0,0-1.79-1.33,3.82,3.82,0,0,0-2.57.09,4.3,4.3,0,0,0-2.26,1.41,2,2,0,0,0-.45,1.89,1.65,1.65,0,0,0,.62.91,2.86,2.86,0,0,0,1.09.47,6.17,6.17,0,0,0,1.27.14c.41,0,1.09,0,2-.06a29.53,29.53,0,0,1,3.23,0,9.22,9.22,0,0,1,2.61.45,4.89,4.89,0,0,1,2,1.24A5.57,5.57,0,0,1,252.09,45.1Z"/><path class="cls-3" d="M265.08,29.7l-8.87,2.65,1.43,4.78,8.16-2.44a2,2,0,0,1,1.47,0,1.41,1.41,0,0,1,.76.93,1.45,1.45,0,0,1-.11,1.21,2,2,0,0,1-1.23.83l-8.16,2.44,1.65,5.52,9.17-2.74a2.09,2.09,0,0,1,1.53,0,1.51,1.51,0,0,1,.81,1,1.53,1.53,0,0,1-.13,1.26,2.08,2.08,0,0,1-1.27.85l-10.7,3.2a2.15,2.15,0,0,1-3.13-1.69l-4.37-14.61a3.26,3.26,0,0,1-.16-1.46,1.62,1.62,0,0,1,.55-1,3.51,3.51,0,0,1,1.3-.66l10.39-3.1a2.1,2.1,0,0,1,1.53,0,1.45,1.45,0,0,1,.78.95,1.46,1.46,0,0,1-.13,1.25A2,2,0,0,1,265.08,29.7Z"/><path class="cls-3" d="M277.93,22.19a10.78,10.78,0,0,1,5.55-.32,8.33,8.33,0,0,1,4.33,2.5,12.53,12.53,0,0,1,2.7,5,13.5,13.5,0,0,1,.61,4.28,9.29,9.29,0,0,1-.87,3.74,8.49,8.49,0,0,1-2.38,3,12.32,12.32,0,0,1-8.16,2.41,8.45,8.45,0,0,1-3.63-1.17,9.19,9.19,0,0,1-2.78-2.68A13.64,13.64,0,0,1,271.46,35a13.22,13.22,0,0,1-.58-4.31,9.07,9.07,0,0,1,.91-3.73,8.34,8.34,0,0,1,2.37-2.9A11.31,11.31,0,0,1,277.93,22.19Zm8.58,8.33a9.48,9.48,0,0,0-1.8-3.5A5.38,5.38,0,0,0,282,25.25a5.91,5.91,0,0,0-5.23,1.17,5,5,0,0,0-1.33,1.81,6.2,6.2,0,0,0-.49,2.51,11.13,11.13,0,0,0,1.78,5.95,6.32,6.32,0,0,0,1.84,1.87,5.19,5.19,0,0,0,2.14.8,5.68,5.68,0,0,0,2.3-.21,5.48,5.48,0,0,0,2.55-1.59,5.34,5.34,0,0,0,1.32-2.93A9.33,9.33,0,0,0,286.51,30.52Z"/></g><g class="cls-2"><path class="cls-3" d="M320.27,58.93a2.18,2.18,0,0,0-.73-.8,1.64,1.64,0,0,0,.88,0,1.53,1.53,0,0,0,.7-.48,3.11,3.11,0,0,0,.55-.94,3.46,3.46,0,0,0,.27-1.1,1.83,1.83,0,0,0-.16-.91,2.09,2.09,0,0,0-.6-.74,4.05,4.05,0,0,0-1-.58L318,52.51l-3.78,9.29,2.48,1a3,3,0,0,0,1.14.25,2.2,2.2,0,0,0,1-.23,2.42,2.42,0,0,0,.77-.67,4.4,4.4,0,0,0,.58-1,3.81,3.81,0,0,0,.3-1.21A2,2,0,0,0,320.27,58.93ZM318.91,54l.31.13a7.41,7.41,0,0,1,1,.51,1,1,0,0,1,.46.61,1.9,1.9,0,0,1-.18,1,3.21,3.21,0,0,1-.49.84,1,1,0,0,1-.64.32,2.1,2.1,0,0,1-.93-.19l-.76-.32Zm-.81,7.82a1.47,1.47,0,0,1-1.33-.07l-.87-.35,1.42-3.5.77.31a2,2,0,0,1,.83.57,1.25,1.25,0,0,1,.25.8,2.81,2.81,0,0,1-.24,1.05A2.47,2.47,0,0,1,318.1,61.82Z"/><polygon class="cls-3" points="327.41 56.33 326.12 55.81 322.34 65.1 326.01 66.59 326.39 65.66 324.01 64.7 327.41 56.33"/><path class="cls-3" d="M336.46,60.33a3,3,0,0,0-1.35-1,3.08,3.08,0,0,0-1.64-.26,2.09,2.09,0,0,0-1.21.68,4.89,4.89,0,0,0-.89,1.48l-1.43,3.52a5.11,5.11,0,0,0-.41,1.7,2.18,2.18,0,0,0,.37,1.38,3,3,0,0,0,1.36,1,2.85,2.85,0,0,0,1.64.23,2.23,2.23,0,0,0,1.22-.73,4.69,4.69,0,0,0,.89-1.48l1.44-3.53a4.71,4.71,0,0,0,.39-1.67A2.13,2.13,0,0,0,336.46,60.33Zm-2.87,6.29a4.56,4.56,0,0,1-.45.86,1.17,1.17,0,0,1-.6.45,1.32,1.32,0,0,1-.87-.1,1.34,1.34,0,0,1-.7-.54,1.14,1.14,0,0,1-.12-.74,4.83,4.83,0,0,1,.28-.94l1.65-4.07a3.73,3.73,0,0,1,.46-.85,1,1,0,0,1,.59-.43,1.42,1.42,0,0,1,.87.12,1.37,1.37,0,0,1,.7.52,1.07,1.07,0,0,1,.12.72,4,4,0,0,1-.27.92Z"/><path class="cls-3" d="M341.16,68.46l1.18.48-.26.64a5.59,5.59,0,0,1-.58,1.13,1.4,1.4,0,0,1-.67.56,1.21,1.21,0,0,1-.88-.08,1.33,1.33,0,0,1-.69-.53,1.21,1.21,0,0,1-.1-.82,5.45,5.45,0,0,1,.36-1.15l1.4-3.44a6.24,6.24,0,0,1,.48-1,1.28,1.28,0,0,1,.61-.59,1.22,1.22,0,0,1,.94.07,1.41,1.41,0,0,1,.69.51,1,1,0,0,1,.1.71,6,6,0,0,1-.32,1l-.12.29,1.21.49.14-.34a4.37,4.37,0,0,0,.38-1.62,1.83,1.83,0,0,0-.41-1.21,3,3,0,0,0-1.28-.86,2.78,2.78,0,0,0-1.68-.24,2.07,2.07,0,0,0-1.2.78,6.54,6.54,0,0,0-.92,1.66L338.27,68a6.09,6.09,0,0,0-.46,1.81,2.27,2.27,0,0,0,.32,1.39,2.57,2.57,0,0,0,1.24.94,1.77,1.77,0,0,0,1.22.11,2.15,2.15,0,0,0,.92-.62l-.31,1.12.81.33,1.87-4.6-2.35-1Z"/><path class="cls-3" d="M355.39,50.47l-34.68-14.1a4,4,0,0,0-5.19,2.19l-9.88,24.29A4,4,0,0,0,307.83,68l34.68,14.1A4,4,0,0,0,347.7,80l9.88-24.29A4,4,0,0,0,355.39,50.47ZM346,79.28a2.2,2.2,0,0,1-2.85,1.2l-34.67-14.1a2.18,2.18,0,0,1-1.2-2.85l9.88-24.3A2.19,2.19,0,0,1,320,38l34.68,14.1a2.19,2.19,0,0,1,1.2,2.85Z"/><path class="cls-3" d="M320.34,43.11A1.29,1.29,0,0,0,322,42.4a1.3,1.3,0,1,0-1.69.71Z"/><path class="cls-3" d="M325.22,45.1a1.3,1.3,0,1,0-.71-1.7A1.31,1.31,0,0,0,325.22,45.1Z"/><path class="cls-3" d="M330.11,47.09a1.3,1.3,0,1,0-.72-1.7A1.3,1.3,0,0,0,330.11,47.09Z"/><rect class="cls-3" x="333.79" y="32.96" width="1.56" height="37.65" transform="translate(160.57 342.21) rotate(-67.87)"/></g><path class="cls-4" d="M334.15,124.8a.31.31,0,0,0-.38-.1L316.13,133a.29.29,0,0,0-.14.4l3.37,7.17a.3.3,0,0,0,.4.14l9.56-4.49a11.8,11.8,0,0,1-1.62,6.84h0a11.46,11.46,0,0,1-5,4.52A11.59,11.59,0,0,1,309.36,145h0a12,12,0,0,1-3.16-6.69h0a11.53,11.53,0,0,1,14.39-12.68.31.31,0,0,0,.37-.19l2.8-7.8a.29.29,0,0,0,0-.24.31.31,0,0,0-.18-.16,20.27,20.27,0,0,0-23.18,8.6,20.65,20.65,0,0,0-3.12,10.73,20.4,20.4,0,0,0,2,9.07A20.74,20.74,0,0,0,305,153h0a20.72,20.72,0,0,0,10.27,4.44,20.26,20.26,0,0,0,21.36-12.25,20.74,20.74,0,0,0,1-13.08,20.23,20.23,0,0,0-1.36-3.8A20.82,20.82,0,0,0,334.15,124.8Z"/><g class="cls-2"><path class="cls-3" d="M292,202.67a5.19,5.19,0,0,0-5.8,2.64,5.47,5.47,0,0,0-.44,1.2,5.18,5.18,0,1,0,10.08,2.41,5,5,0,0,0,.13-1.49A5.21,5.21,0,0,0,292,202.67Z"/><path class="cls-3" d="M294,194.11a14,14,0,0,0-12.52,3.15.31.31,0,0,0-.06.38L284.6,203a.3.3,0,0,0,.19.14h0a.29.29,0,0,0,.26-.11,7.35,7.35,0,0,1,12.79,2.89.31.31,0,0,0,.18.21.32.32,0,0,0,.27,0l5.23-3.31a.29.29,0,0,0,.12-.37A14,14,0,0,0,294,194.11Z"/><path class="cls-3" d="M296,185.55a22.69,22.69,0,0,0-19.11,4.07.29.29,0,0,0-.07.39l3.11,5.22a.3.3,0,0,0,.19.14h0a.3.3,0,0,0,.24-.06,16.13,16.13,0,0,1,25.08,5.84.31.31,0,0,0,.43.13l5.14-3.25a.3.3,0,0,0,.1-.39A22.74,22.74,0,0,0,296,185.55Z"/><path class="cls-3" d="M318.64,192.91A31.55,31.55,0,0,0,272.4,182a.31.31,0,0,0-.08.4l3.1,5.2a.33.33,0,0,0,.19.14h0a.28.28,0,0,0,.24,0A24.91,24.91,0,0,1,313,196.42a.29.29,0,0,0,.18.16.36.36,0,0,0,.25,0l5.11-3.23A.31.31,0,0,0,318.64,192.91Z"/></g><g class="cls-2"><path class="cls-3" d="M22.4,33.87a5.93,5.93,0,0,1,0,3.44,6.25,6.25,0,0,1-2,3,10.55,10.55,0,0,1-3.91,2,9.69,9.69,0,0,1-5.07.33,6.56,6.56,0,0,1-2.78-1.44,5,5,0,0,1-1.59-2.29,1.8,1.8,0,0,1,1.25-2.27,1.58,1.58,0,0,1,1.17.09,3.26,3.26,0,0,1,1.09,1A8.38,8.38,0,0,0,11.86,39a3.35,3.35,0,0,0,1.52.66,4.53,4.53,0,0,0,2.18-.21,4.85,4.85,0,0,0,2.6-1.66,2.53,2.53,0,0,0,.48-2.36,2.23,2.23,0,0,0-1.06-1.4,3.93,3.93,0,0,0-1.8-.46,24.32,24.32,0,0,0-2.7.07,19.66,19.66,0,0,1-3.85-.1,6,6,0,0,1-2.77-1.12,4.82,4.82,0,0,1-1.67-2.57,5.08,5.08,0,0,1,0-3.11,5.81,5.81,0,0,1,2-2.68,10.94,10.94,0,0,1,3.7-1.83,9.85,9.85,0,0,1,3.23-.48,6.68,6.68,0,0,1,2.52.53,5.21,5.21,0,0,1,1.72,1.17,3.83,3.83,0,0,1,.87,1.46,1.93,1.93,0,0,1-.12,1.41,1.67,1.67,0,0,1-1.07.94,1.49,1.49,0,0,1-1.13,0,4.44,4.44,0,0,1-1.09-.87A5.24,5.24,0,0,0,13.61,25a3.89,3.89,0,0,0-2.57.1,4.29,4.29,0,0,0-2.26,1.4,2,2,0,0,0-.45,1.89,1.65,1.65,0,0,0,.62.91,2.71,2.71,0,0,0,1.09.47,6.17,6.17,0,0,0,1.27.14c.41,0,1.09,0,2-.06a32.27,32.27,0,0,1,3.23,0,9.22,9.22,0,0,1,2.61.45,4.89,4.89,0,0,1,1.95,1.24A5.48,5.48,0,0,1,22.4,33.87Z"/><path class="cls-3" d="M35.39,18.48l-8.87,2.65L28,25.9l8.16-2.44a2,2,0,0,1,1.47,0,1.4,1.4,0,0,1,.76.94,1.45,1.45,0,0,1-.11,1.21,2,2,0,0,1-1.23.82l-8.16,2.44,1.65,5.53,9.17-2.74a2.1,2.1,0,0,1,1.53,0,1.53,1.53,0,0,1,.81,1,1.56,1.56,0,0,1-.13,1.27,2.07,2.07,0,0,1-1.27.84L29.9,38a2.66,2.66,0,0,1-2,0,2.66,2.66,0,0,1-1.11-1.68L22.4,21.68a3.25,3.25,0,0,1-.16-1.46,1.62,1.62,0,0,1,.55-1,3.36,3.36,0,0,1,1.3-.65l10.39-3.11a2.1,2.1,0,0,1,1.53,0,1.49,1.49,0,0,1,.78,1,1.44,1.44,0,0,1-.13,1.24A2.1,2.1,0,0,1,35.39,18.48Z"/><path class="cls-3" d="M48.24,11a10.89,10.89,0,0,1,5.55-.33,8.34,8.34,0,0,1,4.33,2.51,12.42,12.42,0,0,1,2.7,5,13.54,13.54,0,0,1,.61,4.28,9.38,9.38,0,0,1-.87,3.75,8.45,8.45,0,0,1-2.38,3A11.36,11.36,0,0,1,54.32,31a11.1,11.1,0,0,1-4.3.49,8.46,8.46,0,0,1-3.63-1.18,9.15,9.15,0,0,1-2.78-2.67,13.7,13.7,0,0,1-1.84-3.89,13.16,13.16,0,0,1-.58-4.3,9.12,9.12,0,0,1,.91-3.74,8.43,8.43,0,0,1,2.37-2.9A11.11,11.11,0,0,1,48.24,11Zm8.58,8.32A9.43,9.43,0,0,0,55,15.8,5.34,5.34,0,0,0,52.35,14a6,6,0,0,0-5.23,1.17A5.1,5.1,0,0,0,45.79,17a6.24,6.24,0,0,0-.49,2.51,11.13,11.13,0,0,0,1.78,6,6.44,6.44,0,0,0,1.84,1.87,5.17,5.17,0,0,0,2.14.79,5.35,5.35,0,0,0,2.3-.21,5.55,5.55,0,0,0,2.55-1.58,5.4,5.4,0,0,0,1.32-2.94A9.34,9.34,0,0,0,56.82,19.29Z"/></g><g class="cls-2"><path class="cls-3" d="M80.92,33.65a2.11,2.11,0,0,0-.73-.8,1.64,1.64,0,0,0,.88,0,1.55,1.55,0,0,0,.7-.49,3.41,3.41,0,0,0,.55-.93,3.52,3.52,0,0,0,.27-1.1,1.83,1.83,0,0,0-.16-.91,2,2,0,0,0-.6-.74,4.06,4.06,0,0,0-1-.59l-2.14-.86-3.77,9.29,2.47,1a3,3,0,0,0,1.15.24,2.07,2.07,0,0,0,1-.23,2.49,2.49,0,0,0,.77-.66,4.61,4.61,0,0,0,.58-1,3.88,3.88,0,0,0,.3-1.21A2,2,0,0,0,80.92,33.65Zm-1.36-4.93.31.12a6.39,6.39,0,0,1,1,.52,1,1,0,0,1,.46.6,1.89,1.89,0,0,1-.18,1,3.12,3.12,0,0,1-.49.85,1,1,0,0,1-.64.32,2.14,2.14,0,0,1-.93-.2l-.77-.31Zm-.81,7.82a1.47,1.47,0,0,1-1.33-.07l-.87-.35L78,32.62l.77.31a2,2,0,0,1,.83.57,1.23,1.23,0,0,1,.25.8,2.8,2.8,0,0,1-.24,1A2.51,2.51,0,0,1,78.75,36.54Z"/><polygon class="cls-3" points="88.06 31.05 86.77 30.52 82.99 39.82 86.66 41.31 87.04 40.38 84.66 39.41 88.06 31.05"/><path class="cls-3" d="M97.1,35.05a2.84,2.84,0,0,0-1.34-1,3,3,0,0,0-1.64-.26,2.09,2.09,0,0,0-1.21.68A4.77,4.77,0,0,0,92,36l-1.44,3.52a5.58,5.58,0,0,0-.41,1.7,2.25,2.25,0,0,0,.38,1.38,3,3,0,0,0,1.35,1,2.82,2.82,0,0,0,1.65.24,2.23,2.23,0,0,0,1.22-.73,4.81,4.81,0,0,0,.89-1.48l1.44-3.53a4.76,4.76,0,0,0,.39-1.68A2.13,2.13,0,0,0,97.1,35.05Zm-2.86,6.28a4.14,4.14,0,0,1-.46.87,1.11,1.11,0,0,1-.59.45A1.7,1.7,0,0,1,91.62,42a1.14,1.14,0,0,1-.12-.74,4.07,4.07,0,0,1,.28-.94l1.65-4.07a3.81,3.81,0,0,1,.46-.86,1.05,1.05,0,0,1,.59-.42,1.76,1.76,0,0,1,1.57.64,1.05,1.05,0,0,1,.12.71,3.94,3.94,0,0,1-.27.93Z"/><path class="cls-3" d="M101.81,43.18l1.18.48-.26.64a5.87,5.87,0,0,1-.58,1.13,1.4,1.4,0,0,1-.67.56,1.26,1.26,0,0,1-.88-.08,1.39,1.39,0,0,1-.69-.53,1.22,1.22,0,0,1-.1-.82,5.79,5.79,0,0,1,.35-1.15l1.4-3.45a10.51,10.51,0,0,1,.48-1,1.32,1.32,0,0,1,.62-.58,1.22,1.22,0,0,1,.94.07,1.3,1.3,0,0,1,.69.51,1,1,0,0,1,.1.7,5.18,5.18,0,0,1-.33,1L104,41l1.21.5.14-.35a4.37,4.37,0,0,0,.38-1.61,1.83,1.83,0,0,0-.41-1.21,3.24,3.24,0,0,0-1.29-.87,2.9,2.9,0,0,0-1.67-.24,2.11,2.11,0,0,0-1.2.79,6.33,6.33,0,0,0-.92,1.65l-1.27,3.11a6.09,6.09,0,0,0-.46,1.81,2.28,2.28,0,0,0,.32,1.39,2.57,2.57,0,0,0,1.24.94,1.77,1.77,0,0,0,1.22.1,2,2,0,0,0,.91-.61l-.3,1.12.81.33,1.87-4.6-2.35-1Z"/><path class="cls-3" d="M116,25.19,81.36,11.08a4,4,0,0,0-5.19,2.19l-9.88,24.3a4,4,0,0,0,2.19,5.19l34.68,14.1a4,4,0,0,0,5.18-2.19l9.88-24.3A4,4,0,0,0,116,25.19ZM106.68,54a2.18,2.18,0,0,1-2.85,1.2L69.16,41.09A2.17,2.17,0,0,1,68,38.25L77.84,14a2.18,2.18,0,0,1,2.84-1.2l34.68,14.1a2.2,2.2,0,0,1,1.2,2.85Z"/><path class="cls-3" d="M81,17.83a1.3,1.3,0,1,0-.71-1.7A1.31,1.31,0,0,0,81,17.83Z"/><path class="cls-3" d="M85.87,19.82a1.3,1.3,0,1,0-.71-1.7A1.3,1.3,0,0,0,85.87,19.82Z"/><path class="cls-3" d="M90.76,21.81a1.31,1.31,0,1,0-.72-1.7A1.3,1.3,0,0,0,90.76,21.81Z"/><rect class="cls-3" x="94.44" y="7.68" width="1.56" height="37.65" transform="translate(34.8 104.73) rotate(-67.87)"/></g><g class="cls-2"><path class="cls-3" d="M53.58,61.58a1.88,1.88,0,0,0-1.73-.38L25.36,68.82a1.88,1.88,0,0,0,1,3.61L50.18,65.6,48.54,79.8,31.79,84.61,16.84,66.67a1.89,1.89,0,0,0-2-.61l-4.74,1.37a1.88,1.88,0,1,0,1,3.61l3.56-1,15,18a1.89,1.89,0,0,0,2,.6l19.14-5.5a1.89,1.89,0,0,0,1.35-1.6l2.1-18.24A1.88,1.88,0,0,0,53.58,61.58Z"/><path class="cls-3" d="M32.78,91.22a5.34,5.34,0,1,0,6.61,3.66A5.34,5.34,0,0,0,32.78,91.22Zm1.91,6.66a1.58,1.58,0,1,1-.87-3,1.57,1.57,0,0,1,2,1.08A1.59,1.59,0,0,1,34.69,97.88Z"/><path class="cls-3" d="M50.4,86.15A5.35,5.35,0,1,0,57,89.81,5.36,5.36,0,0,0,50.4,86.15Zm1.92,6.66a1.58,1.58,0,1,1,1.08-2A1.59,1.59,0,0,1,52.32,92.81Z"/></g><path class="cls-4" d="M77.86,128a.3.3,0,0,0-.37-.1l-17.64,8.3a.31.31,0,0,0-.15.41l3.37,7.16a.3.3,0,0,0,.41.14L73,139.42a11.8,11.8,0,0,1-1.62,6.84h0a11.35,11.35,0,0,1-5,4.52,11.59,11.59,0,0,1-13.36-2.57h0a11.92,11.92,0,0,1-3.16-6.69h0A11.52,11.52,0,0,1,64.3,128.84a.3.3,0,0,0,.36-.19l2.81-7.8a.33.33,0,0,0,0-.24.33.33,0,0,0-.19-.16,20.27,20.27,0,0,0-23.17,8.6,20.83,20.83,0,0,0,4.57,27.11h0a20.6,20.6,0,0,0,10.26,4.44,20.22,20.22,0,0,0,21.36-12.25,20.74,20.74,0,0,0-.37-16.88A20.21,20.21,0,0,0,77.86,128Z"/><g class="cls-2"><path class="cls-3" d="M30.73,201.89a5.18,5.18,0,0,0-5.8,2.64,5.12,5.12,0,0,0-.44,1.2,5.18,5.18,0,0,0,10.08,2.41,5,5,0,0,0,.13-1.49A5.2,5.2,0,0,0,30.73,201.89Z"/><path class="cls-3" d="M32.77,193.33a14,14,0,0,0-12.52,3.15.31.31,0,0,0-.06.38l3.19,5.34a.3.3,0,0,0,.19.14h0a.31.31,0,0,0,.26-.1,7.35,7.35,0,0,1,12.79,2.89.28.28,0,0,0,.18.2.32.32,0,0,0,.27,0L42.34,202a.28.28,0,0,0,.12-.36A14,14,0,0,0,32.77,193.33Z"/><path class="cls-3" d="M34.82,184.77a22.72,22.72,0,0,0-19.11,4.06.31.31,0,0,0-.07.4l3.11,5.21a.3.3,0,0,0,.19.14h0a.32.32,0,0,0,.25-.07,16.13,16.13,0,0,1,25.08,5.85.26.26,0,0,0,.19.16.29.29,0,0,0,.24,0l5.14-3.25a.3.3,0,0,0,.1-.39A22.74,22.74,0,0,0,34.82,184.77Z"/><path class="cls-3" d="M57.41,192.13a31.54,31.54,0,0,0-46.23-10.89.31.31,0,0,0-.08.4l3.1,5.2a.33.33,0,0,0,.19.14h0a.29.29,0,0,0,.24-.06,24.93,24.93,0,0,1,37.13,8.72.27.27,0,0,0,.18.15.33.33,0,0,0,.24,0l5.12-3.23A.3.3,0,0,0,57.41,192.13Z"/></g><g class="cls-2"><path class="cls-3" d="M131.7,171.69a1.92,1.92,0,0,0-1.74-.37l-26.48,7.61a1.88,1.88,0,0,0,1,3.62l23.78-6.83-1.63,14.19-16.76,4.82L95,176.78a1.89,1.89,0,0,0-2-.6l-4.74,1.36a1.88,1.88,0,0,0,1,3.62l3.56-1,15,17.94a1.89,1.89,0,0,0,2,.61l19.14-5.51a1.88,1.88,0,0,0,1.35-1.59l2.1-18.25A1.89,1.89,0,0,0,131.7,171.69Z"/><path class="cls-3" d="M110.89,201.34A5.34,5.34,0,1,0,117.5,205,5.34,5.34,0,0,0,110.89,201.34ZM112.8,208a1.58,1.58,0,1,1,1.08-2A1.57,1.57,0,0,1,112.8,208Z"/><path class="cls-3" d="M128.51,196.27a5.34,5.34,0,1,0,6.62,3.66A5.35,5.35,0,0,0,128.51,196.27Zm1.92,6.66a1.58,1.58,0,1,1,1.08-2A1.59,1.59,0,0,1,130.43,202.93Z"/></g><path class="cls-4" d="M211,183.4a.31.31,0,0,0-.38-.09L193,191.6a.31.31,0,0,0-.15.41l3.37,7.16a.3.3,0,0,0,.4.15l9.56-4.5a11.83,11.83,0,0,1-1.62,6.85h0a11.44,11.44,0,0,1-5,4.51,11.57,11.57,0,0,1-13.36-2.57h0a11.93,11.93,0,0,1-3.16-6.68h0a11.53,11.53,0,0,1,14.38-12.69.31.31,0,0,0,.37-.19l2.81-7.8a.29.29,0,0,0,0-.24.27.27,0,0,0-.18-.15,20.22,20.22,0,0,0-23.17,8.6,20.81,20.81,0,0,0,4.57,27.1h0A20.56,20.56,0,0,0,192.08,216a20.22,20.22,0,0,0,21.36-12.25,20.81,20.81,0,0,0,1-13.08A21,21,0,0,0,211,183.4Z"/><g class="cls-2"><path class="cls-3" d="M178.69,36.87a5.19,5.19,0,0,0-5.8,2.64,6.09,6.09,0,0,0-.45,1.2,5.19,5.19,0,1,0,10.09,2.41,5,5,0,0,0,.13-1.49A5.21,5.21,0,0,0,178.69,36.87Z"/><path class="cls-3" d="M180.73,28.31a14,14,0,0,0-12.52,3.15.29.29,0,0,0-.06.38l3.19,5.34a.3.3,0,0,0,.19.14h0a.33.33,0,0,0,.26-.11,7.35,7.35,0,0,1,12.78,2.89.37.37,0,0,0,.18.21.34.34,0,0,0,.28,0L190.3,37a.32.32,0,0,0,.12-.37A14,14,0,0,0,180.73,28.31Z"/><path class="cls-3" d="M182.77,19.75a22.68,22.68,0,0,0-19.1,4.07.3.3,0,0,0-.08.39l3.11,5.22a.33.33,0,0,0,.19.14h0a.32.32,0,0,0,.25-.07,16.13,16.13,0,0,1,25.07,5.85.3.3,0,0,0,.19.16.28.28,0,0,0,.25,0l5.13-3.25a.3.3,0,0,0,.11-.39A22.75,22.75,0,0,0,182.77,19.75Z"/><path class="cls-3" d="M205.37,27.11a31.54,31.54,0,0,0-46.23-10.89.3.3,0,0,0-.08.4l3.1,5.2a.3.3,0,0,0,.19.14h0a.29.29,0,0,0,.24-.05,24.9,24.9,0,0,1,37.12,8.71.29.29,0,0,0,.43.12l5.12-3.23A.3.3,0,0,0,205.37,27.11Z"/></g><path class="cls-5" d="M290.94,44V170.8H69.06V44a6.5,6.5,0,0,1,6.25-6.7H284.69A6.5,6.5,0,0,1,290.94,44Z"/><path d="M290.94,172.25H69.06a1.6,1.6,0,0,1-1.72-1.45V44a8.07,8.07,0,0,1,8-8.15H284.69a8.07,8.07,0,0,1,8,8.15V170.8A1.6,1.6,0,0,1,290.94,172.25Zm-220.16-2.9H289.22V44c0-2.85-2.08-5.25-4.53-5.25H75.31c-2.45,0-4.53,2.4-4.53,5.25Z"/><rect class="cls-6" x="80.44" y="46.96" width="199.11" height="113.41" rx="2.18"/><path class="cls-7" d="M308.59,170.8c-1.64,6.79-8.8,11.95-17.33,11.95H68.74c-8.53,0-15.69-5.16-17.33-11.95Z"/><path d="M291.26,184.2H68.74c-9.19,0-17.19-5.51-19-13.11a1.29,1.29,0,0,1,.36-1.21,1.82,1.82,0,0,1,1.33-.53H308.59a1.82,1.82,0,0,1,1.33.53,1.29,1.29,0,0,1,.36,1.21C308.45,178.69,300.45,184.2,291.26,184.2ZM53.67,172.25c2.2,5.34,8.24,9.05,15.07,9.05H291.26c6.83,0,12.87-3.71,15.07-9.05Z"/><path class="cls-8" d="M204.41,171.75v.46c0,2.38-2.31,4.33-5.13,4.33H160.72c-2.82,0-5.13-1.95-5.13-4.33v-.46a3.75,3.75,0,0,1,.13-.95h48.56A3.75,3.75,0,0,1,204.41,171.75Z"/><path class="cls-9" d="M240.81,125.92H119.19c-5.22,0-9.44-3.69-9.44-8.23V62.22c0-4.55,4.22-8.23,9.44-8.23H240.82c5.21,0,9.43,3.68,9.43,8.23v55.47c0,4.54-4.22,8.23-9.44,8.23Z"/><path class="cls-10" d="M240.82,54h-8c5.21,0,9.44,3.68,9.44,8.23v55.47c0,4.54-4.23,8.23-9.44,8.23h8c5.21,0,9.43-3.69,9.43-8.23V62.22C250.25,57.67,246,54,240.82,54Z"/><path d="M240.81,51.8H119.19c-6.59,0-12,4.67-12,10.42v55.47c0,5.74,5.37,10.42,12,10.42h17a2.21,2.21,0,1,0,0-4.38h-17c-3.82,0-6.93-2.71-6.93-6V62.22c0-3.33,3.11-6,6.93-6H240.81c3.82,0,6.93,2.71,6.93,6v55.47c0,3.33-3.11,6-6.93,6H146.22a2.21,2.21,0,1,0,0,4.38h94.59c6.59,0,12-4.68,12-10.42V62.22c0-5.75-5.37-10.42-12-10.42Z"/><path class="cls-3" d="M199.38,87.54,170.63,70.42a2.88,2.88,0,0,0-4.36,2.48v34.23a2.88,2.88,0,0,0,1.46,2.5,2.79,2.79,0,0,0,1.43.38,2.86,2.86,0,0,0,1.47-.41l28.75-17.11a2.88,2.88,0,0,0,0-4.95Z"/><path class="cls-11" d="M221.51,69a10.9,10.9,0,0,0-7.66-7.71C207.09,59.49,180,59.49,180,59.49s-27.09,0-33.85,1.82A10.9,10.9,0,0,0,138.49,69c-1.81,6.8-1.81,21-1.81,21s0,14.19,1.81,21a10.73,10.73,0,0,0,7.66,7.59c6.76,1.82,33.85,1.82,33.85,1.82s27.09,0,33.85-1.82a10.73,10.73,0,0,0,7.66-7.59c1.81-6.8,1.81-21,1.81-21S223.32,75.82,221.51,69ZM171.14,102.9V77.13L193.78,90,171.14,102.9Z"/><path d="M180,120.87c-1.11,0-27.23,0-34-1.84a11.11,11.11,0,0,1-8-7.91c-1.81-6.78-1.83-20.52-1.83-21.11s0-14.32,1.83-21.1a11.37,11.37,0,0,1,8-8c6.74-1.81,32.86-1.83,34-1.83s27.23,0,34,1.83a11.37,11.37,0,0,1,8,8c1.81,6.78,1.83,20.52,1.83,21.1s0,14.33-1.83,21.11a11.11,11.11,0,0,1-8,7.91C207.23,120.85,181.11,120.87,180,120.87ZM180,60c-.27,0-27.11,0-33.73,1.81a10.44,10.44,0,0,0-7.34,7.38c-1.77,6.67-1.79,20.73-1.79,20.87s0,14.21,1.79,20.88a10.22,10.22,0,0,0,7.34,7.26c6.62,1.78,33.46,1.81,33.73,1.81s27.11,0,33.73-1.81a10.22,10.22,0,0,0,7.34-7.26c1.77-6.67,1.79-20.74,1.79-20.88s0-14.2-1.79-20.87h0a10.44,10.44,0,0,0-7.34-7.38C207.11,60,180.27,60,180,60Zm-8.86,43.4a.46.46,0,0,1-.23-.06.45.45,0,0,1-.23-.39V77.13a.45.45,0,0,1,.23-.39.43.43,0,0,1,.45,0L194,89.62a.45.45,0,0,1,0,.79l-22.65,12.88A.43.43,0,0,1,171.14,103.35Zm.46-25.43v24.19L192.86,90Z"/><path class="cls-3" d="M124.83,141l-10.52-6.27a1.08,1.08,0,0,0-1.07,0,1.06,1.06,0,0,0-.53.92V148.2a1.06,1.06,0,0,0,.53.92,1.13,1.13,0,0,0,.53.14,1.08,1.08,0,0,0,.54-.15l10.52-6.27a1,1,0,0,0,0-1.81Z"/><path class="cls-12" d="M113.77,150.79a2.57,2.57,0,0,1-2.59-2.59V135.67a2.59,2.59,0,0,1,3.91-2.23l10.53,6.27a2.59,2.59,0,0,1,0,4.45l-10.53,6.27A2.57,2.57,0,0,1,113.77,150.79Zm.47-14.28v10.86l9.12-5.43Zm9.81,5.84h0Zm0,0h0Z"/><path class="cls-13" d="M192,136.61v9.83H134a2,2,0,0,1-2-2v-5.78a2,2,0,0,1,2-2Z"/><rect class="cls-14" x="131.97" y="136.61" width="60.01" height="9.83" rx="2.02"/><path class="cls-15" d="M163.48,126.9l-3,2.49a3.34,3.34,0,0,1-4.27,0l-3-2.49a1.68,1.68,0,0,1-.6-1.28V118a1.66,1.66,0,0,1,1.66-1.67h8.1a1.66,1.66,0,0,1,1.66,1.67v7.59a1.67,1.67,0,0,1-.59,1.28Z"/><path d="M160.43,134.54v-2.72a6.55,6.55,0,0,0,1.4-.85l3-2.5a3.65,3.65,0,0,0,1.33-2.85V118a3.74,3.74,0,0,0-3.71-3.73h-8.11a3.74,3.74,0,0,0-3.72,3.73v7.6a3.72,3.72,0,0,0,1.33,2.85l3,2.5a5.89,5.89,0,0,0,1.4.85v2.72H134a4.09,4.09,0,0,0-4.08,4.1v5.78A4.08,4.08,0,0,0,134,148.5h22.31v4.95a2.06,2.06,0,1,0,4.12,0V148.5H192v-14Zm29.48,9.85H160.43v-5.72h29.48ZM134,138.67h22.27v5.72H134Zm20.67-13.25v-7H162v7l-2.85,2.39a1.2,1.2,0,0,1-.81.3h0a1.23,1.23,0,0,1-.8-.3Z"/><path d="M244.73,134.54H192v14h52.75a4.09,4.09,0,0,0,4.09-4.08v-5.78A4.1,4.1,0,0,0,244.73,134.54Zm0,9.85H230v-5.72H244.7Z"/><rect class="cls-16" x="193.98" y="138.67" width="50.72" height="5.72"/></g></svg>