<svg id="Capa_1" data-name="Capa 1" xmlns="http://www.w3.org/2000/svg" xmlns:xlink="http://www.w3.org/1999/xlink" viewBox="0 0 475 356.25"><defs><style>.cls-1{fill:#e8edf2;}.cls-2{fill:#c5d3dd;}.cls-3{fill:url(#Degradado_sin_nombre_4);}.cls-4{fill:url(#Degradado_sin_nombre_4-2);}.cls-5{fill:url(#Degradado_sin_nombre_4-3);}.cls-6{fill:url(#Degradado_sin_nombre_4-4);}.cls-7{fill:#fff;}.cls-8{fill:#111;}.cls-9{fill:#e02d4b;}.cls-10{fill:#ffaa01;}.cls-11{fill:#005ac6;}.cls-12{fill:#dd3636;}</style><linearGradient id="Degradado_sin_nombre_4" x1="295.26" y1="222.58" x2="218.93" y2="61.32" gradientUnits="userSpaceOnUse"><stop offset="0" stop-color="#1e2349"/><stop offset="0.14" stop-color="#1e274e"/><stop offset="0.3" stop-color="#1f315b"/><stop offset="0.46" stop-color="#204371"/><stop offset="0.63" stop-color="#215c91"/><stop offset="0.81" stop-color="#237bb9"/><stop offset="0.98" stop-color="#26a2e9"/><stop offset="1" stop-color="#26a6ef"/></linearGradient><linearGradient id="Degradado_sin_nombre_4-2" x1="273.9" y1="232.69" x2="197.57" y2="71.43" xlink:href="#Degradado_sin_nombre_4"/><linearGradient id="Degradado_sin_nombre_4-3" x1="260.17" y1="239.19" x2="183.84" y2="77.93" xlink:href="#Degradado_sin_nombre_4"/><linearGradient id="Degradado_sin_nombre_4-4" x1="289.49" y1="225.31" x2="213.16" y2="64.05" xlink:href="#Degradado_sin_nombre_4"/></defs><title>EdicionDeVideos</title><path class="cls-1" d="M436,241.91H39c-17,0-30.81-12-30.81-26.85V34C8.2,19.17,22,7.15,39,7.15H436c17,0,30.81,12,30.81,26.85V215.06c0,14.83-13.79,26.85-30.81,26.85Z"/><path class="cls-2" d="M436,7.15H409.76c17,0,30.81,12,30.81,26.85V215.06c0,14.83-13.8,26.85-30.81,26.85H436c17,0,30.81-12,30.81-26.85V34C466.8,19.17,453,7.15,436,7.15Z"/><path d="M436,0H39C17.5,0,0,15.25,0,34V215.06c0,18.74,17.5,34,39,34H94.46c4.53,0,8.2-3.19,8.2-7.14s-3.67-7.15-8.2-7.15H39c-12.47,0-22.61-8.84-22.61-19.7V34C16.4,23.13,26.54,14.29,39,14.29H436c12.47,0,22.61,8.84,22.61,19.71V215.06c0,10.86-10.14,19.7-22.61,19.7H127.26c-4.53,0-8.2,3.2-8.2,7.15s3.67,7.14,8.2,7.14H436c21.51,0,39-15.25,39-34V34c0-18.75-17.5-34-39-34Z"/><path class="cls-3" d="M188.2,69.71A75.48,75.48,0,0,0,167.55,102a75.1,75.1,0,0,0,7.59,15.76,73.08,73.08,0,0,0,8.11,10.56c1.31-3.71,3.71-8.42,8.36-11.06,8.47-4.79,16.27,1.91,33,4.22A81.45,81.45,0,0,0,263.77,117a73.52,73.52,0,0,0,24.7-15.76,71.36,71.36,0,0,0,12.62-16.68c-2.27-3.53-19.88-30-54.27-33.92C243.32,50.25,212.74,47.28,188.2,69.71Zm83.32-3.18a5.39,5.39,0,1,1-5.39,5.39A5.39,5.39,0,0,1,271.52,66.53Z"/><path class="cls-4" d="M183.15,63.86a79.07,79.07,0,0,1,40-14.85,74.91,74.91,0,0,1,36.41,1.47c-2.32-1.79-35-26.06-74.46-12.14-36.21,12.8-47.64,47.09-48.84,50.92a11.25,11.25,0,0,0,21.52,6A79,79,0,0,1,183.15,63.86Z"/><path class="cls-5" d="M201.09,140.39A28.39,28.39,0,0,0,217.47,123l-11.26-3.82a28.25,28.25,0,0,1-5.12,21.23Z"/><path class="cls-6" d="M337,145.18c-6.13-26.81-25.07-41-29.68-44.22-9.14,28.85-34.05,49.65-63.14,52.81-32.78,3.57-64.92-15.92-77.77-47.86-3.41,11.28-5.47,45.36,15.14,71.67,33.68,43,90.75,48.56,148.83,18.66A75.54,75.54,0,0,0,337,145.18Z"/><path class="cls-7" d="M57.44,308.91,23.08,288.45a3.45,3.45,0,0,0-5.21,3v40.91a3.45,3.45,0,0,0,1.75,3,3.41,3.41,0,0,0,1.7.45,3.37,3.37,0,0,0,1.76-.49l34.36-20.45a3.45,3.45,0,0,0,0-5.92Z"/><path class="cls-8" d="M21.32,340.77a8.59,8.59,0,0,1-4.17-1.09,8.48,8.48,0,0,1-4.28-7.36V291.41a8.45,8.45,0,0,1,12.77-7.26L60,304.6a8.45,8.45,0,0,1,0,14.53L25.64,339.59A8.55,8.55,0,0,1,21.32,340.77Zm1.55-46.62v35.44l29.76-17.72Zm32,19.06h0Zm0,0h0Z"/><path class="cls-9" d="M276.61,294.5v32.07H87.35a6.59,6.59,0,0,1-6.6-6.6V301.1a6.59,6.59,0,0,1,6.6-6.6Z"/><rect class="cls-10" x="80.75" y="294.5" width="195.87" height="32.08" rx="6.61"/><path class="cls-11" d="M183.57,262.78l-9.73,8.14a10.87,10.87,0,0,1-13.94,0l-9.72-8.14a5.43,5.43,0,0,1-2-4.17V233.82a5.43,5.43,0,0,1,5.43-5.43h26.42a5.44,5.44,0,0,1,5.44,5.43v24.79a5.46,5.46,0,0,1-2,4.17Z"/><path d="M173.63,287.74v-8.91a20.44,20.44,0,0,0,4.55-2.75l9.71-8.16a12,12,0,0,0,4.35-9.3V233.79a12.2,12.2,0,0,0-12.11-12.16H153.66a12.21,12.21,0,0,0-12.16,12.16v24.83a12.12,12.12,0,0,0,4.35,9.3l9.76,8.16a18.41,18.41,0,0,0,4.55,2.75v8.91H87.35A13.35,13.35,0,0,0,74,301.1V320a13.31,13.31,0,0,0,13.31,13.31h72.81v16.16a6.74,6.74,0,1,0,13.47,0V333.28h103V287.74Zm96.23,32.13H173.63V301.2h96.23ZM87.5,301.2h72.66v18.67H87.5ZM155,258V235.1h23.87V258l-9.31,7.8a3.92,3.92,0,0,1-2.65,1h-.05a4,4,0,0,1-2.6-1Z"/><path d="M448.77,287.74H276.61v45.54H448.77A13.35,13.35,0,0,0,462.13,320V301.1A13.39,13.39,0,0,0,448.77,287.74Zm-.1,32.13H400.58V301.2h48.09Z"/><rect class="cls-12" x="283.12" y="301.2" width="165.56" height="18.67"/></svg>