<svg xmlns="http://www.w3.org/2000/svg" viewBox="0 0 360 220"><defs><style>.cls-1{fill:#005ac6;}.cls-2,.cls-4{opacity:0.1;}.cls-3,.cls-4{fill:#fff;}.cls-5{fill:#e8edf2;}.cls-6{fill:#c5d3dd;}.cls-7{fill:#ffaa01;}.cls-8{fill:#d38405;}.cls-9{fill:#d8ecfe;}.cls-10{fill:#915d00;}</style></defs><title>Identidad-Corporativa</title><g id="Ãconos"><rect class="cls-1" width="360" height="220"/><g class="cls-2"><path class="cls-3" d="M264.39,32.28a6,6,0,0,1,0,3.44,6.25,6.25,0,0,1-2,3,10.42,10.42,0,0,1-3.91,2,9.8,9.8,0,0,1-5.07.33,6.67,6.67,0,0,1-2.78-1.44,5,5,0,0,1-1.59-2.29,1.8,1.8,0,0,1,1.24-2.27,1.6,1.6,0,0,1,1.18.09,3.36,3.36,0,0,1,1.09,1,8.38,8.38,0,0,0,1.26,1.31,3.35,3.35,0,0,0,1.52.66,4.54,4.54,0,0,0,2.18-.21,4.89,4.89,0,0,0,2.6-1.66,2.57,2.57,0,0,0,.48-2.37,2.21,2.21,0,0,0-1.06-1.39,4.06,4.06,0,0,0-1.8-.47c-.68,0-1.58,0-2.7.08a19.66,19.66,0,0,1-3.85-.1,6,6,0,0,1-2.77-1.12,4.82,4.82,0,0,1-1.67-2.57,5,5,0,0,1,0-3.11,5.75,5.75,0,0,1,2-2.68,10.94,10.94,0,0,1,3.7-1.83,9.83,9.83,0,0,1,3.22-.48,6.78,6.78,0,0,1,2.53.53,5.21,5.21,0,0,1,1.72,1.17,3.83,3.83,0,0,1,.87,1.46,1.93,1.93,0,0,1-.12,1.41,1.63,1.63,0,0,1-1.07.93,1.45,1.45,0,0,1-1.13,0,4.48,4.48,0,0,1-1.1-.88,5.21,5.21,0,0,0-1.78-1.33,3.89,3.89,0,0,0-2.57.1,4.29,4.29,0,0,0-2.26,1.4,2,2,0,0,0-.45,1.89,1.68,1.68,0,0,0,.61.91,2.82,2.82,0,0,0,1.1.47,6.17,6.17,0,0,0,1.27.14c.41,0,1.09,0,2-.06a32.27,32.27,0,0,1,3.23,0,9.09,9.09,0,0,1,2.6.45,4.76,4.76,0,0,1,2,1.24A5.59,5.59,0,0,1,264.39,32.28Z"/><path class="cls-3" d="M277.38,16.89l-8.87,2.65,1.43,4.77,8.16-2.44a2,2,0,0,1,1.47,0,1.4,1.4,0,0,1,.76.94,1.49,1.49,0,0,1-.11,1.21,2,2,0,0,1-1.23.82l-8.17,2.44,1.66,5.53,9.17-2.74a2,2,0,0,1,1.53,0,1.67,1.67,0,0,1,.68,2.26,2.07,2.07,0,0,1-1.27.85l-10.7,3.2a2.66,2.66,0,0,1-2,0,2.7,2.7,0,0,1-1.12-1.68l-4.36-14.61a3.42,3.42,0,0,1-.17-1.46,1.63,1.63,0,0,1,.56-1,3.36,3.36,0,0,1,1.3-.65l10.39-3.11a2.07,2.07,0,0,1,1.52,0,1.5,1.5,0,0,1,.79,1,1.48,1.48,0,0,1-.13,1.24A2.1,2.1,0,0,1,277.38,16.89Z"/><path class="cls-3" d="M290.23,9.38a10.79,10.79,0,0,1,5.55-.33,8.34,8.34,0,0,1,4.33,2.51,12.42,12.42,0,0,1,2.7,5,13.54,13.54,0,0,1,.61,4.28,9.29,9.29,0,0,1-.87,3.74,8.4,8.4,0,0,1-2.38,3,11.36,11.36,0,0,1-3.86,1.93,11.1,11.1,0,0,1-4.3.49,8.6,8.6,0,0,1-3.63-1.18,9.21,9.21,0,0,1-2.79-2.68,13.76,13.76,0,0,1-1.83-3.88,13.16,13.16,0,0,1-.58-4.3,9.12,9.12,0,0,1,.91-3.74,8.43,8.43,0,0,1,2.37-2.9A11,11,0,0,1,290.23,9.38Zm8.58,8.32a9.58,9.58,0,0,0-1.8-3.49,5.34,5.34,0,0,0-2.67-1.78,5.66,5.66,0,0,0-3.18.08,5.53,5.53,0,0,0-2.05,1.09,5,5,0,0,0-1.33,1.81,6.41,6.41,0,0,0-.5,2.51,10.37,10.37,0,0,0,.47,3.09,10.4,10.4,0,0,0,1.32,2.87,6.32,6.32,0,0,0,1.84,1.87,5.17,5.17,0,0,0,2.14.79,5.37,5.37,0,0,0,2.3-.21,5.48,5.48,0,0,0,2.55-1.59,5.34,5.34,0,0,0,1.32-2.93A9.34,9.34,0,0,0,298.81,17.7Z"/></g><g class="cls-2"><path class="cls-3" d="M301.4,63.78a2.11,2.11,0,0,0-.73-.8,1.44,1.44,0,0,0,1.58-.49,3.18,3.18,0,0,0,.55-.93,3.52,3.52,0,0,0,.27-1.1,1.83,1.83,0,0,0-.16-.91,2,2,0,0,0-.6-.74,4.06,4.06,0,0,0-1-.59l-2.13-.86-3.78,9.29,2.48,1a3,3,0,0,0,1.14.24,2.07,2.07,0,0,0,1-.23,2.38,2.38,0,0,0,.77-.66,4.61,4.61,0,0,0,.58-1,3.88,3.88,0,0,0,.3-1.21A2,2,0,0,0,301.4,63.78ZM300,58.85l.31.12a6.39,6.39,0,0,1,1,.52,1,1,0,0,1,.46.6,1.89,1.89,0,0,1-.18,1,3.12,3.12,0,0,1-.49.85,1,1,0,0,1-.64.32,2.14,2.14,0,0,1-.93-.2l-.76-.31Zm-.81,7.82a1.47,1.47,0,0,1-1.33-.07l-.87-.35,1.42-3.5.77.31a1.87,1.87,0,0,1,.83.57,1.23,1.23,0,0,1,.25.8,2.8,2.8,0,0,1-.24,1A2.51,2.51,0,0,1,299.23,66.67Z"/><polygon class="cls-3" points="308.54 61.18 307.25 60.65 303.47 69.95 307.14 71.44 307.52 70.51 305.14 69.55 308.54 61.18"/><path class="cls-3" d="M317.59,65.18a2.87,2.87,0,0,0-1.35-1A3,3,0,0,0,314.6,64a2.09,2.09,0,0,0-1.21.68,4.77,4.77,0,0,0-.89,1.48l-1.43,3.52a5.05,5.05,0,0,0-.41,1.7,2.18,2.18,0,0,0,.37,1.38,3,3,0,0,0,1.36,1,2.78,2.78,0,0,0,1.64.24,2.23,2.23,0,0,0,1.22-.73,4.81,4.81,0,0,0,.89-1.48l1.44-3.54a4.67,4.67,0,0,0,.39-1.67A2.12,2.12,0,0,0,317.59,65.18Zm-2.87,6.28a4.67,4.67,0,0,1-.45.87,1.17,1.17,0,0,1-.6.45,1.34,1.34,0,0,1-.87-.11,1.38,1.38,0,0,1-.7-.53,1.14,1.14,0,0,1-.12-.74,4.63,4.63,0,0,1,.28-.94l1.65-4.07a3.81,3.81,0,0,1,.46-.86,1.05,1.05,0,0,1,.59-.42,1.79,1.79,0,0,1,1.57.63,1.09,1.09,0,0,1,.12.72,3.94,3.94,0,0,1-.27.93Z"/><path class="cls-3" d="M322.29,73.31l1.18.48-.26.64a5.87,5.87,0,0,1-.58,1.13,1.4,1.4,0,0,1-.67.56,1.26,1.26,0,0,1-.88-.08,1.39,1.39,0,0,1-.69-.53,1.22,1.22,0,0,1-.1-.82,5.28,5.28,0,0,1,.36-1.15l1.4-3.45a7.19,7.19,0,0,1,.48-1,1.26,1.26,0,0,1,.61-.58,1.22,1.22,0,0,1,.94.07,1.3,1.3,0,0,1,.69.51,1,1,0,0,1,.1.7,5.78,5.78,0,0,1-.32,1l-.12.28,1.21.5.14-.35a4.37,4.37,0,0,0,.38-1.61,1.83,1.83,0,0,0-.41-1.21,3.13,3.13,0,0,0-1.28-.87,2.94,2.94,0,0,0-1.68-.24,2.14,2.14,0,0,0-1.2.79,6.64,6.64,0,0,0-.92,1.65l-1.26,3.11a5.54,5.54,0,0,0-.46,1.81,2.21,2.21,0,0,0,.31,1.39,2.57,2.57,0,0,0,1.24.94,1.77,1.77,0,0,0,1.22.1,2.13,2.13,0,0,0,.92-.61l-.31,1.12.81.33,1.87-4.6-2.35-1Z"/><path class="cls-3" d="M336.52,55.31l-34.68-14.1a4,4,0,0,0-5.19,2.19l-9.88,24.3A4,4,0,0,0,289,72.89L323.64,87a4,4,0,0,0,5.19-2.19l9.88-24.3A4,4,0,0,0,336.52,55.31Zm-9.36,28.81a2.18,2.18,0,0,1-2.85,1.2l-34.67-14.1a2.17,2.17,0,0,1-1.2-2.84l9.88-24.3a2.18,2.18,0,0,1,2.84-1.2L335.84,57a2.19,2.19,0,0,1,1.2,2.85Z"/><path class="cls-3" d="M301.47,48a1.3,1.3,0,1,0-.72-1.7A1.3,1.3,0,0,0,301.47,48Z"/><path class="cls-3" d="M306.35,50a1.3,1.3,0,1,0,1-2.41,1.28,1.28,0,0,0-1.69.71A1.31,1.31,0,0,0,306.35,50Z"/><path class="cls-3" d="M311.24,51.94a1.31,1.31,0,1,0-.72-1.7A1.3,1.3,0,0,0,311.24,51.94Z"/><rect class="cls-3" x="314.92" y="37.81" width="1.56" height="37.65" transform="translate(144.31 327.75) rotate(-67.87)"/></g><g class="cls-2"><path class="cls-3" d="M334.82,103.52a1.86,1.86,0,0,0-1.74-.37l-26.48,7.61a1.88,1.88,0,0,0,1,3.62l23.78-6.84-1.63,14.2L313,126.56l-14.95-18a1.89,1.89,0,0,0-2-.6l-4.74,1.36a1.88,1.88,0,1,0,1,3.62l3.56-1,15,18a1.89,1.89,0,0,0,2,.6L332,125a1.89,1.89,0,0,0,1.35-1.59l2.1-18.25A1.88,1.88,0,0,0,334.82,103.52Z"/><path class="cls-3" d="M314,133.16a5.34,5.34,0,1,0,6.61,3.66A5.34,5.34,0,0,0,314,133.16Zm1.91,6.66a1.58,1.58,0,1,1,1.08-2A1.58,1.58,0,0,1,315.92,139.82Z"/><path class="cls-3" d="M331.63,128.09a5.35,5.35,0,1,0,6.62,3.66A5.37,5.37,0,0,0,331.63,128.09Zm1.92,6.66a1.58,1.58,0,1,1,1.08-2A1.58,1.58,0,0,1,333.55,134.75Z"/></g><path class="cls-4" d="M343.44,169.61a.32.32,0,0,0-.38-.09l-17.63,8.3a.3.3,0,0,0-.15.4l3.37,7.16a.3.3,0,0,0,.41.15l9.55-4.49a11.8,11.8,0,0,1-1.62,6.84h0a11.41,11.41,0,0,1-5,4.52,11.6,11.6,0,0,1-13.36-2.57h0a11.65,11.65,0,0,1-2.12-3.11,11.53,11.53,0,0,1-1-3.57h0a11.52,11.52,0,0,1,14.38-12.68.31.31,0,0,0,.37-.2l2.81-7.8a.33.33,0,0,0,0-.24.32.32,0,0,0-.19-.15,20.23,20.23,0,0,0-23.17,8.6,20.81,20.81,0,0,0,4.57,27.1h0a20.65,20.65,0,0,0,10.26,4.44A20.26,20.26,0,0,0,345.87,190a20.84,20.84,0,0,0,1-13.09,21.52,21.52,0,0,0-1.36-3.8A21,21,0,0,0,343.44,169.61Z"/><g class="cls-2"><path class="cls-3" d="M267.48,183.51a5.19,5.19,0,0,0-5.8,2.64,5.12,5.12,0,0,0-.44,1.2,5.18,5.18,0,1,0,10.08,2.4,5,5,0,0,0,.13-1.49A5.2,5.2,0,0,0,267.48,183.51Z"/><path class="cls-3" d="M269.52,175A14,14,0,0,0,257,178.1a.3.3,0,0,0-.06.38l3.19,5.34a.3.3,0,0,0,.19.14h0a.31.31,0,0,0,.26-.1,7.35,7.35,0,0,1,12.79,2.88.29.29,0,0,0,.18.21.29.29,0,0,0,.27,0l5.23-3.31a.29.29,0,0,0,.12-.37A14,14,0,0,0,269.52,175Z"/><path class="cls-3" d="M271.57,166.39a22.72,22.72,0,0,0-19.11,4.06.31.31,0,0,0-.07.4l3.11,5.21a.3.3,0,0,0,.19.14h0a.31.31,0,0,0,.24-.07A16.14,16.14,0,0,1,281,182a.29.29,0,0,0,.19.17.26.26,0,0,0,.24,0l5.14-3.24a.3.3,0,0,0,.1-.39A22.71,22.71,0,0,0,271.57,166.39Z"/><path class="cls-3" d="M294.17,173.75a31.55,31.55,0,0,0-46.24-10.89.31.31,0,0,0-.08.4l3.11,5.2a.29.29,0,0,0,.18.13h0a.31.31,0,0,0,.23-.06,24.93,24.93,0,0,1,37.13,8.72.29.29,0,0,0,.19.15.34.34,0,0,0,.24,0l5.11-3.23A.32.32,0,0,0,294.17,173.75Z"/></g><g class="cls-2"><path class="cls-3" d="M22.4,33.87a5.93,5.93,0,0,1,0,3.44,6.25,6.25,0,0,1-2,3,10.55,10.55,0,0,1-3.91,2,9.69,9.69,0,0,1-5.07.33,6.56,6.56,0,0,1-2.78-1.44,5,5,0,0,1-1.59-2.29,1.8,1.8,0,0,1,1.25-2.27,1.58,1.58,0,0,1,1.17.09,3.26,3.26,0,0,1,1.09,1A8.38,8.38,0,0,0,11.86,39a3.35,3.35,0,0,0,1.52.66,4.53,4.53,0,0,0,2.18-.21,4.85,4.85,0,0,0,2.6-1.66,2.53,2.53,0,0,0,.48-2.36,2.23,2.23,0,0,0-1.06-1.4,3.93,3.93,0,0,0-1.8-.46,24.32,24.32,0,0,0-2.7.07,19.66,19.66,0,0,1-3.85-.1,6,6,0,0,1-2.77-1.12,4.82,4.82,0,0,1-1.67-2.57,5.08,5.08,0,0,1,0-3.11,5.81,5.81,0,0,1,2-2.68,10.94,10.94,0,0,1,3.7-1.83,9.85,9.85,0,0,1,3.23-.48,6.68,6.68,0,0,1,2.52.53,5.21,5.21,0,0,1,1.72,1.17,3.83,3.83,0,0,1,.87,1.46,1.93,1.93,0,0,1-.12,1.41,1.67,1.67,0,0,1-1.07.94,1.49,1.49,0,0,1-1.13,0,4.44,4.44,0,0,1-1.09-.87A5.24,5.24,0,0,0,13.61,25a3.89,3.89,0,0,0-2.57.1,4.29,4.29,0,0,0-2.26,1.4,2,2,0,0,0-.45,1.89,1.65,1.65,0,0,0,.62.91,2.71,2.71,0,0,0,1.09.47,6.17,6.17,0,0,0,1.27.14c.41,0,1.09,0,2-.06a32.27,32.27,0,0,1,3.23,0,9.22,9.22,0,0,1,2.61.45,4.89,4.89,0,0,1,1.95,1.24A5.48,5.48,0,0,1,22.4,33.87Z"/><path class="cls-3" d="M35.39,18.48l-8.87,2.65L28,25.9l8.16-2.44a2,2,0,0,1,1.47,0,1.4,1.4,0,0,1,.76.94,1.45,1.45,0,0,1-.11,1.21,2,2,0,0,1-1.23.82l-8.16,2.44,1.65,5.53,9.17-2.74a2.1,2.1,0,0,1,1.53,0,1.53,1.53,0,0,1,.81,1,1.56,1.56,0,0,1-.13,1.27,2.07,2.07,0,0,1-1.27.84L29.9,38a2.66,2.66,0,0,1-2,0,2.66,2.66,0,0,1-1.11-1.68L22.4,21.68a3.25,3.25,0,0,1-.16-1.46,1.62,1.62,0,0,1,.55-1,3.36,3.36,0,0,1,1.3-.65l10.39-3.11a2.1,2.1,0,0,1,1.53,0,1.49,1.49,0,0,1,.78,1,1.44,1.44,0,0,1-.13,1.24A2.1,2.1,0,0,1,35.39,18.48Z"/><path class="cls-3" d="M48.24,11a10.89,10.89,0,0,1,5.55-.33,8.34,8.34,0,0,1,4.33,2.51,12.42,12.42,0,0,1,2.7,5,13.54,13.54,0,0,1,.61,4.28,9.38,9.38,0,0,1-.87,3.75,8.45,8.45,0,0,1-2.38,3A11.36,11.36,0,0,1,54.32,31a11.1,11.1,0,0,1-4.3.49,8.46,8.46,0,0,1-3.63-1.18,9.15,9.15,0,0,1-2.78-2.67,13.7,13.7,0,0,1-1.84-3.89,13.16,13.16,0,0,1-.58-4.3,9.12,9.12,0,0,1,.91-3.74,8.43,8.43,0,0,1,2.37-2.9A11.11,11.11,0,0,1,48.24,11Zm8.58,8.32A9.43,9.43,0,0,0,55,15.8,5.34,5.34,0,0,0,52.35,14a6,6,0,0,0-5.23,1.17A5.1,5.1,0,0,0,45.79,17a6.24,6.24,0,0,0-.49,2.51,11.13,11.13,0,0,0,1.78,6,6.44,6.44,0,0,0,1.84,1.87,5.17,5.17,0,0,0,2.14.79,5.35,5.35,0,0,0,2.3-.21,5.55,5.55,0,0,0,2.55-1.58,5.4,5.4,0,0,0,1.32-2.94A9.34,9.34,0,0,0,56.82,19.29Z"/></g><g class="cls-2"><path class="cls-3" d="M93.57,29.66a2.11,2.11,0,0,0-.73-.8,1.49,1.49,0,0,0,1.58-.49,3.41,3.41,0,0,0,.55-.93,3.59,3.59,0,0,0,.27-1.1,1.87,1.87,0,0,0-.16-.92,2.06,2.06,0,0,0-.6-.73,4.06,4.06,0,0,0-1-.59l-2.13-.87-3.78,9.3,2.47,1a3.07,3.07,0,0,0,1.15.25,2.07,2.07,0,0,0,1-.23,2.49,2.49,0,0,0,.77-.66,4.47,4.47,0,0,0,.58-1,3.76,3.76,0,0,0,.3-1.2A2,2,0,0,0,93.57,29.66Zm-1.36-4.93.31.12a7.41,7.41,0,0,1,1,.51A1,1,0,0,1,94,26a1.89,1.89,0,0,1-.18,1,2.9,2.9,0,0,1-.49.84.94.94,0,0,1-.64.33,2.14,2.14,0,0,1-.93-.2L91,27.64Zm-.81,7.82a1.47,1.47,0,0,1-1.33-.07l-.87-.36,1.42-3.49.77.31a1.85,1.85,0,0,1,.83.57,1.23,1.23,0,0,1,.25.8,2.8,2.8,0,0,1-.24,1A2.51,2.51,0,0,1,91.4,32.55Z"/><polygon class="cls-3" points="100.71 27.06 99.42 26.53 95.64 35.83 99.31 37.32 99.69 36.39 97.31 35.42 100.71 27.06"/><path class="cls-3" d="M109.76,31.06a3.63,3.63,0,0,0-3-1.22,2.09,2.09,0,0,0-1.21.68,4.77,4.77,0,0,0-.89,1.48l-1.43,3.52a5.05,5.05,0,0,0-.41,1.7,2.13,2.13,0,0,0,.37,1.37,2.91,2.91,0,0,0,1.36,1,2.86,2.86,0,0,0,1.64.24,2.29,2.29,0,0,0,1.22-.73,4.81,4.81,0,0,0,.89-1.48l1.44-3.54a4.71,4.71,0,0,0,.39-1.67A2.17,2.17,0,0,0,109.76,31.06Zm-2.87,6.28a3.81,3.81,0,0,1-.46.86,1.08,1.08,0,0,1-.59.46,1.33,1.33,0,0,1-.87-.11,1.38,1.38,0,0,1-.7-.53,1.15,1.15,0,0,1-.12-.74,3.93,3.93,0,0,1,.28-.94l1.65-4.07a3.81,3.81,0,0,1,.46-.86,1.05,1.05,0,0,1,.59-.42,1.43,1.43,0,0,1,.87.12,1.47,1.47,0,0,1,.7.51,1.09,1.09,0,0,1,.12.72,4.23,4.23,0,0,1-.27.93Z"/><path class="cls-3" d="M114.46,39.19l1.18.48-.26.64a5.87,5.87,0,0,1-.58,1.13,1.46,1.46,0,0,1-.67.56,1.26,1.26,0,0,1-.88-.08,1.4,1.4,0,0,1-.69-.54,1.19,1.19,0,0,1-.1-.81,6.06,6.06,0,0,1,.35-1.16l1.4-3.44a10.51,10.51,0,0,1,.48-1,1.32,1.32,0,0,1,.62-.58,1.18,1.18,0,0,1,.94.07,1.34,1.34,0,0,1,.69.5,1,1,0,0,1,.1.71,5.18,5.18,0,0,1-.33,1l-.11.28,1.21.5.14-.35a4.37,4.37,0,0,0,.38-1.62,1.85,1.85,0,0,0-.41-1.21,3.26,3.26,0,0,0-1.29-.86A2.9,2.9,0,0,0,115,33.2a2.11,2.11,0,0,0-1.2.79,6.64,6.64,0,0,0-.92,1.65l-1.27,3.11a6.11,6.11,0,0,0-.46,1.8,2.3,2.3,0,0,0,.32,1.4,2.57,2.57,0,0,0,1.24.94,1.77,1.77,0,0,0,1.22.1,2.13,2.13,0,0,0,.92-.61l-.31,1.12.81.33,1.87-4.6-2.35-1Z"/><path class="cls-3" d="M128.69,21.19,94,7.09a4,4,0,0,0-5.19,2.19l-9.88,24.3a4,4,0,0,0,2.19,5.19l34.68,14.1A4,4,0,0,0,121,50.68l9.89-24.3A4,4,0,0,0,128.69,21.19ZM119.33,50a2.18,2.18,0,0,1-2.85,1.2L81.81,37.1a2.17,2.17,0,0,1-1.2-2.84L90.49,10a2.17,2.17,0,0,1,2.84-1.2L128,22.86a2.2,2.2,0,0,1,1.2,2.85Z"/><path class="cls-3" d="M93.63,13.84a1.3,1.3,0,1,0-.71-1.7A1.3,1.3,0,0,0,93.63,13.84Z"/><path class="cls-3" d="M98.52,15.83a1.31,1.31,0,1,0-.71-1.7A1.3,1.3,0,0,0,98.52,15.83Z"/><path class="cls-3" d="M103.41,17.82a1.31,1.31,0,1,0-.72-1.7A1.3,1.3,0,0,0,103.41,17.82Z"/><rect class="cls-3" x="107.09" y="3.69" width="1.56" height="37.65" transform="translate(46.38 113.96) rotate(-67.87)"/></g><g class="cls-2"><path class="cls-3" d="M87.59,54.19a1.86,1.86,0,0,0-1.74-.37L59.37,61.43a1.88,1.88,0,0,0,1,3.62l23.77-6.84-1.63,14.2L65.79,77.23l-15-18a1.87,1.87,0,0,0-2-.6L44.13,60a1.88,1.88,0,0,0,1,3.62l3.57-1L63.69,80.58a1.87,1.87,0,0,0,2,.6l19.15-5.5a1.89,1.89,0,0,0,1.35-1.59l2.09-18.25A1.89,1.89,0,0,0,87.59,54.19Z"/><path class="cls-3" d="M66.78,83.83a5.35,5.35,0,1,0,6.62,3.66A5.36,5.36,0,0,0,66.78,83.83Zm1.92,6.66a1.58,1.58,0,1,1,1.08-2A1.59,1.59,0,0,1,68.7,90.49Z"/><path class="cls-3" d="M84.41,78.77A5.34,5.34,0,1,0,91,82.43,5.34,5.34,0,0,0,84.41,78.77Zm1.91,6.65a1.58,1.58,0,1,1,1.08-2A1.57,1.57,0,0,1,86.32,85.42Z"/></g><path class="cls-4" d="M46,111.36a.3.3,0,0,0-.37-.1l-17.64,8.3a.3.3,0,0,0-.15.4l3.37,7.17a.31.31,0,0,0,.41.14l9.55-4.49a11.87,11.87,0,0,1-1.61,6.84h0a11.46,11.46,0,0,1-5,4.52,11.6,11.6,0,0,1-13.37-2.57h0A12,12,0,0,1,18,124.88h0A11.53,11.53,0,0,1,32.39,112.2a.3.3,0,0,0,.36-.19l2.81-7.8a.33.33,0,0,0,0-.24.33.33,0,0,0-.19-.16,20.27,20.27,0,0,0-23.17,8.6,20.83,20.83,0,0,0,4.57,27.11h0A20.63,20.63,0,0,0,27,144a20.26,20.26,0,0,0,21.36-12.25A20.74,20.74,0,0,0,48,114.83,20.21,20.21,0,0,0,46,111.36Z"/><g class="cls-2"><path class="cls-3" d="M30.73,201.89a5.18,5.18,0,0,0-5.8,2.64,5.12,5.12,0,0,0-.44,1.2,5.18,5.18,0,0,0,10.08,2.41,5,5,0,0,0,.13-1.49A5.2,5.2,0,0,0,30.73,201.89Z"/><path class="cls-3" d="M32.77,193.33a14,14,0,0,0-12.52,3.15.31.31,0,0,0-.06.38l3.19,5.34a.3.3,0,0,0,.19.14h0a.31.31,0,0,0,.26-.1,7.35,7.35,0,0,1,12.79,2.89.28.28,0,0,0,.18.2.32.32,0,0,0,.27,0L42.34,202a.28.28,0,0,0,.12-.36A14,14,0,0,0,32.77,193.33Z"/><path class="cls-3" d="M34.82,184.77a22.72,22.72,0,0,0-19.11,4.06.31.31,0,0,0-.07.4l3.11,5.21a.3.3,0,0,0,.19.14h0a.32.32,0,0,0,.25-.07,16.13,16.13,0,0,1,25.08,5.85.26.26,0,0,0,.19.16.29.29,0,0,0,.24,0l5.14-3.25a.3.3,0,0,0,.1-.39A22.74,22.74,0,0,0,34.82,184.77Z"/><path class="cls-3" d="M57.41,192.13a31.54,31.54,0,0,0-46.23-10.89.31.31,0,0,0-.08.4l3.1,5.2a.33.33,0,0,0,.19.14h0a.29.29,0,0,0,.24-.06,24.93,24.93,0,0,1,37.13,8.72.27.27,0,0,0,.18.15.33.33,0,0,0,.24,0l5.12-3.23A.3.3,0,0,0,57.41,192.13Z"/></g><g class="cls-2"><path class="cls-3" d="M86.45,130.75a5.93,5.93,0,0,1,0,3.44,6.27,6.27,0,0,1-2,3,10.42,10.42,0,0,1-3.91,2,9.8,9.8,0,0,1-5.07.33,6.58,6.58,0,0,1-2.78-1.45,4.94,4.94,0,0,1-1.59-2.29,1.77,1.77,0,0,1,.13-1.37,1.75,1.75,0,0,1,1.12-.89,1.57,1.57,0,0,1,1.17.08,3.26,3.26,0,0,1,1.09,1,8,8,0,0,0,1.26,1.31,3.52,3.52,0,0,0,1.52.67,4.79,4.79,0,0,0,2.18-.21,4.86,4.86,0,0,0,2.6-1.67,2.56,2.56,0,0,0,.49-2.36,2.27,2.27,0,0,0-1.06-1.39,4,4,0,0,0-1.8-.47c-.69,0-1.59,0-2.71.07a18.78,18.78,0,0,1-3.84-.1,5.85,5.85,0,0,1-2.78-1.12,4.78,4.78,0,0,1-1.67-2.57,5.08,5.08,0,0,1,0-3.11,5.84,5.84,0,0,1,2-2.67,10.68,10.68,0,0,1,3.7-1.83,10.16,10.16,0,0,1,3.23-.49,6.87,6.87,0,0,1,2.52.54A5,5,0,0,1,82,120.35a3.91,3.91,0,0,1,.87,1.46,2,2,0,0,1-.12,1.42,1.68,1.68,0,0,1-1.07.93,1.45,1.45,0,0,1-1.13,0,4.79,4.79,0,0,1-1.09-.88,5.38,5.38,0,0,0-1.79-1.34,3.89,3.89,0,0,0-2.57.1,4.3,4.3,0,0,0-2.26,1.41,2,2,0,0,0-.45,1.89,1.65,1.65,0,0,0,.62.91,2.86,2.86,0,0,0,1.09.47,6.25,6.25,0,0,0,1.27.14c.41,0,1.09,0,2-.06a29.56,29.56,0,0,1,3.23,0,9.22,9.22,0,0,1,2.61.45,4.78,4.78,0,0,1,2,1.24A5.51,5.51,0,0,1,86.45,130.75Z"/><path class="cls-3" d="M99.44,115.35,90.57,118,92,122.78l8.17-2.44a2,2,0,0,1,1.46,0,1.41,1.41,0,0,1,.76.93,1.45,1.45,0,0,1-.11,1.21,2,2,0,0,1-1.23.82l-8.16,2.45,1.65,5.52,9.17-2.74a2.15,2.15,0,0,1,1.53,0,1.55,1.55,0,0,1,.81,1,1.49,1.49,0,0,1-.13,1.26,2.08,2.08,0,0,1-1.27.85L94,134.86a2.15,2.15,0,0,1-3.13-1.69l-4.37-14.61a3.41,3.41,0,0,1-.16-1.46,1.62,1.62,0,0,1,.55-1,3.51,3.51,0,0,1,1.3-.66l10.39-3.1a2.1,2.1,0,0,1,1.53,0,1.45,1.45,0,0,1,.78,1,1.46,1.46,0,0,1-.13,1.25A2,2,0,0,1,99.44,115.35Z"/><path class="cls-3" d="M112.29,107.84a10.78,10.78,0,0,1,5.55-.32,8.29,8.29,0,0,1,4.33,2.5,12.53,12.53,0,0,1,2.7,5,13.5,13.5,0,0,1,.61,4.28,9.29,9.29,0,0,1-.87,3.74,8.26,8.26,0,0,1-2.38,3,12.22,12.22,0,0,1-8.16,2.42,8.45,8.45,0,0,1-3.63-1.17,9.19,9.19,0,0,1-2.78-2.68,13.64,13.64,0,0,1-1.84-3.88,13.22,13.22,0,0,1-.58-4.31,9.07,9.07,0,0,1,.91-3.73,8.34,8.34,0,0,1,2.37-2.9A11.31,11.31,0,0,1,112.29,107.84Zm8.58,8.33a9.47,9.47,0,0,0-1.79-3.5,5.45,5.45,0,0,0-2.68-1.77,5.66,5.66,0,0,0-3.18.07,5.51,5.51,0,0,0-2,1.1,4.92,4.92,0,0,0-1.34,1.81,6.36,6.36,0,0,0-.49,2.5,11.13,11.13,0,0,0,1.78,6,6.32,6.32,0,0,0,1.84,1.87,5.23,5.23,0,0,0,2.15.8,5.65,5.65,0,0,0,2.29-.21,5.56,5.56,0,0,0,2.56-1.59,5.4,5.4,0,0,0,1.31-2.93A9.32,9.32,0,0,0,120.87,116.17Z"/></g><g class="cls-2"><path class="cls-3" d="M190.4,31.6a2.18,2.18,0,0,0-.73-.8,1.64,1.64,0,0,0,.88,0,1.53,1.53,0,0,0,.7-.48,3.33,3.33,0,0,0,.55-.94,3.46,3.46,0,0,0,.27-1.1,1.83,1.83,0,0,0-.16-.91,2.09,2.09,0,0,0-.6-.74,4.05,4.05,0,0,0-1-.58l-2.14-.87-3.77,9.29,2.47,1a3.07,3.07,0,0,0,1.15.25,2.2,2.2,0,0,0,1-.23,2.4,2.4,0,0,0,.77-.67,4.4,4.4,0,0,0,.58-1,3.81,3.81,0,0,0,.3-1.21A2,2,0,0,0,190.4,31.6ZM189,26.67l.31.13a7.41,7.41,0,0,1,1.05.51,1,1,0,0,1,.46.61,1.9,1.9,0,0,1-.18,1,3.21,3.21,0,0,1-.49.84,1,1,0,0,1-.64.32,2.1,2.1,0,0,1-.93-.19l-.77-.32Zm-.81,7.82a1.47,1.47,0,0,1-1.33-.07l-.87-.35,1.42-3.5.77.31a2,2,0,0,1,.83.57,1.25,1.25,0,0,1,.25.8,2.81,2.81,0,0,1-.24,1A2.47,2.47,0,0,1,188.23,34.49Z"/><polygon class="cls-3" points="197.54 29 196.25 28.48 192.47 37.77 196.14 39.26 196.52 38.33 194.14 37.37 197.54 29"/><path class="cls-3" d="M206.59,33a3.63,3.63,0,0,0-3-1.22,2.09,2.09,0,0,0-1.21.68,4.89,4.89,0,0,0-.89,1.48l-1.44,3.52a5.33,5.33,0,0,0-.4,1.7,2.18,2.18,0,0,0,.37,1.38,3,3,0,0,0,1.35,1,2.89,2.89,0,0,0,1.65.23,2.27,2.27,0,0,0,1.22-.72,4.87,4.87,0,0,0,.89-1.49L206.58,36a4.71,4.71,0,0,0,.39-1.67A2.2,2.2,0,0,0,206.59,33Zm-2.87,6.29a4,4,0,0,1-.46.86,1.11,1.11,0,0,1-.59.45,1.32,1.32,0,0,1-.87-.1,1.34,1.34,0,0,1-.7-.54,1.14,1.14,0,0,1-.12-.74,4.22,4.22,0,0,1,.28-.94l1.65-4.07a3.73,3.73,0,0,1,.46-.85,1,1,0,0,1,.59-.43,1.76,1.76,0,0,1,1.57.64,1.07,1.07,0,0,1,.12.72,4,4,0,0,1-.27.92Z"/><path class="cls-3" d="M211.29,41.13l1.18.48-.26.65a5.75,5.75,0,0,1-.58,1.12,1.34,1.34,0,0,1-.67.56,1.21,1.21,0,0,1-.88-.08,1.33,1.33,0,0,1-.69-.53,1.21,1.21,0,0,1-.1-.82,6,6,0,0,1,.35-1.15l1.4-3.44a9.45,9.45,0,0,1,.48-1,1.35,1.35,0,0,1,.62-.59,1.22,1.22,0,0,1,.94.07,1.41,1.41,0,0,1,.69.51,1,1,0,0,1,.1.71,5.12,5.12,0,0,1-.33,1l-.11.29,1.21.49.14-.34a4.37,4.37,0,0,0,.38-1.62,1.83,1.83,0,0,0-.41-1.21,3.06,3.06,0,0,0-1.29-.86,2.75,2.75,0,0,0-1.67-.24,2,2,0,0,0-1.2.78,6.72,6.72,0,0,0-.92,1.66l-1.27,3.1a6.09,6.09,0,0,0-.46,1.81,2.27,2.27,0,0,0,.32,1.39,2.52,2.52,0,0,0,1.24.94,1.77,1.77,0,0,0,1.22.11,2.15,2.15,0,0,0,.92-.62l-.31,1.12.81.33,1.87-4.6-2.35-1Z"/><path class="cls-3" d="M225.52,23.14,190.84,9a4,4,0,0,0-5.19,2.19l-9.88,24.29A4,4,0,0,0,178,40.71l34.68,14.1a4,4,0,0,0,5.18-2.19l9.89-24.29A4,4,0,0,0,225.52,23.14ZM216.16,52a2.2,2.2,0,0,1-2.85,1.2l-34.67-14.1a2.18,2.18,0,0,1-1.2-2.85l9.88-24.3a2.19,2.19,0,0,1,2.84-1.2l34.68,14.1a2.2,2.2,0,0,1,1.2,2.85Z"/><path class="cls-3" d="M190.46,15.78a1.29,1.29,0,0,0,1.7-.71,1.3,1.3,0,1,0-1.7.71Z"/><path class="cls-3" d="M195.35,17.77a1.3,1.3,0,1,0-.71-1.69A1.29,1.29,0,0,0,195.35,17.77Z"/><path class="cls-3" d="M200.24,19.76a1.3,1.3,0,1,0-.72-1.7A1.3,1.3,0,0,0,200.24,19.76Z"/><rect class="cls-3" x="203.92" y="5.63" width="1.56" height="37.65" transform="translate(104.93 204.87) rotate(-67.87)"/></g><g class="cls-2"><path class="cls-3" d="M114.64,175.75a1.92,1.92,0,0,0-1.74-.37L86.41,183a1.88,1.88,0,0,0,1,3.62l23.78-6.83L109.6,194l-16.76,4.82-15-17.95a1.89,1.89,0,0,0-2-.6l-4.74,1.36a1.88,1.88,0,0,0,1,3.62l3.56-1,15,17.94a1.89,1.89,0,0,0,2,.61l19.14-5.51a1.86,1.86,0,0,0,1.35-1.59l2.1-18.24A1.9,1.9,0,0,0,114.64,175.75Z"/><path class="cls-3" d="M93.83,205.4a5.34,5.34,0,1,0,6.61,3.66A5.34,5.34,0,0,0,93.83,205.4Zm1.91,6.65a1.58,1.58,0,1,1,1.08-2A1.57,1.57,0,0,1,95.74,212.05Z"/><path class="cls-3" d="M111.45,200.33a5.34,5.34,0,1,0,6.62,3.66A5.35,5.35,0,0,0,111.45,200.33Zm1.92,6.66a1.58,1.58,0,1,1,1.08-2A1.59,1.59,0,0,1,113.37,207Z"/></g><path class="cls-4" d="M218.16,180.79a.3.3,0,0,0-.37-.1L200.15,189a.3.3,0,0,0-.15.4l3.37,7.17a.31.31,0,0,0,.41.14l9.55-4.49a11.87,11.87,0,0,1-1.61,6.84h0a11.46,11.46,0,0,1-5,4.52A11.6,11.6,0,0,1,193.37,201h0a12,12,0,0,1-2.12-3.12,11.72,11.72,0,0,1-1-3.57h0a11.53,11.53,0,0,1,14.39-12.68.3.3,0,0,0,.36-.19l2.81-7.8a.33.33,0,0,0,0-.24.33.33,0,0,0-.19-.16,20.27,20.27,0,0,0-23.17,8.6A20.83,20.83,0,0,0,189,209h0a20.72,20.72,0,0,0,10.26,4.44,20.26,20.26,0,0,0,21.36-12.25,20.74,20.74,0,0,0-.37-16.88A20.21,20.21,0,0,0,218.16,180.79Z"/><g class="cls-2"><path class="cls-3" d="M252.08,129.61a5.18,5.18,0,0,0-5.8,2.64,5.29,5.29,0,0,0-.44,1.2,5.18,5.18,0,0,0,10.08,2.41,5,5,0,0,0,.13-1.49A5.21,5.21,0,0,0,252.08,129.61Z"/><path class="cls-3" d="M254.12,121.05a14,14,0,0,0-12.52,3.15.31.31,0,0,0-.06.38l3.19,5.34a.3.3,0,0,0,.19.14h0a.35.35,0,0,0,.26-.11A7.35,7.35,0,0,1,258,132.85a.28.28,0,0,0,.18.2.29.29,0,0,0,.27,0l5.23-3.31a.29.29,0,0,0,.12-.37A14,14,0,0,0,254.12,121.05Z"/><path class="cls-3" d="M256.17,112.49a22.69,22.69,0,0,0-19.11,4.07.31.31,0,0,0-.08.39l3.12,5.22a.26.26,0,0,0,.19.13h0a.32.32,0,0,0,.25-.07,16.13,16.13,0,0,1,25.08,5.85.26.26,0,0,0,.19.16.29.29,0,0,0,.24,0l5.13-3.25a.3.3,0,0,0,.11-.39A22.76,22.76,0,0,0,256.17,112.49Z"/><path class="cls-3" d="M278.76,119.85A31.54,31.54,0,0,0,232.53,109a.31.31,0,0,0-.08.4l3.1,5.2a.33.33,0,0,0,.19.14h0a.29.29,0,0,0,.24,0,24.91,24.91,0,0,1,37.13,8.71.27.27,0,0,0,.18.15.33.33,0,0,0,.24,0l5.12-3.23A.3.3,0,0,0,278.76,119.85Z"/></g><path class="cls-5" d="M260.28,25V163.11a3.56,3.56,0,0,1-3.56,3.56H183.06L155.79,139.4V25a3.56,3.56,0,0,1,3.56-3.56h97.37A3.56,3.56,0,0,1,260.28,25Z"/><path class="cls-6" d="M256.72,21.47h-8.55A3.56,3.56,0,0,1,251.73,25V163.11a3.56,3.56,0,0,1-3.56,3.56h8.55a3.56,3.56,0,0,0,3.56-3.56V25A3.56,3.56,0,0,0,256.72,21.47Z"/><path class="cls-6" d="M183.06,166.67V143a3.57,3.57,0,0,0-3.57-3.56h-23.7Z"/><path class="cls-7" d="M99.72,139.38V194a4.56,4.56,0,0,0,4.56,4.56h37.06A4.56,4.56,0,0,0,145.9,194V139.38a4.56,4.56,0,0,0-4.56-4.56H104.28a4.56,4.56,0,0,0-4.56,4.56Z"/><path class="cls-8" d="M141.34,134.82h-8a4.56,4.56,0,0,1,4.56,4.56V194a4.56,4.56,0,0,1-4.56,4.56h8A4.56,4.56,0,0,0,145.9,194V139.38a4.56,4.56,0,0,0-4.56-4.56Z"/><circle class="cls-9" cx="122.81" cy="157.55" r="9.36"/><path class="cls-7" d="M219.31,185.93H160.62a4.83,4.83,0,1,0,0,9.66h58.69Z"/><path class="cls-8" d="M166.77,185.93h-6.15a4.83,4.83,0,1,0,0,9.66h6.15v-9.66Z"/><path class="cls-8" d="M220.51,183h36.15a3.62,3.62,0,0,1,3.62,3.62v8.3a3.62,3.62,0,0,1-3.62,3.62H220.51a1.21,1.21,0,0,1-1.2-1.21V184.2A1.21,1.21,0,0,1,220.51,183Z"/><path class="cls-10" d="M256.66,183h-8.25a3.62,3.62,0,0,1,3.62,3.62v8.3a3.62,3.62,0,0,1-3.62,3.62h8.25a3.62,3.62,0,0,0,3.62-3.62v-8.3A3.62,3.62,0,0,0,256.66,183Z"/><path class="cls-7" d="M99.72,39.83V75.91a3.56,3.56,0,0,0,3.56,3.56h62.43a3.56,3.56,0,0,0,3.56-3.56V39.83a3.57,3.57,0,0,0-3.56-3.56H103.28A3.56,3.56,0,0,0,99.72,39.83Z"/><path class="cls-8" d="M165.71,36.27h-8.4a3.56,3.56,0,0,1,3.56,3.56V75.91a3.56,3.56,0,0,1-3.56,3.56h8.4a3.56,3.56,0,0,0,3.56-3.56V39.83a3.57,3.57,0,0,0-3.56-3.56Z"/><path class="cls-8" d="M169.27,41.35H107.73a3.54,3.54,0,0,0-2.63,1.17l9.77,12.32a5.33,5.33,0,0,0,4.18,2h39.79a5.36,5.36,0,0,0,4.19-2L169.27,47V41.35Z"/><path class="cls-7" d="M100.65,37.44l9.76,12.33a5.35,5.35,0,0,0,4.19,2h39.79a5.35,5.35,0,0,0,4.19-2l9.76-12.33a3.57,3.57,0,0,0-2.63-1.17H103.28A3.57,3.57,0,0,0,100.65,37.44Z"/><path class="cls-7" d="M232.07,128.85l-7.17,4.5a2.65,2.65,0,0,0,0,4.48l7.17,4.5a2.66,2.66,0,0,0,2.8,0l7.17-4.5a2.65,2.65,0,0,0,0-4.48l-7.17-4.5A2.62,2.62,0,0,0,232.07,128.85Z"/><path class="cls-7" d="M227.74,49.11H188.33a1.78,1.78,0,0,1-1.78-1.78V37.89a1.78,1.78,0,0,1,1.78-1.78h39.41a1.78,1.78,0,0,1,1.78,1.78v9.44A1.78,1.78,0,0,1,227.74,49.11Z"/><path d="M153.13,139.67a1.25,1.25,0,0,0,0,.19.17.17,0,0,0,0,.07,1.74,1.74,0,0,0,.05.22v0a2,2,0,0,0,.08.22v0l.09.21,0,0a1.74,1.74,0,0,0,.11.18l0,0,.12.16a.1.1,0,0,1,0,0l.16.17,0,0,27.27,27.27,0,0,.17.16.06,0,.15.11.06,0,.17.1,0,0,.19.09h0l.22.08h0l.22,0h.06l.2,0h73.93a6.23,6.23,0,0,0,6.23-6.23V114.45a2.67,2.67,0,1,0-5.34,0v48.66a.89.89,0,0,1-.89.89h-71V143a6.25,6.25,0,0,0-6.24-6.23h-21V82.14h7.25a6.24,6.24,0,0,0,6.23-6.23V39.83a6.25,6.25,0,0,0-1.52-4.07l-.22-.24a6.23,6.23,0,0,0-4.49-1.92h-7.25V25a.89.89,0,0,1,.89-.89h97.37a.89.89,0,0,1,.89.89v78.73a2.67,2.67,0,0,0,5.34,0V25a6.24,6.24,0,0,0-6.23-6.23H159.35A6.25,6.25,0,0,0,153.11,25V33.6H103.28a6.21,6.21,0,0,0-4.49,1.92l-.22.24a6.2,6.2,0,0,0-1.52,4.07V75.91a6.23,6.23,0,0,0,6.23,6.23h49.83V139.4a2.45,2.45,0,0,0,0,.27ZM163.74,38.94l-7.26,9.17a2.66,2.66,0,0,1-2.09,1H114.6a2.66,2.66,0,0,1-2.09-1l-7.26-9.17Zm-61.35,37V44l5.93,7.48a8,8,0,0,0,6.28,3h39.79a8,8,0,0,0,6.28-3L166.6,44v32a.89.89,0,0,1-.89.89H103.28a.89.89,0,0,1-.89-.89Zm78,67.05v17.26l-18.14-18.15h17.25A.89.89,0,0,1,180.38,143Z"/><path d="M141.34,132.14H127.4l16.31-28.77a8,8,0,0,0-7-12H108.89a8,8,0,0,0-7,12l16.31,28.77h-14a7.24,7.24,0,0,0-7.23,7.24v12.83a2.67,2.67,0,1,0,5.34,0V139.38a1.89,1.89,0,0,1,1.89-1.89h37.06a1.89,1.89,0,0,1,1.89,1.89V194a1.89,1.89,0,0,1-1.89,1.89H104.28a1.89,1.89,0,0,1-1.89-1.89V162.9a2.67,2.67,0,1,0-5.34,0V194a7.24,7.24,0,0,0,7.23,7.23h37.06a7.25,7.25,0,0,0,7.24-7.23V139.38a7.26,7.26,0,0,0-7.24-7.24ZM106.58,98.07a2.62,2.62,0,0,1,2.31-1.33h27.84a2.68,2.68,0,0,1,2.33,4L122.81,129.4l-16.25-28.67a2.63,2.63,0,0,1,0-2.66Z"/><path d="M122.81,145.53a12,12,0,1,0,12,12A12,12,0,0,0,122.81,145.53Zm0,18.71a6.69,6.69,0,1,1,6.68-6.69A6.69,6.69,0,0,1,122.81,164.24Z"/><path d="M128.85,176.43H116.77a2.68,2.68,0,0,0,0,5.35h12.08a2.68,2.68,0,0,0,0-5.35Z"/><path d="M257.82,180.43v-.92a6.29,6.29,0,0,0-6.29-6.29H219.31a2.67,2.67,0,1,0,0,5.34h32.22a1,1,0,0,1,.95.95v.81h-32a3.87,3.87,0,0,0-3.75,2.94H160.62a7.51,7.51,0,1,0,0,15h56.14a3.87,3.87,0,0,0,3.75,2.93h36.15a6.29,6.29,0,0,0,6.29-6.29v-8.3a6.3,6.3,0,0,0-5.13-6.18Zm-41.19,12.49H169.44V188.6h47.19Zm-58.17-2.16a2.16,2.16,0,0,1,2.16-2.16h3.48v4.32h-3.48a2.16,2.16,0,0,1-2.16-2.16Zm99.15,4.15a1,1,0,0,1-.95,1H222V185.67h34.68a1,1,0,0,1,.95.94Z"/><path d="M222.29,153h22.36a2.67,2.67,0,1,0,0-5.34H222.29a2.67,2.67,0,1,0,0,5.34Z"/><path d="M230.64,126.59l-7.16,4.5a5.31,5.31,0,0,0,0,9l7.16,4.5a5.33,5.33,0,0,0,2.83.81,5.28,5.28,0,0,0,2.82-.81l7.17-4.5a5.31,5.31,0,0,0,0-9l-7.17-4.5a5.33,5.33,0,0,0-5.65,0Zm9.94,9-7.09,4.47-7.13-4.47,7.11-4.46Z"/><path d="M193.77,38.78a2.67,2.67,0,1,0,0-5.34h-5.44a4.45,4.45,0,0,0-4.45,4.45v9.44a4.45,4.45,0,0,0,4.45,4.45h39.41a4.46,4.46,0,0,0,4.45-4.45V37.89a4.45,4.45,0,0,0-4.45-4.45H204.46a2.67,2.67,0,0,0,0,5.34h22.39v7.66H189.22V38.78Z"/><path d="M181.82,71.36A2.67,2.67,0,0,0,184.49,74h47.09a2.67,2.67,0,0,0,0-5.34H184.49A2.66,2.66,0,0,0,181.82,71.36Z"/><path d="M184.49,88.18h47.09a2.68,2.68,0,0,0,0-5.35H184.49a2.68,2.68,0,0,0,0,5.35Z"/><path d="M184.49,102.32h47.09a2.67,2.67,0,0,0,0-5.34H184.49a2.67,2.67,0,0,0,0,5.34Z"/></g></svg>