<svg id="Capa_1" data-name="Capa 1" xmlns="http://www.w3.org/2000/svg" viewBox="0 0 475 356.25"><defs><style>.cls-1{fill:#e8edf2;}.cls-2{fill:#c5d3dd;}.cls-3{fill:#ffaa01;}.cls-4{fill:#d38405;}.cls-5{fill:#915d00;}.cls-6{fill:#f9a95a;}.cls-7{fill:#0a0a0a;}.cls-8{fill:#f9f9f9;}</style></defs><title>IdentidadDeMarca</title><path class="cls-1" d="M469.78,12.18V281.85a7,7,0,0,1-7,7H319l-53.26-53.26V12.18a7,7,0,0,1,7-7H462.82a7,7,0,0,1,7,7Z"/><path class="cls-2" d="M462.82,5.22h-16.7a7,7,0,0,1,7,7V281.85a7,7,0,0,1-7,7h16.7a7,7,0,0,0,7-7V12.18A7,7,0,0,0,462.82,5.22Z"/><path class="cls-2" d="M319,288.81v-46.3a7,7,0,0,0-7-7h-46.3Z"/><path class="cls-3" d="M389.75,326.42H275.13a9.44,9.44,0,0,0,0,18.88H389.75Z"/><path class="cls-4" d="M287.14,326.42h-12a9.44,9.44,0,0,0,0,18.88h12V326.42Z"/><path class="cls-4" d="M392.11,320.69h70.6a7.07,7.07,0,0,1,7.07,7.07V344a7.07,7.07,0,0,1-7.07,7.07h-70.6a2.36,2.36,0,0,1-2.36-2.36V323.05A2.36,2.36,0,0,1,392.11,320.69Z"/><path class="cls-5" d="M462.71,320.69H446.59a7.08,7.08,0,0,1,7.07,7.07V344a7.08,7.08,0,0,1-7.07,7.07h16.12a7.07,7.07,0,0,0,7.07-7.07v-16.2A7.07,7.07,0,0,0,462.71,320.69Z"/><path class="cls-3" d="M156.18,41.08v70.46a7,7,0,0,0,7,7H285.06a7,7,0,0,0,7-7V41.08a7,7,0,0,0-7-7H163.14A7,7,0,0,0,156.18,41.08Z"/><path class="cls-4" d="M285.06,34.12h-16.4a7,7,0,0,1,7,7v70.46a7,7,0,0,1-7,7h16.4a7,7,0,0,0,7-7V41.08a7,7,0,0,0-7-7Z"/><path class="cls-4" d="M292,44H171.84a6.9,6.9,0,0,0-5.15,2.29L185.77,70.4A10.42,10.42,0,0,0,194,74.35h77.7a10.42,10.42,0,0,0,8.18-3.95L292,55V44Z"/><path class="cls-3" d="M158,36.41l19.08,24.08a10.45,10.45,0,0,0,8.18,3.95H263a10.45,10.45,0,0,0,8.18-3.95l19.08-24.08a6.93,6.93,0,0,0-5.14-2.29H163.14A7,7,0,0,0,158,36.41Z"/><path class="cls-3" d="M414.67,215l-14,8.79a5.15,5.15,0,0,0,0,8.74l14,8.78a5.18,5.18,0,0,0,5.49,0l14-8.78a5.16,5.16,0,0,0,0-8.74l-14-8.79A5.18,5.18,0,0,0,414.67,215Z"/><path class="cls-3" d="M406.22,59.2h-77a3.48,3.48,0,0,1-3.48-3.48V37.28a3.48,3.48,0,0,1,3.48-3.48h77a3.48,3.48,0,0,1,3.48,3.48V55.72A3.48,3.48,0,0,1,406.22,59.2Z"/><path d="M260.5,236.07c0,.13,0,.25.05.38s0,.08,0,.13.07.29.11.44,0,0,0,0a3.12,3.12,0,0,0,.15.43l0,.05c.05.13.12.27.18.4l0,.06a2.5,2.5,0,0,0,.21.35.41.41,0,0,0,.05.09,3.55,3.55,0,0,0,.23.31l.07.1c.1.12.21.24.32.35l0,0,53.26,53.26,0,0c.11.1.22.21.34.3l.12.09a3.15,3.15,0,0,0,.29.22l.1.06a3.79,3.79,0,0,0,.34.2l.08,0a2.64,2.64,0,0,0,.38.18l.06,0,.42.15.06,0,.43.11.13,0,.38.06.52,0H462.82A12.19,12.19,0,0,0,475,281.86v-95a5.22,5.22,0,0,0-10.44,0v95a1.74,1.74,0,0,1-1.74,1.74H324.17V242.51A12.19,12.19,0,0,0,312,230.33H270.91V123.72h14.15a12.2,12.2,0,0,0,12.18-12.18V41.08a12.16,12.16,0,0,0-3-7.95c-.14-.16-.28-.32-.43-.47a12.14,12.14,0,0,0-8.78-3.75H270.91V12.18a1.74,1.74,0,0,1,1.74-1.74H462.82a1.74,1.74,0,0,1,1.74,1.74V165.94a5.22,5.22,0,0,0,10.44,0V12.18A12.19,12.19,0,0,0,462.82,0H272.65a12.19,12.19,0,0,0-12.18,12.18V28.91H163.14a12.1,12.1,0,0,0-8.77,3.75,4.69,4.69,0,0,0-.43.47,12.11,12.11,0,0,0-3,7.95v70.46a12.2,12.2,0,0,0,12.18,12.18h97.33V235.55a4.53,4.53,0,0,0,0,.52ZM281.23,39.34,267,57.24a5.16,5.16,0,0,1-4.09,2h-77.7a5.18,5.18,0,0,1-4.09-2L167,39.34ZM161.4,111.54V49.11L173,63.73a15.57,15.57,0,0,0,12.27,5.93H263a15.56,15.56,0,0,0,12.27-5.93L286.8,49.11v62.43a1.74,1.74,0,0,1-1.74,1.74H163.14a1.74,1.74,0,0,1-1.74-1.74Zm152.33,131v33.7l-35.44-35.44H312A1.74,1.74,0,0,1,313.73,242.51Z"/><path d="M465,315.69v-1.8a12.3,12.3,0,0,0-12.29-12.29H389.75a5.22,5.22,0,1,0,0,10.44h62.94a1.85,1.85,0,0,1,1.85,1.85v1.58H392.11a7.59,7.59,0,0,0-7.34,5.73H275.13a14.66,14.66,0,0,0,0,29.32H384.77a7.58,7.58,0,0,0,7.34,5.73h70.6A12.3,12.3,0,0,0,475,344v-16.2a12.31,12.31,0,0,0-10-12.07Zm-80.45,24.39H292.36v-8.44h92.17Zm-113.62-4.22a4.22,4.22,0,0,1,4.22-4.22h6.8v8.44h-6.8a4.22,4.22,0,0,1-4.22-4.22ZM464.56,344a1.85,1.85,0,0,1-1.85,1.85H395v-19.9h67.74a1.85,1.85,0,0,1,1.85,1.85Z"/><path d="M395.58,262.16h43.66a5.22,5.22,0,0,0,0-10.44H395.58a5.22,5.22,0,1,0,0,10.44Z"/><path d="M411.9,210.53l-14,8.78a10.39,10.39,0,0,0,0,17.59l14,8.78a10.42,10.42,0,0,0,11,0l14-8.79a10.38,10.38,0,0,0,0-17.58l-14-8.78a10.44,10.44,0,0,0-11,0Zm19.4,17.58-13.86,8.73-13.91-8.74,13.88-8.71Z"/><path d="M339.88,39a5.22,5.22,0,1,0,0-10.44H329.25a8.71,8.71,0,0,0-8.7,8.7V55.72a8.71,8.71,0,0,0,8.7,8.7h77a8.72,8.72,0,0,0,8.7-8.7V37.28a8.72,8.72,0,0,0-8.7-8.7H360.76a5.22,5.22,0,1,0,0,10.44h43.72V54H331V39Z"/><path d="M316.53,102.65a5.22,5.22,0,0,0,5.22,5.22h92a5.22,5.22,0,0,0,0-10.44h-92A5.22,5.22,0,0,0,316.53,102.65Z"/><path d="M321.75,135.5h92a5.22,5.22,0,0,0,0-10.44h-92a5.22,5.22,0,0,0,0,10.44Z"/><path d="M321.75,163.13h92a5.22,5.22,0,0,0,0-10.44h-92a5.22,5.22,0,0,0,0,10.44Z"/><circle class="cls-6" cx="121.31" cy="158.39" r="61.14"/><path class="cls-7" d="M121.31,226.47a68.08,68.08,0,1,1,68.08-68.09A68.16,68.16,0,0,1,121.31,226.47Zm0-122.28a54.2,54.2,0,1,0,54.2,54.19A54.25,54.25,0,0,0,121.31,104.19Z"/><path class="cls-3" d="M235.68,349.31H6.94c0-71.69,51.22-129.78,114.37-129.78S235.68,277.62,235.68,349.31Z"/><path class="cls-7" d="M235.68,356.25H6.94A6.94,6.94,0,0,1,0,349.31c0-75.38,54.42-136.72,121.31-136.72s121.31,61.34,121.31,136.72A6.93,6.93,0,0,1,235.68,356.25ZM14.05,342.37H228.57c-3.15-64.52-50.06-115.9-107.26-115.9S17.2,277.85,14.05,342.37Z"/><path class="cls-8" d="M64.53,264.68a11.51,11.51,0,0,0-3.15,4.93,12,12,0,0,0,1.16,2.4,10.37,10.37,0,0,0,1.24,1.61,3.07,3.07,0,0,1,1.27-1.69c1.29-.73,2.48.3,5,.65a12.44,12.44,0,0,0,6-.69,11.13,11.13,0,0,0,3.76-2.4A11,11,0,0,0,81.75,267a11.33,11.33,0,0,0-17.22-2.27Zm12.71-.49a.83.83,0,0,1,0,1.65.83.83,0,0,1,0-1.65Z"/><path class="cls-8" d="M63.76,263.79a12,12,0,0,1,6.09-2.27,11.3,11.3,0,0,1,2.81-.23,11.42,11.42,0,0,1,2.75.46c-.36-.28-5.35-4-11.36-1.86a12.6,12.6,0,0,0-7.45,7.77,1.71,1.71,0,0,0,3.28.92A12.14,12.14,0,0,1,63.76,263.79Z"/><path class="cls-8" d="M66.5,275.46a4.43,4.43,0,0,0,1.61-1.13A4.37,4.37,0,0,0,69,272.8l-1.72-.58a4.4,4.4,0,0,1-.78,3.24Z"/><path class="cls-8" d="M87.23,276.19a11.45,11.45,0,0,0-4.53-6.74,11.34,11.34,0,0,1-21.49.75,13.48,13.48,0,0,0,2.31,10.93c5.14,6.56,13.84,7.41,22.7,2.85A11.48,11.48,0,0,0,87.23,276.19Z"/><rect class="cls-4" x="134.66" y="267.67" width="49.73" height="10.47" rx="5.24"/></svg>