<svg xmlns="http://www.w3.org/2000/svg" viewBox="0 0 360 220"><defs><style>.cls-1{fill:#005ac6;}.cls-2,.cls-4{opacity:0.1;}.cls-3,.cls-4{fill:#fff;}.cls-5{fill:#7a402b;}.cls-6{fill:#872c10;}.cls-7{fill:#ebad88;}.cls-8{fill:#e8916f;}.cls-9{fill:#4278c3;}.cls-10{fill:#335995;}.cls-11{fill:#e02d4b;}.cls-12{fill:#c90d36;}.cls-13{fill:#d82339;}.cls-14{fill:#b70f2b;}</style></defs><title>Post-SM</title><g id="Ãconos"><rect class="cls-1" width="360" height="220"/><g class="cls-2"><path class="cls-3" d="M252.09,45.1a5.93,5.93,0,0,1,0,3.44,6.3,6.3,0,0,1-2,3,10.42,10.42,0,0,1-3.91,2,9.8,9.8,0,0,1-5.07.33,6.67,6.67,0,0,1-2.78-1.44,5,5,0,0,1-1.59-2.29A1.8,1.8,0,0,1,238,47.9a1.62,1.62,0,0,1,1.17.08,3.36,3.36,0,0,1,1.09,1,8.06,8.06,0,0,0,1.26,1.32,3.35,3.35,0,0,0,1.52.66,4.8,4.8,0,0,0,2.18-.21,4.89,4.89,0,0,0,2.6-1.66,2.57,2.57,0,0,0,.48-2.37,2.21,2.21,0,0,0-1.06-1.39,3.93,3.93,0,0,0-1.8-.47c-.68,0-1.58,0-2.7.07a19.74,19.74,0,0,1-3.85-.09,6,6,0,0,1-2.77-1.12,4.82,4.82,0,0,1-1.67-2.57,5.11,5.11,0,0,1,0-3.12,5.84,5.84,0,0,1,2-2.67,10.76,10.76,0,0,1,3.7-1.83,9.85,9.85,0,0,1,3.23-.48,6.77,6.77,0,0,1,2.52.53,5.21,5.21,0,0,1,1.72,1.17,3.87,3.87,0,0,1,.87,1.45,2,2,0,0,1-.12,1.42,1.65,1.65,0,0,1-1.07.93,1.45,1.45,0,0,1-1.13,0,4.74,4.74,0,0,1-1.1-.88,5.21,5.21,0,0,0-1.78-1.33,3.88,3.88,0,0,0-2.57.09,4.36,4.36,0,0,0-2.26,1.41,2,2,0,0,0-.45,1.89,1.65,1.65,0,0,0,.62.91,2.71,2.71,0,0,0,1.09.47,6.17,6.17,0,0,0,1.27.14c.41,0,1.09,0,2-.06a29.53,29.53,0,0,1,3.23,0,9.09,9.09,0,0,1,2.6.45,4.76,4.76,0,0,1,2,1.24A5.48,5.48,0,0,1,252.09,45.1Z"/><path class="cls-3" d="M265.08,29.71l-8.87,2.65,1.43,4.77,8.16-2.44a2,2,0,0,1,1.47,0,1.41,1.41,0,0,1,.76.93,1.51,1.51,0,0,1-.11,1.22,2,2,0,0,1-1.23.82l-8.17,2.44,1.66,5.53,9.17-2.75a2.09,2.09,0,0,1,1.53,0,1.67,1.67,0,0,1,.68,2.26,2.08,2.08,0,0,1-1.27.85l-10.7,3.2a2.61,2.61,0,0,1-2,0,2.65,2.65,0,0,1-1.12-1.67l-4.36-14.61a3.44,3.44,0,0,1-.17-1.46,1.68,1.68,0,0,1,.56-1,3.36,3.36,0,0,1,1.3-.65l10.39-3.11a2.1,2.1,0,0,1,1.53,0,1.5,1.5,0,0,1,.78,1,1.48,1.48,0,0,1-.13,1.24A2.1,2.1,0,0,1,265.08,29.71Z"/><path class="cls-3" d="M277.93,22.2a10.79,10.79,0,0,1,5.55-.33,8.34,8.34,0,0,1,4.33,2.51,12.42,12.42,0,0,1,2.7,5,13.54,13.54,0,0,1,.61,4.28,9.29,9.29,0,0,1-.87,3.74,8.4,8.4,0,0,1-2.38,3A11.36,11.36,0,0,1,284,42.27a11.08,11.08,0,0,1-4.3.48,8.45,8.45,0,0,1-3.63-1.17,9.07,9.07,0,0,1-2.78-2.68A13.51,13.51,0,0,1,271.46,35a13.2,13.2,0,0,1-.58-4.3,9.12,9.12,0,0,1,.91-3.74,8.34,8.34,0,0,1,2.37-2.9A11,11,0,0,1,277.93,22.2Zm8.58,8.32a9.58,9.58,0,0,0-1.8-3.49A5.34,5.34,0,0,0,282,25.25a5.91,5.91,0,0,0-5.23,1.17,5,5,0,0,0-1.33,1.81,6.37,6.37,0,0,0-.5,2.51,11.32,11.32,0,0,0,1.79,6,6.28,6.28,0,0,0,1.84,1.86,5.05,5.05,0,0,0,2.14.8,5.68,5.68,0,0,0,2.3-.21,5.48,5.48,0,0,0,2.55-1.59,5.34,5.34,0,0,0,1.32-2.93A9.34,9.34,0,0,0,286.51,30.52Z"/></g><g class="cls-2"><path class="cls-3" d="M320.27,58.93a2.08,2.08,0,0,0-.73-.79,1.73,1.73,0,0,0,.88,0,1.53,1.53,0,0,0,.7-.48,3.33,3.33,0,0,0,.55-.94,3.47,3.47,0,0,0,.27-1.09,1.87,1.87,0,0,0-.16-.92,2.18,2.18,0,0,0-.6-.74,4.05,4.05,0,0,0-1-.58L318,52.51l-3.77,9.29,2.47,1a3.07,3.07,0,0,0,1.15.25,2.2,2.2,0,0,0,1-.23,2.4,2.4,0,0,0,.77-.67,4.4,4.4,0,0,0,.58-1,3.81,3.81,0,0,0,.3-1.21A2,2,0,0,0,320.27,58.93ZM318.91,54l.31.13a7.41,7.41,0,0,1,1,.51,1,1,0,0,1,.46.61,1.9,1.9,0,0,1-.18,1,3,3,0,0,1-.49.84.92.92,0,0,1-.64.32,2.1,2.1,0,0,1-.93-.19l-.77-.31Zm-.81,7.82a1.49,1.49,0,0,1-1.33-.06l-.87-.36,1.42-3.5.77.31a1.94,1.94,0,0,1,.83.58,1.21,1.21,0,0,1,.25.79,2.81,2.81,0,0,1-.24,1.05A2.47,2.47,0,0,1,318.1,61.82Z"/><polygon class="cls-3" points="327.41 56.34 326.12 55.81 322.34 65.1 326.01 66.59 326.39 65.67 324.01 64.7 327.41 56.34"/><path class="cls-3" d="M336.46,60.33a3.63,3.63,0,0,0-3-1.22,2.1,2.1,0,0,0-1.21.69,4.71,4.71,0,0,0-.89,1.47l-1.44,3.53a5.22,5.22,0,0,0-.4,1.69,2.18,2.18,0,0,0,.37,1.38,3,3,0,0,0,1.35,1,2.89,2.89,0,0,0,1.65.23,2.27,2.27,0,0,0,1.22-.72,4.87,4.87,0,0,0,.89-1.49l1.44-3.53a4.71,4.71,0,0,0,.39-1.67A2.22,2.22,0,0,0,336.46,60.33Zm-2.87,6.29a4,4,0,0,1-.46.86,1.11,1.11,0,0,1-.59.45,1.32,1.32,0,0,1-.87-.1,1.38,1.38,0,0,1-.7-.53,1.18,1.18,0,0,1-.12-.75,4.22,4.22,0,0,1,.28-.94l1.65-4.07a3.73,3.73,0,0,1,.46-.85,1.07,1.07,0,0,1,.59-.43,1.76,1.76,0,0,1,1.57.64,1.08,1.08,0,0,1,.12.72,4,4,0,0,1-.27.92Z"/><path class="cls-3" d="M341.16,68.46l1.18.48-.26.65a5.75,5.75,0,0,1-.58,1.12,1.34,1.34,0,0,1-.67.56,1.25,1.25,0,0,1-.88-.07,1.4,1.4,0,0,1-.69-.54,1.21,1.21,0,0,1-.1-.82,6,6,0,0,1,.35-1.15l1.4-3.44a9.45,9.45,0,0,1,.48-1,1.35,1.35,0,0,1,.62-.59,1.23,1.23,0,0,1,.94.08,1.34,1.34,0,0,1,.69.5,1,1,0,0,1,.1.71,5.12,5.12,0,0,1-.33,1l-.11.29,1.21.49.14-.34a4.37,4.37,0,0,0,.38-1.62,1.83,1.83,0,0,0-.41-1.21,3.06,3.06,0,0,0-1.29-.86,2.75,2.75,0,0,0-1.67-.24,2,2,0,0,0-1.2.79,6.64,6.64,0,0,0-.92,1.65L338.27,68a6,6,0,0,0-.46,1.8,2.27,2.27,0,0,0,.32,1.39,2.52,2.52,0,0,0,1.24.94,1.77,1.77,0,0,0,1.22.11,2.15,2.15,0,0,0,.92-.62l-.31,1.12.81.33,1.87-4.6-2.35-1Z"/><path class="cls-3" d="M355.39,50.47l-34.68-14.1a4,4,0,0,0-5.19,2.19l-9.88,24.29A4,4,0,0,0,307.83,68l34.68,14.1A4,4,0,0,0,347.69,80l9.89-24.3A4,4,0,0,0,355.39,50.47ZM346,79.28a2.2,2.2,0,0,1-2.85,1.2l-34.67-14.1a2.18,2.18,0,0,1-1.2-2.85l9.88-24.3A2.19,2.19,0,0,1,320,38l34.68,14.11a2.19,2.19,0,0,1,1.2,2.84Z"/><path class="cls-3" d="M320.33,43.12a1.31,1.31,0,1,0-.71-1.7A1.3,1.3,0,0,0,320.33,43.12Z"/><path class="cls-3" d="M325.22,45.1a1.3,1.3,0,1,0-.71-1.69A1.29,1.29,0,0,0,325.22,45.1Z"/><path class="cls-3" d="M330.11,47.09a1.3,1.3,0,1,0-.72-1.7A1.31,1.31,0,0,0,330.11,47.09Z"/><rect class="cls-3" x="333.79" y="32.97" width="1.56" height="37.65" transform="translate(160.56 342.21) rotate(-67.87)"/></g><g class="cls-2"><path class="cls-3" d="M283.27,72.8a1.9,1.9,0,0,0-1.73-.37l-26.49,7.62a1.88,1.88,0,1,0,1,3.61l23.78-6.83L278.23,91l-16.75,4.82-15-18a1.89,1.89,0,0,0-2-.6l-4.74,1.36a1.88,1.88,0,1,0,1,3.62l3.56-1,15,17.94a1.89,1.89,0,0,0,2,.61l19.14-5.5a1.89,1.89,0,0,0,1.35-1.6l2.1-18.24A1.91,1.91,0,0,0,283.27,72.8Z"/><path class="cls-3" d="M262.47,102.45a5.34,5.34,0,1,0,6.61,3.66A5.34,5.34,0,0,0,262.47,102.45Zm1.91,6.65a1.58,1.58,0,1,1,1.08-1.95A1.58,1.58,0,0,1,264.38,109.1Z"/><path class="cls-3" d="M280.09,97.38a5.34,5.34,0,1,0,6.62,3.66A5.35,5.35,0,0,0,280.09,97.38ZM282,104a1.58,1.58,0,1,1,1.08-2A1.59,1.59,0,0,1,282,104Z"/></g><path class="cls-4" d="M334.15,124.8a.31.31,0,0,0-.38-.1L316.13,133a.3.3,0,0,0-.14.41l3.36,7.16a.31.31,0,0,0,.41.14l9.55-4.49a11.79,11.79,0,0,1-1.61,6.84h0a11.46,11.46,0,0,1-5,4.52A11.61,11.61,0,0,1,309.35,145h0a11.89,11.89,0,0,1-2.12-3.11,12.16,12.16,0,0,1-1-3.58h0a11.53,11.53,0,0,1,14.39-12.68.3.3,0,0,0,.36-.19l2.81-7.8a.29.29,0,0,0,0-.24.31.31,0,0,0-.18-.16,20.27,20.27,0,0,0-23.18,8.6A20.83,20.83,0,0,0,305,153h0a20.63,20.63,0,0,0,10.27,4.44,20.22,20.22,0,0,0,21.36-12.25,20.88,20.88,0,0,0,1-13.08,20.23,20.23,0,0,0-1.36-3.8A21.24,21.24,0,0,0,334.15,124.8Z"/><g class="cls-2"><path class="cls-3" d="M292,202.67a5.19,5.19,0,1,0,3.84,6.25,5,5,0,0,0,.13-1.49A5.21,5.21,0,0,0,292,202.67Z"/><path class="cls-3" d="M294,194.12a14,14,0,0,0-12.52,3.14.31.31,0,0,0-.06.38L284.6,203a.3.3,0,0,0,.19.14h0a.29.29,0,0,0,.26-.11,7.35,7.35,0,0,1,12.79,2.89.31.31,0,0,0,.18.21.32.32,0,0,0,.27,0l5.23-3.31a.29.29,0,0,0,.12-.37A14,14,0,0,0,294,194.12Z"/><path class="cls-3" d="M296,185.56a22.69,22.69,0,0,0-19.11,4.06.31.31,0,0,0-.08.39l3.12,5.22a.3.3,0,0,0,.19.14h0a.32.32,0,0,0,.25-.06,16.13,16.13,0,0,1,25.08,5.84.29.29,0,0,0,.43.13l5.13-3.25a.3.3,0,0,0,.11-.39A22.75,22.75,0,0,0,296,185.56Z"/><path class="cls-3" d="M318.63,192.92A31.54,31.54,0,0,0,272.4,182a.31.31,0,0,0-.08.4l3.1,5.19a.33.33,0,0,0,.19.14h0a.29.29,0,0,0,.24,0A24.91,24.91,0,0,1,313,196.42a.29.29,0,0,0,.18.16.33.33,0,0,0,.24,0l5.12-3.23A.29.29,0,0,0,318.63,192.92Z"/></g><g class="cls-2"><path class="cls-3" d="M22.4,33.87a5.93,5.93,0,0,1,0,3.44,6.32,6.32,0,0,1-2,3,10.4,10.4,0,0,1-3.91,2,9.59,9.59,0,0,1-5.07.33,6.45,6.45,0,0,1-2.78-1.44,5,5,0,0,1-1.59-2.29,1.79,1.79,0,0,1,.13-1.38,1.77,1.77,0,0,1,1.12-.88,1.53,1.53,0,0,1,1.17.08,3.36,3.36,0,0,1,1.09,1A8.38,8.38,0,0,0,11.86,39a3.35,3.35,0,0,0,1.52.66,4.54,4.54,0,0,0,2.18-.21,4.83,4.83,0,0,0,2.6-1.66,2.55,2.55,0,0,0,.48-2.36,2.23,2.23,0,0,0-1.06-1.4,3.93,3.93,0,0,0-1.8-.46,24.32,24.32,0,0,0-2.7.07,18.91,18.91,0,0,1-3.85-.1,6,6,0,0,1-2.77-1.12,4.82,4.82,0,0,1-1.67-2.57,5.08,5.08,0,0,1,0-3.11,5.74,5.74,0,0,1,2-2.67,10.77,10.77,0,0,1,3.7-1.84,9.85,9.85,0,0,1,3.23-.48,7,7,0,0,1,2.52.53,5.21,5.21,0,0,1,1.72,1.17,3.91,3.91,0,0,1,.87,1.46,1.93,1.93,0,0,1-.12,1.41,1.67,1.67,0,0,1-1.07.94,1.54,1.54,0,0,1-1.13,0,5,5,0,0,1-1.1-.88A5.12,5.12,0,0,0,13.61,25a3.89,3.89,0,0,0-2.57.1,4.29,4.29,0,0,0-2.26,1.4,2,2,0,0,0-.45,1.89,1.61,1.61,0,0,0,.62.91,2.71,2.71,0,0,0,1.09.47,6.17,6.17,0,0,0,1.27.14c.41,0,1.09,0,2-.06a32.27,32.27,0,0,1,3.23,0,9.84,9.84,0,0,1,2.6.45,4.86,4.86,0,0,1,2,1.24A5.48,5.48,0,0,1,22.4,33.87Z"/><path class="cls-3" d="M35.39,18.48l-8.87,2.65L28,25.9l8.16-2.44a2,2,0,0,1,1.47,0,1.43,1.43,0,0,1,.76.94,1.49,1.49,0,0,1-.11,1.21,2,2,0,0,1-1.23.82l-8.17,2.44,1.66,5.53,9.17-2.74a2.1,2.1,0,0,1,1.53,0,1.69,1.69,0,0,1,.68,2.27,2.16,2.16,0,0,1-1.27.85L29.9,38a2.61,2.61,0,0,1-2,0,2.7,2.7,0,0,1-1.12-1.68L22.4,21.68a3.42,3.42,0,0,1-.17-1.46,1.63,1.63,0,0,1,.56-1,3.51,3.51,0,0,1,1.3-.66l10.39-3.11a2.18,2.18,0,0,1,1.52,0,1.5,1.5,0,0,1,.79,1,1.48,1.48,0,0,1-.13,1.24A2.1,2.1,0,0,1,35.39,18.48Z"/><path class="cls-3" d="M48.24,11a10.89,10.89,0,0,1,5.55-.33,8.41,8.41,0,0,1,4.33,2.51,12.46,12.46,0,0,1,2.7,5,13.5,13.5,0,0,1,.61,4.28,9.33,9.33,0,0,1-.87,3.74,8.45,8.45,0,0,1-2.38,3A11.19,11.19,0,0,1,54.32,31a11.1,11.1,0,0,1-4.3.49,8.33,8.33,0,0,1-3.63-1.18,9.15,9.15,0,0,1-2.78-2.67,13.7,13.7,0,0,1-1.84-3.89,13.16,13.16,0,0,1-.58-4.3,9.16,9.16,0,0,1,.91-3.74,8.43,8.43,0,0,1,2.37-2.9A11,11,0,0,1,48.24,11Zm8.58,8.32A9.66,9.66,0,0,0,55,15.8,5.4,5.4,0,0,0,52.35,14a5.66,5.66,0,0,0-3.18.08,5.53,5.53,0,0,0-2.05,1.09A5,5,0,0,0,45.79,17a6.41,6.41,0,0,0-.5,2.51,10.37,10.37,0,0,0,.47,3.09,10.4,10.4,0,0,0,1.32,2.87,6.44,6.44,0,0,0,1.84,1.87,5.17,5.17,0,0,0,2.14.79,5.35,5.35,0,0,0,2.3-.21,5.55,5.55,0,0,0,2.55-1.58,5.4,5.4,0,0,0,1.32-2.94A9.34,9.34,0,0,0,56.82,19.29Z"/></g><g class="cls-2"><path class="cls-3" d="M80.92,33.65a2.27,2.27,0,0,0-.73-.8,1.64,1.64,0,0,0,.88,0,1.53,1.53,0,0,0,.7-.48,3.48,3.48,0,0,0,.55-.94,3.52,3.52,0,0,0,.27-1.1,1.83,1.83,0,0,0-.16-.91,2.09,2.09,0,0,0-.6-.74,4.23,4.23,0,0,0-1-.58l-2.14-.87-3.78,9.29,2.48,1a2.86,2.86,0,0,0,1.15.24,2.07,2.07,0,0,0,1-.23,2.49,2.49,0,0,0,.77-.66,4.4,4.4,0,0,0,.58-1,3.53,3.53,0,0,0,.29-1.21A1.93,1.93,0,0,0,80.92,33.65Zm-1.36-4.93.31.12a7.31,7.31,0,0,1,1,.52,1,1,0,0,1,.46.61,1.79,1.79,0,0,1-.19,1,2.68,2.68,0,0,1-.49.85.94.94,0,0,1-.63.32,2.26,2.26,0,0,1-.93-.19l-.77-.32Zm-.81,7.82a1.47,1.47,0,0,1-1.33-.07l-.87-.35L78,32.62l.77.31a2,2,0,0,1,.83.57,1.23,1.23,0,0,1,.25.8,2.76,2.76,0,0,1-.24,1A2.46,2.46,0,0,1,78.75,36.54Z"/><polygon class="cls-3" points="88.06 31.05 86.77 30.53 82.99 39.82 86.66 41.31 87.03 40.38 84.66 39.42 88.06 31.05"/><path class="cls-3" d="M97.1,35.05a3,3,0,0,0-1.34-1,3,3,0,0,0-1.64-.26,2.14,2.14,0,0,0-1.22.68A4.87,4.87,0,0,0,92,36l-1.44,3.52a5.31,5.31,0,0,0-.41,1.7,2.19,2.19,0,0,0,.38,1.38,3.08,3.08,0,0,0,1.35,1,2.89,2.89,0,0,0,1.65.23,2.26,2.26,0,0,0,1.22-.73,4.81,4.81,0,0,0,.89-1.48l1.44-3.53a4.71,4.71,0,0,0,.39-1.67A2.2,2.2,0,0,0,97.1,35.05Zm-2.86,6.28a3.9,3.9,0,0,1-.46.87,1.11,1.11,0,0,1-.59.45,1.33,1.33,0,0,1-.87-.11,1.29,1.29,0,0,1-.7-.53,1.14,1.14,0,0,1-.12-.74,4.14,4.14,0,0,1,.27-.94l1.66-4.07a3.92,3.92,0,0,1,.45-.85,1,1,0,0,1,.6-.43,1.76,1.76,0,0,1,1.57.64,1.07,1.07,0,0,1,.12.72,4,4,0,0,1-.27.92Z"/><path class="cls-3" d="M101.81,43.18l1.18.48-.26.64a6.15,6.15,0,0,1-.58,1.13,1.4,1.4,0,0,1-.67.56,1.21,1.21,0,0,1-.88-.08,1.29,1.29,0,0,1-.69-.53,1.21,1.21,0,0,1-.1-.82,5.35,5.35,0,0,1,.35-1.15l1.4-3.44a8.59,8.59,0,0,1,.48-1,1.35,1.35,0,0,1,.62-.59,1.22,1.22,0,0,1,.94.07,1.35,1.35,0,0,1,.69.51,1,1,0,0,1,.1.7,5.18,5.18,0,0,1-.33,1L104,41l1.21.49.14-.34a4.46,4.46,0,0,0,.38-1.62,1.83,1.83,0,0,0-.41-1.21,3.24,3.24,0,0,0-1.29-.87,2.91,2.91,0,0,0-1.67-.24,2.11,2.11,0,0,0-1.2.79,6.33,6.33,0,0,0-.92,1.65l-1.27,3.11a6.09,6.09,0,0,0-.46,1.81,2.27,2.27,0,0,0,.32,1.39,2.57,2.57,0,0,0,1.24.94,1.75,1.75,0,0,0,1.21.11,2.12,2.12,0,0,0,.92-.62l-.3,1.12.81.33,1.87-4.6-2.35-1Z"/><path class="cls-3" d="M116,25.19,81.36,11.09a4,4,0,0,0-5.19,2.18l-9.88,24.3a4,4,0,0,0,2.19,5.19l34.67,14.1a4,4,0,0,0,5.19-2.19l9.88-24.29A4,4,0,0,0,116,25.19ZM106.68,54a2.2,2.2,0,0,1-2.85,1.2L69.16,41.09A2.17,2.17,0,0,1,68,38.25L77.84,14a2.19,2.19,0,0,1,2.84-1.2l34.68,14.1a2.2,2.2,0,0,1,1.2,2.85Z"/><path class="cls-3" d="M81,17.83a1.3,1.3,0,1,0-.71-1.69A1.31,1.31,0,0,0,81,17.83Z"/><path class="cls-3" d="M85.87,19.82a1.3,1.3,0,1,0-.72-1.7A1.31,1.31,0,0,0,85.87,19.82Z"/><path class="cls-3" d="M90.76,21.81a1.31,1.31,0,1,0-.72-1.7A1.31,1.31,0,0,0,90.76,21.81Z"/><rect class="cls-3" x="94.44" y="7.68" width="1.56" height="37.65" transform="translate(34.8 104.73) rotate(-67.87)"/></g><g class="cls-2"><path class="cls-3" d="M53.58,61.58a1.85,1.85,0,0,0-1.73-.37L25.36,68.82a1.88,1.88,0,1,0,1,3.62L50.18,65.6,48.54,79.8,31.79,84.62l-14.95-18a1.91,1.91,0,0,0-2-.61l-4.74,1.37a1.88,1.88,0,1,0,1,3.61l3.56-1,15,18a1.89,1.89,0,0,0,2,.6l19.14-5.5a1.89,1.89,0,0,0,1.35-1.59l2.1-18.25A1.88,1.88,0,0,0,53.58,61.58Z"/><path class="cls-3" d="M32.78,91.22a5.34,5.34,0,1,0,6.61,3.66A5.34,5.34,0,0,0,32.78,91.22Zm1.91,6.66a1.58,1.58,0,1,1,1.08-2A1.59,1.59,0,0,1,34.69,97.88Z"/><path class="cls-3" d="M50.4,86.15A5.35,5.35,0,1,0,57,89.81,5.36,5.36,0,0,0,50.4,86.15Zm1.92,6.66a1.58,1.58,0,1,1,1.08-2A1.58,1.58,0,0,1,52.32,92.81Z"/></g><path class="cls-4" d="M77.86,128a.31.31,0,0,0-.38-.1l-17.63,8.3a.32.32,0,0,0-.15.41l3.37,7.16a.31.31,0,0,0,.41.15l9.55-4.5a11.78,11.78,0,0,1-1.62,6.84h0a11.39,11.39,0,0,1-5,4.51,11.57,11.57,0,0,1-13.36-2.57h0a11.92,11.92,0,0,1-3.16-6.69h0a11.52,11.52,0,0,1,14.38-12.68.3.3,0,0,0,.37-.19l2.81-7.8a.33.33,0,0,0,0-.24.38.38,0,0,0-.19-.16,20.25,20.25,0,0,0-23.17,8.61,20.81,20.81,0,0,0,4.57,27.1h0a20.56,20.56,0,0,0,10.26,4.44,20.22,20.22,0,0,0,21.36-12.25,20.81,20.81,0,0,0,1-13.08,21.23,21.23,0,0,0-1.36-3.8A20.6,20.6,0,0,0,77.86,128Z"/><g class="cls-2"><path class="cls-3" d="M30.73,201.89a5.18,5.18,0,0,0-5.8,2.64,5.29,5.29,0,0,0-.44,1.2,5.18,5.18,0,1,0,10.08,2.41,5,5,0,0,0,.13-1.49A5.21,5.21,0,0,0,30.73,201.89Z"/><path class="cls-3" d="M32.77,193.33a14,14,0,0,0-12.52,3.15.31.31,0,0,0-.06.38l3.19,5.34a.3.3,0,0,0,.19.14h0a.35.35,0,0,0,.26-.11,7.35,7.35,0,0,1,12.79,2.89.28.28,0,0,0,.18.2.29.29,0,0,0,.27,0L42.34,202a.31.31,0,0,0,.12-.37A14,14,0,0,0,32.77,193.33Z"/><path class="cls-3" d="M34.81,184.77a22.68,22.68,0,0,0-19.1,4.07.31.31,0,0,0-.08.39l3.12,5.22a.31.31,0,0,0,.18.14h0a.32.32,0,0,0,.25-.07,16.13,16.13,0,0,1,25.08,5.85.26.26,0,0,0,.18.16.31.31,0,0,0,.25,0l5.13-3.25a.3.3,0,0,0,.11-.39A22.75,22.75,0,0,0,34.81,184.77Z"/><path class="cls-3" d="M57.41,192.13a31.54,31.54,0,0,0-46.23-10.89.31.31,0,0,0-.08.4l3.1,5.2a.33.33,0,0,0,.19.14h0a.29.29,0,0,0,.24,0,24.91,24.91,0,0,1,37.13,8.71.25.25,0,0,0,.18.15.33.33,0,0,0,.24,0l5.12-3.23A.3.3,0,0,0,57.41,192.13Z"/></g><g class="cls-2"><path class="cls-3" d="M129,63.7a5.93,5.93,0,0,1,0,3.44,6.25,6.25,0,0,1-2,3,10.26,10.26,0,0,1-3.91,2,9.71,9.71,0,0,1-5.07.34,6.58,6.58,0,0,1-2.78-1.45,5,5,0,0,1-1.59-2.29,1.79,1.79,0,0,1,1.25-2.26,1.53,1.53,0,0,1,1.17.08,3.26,3.26,0,0,1,1.09,1,8,8,0,0,0,1.27,1.31,3.42,3.42,0,0,0,1.52.67,4.76,4.76,0,0,0,2.17-.21,4.86,4.86,0,0,0,2.6-1.67,2.56,2.56,0,0,0,.49-2.36,2.3,2.3,0,0,0-1.06-1.4,4,4,0,0,0-1.8-.46,26.94,26.94,0,0,0-2.7.07,18.86,18.86,0,0,1-3.85-.1A5.85,5.85,0,0,1,113,62.28a4.87,4.87,0,0,1-1.67-2.57,5.08,5.08,0,0,1,0-3.11,5.79,5.79,0,0,1,2-2.67,10.86,10.86,0,0,1,3.7-1.84,10.41,10.41,0,0,1,3.23-.48,6.88,6.88,0,0,1,2.52.53,5.21,5.21,0,0,1,1.72,1.17,3.66,3.66,0,0,1,.87,1.46,1.93,1.93,0,0,1-.12,1.41,1.67,1.67,0,0,1-1.07.94,1.54,1.54,0,0,1-1.13,0,4.79,4.79,0,0,1-1.09-.88,5.38,5.38,0,0,0-1.79-1.34,3.89,3.89,0,0,0-2.57.1,4.29,4.29,0,0,0-2.26,1.4,2,2,0,0,0-.45,1.89,1.67,1.67,0,0,0,.62.92,2.7,2.7,0,0,0,1.09.46,5.61,5.61,0,0,0,1.27.14c.41,0,1.09,0,2-.05a29.72,29.72,0,0,1,3.23,0,10,10,0,0,1,2.61.45,4.93,4.93,0,0,1,2,1.24A5.64,5.64,0,0,1,129,63.7Z"/><path class="cls-3" d="M141.94,48.31,133.07,51l1.43,4.77,8.17-2.44a2,2,0,0,1,1.46,0,1.45,1.45,0,0,1,.77.93,1.49,1.49,0,0,1-.12,1.21,2,2,0,0,1-1.23.82l-8.16,2.44L137,64.23l9.17-2.74a2.1,2.1,0,0,1,1.53,0,1.55,1.55,0,0,1,.81,1,1.49,1.49,0,0,1-.13,1.26,2.12,2.12,0,0,1-1.27.85l-10.7,3.2a2.15,2.15,0,0,1-3.13-1.7L129,51.52a3.43,3.43,0,0,1-.16-1.46,1.62,1.62,0,0,1,.55-1,3.51,3.51,0,0,1,1.3-.66L141,45.27a2.21,2.21,0,0,1,1.53,0,1.63,1.63,0,0,1,.66,2.2A2.16,2.16,0,0,1,141.94,48.31Z"/><path class="cls-3" d="M154.79,40.8a10.81,10.81,0,0,1,5.56-.32,8.3,8.3,0,0,1,4.32,2.5,12.53,12.53,0,0,1,2.7,5,13.5,13.5,0,0,1,.61,4.28,9.17,9.17,0,0,1-.87,3.74,8.34,8.34,0,0,1-2.38,3,12.22,12.22,0,0,1-8.16,2.42,8.45,8.45,0,0,1-3.63-1.17,9.31,9.31,0,0,1-2.78-2.68,13.57,13.57,0,0,1-1.84-3.89,13.13,13.13,0,0,1-.58-4.3,9.32,9.32,0,0,1,.91-3.74A8.31,8.31,0,0,1,151,42.69,11.12,11.12,0,0,1,154.79,40.8Zm8.58,8.32a9.5,9.5,0,0,0-1.79-3.49,5.43,5.43,0,0,0-2.68-1.78,5.66,5.66,0,0,0-3.18.08,5.51,5.51,0,0,0-2,1.1,4.89,4.89,0,0,0-1.34,1.8,6.41,6.41,0,0,0-.49,2.51,10,10,0,0,0,.47,3.09,10.26,10.26,0,0,0,1.31,2.87,6.44,6.44,0,0,0,1.84,1.87,5.23,5.23,0,0,0,2.15.8,5.49,5.49,0,0,0,2.29-.22,5.63,5.63,0,0,0,2.56-1.58,5.46,5.46,0,0,0,1.31-2.94A9.34,9.34,0,0,0,163.37,49.12Z"/></g><g class="cls-2"><path class="cls-3" d="M197.14,77.54a2.22,2.22,0,0,0-.74-.8,1.64,1.64,0,0,0,.88,0,1.58,1.58,0,0,0,.71-.49,3.4,3.4,0,0,0,.54-.93,3.56,3.56,0,0,0,.28-1.1,1.83,1.83,0,0,0-.17-.91,2,2,0,0,0-.6-.74,4.06,4.06,0,0,0-1-.59l-2.13-.86-3.78,9.29,2.48,1a3,3,0,0,0,1.15.24,2.06,2.06,0,0,0,1-.23,2.38,2.38,0,0,0,.77-.66,4.25,4.25,0,0,0,.58-1,3.88,3.88,0,0,0,.3-1.21A2,2,0,0,0,197.14,77.54Zm-1.37-4.93.31.12a6,6,0,0,1,1,.52.92.92,0,0,1,.46.6,1.89,1.89,0,0,1-.18,1,2.89,2.89,0,0,1-.49.85,1,1,0,0,1-.64.32,2.07,2.07,0,0,1-.92-.2l-.77-.31ZM195,80.43a1.47,1.47,0,0,1-1.33-.07l-.87-.35,1.43-3.5.76.31a2,2,0,0,1,.83.57,1.24,1.24,0,0,1,.26.8,3.06,3.06,0,0,1-.25,1A2.44,2.44,0,0,1,195,80.43Z"/><polygon class="cls-3" points="204.28 74.94 202.98 74.41 199.2 83.71 202.87 85.2 203.25 84.27 200.87 83.31 204.28 74.94"/><path class="cls-3" d="M213.32,78.94A2.87,2.87,0,0,0,212,78a3,3,0,0,0-1.64-.26,2.12,2.12,0,0,0-1.21.68,4.77,4.77,0,0,0-.89,1.48L206.8,83.4a5.05,5.05,0,0,0-.41,1.7,2.18,2.18,0,0,0,.37,1.38,3,3,0,0,0,1.36,1,2.78,2.78,0,0,0,1.64.24A2.19,2.19,0,0,0,211,87a5,5,0,0,0,.9-1.48L213.31,82a4.76,4.76,0,0,0,.39-1.68A2.12,2.12,0,0,0,213.32,78.94Zm-2.86,6.28a4.66,4.66,0,0,1-.46.87,1.17,1.17,0,0,1-.6.45,1.34,1.34,0,0,1-.87-.11,1.37,1.37,0,0,1-.7-.53,1.14,1.14,0,0,1-.12-.74,4.63,4.63,0,0,1,.28-.94l1.66-4.07a3.82,3.82,0,0,1,.45-.86,1.05,1.05,0,0,1,.59-.42,1.41,1.41,0,0,1,.87.12,1.37,1.37,0,0,1,.7.52,1.05,1.05,0,0,1,.12.71,3.94,3.94,0,0,1-.27.93Z"/><path class="cls-3" d="M218,87.07l1.18.48-.26.64a5.87,5.87,0,0,1-.58,1.13,1.35,1.35,0,0,1-.67.56,1.23,1.23,0,0,1-.87-.08,1.37,1.37,0,0,1-.7-.53,1.29,1.29,0,0,1-.1-.82,5.9,5.9,0,0,1,.36-1.15l1.4-3.45a7.19,7.19,0,0,1,.48-1,1.3,1.3,0,0,1,.61-.58,1.22,1.22,0,0,1,.94.07,1.37,1.37,0,0,1,.7.51,1,1,0,0,1,.09.7,5.78,5.78,0,0,1-.32,1l-.12.28,1.22.5.14-.35a4.33,4.33,0,0,0,.37-1.61,1.78,1.78,0,0,0-.41-1.21,3.13,3.13,0,0,0-1.28-.87,2.93,2.93,0,0,0-1.68-.24,2.18,2.18,0,0,0-1.2.79,6.64,6.64,0,0,0-.92,1.65l-1.26,3.11a5.8,5.8,0,0,0-.46,1.81,2.28,2.28,0,0,0,.31,1.39,2.56,2.56,0,0,0,1.25.94,1.74,1.74,0,0,0,1.21.1,2.07,2.07,0,0,0,.92-.61l-.31,1.12.81.33,1.88-4.6-2.36-1Z"/><path class="cls-3" d="M232.25,69.08,197.57,55a4,4,0,0,0-5.19,2.19l-9.88,24.3a4,4,0,0,0,2.19,5.19l34.68,14.1a4,4,0,0,0,5.19-2.19l9.88-24.3A4,4,0,0,0,232.25,69.08Zm-9.36,28.8a2.17,2.17,0,0,1-2.84,1.2L185.37,85a2.18,2.18,0,0,1-1.2-2.84l9.88-24.3a2.19,2.19,0,0,1,2.85-1.2l34.67,14.1a2.18,2.18,0,0,1,1.2,2.85Z"/><path class="cls-3" d="M197.2,61.72a1.3,1.3,0,1,0-.72-1.7A1.3,1.3,0,0,0,197.2,61.72Z"/><path class="cls-3" d="M202.08,63.71a1.3,1.3,0,1,0-.71-1.7A1.3,1.3,0,0,0,202.08,63.71Z"/><path class="cls-3" d="M207,65.7a1.31,1.31,0,1,0-.71-1.7A1.3,1.3,0,0,0,207,65.7Z"/><rect class="cls-3" x="210.66" y="51.57" width="1.56" height="37.65" transform="translate(66.58 239.74) rotate(-67.87)"/></g><g class="cls-2"><path class="cls-3" d="M131.69,111.7a1.88,1.88,0,0,0-1.73-.38l-26.49,7.62a1.88,1.88,0,0,0,1,3.61l23.78-6.83-1.63,14.2-16.76,4.81L95,116.79a1.89,1.89,0,0,0-2-.61l-4.74,1.36a1.88,1.88,0,0,0,1,3.62l3.56-1,15,17.94a1.89,1.89,0,0,0,2,.61l19.14-5.5a1.89,1.89,0,0,0,1.35-1.6l2.1-18.24A1.88,1.88,0,0,0,131.69,111.7Z"/><path class="cls-3" d="M110.89,141.34A5.34,5.34,0,1,0,117.5,145,5.34,5.34,0,0,0,110.89,141.34ZM112.8,148a1.58,1.58,0,1,1,1.08-2A1.58,1.58,0,0,1,112.8,148Z"/><path class="cls-3" d="M128.51,136.27a5.34,5.34,0,1,0,6.62,3.66A5.35,5.35,0,0,0,128.51,136.27Zm1.92,6.66a1.58,1.58,0,1,1,1.08-2A1.59,1.59,0,0,1,130.43,142.93Z"/></g><path class="cls-4" d="M211,143.4a.32.32,0,0,0-.38-.09L193,151.61a.3.3,0,0,0-.14.4l3.37,7.16a.3.3,0,0,0,.4.15l9.56-4.49a11.8,11.8,0,0,1-1.62,6.84h0a11.46,11.46,0,0,1-5,4.52,11.6,11.6,0,0,1-13.36-2.57h0a11.93,11.93,0,0,1-2.13-3.11,11.79,11.79,0,0,1-1-3.57h0a11.52,11.52,0,0,1,14.38-12.68.32.32,0,0,0,.37-.2l2.81-7.8a.34.34,0,0,0,0-.24.3.3,0,0,0-.18-.15,20.22,20.22,0,0,0-23.17,8.6,20.81,20.81,0,0,0,4.57,27.1h0A20.65,20.65,0,0,0,192.08,176a20.26,20.26,0,0,0,21.36-12.25,20.9,20.9,0,0,0-.37-16.89A22.49,22.49,0,0,0,211,143.4Z"/><g class="cls-2"><path class="cls-3" d="M178.69,36.87a5.19,5.19,0,0,0-5.8,2.65,5.78,5.78,0,0,0-.45,1.19,5.19,5.19,0,1,0,10.09,2.41,5.34,5.34,0,0,0,.13-1.49A5.21,5.21,0,0,0,178.69,36.87Z"/><path class="cls-3" d="M180.73,28.32a14,14,0,0,0-12.52,3.14.29.29,0,0,0-.06.38l3.19,5.34a.31.31,0,0,0,.18.14h0a.3.3,0,0,0,.26-.11,7.35,7.35,0,0,1,12.78,2.89.34.34,0,0,0,.18.21.35.35,0,0,0,.28,0L190.3,37a.31.31,0,0,0,.12-.37A14,14,0,0,0,180.73,28.32Z"/><path class="cls-3" d="M182.77,19.76a22.67,22.67,0,0,0-19.1,4.06.3.3,0,0,0-.08.39l3.11,5.22a.33.33,0,0,0,.19.14h0a.29.29,0,0,0,.24-.06,16.13,16.13,0,0,1,25.08,5.84.35.35,0,0,0,.19.17.32.32,0,0,0,.25,0l5.13-3.25a.3.3,0,0,0,.11-.39A22.74,22.74,0,0,0,182.77,19.76Z"/><path class="cls-3" d="M205.37,27.12a31.54,31.54,0,0,0-46.23-10.89.3.3,0,0,0-.08.4l3.1,5.19a.3.3,0,0,0,.19.14h0a.3.3,0,0,0,.24-.05,24.9,24.9,0,0,1,37.12,8.71.29.29,0,0,0,.43.12l5.12-3.23A.29.29,0,0,0,205.37,27.12Z"/></g><path class="cls-5" d="M201.16,16.48a1.3,1.3,0,0,0-1.48.69,17.89,17.89,0,0,1-16.1,10.1h-28A23.33,23.33,0,0,0,132.3,50.6V73.92h81.21v-15A23.68,23.68,0,0,1,216,48.47a22.72,22.72,0,0,0-14.84-32Z"/><path class="cls-6" d="M201.16,16.48a1.3,1.3,0,0,0-1.48.69,17.5,17.5,0,0,1-2.44,3.73,22.74,22.74,0,0,1,6,27.57,23.81,23.81,0,0,0-2.48,10.47v15h12.73v-15A23.68,23.68,0,0,1,216,48.47a22.72,22.72,0,0,0-14.84-32Z"/><path class="cls-7" d="M201.71,145.41a2.32,2.32,0,0,1-2.32-2.32V120.93h-51.2v22.16a2.33,2.33,0,0,1-2.33,2.32,65.79,65.79,0,0,0-65.79,65.8v2.06a3.58,3.58,0,0,0,3.58,3.59H263.92a3.59,3.59,0,0,0,3.59-3.59v-2.06A65.8,65.8,0,0,0,201.71,145.41Z"/><path class="cls-8" d="M201.71,145.41a2.32,2.32,0,0,1-2.32-2.32V120.93H186.71v31.53a2.32,2.32,0,0,0,2.32,2.33,65.8,65.8,0,0,1,65.69,62.07h9.2a3.59,3.59,0,0,0,3.59-3.59v-2.06A65.8,65.8,0,0,0,201.71,145.41Z"/><path class="cls-7" d="M214.71,88.73h-1.16V75.65a8.84,8.84,0,0,0-8.85-8.84H141.13a8.84,8.84,0,0,0-8.84,8.84V88.73h-1.17a9.49,9.49,0,0,0-9.49,9.49v3.63a15.25,15.25,0,0,0,14.84,15.24,54.28,54.28,0,0,0,11.38,17.17l3.08,3.13a30.8,30.8,0,0,0,44,0l3.08-3.13a54.25,54.25,0,0,0,11.37-17.17,15.25,15.25,0,0,0,14.84-15.24V98.22a9.49,9.49,0,0,0-9.49-9.49Z"/><path class="cls-8" d="M214.71,88.73h-1.16V75.65a8.84,8.84,0,0,0-8.85-8.84h-3.93l0,29.38a54.36,54.36,0,0,1-15.56,38.07l-3.08,3.13A30.64,30.64,0,0,1,166.54,146a30.78,30.78,0,0,0,28.37-8.57l3.08-3.13a54.25,54.25,0,0,0,11.37-17.17,15.25,15.25,0,0,0,14.84-15.24V98.22a9.49,9.49,0,0,0-9.49-9.49Z"/><path class="cls-9" d="M101.39,93.84h3.3a.85.85,0,0,0,.85-.85V81.27a.85.85,0,0,0-.85-.85h-3.3A20.55,20.55,0,0,0,80.85,101v3a.58.58,0,0,1-.57.57H74.54a.85.85,0,0,0-.85.85V117.1a.85.85,0,0,0,.85.85h5.74a.57.57,0,0,1,.57.57v23.1a.85.85,0,0,0,.85.85H93.42a.85.85,0,0,0,.85-.85v-23.1a.56.56,0,0,1,.57-.57h5.74a.85.85,0,0,0,.85-.85V105.38a.85.85,0,0,0-.85-.85H94.84a.58.58,0,0,1-.57-.57v-3A7.13,7.13,0,0,1,101.39,93.84Z"/><path class="cls-10" d="M104.69,80.42h-3.3a20.53,20.53,0,0,0-3.7.34.82.82,0,0,1,.17.51V93a.85.85,0,0,1-.85.85h-3.3A7.13,7.13,0,0,0,86.59,101v3a.57.57,0,0,0,.57.57H92.9a.85.85,0,0,1,.85.85V117.1a.85.85,0,0,1-.85.85H87.16a.56.56,0,0,0-.57.57v23.1a.85.85,0,0,1-.85.85h7.68a.85.85,0,0,0,.85-.85v-23.1a.57.57,0,0,1,.57-.57h5.74a.85.85,0,0,0,.85-.85V105.38a.85.85,0,0,0-.85-.85H94.84a.57.57,0,0,1-.57-.57v-3a7.12,7.12,0,0,1,7.12-7.12h3.3a.87.87,0,0,0,.86-.86V81.28a.86.86,0,0,0-.86-.86Z"/><path class="cls-11" d="M217.25,147.26a25.29,25.29,0,0,1-25.15,22.61H155.47a25.29,25.29,0,0,1-25.15-22.61,65.83,65.83,0,0,0-50.25,64v2.06a3.58,3.58,0,0,0,3.58,3.59H263.92a3.59,3.59,0,0,0,3.59-3.59v-2.06a65.83,65.83,0,0,0-50.26-64Z"/><path class="cls-9" d="M190,214.72c-.38.73-.8,1.45-1.25,2.14a26.46,26.46,0,0,1-2.35,3.14H145a26.74,26.74,0,0,1-2.35-3.14,27.25,27.25,0,0,1-3.41-7.66.89.89,0,0,0-.5-.59,15,15,0,0,1-8-9.74.61.61,0,0,0-.58-.47,10.15,10.15,0,0,1-6.38-2.22.61.61,0,0,1,.12-1l3-1.4a.31.31,0,0,0,0-.53,10.33,10.33,0,0,1-3.22-3.77.61.61,0,0,1,.55-.88h7.13a.6.6,0,0,0,.54-.33,14.91,14.91,0,0,1,28.11,6.1.31.31,0,0,0,.34.3,27.48,27.48,0,0,0,10.44-3.54l.07,0c.19-.12.39-.23.58-.36s.47-.29.7-.44.57-.39.85-.6l.09-.06c.29-.21.57-.43.85-.65s.7-.57,1-.87.43-.37.64-.57.67-.64,1-1a27.3,27.3,0,0,0,3.45-4.36.92.92,0,0,1,1.59.08,27.43,27.43,0,0,1-4.7,31.65.47.47,0,0,0-.13.32.44.44,0,0,0,.4.45,28.49,28.49,0,0,0,2.94.16,27.13,27.13,0,0,0,8.68-1.41A.92.92,0,0,1,190,214.72Z"/><path class="cls-10" d="M190,214.72c-.38.73-.8,1.45-1.25,2.14a26.46,26.46,0,0,1-2.35,3.14H172.73a25.81,25.81,0,0,0,2.25-2.95l.12-.19a23.92,23.92,0,0,0,1.25-2.14.91.91,0,0,0-1.11-1.29c-.52.18-1.05.33-1.58.47a26.92,26.92,0,0,1-7.11.94,28.3,28.3,0,0,1-2.93-.16.46.46,0,0,1-.28-.77h0a27.48,27.48,0,0,0,7.48-22.81l.07,0,.58-.36c.24-.14.47-.29.7-.44s.57-.39.85-.6l.09-.06L174,189c.35-.28.7-.57,1-.87s.43-.38.64-.57.67-.64,1-1a27.3,27.3,0,0,0,3.45-4.36.92.92,0,0,1,1.59.08,27.43,27.43,0,0,1-4.7,31.65.47.47,0,0,0-.13.32.44.44,0,0,0,.4.45,28.49,28.49,0,0,0,2.94.16,27.13,27.13,0,0,0,8.68-1.41A.92.92,0,0,1,190,214.72Z"/><path class="cls-12" d="M217.25,147.26a25.17,25.17,0,0,1-4.51,11.93,65.84,65.84,0,0,1,42,57.67h9.2a3.58,3.58,0,0,0,3.59-3.58v-2.07A65.83,65.83,0,0,0,217.25,147.26Z"/><path class="cls-13" d="M274.68,173H250.12a11.64,11.64,0,0,1-11.64-11.64V136.77a11.64,11.64,0,0,1,11.64-11.63h24.56a11.63,11.63,0,0,1,11.63,11.63v24.56A11.64,11.64,0,0,1,274.68,173Z"/><path class="cls-14" d="M278.31,125.71a11.55,11.55,0,0,1,.57,3.6v29.82a6.4,6.4,0,0,1-6.4,6.41H242.65a11.64,11.64,0,0,1-3.6-.57,11.61,11.61,0,0,0,11,8h24.63a11.6,11.6,0,0,0,11.6-11.6V136.74A11.59,11.59,0,0,0,278.31,125.71Z"/><circle class="cls-9" cx="262.4" cy="149.05" r="8.89"/><path class="cls-10" d="M264.41,140.4a8.85,8.85,0,0,1-10.66,10.66,8.88,8.88,0,1,0,10.66-10.66Z"/><path d="M91.12,118H92.9a.85.85,0,0,0,.85-.86V114.9A3.78,3.78,0,0,0,91.12,118Zm1.78-13.43H91.12a3.76,3.76,0,0,0,2.63,3v-2.19A.86.86,0,0,0,92.9,104.52Zm11.79-27.3H101.4A23.78,23.78,0,0,0,77.64,101v.35h-3.1a4.06,4.06,0,0,0-4.06,4.06V117.1a4.06,4.06,0,0,0,4.06,4.05h3.1v20.47a4.06,4.06,0,0,0,4.06,4.06H93.42a4.06,4.06,0,0,0,4.06-4.06V121.15h3.1a4.06,4.06,0,0,0,4.06-4.05V105.38a4.06,4.06,0,0,0-4.06-4.06h-3.1V101a3.92,3.92,0,0,1,3.92-3.92h3.29A4.06,4.06,0,0,0,108.75,93V81.27A4.06,4.06,0,0,0,104.69,77.22Zm-2.35,13.42h-.94A10.36,10.36,0,0,0,91.07,101v3a2.59,2.59,0,0,0,.05.56,3.76,3.76,0,0,0,2.63,3,3.88,3.88,0,0,0,1.09.16h3.39v7H94.84a3.88,3.88,0,0,0-1.09.16,3.78,3.78,0,0,0-2.63,3,2.75,2.75,0,0,0-.05.57v20.75h-7V118.52a3.78,3.78,0,0,0-3.77-3.78H76.89v-7h3.39A3.77,3.77,0,0,0,84.05,104v-3A17.37,17.37,0,0,1,97.86,84a17.93,17.93,0,0,1,3.54-.36h.94Z"/><path d="M172.92,123a16.65,16.65,0,0,0,11.19-4.31,3.2,3.2,0,1,0-4.3-4.75A10.3,10.3,0,0,1,166,114a3.2,3.2,0,1,0-4.29,4.75A16.63,16.63,0,0,0,172.92,123Z"/><path d="M174.77,216.86a1.2,1.2,0,0,0,.21.19l.12-.19Zm17.54-5.23a4.13,4.13,0,0,0-4.46-1.24,23.54,23.54,0,0,1-4.84,1.08,30.56,30.56,0,0,0,1.51-30.68,4.12,4.12,0,0,0-7.13-.34,24.2,24.2,0,0,1-3,3.86A23.92,23.92,0,0,1,162.78,191a18.11,18.11,0,0,0-32.87-5.58h-5.64a3.82,3.82,0,0,0-3.41,5.52,13.21,13.21,0,0,0,1,1.73,3.82,3.82,0,0,0-.13,6.07,13.56,13.56,0,0,0,6.42,2.78,18.09,18.09,0,0,0,8.25,9.55c.28.9.6,1.78.95,2.64H83.66a.38.38,0,0,1-.39-.39v-2.06a62.08,62.08,0,0,1,12.15-37.07,3.2,3.2,0,0,0-.62-4.43l-.06-.05a3.2,3.2,0,0,0-4.48.68,68.51,68.51,0,0,0-13.4,40.87v2.06a6.79,6.79,0,0,0,5.9,6.73h66.73a24.72,24.72,0,0,1-2.91-3.14,23.84,23.84,0,0,1-4.24-8.5,4.18,4.18,0,0,0-2.21-2.65,11.66,11.66,0,0,1-6.3-7.64,3.82,3.82,0,0,0-3.69-2.87h-.32a3.38,3.38,0,0,0,.44-1.4,3.47,3.47,0,0,0-.42-2h1.56a3.8,3.8,0,0,0,3.38-2.05,11.71,11.71,0,0,1,22.07,4.78,3.52,3.52,0,0,0,3.93,3.31,30.69,30.69,0,0,0,18.16-9c.47-.48.93-1,1.37-1.51a24.16,24.16,0,0,1-5.63,24.41h0a4,4,0,0,0-1,2.22c0,.11,0,.22,0,.33a3.61,3.61,0,0,0,.22,1.24,3.51,3.51,0,0,0,.91,1.39,1.2,1.2,0,0,0,.21.19,3.54,3.54,0,0,0,1.93.82,30.42,30.42,0,0,0,7.14-.07,21.39,21.39,0,0,1-2.16,2.2h8.58a31.56,31.56,0,0,0,2-3.14c.12-.21.24-.43.35-.65A4.11,4.11,0,0,0,192.31,211.63Z"/><circle cx="154.37" cy="92.64" r="4.6"/><circle cx="191.42" cy="92.64" r="4.6"/><path d="M274.71,121.93H250.09a14.82,14.82,0,0,0-14.81,14.81v14.18a68.71,68.71,0,0,0-32.69-8.71V134a57.1,57.1,0,0,0,8.94-13.85,18.43,18.43,0,0,0,15.88-18.24v-3.7a12.7,12.7,0,0,0-10.66-12.51l0-26.74a20.71,20.71,0,0,1,2.15-9.06,25.91,25.91,0,0,0-16.93-36.52,4.55,4.55,0,0,0-5.15,2.41,14.56,14.56,0,0,1-13.21,8.29h-28a26.56,26.56,0,0,0-12.25,3A3.2,3.2,0,0,0,142,31.38a.76.76,0,0,0,.12.19,3.17,3.17,0,0,0,4.2,1.17,19.93,19.93,0,0,1,9.29-2.27h28a21.14,21.14,0,0,0,16-7.38A20.15,20.15,0,0,0,201.8,20a19.43,19.43,0,0,1,13.3,18.5,19.2,19.2,0,0,1-2,8.56,27.17,27.17,0,0,0-2.81,11.89v6a11.92,11.92,0,0,0-5.61-1.39H141.14A12,12,0,0,0,135.5,65V50.6a19.83,19.83,0,0,1,2.28-9.3,3.19,3.19,0,0,0-1.17-4.21.76.76,0,0,0-.19-.12,3.2,3.2,0,0,0-4.32,1.36,26.52,26.52,0,0,0-3,12.27V85.68a12.69,12.69,0,0,0-10.66,12.51v3.7a18.43,18.43,0,0,0,15.87,18.24A57.44,57.44,0,0,0,145,135.88v6.33a69,69,0,0,0-44.81,17.29,3.21,3.21,0,0,0-.28,4.52l.06.06a3.19,3.19,0,0,0,4.47.22,62.63,62.63,0,0,1,23.35-13,28.42,28.42,0,0,0,27.7,21.79H192.1a28.41,28.41,0,0,0,23.68-12.61,0,0,0,0,0,0,0,28.26,28.26,0,0,0,4-9.18,62.14,62.14,0,0,1,15.48,7.11v3a14.82,14.82,0,0,0,14.8,14.8h3.49a62.16,62.16,0,0,1,10.73,35v2.06a.39.39,0,0,1-.38.39H204.44a3.2,3.2,0,0,0-.64,6.34,2.67,2.67,0,0,0,.64.07h59.48a5.26,5.26,0,0,0,.89-.07,6.79,6.79,0,0,0,5.9-6.73v-2.06a68.56,68.56,0,0,0-9.54-35h13.54a14.82,14.82,0,0,0,14.81-14.8V136.74A14.82,14.82,0,0,0,274.71,121.93Zm-24.63,47.83a8.4,8.4,0,0,1-7.28-4.22,8.3,8.3,0,0,1-1.11-4.17V136.74a8.4,8.4,0,0,1,8.39-8.4h24.63a8.41,8.41,0,0,1,8.4,8.4v24.63a8.4,8.4,0,0,1-8.4,8.39Zm-58-3.1H155.47A22,22,0,0,1,134,149.75a62.48,62.48,0,0,1,11.86-1.13,5.54,5.54,0,0,0,5.53-5.53v-.94a33.93,33.93,0,0,0,44.79-1.53v2.47a5.54,5.54,0,0,0,5.53,5.53,63.41,63.41,0,0,1,11.87,1.12,22,22,0,0,1-21.48,16.92ZM124.84,98.19a6.27,6.27,0,0,1,6.26-6.26h1.19a3.21,3.21,0,0,0,3.21-3.2V75.65a5.86,5.86,0,0,1,.27-1.74,5.66,5.66,0,0,1,5.37-3.9H204.7a5.66,5.66,0,0,1,5.37,3.9,5.86,5.86,0,0,1,.27,1.74V88.73a3.21,3.21,0,0,0,3.21,3.2h1.19A6.27,6.27,0,0,1,221,98.19v3.7a12.07,12.07,0,0,1-11.71,12,3.19,3.19,0,0,0-2.88,2,50.63,50.63,0,0,1-7,12A52.15,52.15,0,0,1,195.7,132l-3.08,3.14a27.94,27.94,0,0,1-5.91,4.59,27.33,27.33,0,0,1-12.8,3.66l-1,0a27.44,27.44,0,0,1-19.71-8.27L150.13,132c-.67-.68-1.32-1.38-1.94-2.1a50.58,50.58,0,0,1-8.76-14,3.19,3.19,0,0,0-2.88-2,12.07,12.07,0,0,1-11.71-12Z"/><path d="M262.4,137a12.09,12.09,0,1,0,12.09,12.09A12.1,12.1,0,0,0,262.4,137Zm0,17.77a5.66,5.66,0,0,1-5.25-3.54,5.45,5.45,0,0,1-.43-2.14,5.69,5.69,0,0,1,5.68-5.68,5.45,5.45,0,0,1,2.14.43,5.67,5.67,0,0,1-2.14,10.93Z"/><circle cx="275.3" cy="135.88" r="3.6"/><circle cx="140.29" cy="193.1" r="3.6"/></g></svg>