<svg id="Capa_1" data-name="Capa 1" xmlns="http://www.w3.org/2000/svg" viewBox="0 0 475 356.25"><defs><style>.cls-1{fill:#21201e;}.cls-2{fill:#161616;}.cls-3{fill:#3a3a3a;}.cls-4{fill:#d1d2d4;}.cls-5{fill:#e6e6e6;}.cls-6{fill:#656364;opacity:0.15;}.cls-7{fill:#e62117;}.cls-8{fill:#f4d100;}.cls-9{fill:#7daf35;}.cls-10{fill:#aaa;}.cls-11{fill:#07776c;}.cls-12{fill:#ff9100;}.cls-13{fill:#0de3f9;}.cls-14{fill:#005ac6;}</style></defs><title>SitiosWebCreadosDesdeCero</title><path class="cls-1" d="M467.39,15.49v224H7.61v-224c0-4.71,4.19-8.55,9.37-8.55H458C463.18,6.94,467.39,10.78,467.39,15.49Z"/><path d="M458,0H17C7.62,0,0,7,0,15.49V287.25c0,8.54,7.62,15.49,17,15.49H178l-7.83,29.85H137.05a3.93,3.93,0,0,0-3.26,1.67,13.49,13.49,0,0,0-2.29,7.48A13.78,13.78,0,0,0,136.16,352a16.53,16.53,0,0,0,11.2,4.25H327.64c8.74,0,15.86-6.49,15.86-14.47a13.42,13.42,0,0,0-2.3-7.48,3.91,3.91,0,0,0-3.25-1.67H304.79L297,302.74H458c9.36,0,17-6.95,17-15.49V15.49C475,7,467.38,0,458,0ZM7.61,15.49c0-4.71,4.19-8.55,9.37-8.55H458c5.16,0,9.37,3.84,9.37,8.55v224H7.61Zm327.92,324a6.91,6.91,0,0,1,.36,2.21c0,4.15-3.7,7.53-8.25,7.53H147.36a8.61,8.61,0,0,1-5.83-2.21,7.15,7.15,0,0,1-2.42-5.32,6.91,6.91,0,0,1,.36-2.21ZM297,332.59H178l7.82-29.85h103.3Zm170.42-45.34c0,4.72-4.21,8.55-9.37,8.55H17c-5.18,0-9.37-3.83-9.37-8.55V246.46H467.39Z"/><rect class="cls-2" x="17.72" y="53.38" width="439.57" height="173.41"/><rect class="cls-3" x="17.72" y="18.14" width="439.57" height="35.24"/><polygon class="cls-4" points="296.97 332.59 178.03 332.59 185.85 302.74 289.14 302.74 296.97 332.59"/><path class="cls-5" d="M467.39,246.46v40.79c0,4.72-4.2,8.55-9.37,8.55H17c-5.18,0-9.37-3.83-9.37-8.55V246.46Z"/><path class="cls-5" d="M335.89,341.74c0,4.15-3.7,7.53-8.25,7.53H147.36a8.61,8.61,0,0,1-5.83-2.21,7.15,7.15,0,0,1-2.42-5.32,6.91,6.91,0,0,1,.36-2.21H335.53A6.91,6.91,0,0,1,335.89,341.74Z"/><path class="cls-6" d="M250.49,271.93a13,13,0,1,1-13-13A13,13,0,0,1,250.49,271.93Z"/><circle class="cls-7" cx="46.65" cy="35.76" r="8.12"/><circle class="cls-8" cx="71.91" cy="35.76" r="8.12"/><circle class="cls-9" cx="97.17" cy="35.76" r="8.12"/><rect class="cls-10" x="237.32" y="28.1" width="199.15" height="15.32" rx="7.66"/><rect class="cls-11" x="38.53" y="68.86" width="73.69" height="8.79" rx="4.39"/><rect class="cls-12" x="121.01" y="202.52" width="73.69" height="8.79" rx="4.39"/><rect class="cls-13" x="38.53" y="149.06" width="44.59" height="8.79" rx="4.39"/><rect class="cls-9" x="38.53" y="175.79" width="108.73" height="8.79" rx="4.39"/><rect class="cls-14" x="38.53" y="202.52" width="73.69" height="8.79" rx="4.39"/><rect class="cls-12" x="75.38" y="122.32" width="73.69" height="8.79" rx="4.39"/><rect class="cls-7" x="38.53" y="122.32" width="29.8" height="8.79" rx="4.39"/><rect class="cls-7" x="89.24" y="149.06" width="29.8" height="8.79" rx="4.39"/><rect class="cls-9" x="38.53" y="95.59" width="125.12" height="8.79" rx="4.39"/><rect class="cls-14" x="127.1" y="149.06" width="125.12" height="8.79" rx="4.39"/><rect class="cls-11" x="156.68" y="122.32" width="125.12" height="8.79" rx="4.39"/><rect class="cls-13" x="170.08" y="95.59" width="62.43" height="8.79" rx="4.39"/></svg>