<svg id="ola" xmlns="http://www.w3.org/2000/svg" viewBox="0 0 1025.91 343.16"><defs><style>.cls-1{fill:#0b0b43;}</style></defs><title>ola1</title><path class="cls-1" d="M998.25,77.55a28.77,28.77,0,0,1-28.78-28.77v-20a28.78,28.78,0,1,0-57.55,0V56.69a28.77,28.77,0,0,1-56.44-7.91v-20a28.78,28.78,0,1,0-57.55,0V56.69a28.77,28.77,0,0,1-56.44-7.91v-20a28.78,28.78,0,1,0-57.55,0V56.69a28.77,28.77,0,0,1-56.44-7.91v-20a28.78,28.78,0,1,0-57.55,0V56.69a28.77,28.77,0,0,1-56.44-7.91v-20a28.78,28.78,0,1,0-57.55,0V56.69a28.77,28.77,0,0,1-56.44-7.91v-20a28.78,28.78,0,1,0-57.55,0V56.69a28.77,28.77,0,0,1-56.44-7.91v-20a28.78,28.78,0,1,0-57.55,0V56.69a28.77,28.77,0,0,1-56.44-7.91v-20a28.78,28.78,0,1,0-57.55,0V56.69a28.77,28.77,0,0,1-56.44-7.91v-20A28.78,28.78,0,1,0,0,28.78V343.16H1025.91V56.69A28.77,28.77,0,0,1,998.25,77.55Z"/></svg>