<svg xmlns="http://www.w3.org/2000/svg" viewBox="0 0 382.5 341.37"><defs><style>.cls-1{fill:#fff;}</style></defs><title>Recurso 2</title><g id="Capa_2" data-name="Capa 2"><g id="Capa_6" data-name="Capa 6"><path class="cls-1" d="M208.84,31.32c-6.61-.76-64.3-6.38-110.6,35.95a142.37,142.37,0,0,0-38.95,61A141.25,141.25,0,0,0,88.9,177.88c2.48-7,7-15.9,15.78-20.87,16-9,30.7,3.6,62.2,8,8.22,1.13,39.69,4.76,73.94-8.45a138.9,138.9,0,0,0,46.59-29.72,134.29,134.29,0,0,0,23.81-31.48C306.94,88.65,273.71,38.73,208.84,31.32ZM255.43,81.6A10.17,10.17,0,1,1,265.6,71.43,10.16,10.16,0,0,1,255.43,81.6Z"/><path class="cls-1" d="M232.8,31c-4.39-3.37-66.13-49.15-140.48-22.89C24,32.23,2.45,96.93.18,104.16c-1.27,10.13,4.42,19.71,13.31,23.11,10.15,3.88,22.37-1.06,27.28-11.77A148.25,148.25,0,0,1,164.1,28.21,141.38,141.38,0,0,1,232.8,31Z"/><path class="cls-1" d="M132.22,160.56l21.25,7.21a53.51,53.51,0,0,1-30.91,32.83,53.33,53.33,0,0,0,9.66-40Z"/><path class="cls-1" d="M57.19,135.55c24.25,60.27,84.88,97,146.73,90.3,54.87-6,101.86-45.2,119.1-99.62,8.71,6.15,44.44,32.83,56,83.41,11.07,48.4-7.35,86.48-12.5,96.33C257,362.38,149.3,351.89,85.75,270.76,46.87,221.13,50.76,156.85,57.19,135.55Z"/></g></g></svg>