<svg xmlns="http://www.w3.org/2000/svg" viewBox="0 0 140.59 77.53"><defs><style>.cls-1{fill:#dd3636;}.cls-2{fill:#050505;}.cls-3{fill:#efefef;}.cls-4{fill:#ffaa01;}.cls-5{fill:#0f0f0f;}.cls-6{fill:#f9a95a;}.cls-7{fill:#0a0a0a;}.cls-8{fill:#005ac6;}</style></defs><title>icon-5-02</title><g id="Ãconos"><rect class="cls-1" x="42.89" y="0.89" width="86.81" height="11.12" rx="5.56"/><path class="cls-2" d="M125.19,12.9H47.4A5.4,5.4,0,0,1,42,7.5V5.4A5.4,5.4,0,0,1,47.4,0h77.79a5.4,5.4,0,0,1,5.4,5.4V7.5A5.4,5.4,0,0,1,125.19,12.9ZM47.4,1.78A3.62,3.62,0,0,0,43.78,5.4V7.5a3.63,3.63,0,0,0,3.62,3.62h77.79a3.63,3.63,0,0,0,3.62-3.62V5.4a3.62,3.62,0,0,0-3.62-3.62Z"/><rect class="cls-3" x="47.97" y="12.01" width="76.17" height="49.08"/><path class="cls-2" d="M124.14,62H48a.89.89,0,0,1-.89-.89V12a.89.89,0,0,1,.89-.89h76.17A.89.89,0,0,1,125,12V61.09A.89.89,0,0,1,124.14,62ZM48.86,60.2h74.39V12.9H48.86Z"/><circle class="cls-1" cx="86.06" cy="72.99" r="3.64"/><path class="cls-2" d="M86.06,77.53A4.54,4.54,0,1,1,90.59,73,4.55,4.55,0,0,1,86.06,77.53Zm0-7.29A2.76,2.76,0,1,0,88.81,73,2.76,2.76,0,0,0,86.06,70.24Z"/><rect class="cls-2" x="85.17" y="61.09" width="1.78" height="8.26"/><path class="cls-4" d="M87,37.05A14.72,14.72,0,1,1,72.31,22.33V36.55H87C87,36.72,87,36.88,87,37.05Z"/><path class="cls-5" d="M72.31,52.66a15.61,15.61,0,0,1,0-31.22.89.89,0,0,1,.89.89V35.66H87a.89.89,0,0,1,.89.83c0,.18,0,.37,0,.56A15.62,15.62,0,0,1,72.31,52.66Zm-.89-29.42a13.83,13.83,0,1,0,14.72,14.2H72.31a.89.89,0,0,1-.89-.89Z"/><path class="cls-1" d="M89.71,33.87H75V19.64A14.73,14.73,0,0,1,89.71,33.87Z"/><path class="cls-5" d="M89.71,34.75H75a.88.88,0,0,1-.89-.88V19.64a.89.89,0,0,1,.89-.89,15.54,15.54,0,0,1,15.6,15.09.88.88,0,0,1-.24.64A.87.87,0,0,1,89.71,34.75ZM75.88,33H88.76A13.75,13.75,0,0,0,75.88,20.56Z"/><path class="cls-5" d="M114.86,30.32h-17a.89.89,0,1,1,0-1.77h17a.89.89,0,1,1,0,1.77Z"/><path class="cls-5" d="M114.86,37.44h-17a.89.89,0,0,1,0-1.78h17a.89.89,0,0,1,0,1.78Z"/><path class="cls-5" d="M114.86,44.55h-17a.89.89,0,0,1,0-1.78h17a.89.89,0,1,1,0,1.78Z"/><circle class="cls-6" cx="37.28" cy="33.03" r="13.75"/><path class="cls-7" d="M37.28,48.34A15.31,15.31,0,1,1,52.59,33,15.33,15.33,0,0,1,37.28,48.34Zm0-27.5A12.19,12.19,0,1,0,49.47,33,12.2,12.2,0,0,0,37.28,20.84Z"/><path class="cls-8" d="M63,76H11.56c0-16.12,11.52-29.18,25.72-29.18S63,59.84,63,76Z"/><path class="cls-7" d="M63,77.53H11.56A1.56,1.56,0,0,1,10,76C10,59,22.24,45.22,37.28,45.22S64.57,59,64.57,76A1.57,1.57,0,0,1,63,77.53ZM13.16,74.4H61.41C60.7,59.89,50.15,48.34,37.28,48.34S13.87,59.89,13.16,74.4Z"/></g></svg>