<svg xmlns="http://www.w3.org/2000/svg" viewBox="0 0 140.59 77.53"><defs><style>.cls-1{fill:#ded8d0;}.cls-2{fill:#c9c4bd;}.cls-3{fill:#ffaa01;}.cls-4{fill:#d88a00;}.cls-5{fill:#e02d4b;}.cls-6{fill:#005ac6;}.cls-7{fill:#50b6cf;}.cls-8{fill:#0d0f23;}</style></defs><title>icon-6-03</title><g id="Ãconos"><path class="cls-1" d="M90.57,7.63a5.07,5.07,0,0,1,5.08,5.08V63.09a5.07,5.07,0,0,1-5.08,5.08H34.65a5.08,5.08,0,0,1-5.09-5.08V12.71a5.08,5.08,0,0,1,5.09-5.08Z"/><path class="cls-2" d="M34.65,68.17H90.57a5.07,5.07,0,0,0,5.08-5.08V35.59c-12,13.15-32.37,22.83-66.09,24.64v2.86A5.08,5.08,0,0,0,34.65,68.17Z"/><circle class="cls-3" cx="90.57" cy="62.27" r="13.98"/><path class="cls-4" d="M98.94,51.1A14,14,0,0,1,79.39,70.65,14,14,0,1,0,98.94,51.1Z"/><path class="cls-5" d="M95.65,20.33H29.56V12.71a5.08,5.08,0,0,1,5.09-5.08H90.57a5.07,5.07,0,0,1,5.08,5.08Z"/><path class="cls-3" d="M41,14a2.54,2.54,0,0,1-2.54-2.54V3.81a2.54,2.54,0,1,1,5.08,0v7.63A2.54,2.54,0,0,1,41,14Z"/><path class="cls-3" d="M55,14a2.54,2.54,0,0,1-2.54-2.54V3.81a2.54,2.54,0,0,1,5.08,0v7.63A2.54,2.54,0,0,1,55,14Z"/><path class="cls-3" d="M70.23,14a2.54,2.54,0,0,1-2.54-2.54V3.81a2.54,2.54,0,1,1,5.08,0v7.63A2.54,2.54,0,0,1,70.23,14Z"/><path class="cls-3" d="M84.21,14a2.54,2.54,0,0,1-2.54-2.54V3.81a2.54,2.54,0,0,1,5.08,0v7.63A2.54,2.54,0,0,1,84.21,14Z"/><path class="cls-6" d="M37.19,26.69h7.62v7.62H37.19Z"/><path class="cls-7" d="M51.17,26.69h7.62v7.62H51.17Z"/><path class="cls-6" d="M65.15,26.69h7.62v7.62H65.15Z"/><path class="cls-7" d="M79.13,26.69h7.62v7.62H79.13Z"/><path class="cls-7" d="M37.19,40.67h7.62v7.62H37.19Z"/><path class="cls-6" d="M51.17,40.67h7.62v7.62H51.17Z"/><path class="cls-7" d="M65.15,40.67h7.62v7.62H65.15Z"/><path class="cls-6" d="M79.13,40.67h7.62v7.62H79.13Z"/><path class="cls-6" d="M37.19,54.65h7.62v7.62H37.19Z"/><path class="cls-7" d="M51.17,54.65h7.62v7.62H51.17Z"/><path class="cls-6" d="M65.15,54.65h7.62v7.62H65.15Z"/><path class="cls-8" d="M96.92,48.43V12.71a6.37,6.37,0,0,0-6.35-6.36H88V3.81a3.82,3.82,0,0,0-7.63,0V6.35H74.05V3.81a3.82,3.82,0,0,0-7.63,0V6.35H58.79V3.81a3.81,3.81,0,0,0-7.62,0V6.35H44.81V3.81a3.81,3.81,0,0,0-7.62,0V6.35H34.65a6.37,6.37,0,0,0-6.36,6.36V63.55a6.36,6.36,0,0,0,6.36,6.35H77.38A15.24,15.24,0,1,0,96.92,48.43Zm-14-44.62a1.27,1.27,0,1,1,2.54,0v7.63a1.27,1.27,0,0,1-2.54,0Zm-14,0a1.27,1.27,0,0,1,2.54,0v7.63a1.27,1.27,0,1,1-2.54,0Zm-15.25,0a1.27,1.27,0,0,1,2.54,0v7.63a1.27,1.27,0,0,1-2.54,0Zm-14,0a1.27,1.27,0,0,1,2.54,0v7.63a1.27,1.27,0,0,1-2.54,0ZM34.65,8.9h2.54v2.54a3.81,3.81,0,0,0,7.62,0V8.9h6.36v2.54a3.81,3.81,0,0,0,7.62,0V8.9h7.63v2.54a3.82,3.82,0,0,0,7.63,0V8.9H80.4v2.54a3.82,3.82,0,0,0,7.63,0V8.9h2.54a3.82,3.82,0,0,1,3.81,3.81v6.35H30.83V12.71A3.82,3.82,0,0,1,34.65,8.9Zm0,58.46a3.82,3.82,0,0,1-3.82-3.81V21.61H94.38V47.53A14.35,14.35,0,0,0,88,47.25V40.67a1.27,1.27,0,0,0-1.28-1.27H79.13a1.27,1.27,0,0,0-1.27,1.27v7.62a1.27,1.27,0,0,0,1.27,1.28h3a15.22,15.22,0,0,0-6.84,12.7,15,15,0,0,0,.89,5.09ZM85.48,47H80.4V41.94h5.08Zm5.09,28a12.71,12.71,0,1,1,12.71-12.71A12.72,12.72,0,0,1,90.57,75Z"/><path class="cls-8" d="M91.84,60.09v-8H89.3v8A2.52,2.52,0,0,0,88,62.27c0,.13,0,.26,0,.38l-4.64,3.72,1.59,2,4.64-3.71a2.48,2.48,0,0,0,1.91,0,2.57,2.57,0,0,0,1.5-1.84A2.52,2.52,0,0,0,91.84,60.09Z"/><path class="cls-8" d="M44.81,25.42H37.19a1.27,1.27,0,0,0-1.27,1.27v7.62a1.27,1.27,0,0,0,1.27,1.28h7.62a1.28,1.28,0,0,0,1.28-1.28V26.69A1.27,1.27,0,0,0,44.81,25.42ZM43.54,33H38.46V28h5.08Z"/><path class="cls-8" d="M58.79,25.42H51.17a1.27,1.27,0,0,0-1.27,1.27v7.62a1.27,1.27,0,0,0,1.27,1.28h7.62a1.28,1.28,0,0,0,1.28-1.28V26.69A1.27,1.27,0,0,0,58.79,25.42ZM57.52,33H52.44V28h5.08Z"/><path class="cls-8" d="M72.77,25.42H65.15a1.27,1.27,0,0,0-1.27,1.27v7.62a1.27,1.27,0,0,0,1.27,1.28h7.62a1.28,1.28,0,0,0,1.28-1.28V26.69A1.27,1.27,0,0,0,72.77,25.42ZM71.5,33H66.42V28H71.5Z"/><path class="cls-8" d="M79.13,35.59h7.62A1.28,1.28,0,0,0,88,34.31V26.69a1.27,1.27,0,0,0-1.28-1.27H79.13a1.27,1.27,0,0,0-1.27,1.27v7.62A1.27,1.27,0,0,0,79.13,35.59ZM80.4,28h5.08V33H80.4Z"/><path class="cls-8" d="M44.81,39.4H37.19a1.27,1.27,0,0,0-1.27,1.27v7.62a1.27,1.27,0,0,0,1.27,1.28h7.62a1.28,1.28,0,0,0,1.28-1.28V40.67A1.27,1.27,0,0,0,44.81,39.4ZM43.54,47H38.46V41.94h5.08Z"/><path class="cls-8" d="M58.79,39.4H51.17a1.27,1.27,0,0,0-1.27,1.27v7.62a1.27,1.27,0,0,0,1.27,1.28h7.62a1.28,1.28,0,0,0,1.28-1.28V40.67A1.27,1.27,0,0,0,58.79,39.4ZM57.52,47H52.44V41.94h5.08Z"/><path class="cls-8" d="M72.77,39.4H65.15a1.27,1.27,0,0,0-1.27,1.27v7.62a1.27,1.27,0,0,0,1.27,1.28h7.62a1.28,1.28,0,0,0,1.28-1.28V40.67A1.27,1.27,0,0,0,72.77,39.4ZM71.5,47H66.42V41.94H71.5Z"/><path class="cls-8" d="M44.81,53.38H37.19a1.27,1.27,0,0,0-1.27,1.27v7.62a1.27,1.27,0,0,0,1.27,1.28h7.62a1.28,1.28,0,0,0,1.28-1.28V54.65A1.27,1.27,0,0,0,44.81,53.38ZM43.54,61H38.46V55.92h5.08Z"/><path class="cls-8" d="M58.79,53.38H51.17a1.27,1.27,0,0,0-1.27,1.27v7.62a1.27,1.27,0,0,0,1.27,1.28h7.62a1.28,1.28,0,0,0,1.28-1.28V54.65A1.27,1.27,0,0,0,58.79,53.38ZM57.52,61H52.44V55.92h5.08Z"/><path class="cls-8" d="M72.77,53.38H65.15a1.27,1.27,0,0,0-1.27,1.27v7.62a1.27,1.27,0,0,0,1.27,1.28h7.62a1.28,1.28,0,0,0,1.28-1.28V54.65A1.27,1.27,0,0,0,72.77,53.38ZM71.5,61H66.42V55.92H71.5Z"/></g></svg>