<svg id="Capa_1" data-name="Capa 1" xmlns="http://www.w3.org/2000/svg" viewBox="0 0 140.59 77.53"><defs><style>.cls-1{fill:#d1d2d4;}.cls-2{fill:#21201e;}.cls-3{fill:#e6e6e6;}.cls-4,.cls-7{fill:#656364;}.cls-4{opacity:0.15;}.cls-5{fill:#ff9100;}.cls-6{fill:#ffb000;}.cls-7{opacity:0.25;}.cls-8{fill:none;}</style></defs><title>icon-1</title><polygon class="cls-1" points="100.3 74.61 74.36 74.61 77.14 62.99 97.52 62.99 100.3 74.61"/><path d="M100.3,75.34H74.36a.74.74,0,0,1-.71-.91l2.78-11.61a.73.73,0,0,1,.71-.56H97.52a.73.73,0,0,1,.71.56L101,74.43a.75.75,0,0,1-.14.63A.74.74,0,0,1,100.3,75.34Zm-25-1.47H99.37L96.94,63.72H77.72Z"/><path class="cls-2" d="M132.22,4.52v47.9H42.44V4.52A2.54,2.54,0,0,1,45,2h84.72A2.53,2.53,0,0,1,132.22,4.52Z"/><path d="M132.22,53.15H42.44a.73.73,0,0,1-.73-.73V4.52A3.27,3.27,0,0,1,45,1.26h84.72A3.27,3.27,0,0,1,133,4.52v47.9A.72.72,0,0,1,132.22,53.15Zm-89-1.46h88.32V4.52a1.8,1.8,0,0,0-1.8-1.8H45a1.81,1.81,0,0,0-1.8,1.8Z"/><path class="cls-3" d="M107,73.22a2.32,2.32,0,0,1-2.31,2.31H70A2.32,2.32,0,0,1,68,72h38.6A2.32,2.32,0,0,1,107,73.22Z"/><path d="M104.65,76.26H70a3,3,0,0,1-2.16-.89A3.05,3.05,0,0,1,67,73.22a3,3,0,0,1,.44-1.58.72.72,0,0,1,.62-.35h38.6a.72.72,0,0,1,.62.35,3,3,0,0,1-2.6,4.62ZM68.5,72.75a1.49,1.49,0,0,0-.07.47,1.56,1.56,0,0,0,.47,1.11A1.54,1.54,0,0,0,70,74.8h34.63a1.58,1.58,0,0,0,1.58-1.58,1.49,1.49,0,0,0-.07-.47Z"/><path class="cls-3" d="M132.22,52.42v9.32a2.53,2.53,0,0,1-2.53,2.53H45a2.54,2.54,0,0,1-2.53-2.53V52.42Z"/><path d="M129.69,65H45a3.26,3.26,0,0,1-3.26-3.26V52.42a.73.73,0,0,1,.73-.73h89.78a.73.73,0,0,1,.73.73v9.32A3.26,3.26,0,0,1,129.69,65ZM43.17,53.15v8.59a1.8,1.8,0,0,0,1.8,1.8h84.72a1.79,1.79,0,0,0,1.8-1.8V53.15Z"/><circle class="cls-4" cx="87.33" cy="58.35" r="2.74"/><rect class="cls-5" x="45.11" y="5.08" width="84.44" height="43.93"/><polygon class="cls-6" points="129.55 49.01 45.11 49.01 45.11 5.08 129.55 49.01"/><path class="cls-2" d="M76.42,24.2V71.29H7V24.2a2.28,2.28,0,0,1,2-2.49H74.47A2.28,2.28,0,0,1,76.42,24.2Z"/><path d="M76.42,71.83H7a.55.55,0,0,1-.54-.54V24.2a2.8,2.8,0,0,1,2.5-3H74.47a2.8,2.8,0,0,1,2.49,3V71.29A.54.54,0,0,1,76.42,71.83ZM7.53,70.75H75.88V24.2c0-1.05-.64-1.95-1.41-1.95H9c-.77,0-1.42.9-1.42,1.95Z"/><path class="cls-3" d="M82,71.29a5.56,5.56,0,0,1-5.43,4.43H6.89a5.54,5.54,0,0,1-5.42-4.43Z"/><path d="M76.52,76.26H6.89A6.09,6.09,0,0,1,.94,71.39.54.54,0,0,1,1.05,71a.53.53,0,0,1,.42-.2H82a.51.51,0,0,1,.41.2.48.48,0,0,1,.11.44A6.08,6.08,0,0,1,76.52,76.26ZM2.18,71.83a5,5,0,0,0,4.71,3.35H76.52a5,5,0,0,0,4.72-3.35Z"/><path class="cls-7" d="M49.35,71.64v.17a1.62,1.62,0,0,1-1.61,1.61H35.68a1.62,1.62,0,0,1-1.61-1.61v-.17a1.34,1.34,0,0,1,0-.35h15.2A2,2,0,0,1,49.35,71.64Z"/><path class="cls-2" d="M131.66,75.93h-9.92c-4.3,0-4.82-2.17-4.82-4.82V47.32c0-2.65.85-4.89,4.82-4.82h9.92c4.3,0,4.82,2.17,4.82,4.82V71.11C136.48,73.76,136.05,75.93,131.66,75.93Z"/><path d="M133.14,76.26H120.26a3.67,3.67,0,0,1-3.67-3.67V45.84a3.67,3.67,0,0,1,3.67-3.67h12.88a3.67,3.67,0,0,1,3.67,3.67V72.59A3.67,3.67,0,0,1,133.14,76.26ZM120.26,42.83a3,3,0,0,0-3,3V72.59a3,3,0,0,0,3,3h12.88a3,3,0,0,0,3-3V45.84a3,3,0,0,0-3-3Z"/><line class="cls-8" x1="135.2" y1="74.69" x2="134.98" y2="74.3"/><line class="cls-8" x1="118.42" y1="44.13" x2="118.2" y2="43.74"/><path class="cls-5" d="M135.2,44.71v29a.94.94,0,0,1-.21.58,1.11,1.11,0,0,1-.85.39H119.27a1,1,0,0,1-1.07-1v-29a.87.87,0,0,1,.22-.58,1.08,1.08,0,0,1,.85-.39H123a.76.76,0,0,0,.8.73h5.87a.82.82,0,0,0,.56-.21.69.69,0,0,0,.24-.52h3.7A1,1,0,0,1,135.2,44.71Z"/><path class="cls-6" d="M135,74.3a1.11,1.11,0,0,1-.85.39H119.27a1,1,0,0,1-1.07-1v-29a.87.87,0,0,1,.22-.58Z"/><rect class="cls-5" x="10.55" y="25.32" width="62.31" height="42.1"/><polygon class="cls-6" points="72.86 67.42 10.55 67.42 10.55 25.32 72.86 67.42"/></svg>