<svg xmlns="http://www.w3.org/2000/svg" viewBox="0 0 140.59 77.53"><defs><style>.cls-1{fill:#d66d3c;}.cls-2{fill:#c75d2d;}.cls-3{fill:#e02d4b;}.cls-4{fill:#d60d39;}.cls-5{fill:#e8916f;}.cls-6{fill:#d98868;}.cls-7{fill:#ebad88;}.cls-8{fill:#497285;}.cls-9{fill:#426778;}.cls-10{fill:#f64b4a;}.cls-11{fill:#f1f1f1;}.cls-12{fill:#005ac6;}.cls-13{fill:#004284;}.cls-14{fill:#e2e2e2;}</style></defs><title>icon-4-03</title><g id="Ãconos"><path class="cls-1" d="M32,50.88h75.26V76.39H32Z"/><path class="cls-2" d="M102.73,50.88h4.54V76.39h-4.54Z"/><path class="cls-3" d="M62,50.88H32V43.43a9,9,0,0,1,9-9H53a9,9,0,0,1,9,9v7.45Z"/><path class="cls-4" d="M53,34.4H48.46a9,9,0,0,1,9,9v7.45H62V43.43A9,9,0,0,0,53,34.4Z"/><path class="cls-5" d="M44,28.18h6v9.76H44Z"/><path class="cls-5" d="M38.46,18.66c0,2-1.21,3.6-2.72,3.6s-2.37-1.85-2.37-3.84.87-3.36,2.37-3.36S38.46,16.67,38.46,18.66Z"/><path class="cls-6" d="M55.59,18.66c0,2,1.22,3.6,2.72,3.6s2.38-1.85,2.38-3.84-.88-3.36-2.38-3.36S55.59,16.67,55.59,18.66Z"/><path class="cls-7" d="M37.06,19.83v-7.4A9.4,9.4,0,0,1,46.46,3h1.13a9.4,9.4,0,0,1,9.4,9.4v7.4a10,10,0,0,1-10,10h0A10,10,0,0,1,37.06,19.83Z"/><path class="cls-5" d="M47.59,3H46.46a9.71,9.71,0,0,0-1.71.15,9.42,9.42,0,0,1,7.7,9.25v7.4a10,10,0,0,1-7.7,9.7A10,10,0,0,0,47,29.8h0a10,10,0,0,0,10-10v-7.4A9.4,9.4,0,0,0,47.59,3Z"/><path class="cls-8" d="M58.7,12.55C58.19,15.78,57,16.4,57,16.4s-.53-4.77-2.58-4.52a68.78,68.78,0,0,1-7.38.54,68.93,68.93,0,0,1-7.39-.54c-2-.25-2.58,4.52-2.58,4.52s-1.2-.62-1.71-3.85C34.66,8.12,37.61,1.14,47,1.14S59.4,8.12,58.7,12.55Z"/><path class="cls-9" d="M47,1.14a18.25,18.25,0,0,0-2.28.14c7.23,1,9.78,6.59,9.48,10.62l.18,0C56.46,11.63,57,16.4,57,16.4s1.2-.62,1.71-3.85C59.4,8.12,56.44,1.14,47,1.14Z"/><path class="cls-10" d="M49.69,50.88H44.36s1-11,1.25-11.83S47,37.94,47,37.94a2.15,2.15,0,0,1,1.42,1.11C48.74,39.88,49.69,50.88,49.69,50.88Z"/><path class="cls-11" d="M44,32s-.28,4,3,5.9c0,0-1.88,2.09-3.77,1.43-1.5-.53-2.34-3.33-2.63-4.46a.69.69,0,0,1,.29-.76Z"/><path class="cls-11" d="M50,32s.29,4-3,5.9c0,0,1.87,2.09,3.76,1.43,1.5-.53,2.35-3.33,2.63-4.46a.7.7,0,0,0-.28-.76Z"/><path class="cls-7" d="M102.22,37.94v7.41a10,10,0,0,1-6.64,9.39.5.5,0,0,0-.32.46v4.71h-6V55.2a.5.5,0,0,0-.32-.46,10,10,0,0,1-6.64-9.39V37.94a9.4,9.4,0,0,1,9.4-9.4h1.13a9.4,9.4,0,0,1,9.4,9.4Z"/><path class="cls-12" d="M107.27,76.39h-30V69a9,9,0,0,1,9-9h12a9,9,0,0,1,9,9v7.44Z"/><path class="cls-13" d="M98.23,59.91H93.69a9,9,0,0,1,9,9v7.44h4.54V69a9,9,0,0,0-9-9Z"/><path class="cls-5" d="M83.69,44.17c0,2-1.21,3.6-2.72,3.6s-2.38-1.85-2.38-3.84.88-3.36,2.38-3.36S83.69,42.18,83.69,44.17Z"/><path class="cls-6" d="M100.82,44.17c0,2,1.22,3.6,2.72,3.6s2.38-1.85,2.38-3.84-.88-3.36-2.38-3.36S100.82,42.18,100.82,44.17Z"/><path class="cls-1" d="M103.93,38.06c-.51,3.24-1.71,13.46-11.67,13.46S81.09,41.3,80.58,38.06c-.69-4.43,2.26-11.41,11.68-11.41S104.63,33.63,103.93,38.06Z"/><path class="cls-2" d="M92.26,26.65A16.47,16.47,0,0,0,90,26.8c7.63,1,10,7.21,9.41,11.26-.47,3-1.52,11.83-9.41,13.26a12.56,12.56,0,0,0,2.28.2c10,0,11.16-10.22,11.67-13.46.7-4.43-2.26-11.41-11.67-11.41Z"/><path class="cls-11" d="M97.56,59.91a11.53,11.53,0,0,1-10.6,0l.31-2.33a.66.66,0,0,1,.66-.61h8.66a.65.65,0,0,1,.65.61Z"/><path class="cls-11" d="M97,15.38v11a5.31,5.31,0,0,1-5.32,5.3H81.57a.6.6,0,0,0-.56.4C79.77,35.72,76.12,36,74.58,36a.36.36,0,0,1-.3-.55A6.49,6.49,0,0,0,75,32.3a.59.59,0,0,0-.59-.59H72.76a5.31,5.31,0,0,1-5.32-5.3v-11a5.31,5.31,0,0,1,5.32-5.3H91.65A5.31,5.31,0,0,1,97,15.38Z"/><path class="cls-14" d="M76.47,32.11a5.36,5.36,0,0,1-1.86,2.6,4.19,4.19,0,0,1-.33.71.36.36,0,0,0,.3.55c1.54,0,5.19-.25,6.43-3.86a.6.6,0,0,1,.56-.4H77a.59.59,0,0,0-.56.4Z"/><path class="cls-14" d="M91.65,10.08H87.11a5.31,5.31,0,0,1,5.32,5.3v11a5.31,5.31,0,0,1-5.32,5.3h4.54A5.31,5.31,0,0,0,97,26.41v-11A5.31,5.31,0,0,0,91.65,10.08Z"/><path class="cls-11" d="M53.26,71.7H40.79a.58.58,0,0,1-.58-.58V55.93a.57.57,0,0,1,.58-.58H53.26a.57.57,0,0,1,.58.58V71.12A.58.58,0,0,1,53.26,71.7Z"/><path d="M107.27,49.74h-4.82c.13-.3.25-.61.35-.92a3.65,3.65,0,0,0,.74.09c2,0,3.51-2.1,3.51-5,0-2.09-.86-3.65-2.23-4.24.07-.4.12-.76.17-1.08,0-.13,0-.26.06-.37a10.8,10.8,0,0,0-1.27-6.75,11.07,11.07,0,0,0-5.68-4.93V24.32a1.14,1.14,0,1,0-2.27,0v2.09a4.17,4.17,0,0,1-4.18,4.16H81.57a1.73,1.73,0,0,0-1.63,1.17,4.56,4.56,0,0,1-4.16,3.05,8.9,8.9,0,0,0,.33-2.49,1.72,1.72,0,0,0-1.72-1.73H72.76a4.17,4.17,0,0,1-4.18-4.16v-11a4.17,4.17,0,0,1,4.18-4.16H91.65a4.17,4.17,0,0,1,4.18,4.16v3.9a1.14,1.14,0,0,0,2.28,0v-3.9A6.45,6.45,0,0,0,91.65,9H72.76a6.44,6.44,0,0,0-6.45,6.43v11a6.44,6.44,0,0,0,6.45,6.43h1.06a4.48,4.48,0,0,1-.51,2,1.5,1.5,0,0,0,0,1.49,1.54,1.54,0,0,0,1.28.79h.31a8.36,8.36,0,0,0,4.52-1.2,10,10,0,0,0,.08,2.33c0,.11,0,.24.06.37,0,.32.1.68.17,1.08-1.37.59-2.23,2.15-2.23,4.24,0,2.88,1.48,5,3.51,5a3.65,3.65,0,0,0,.74-.09c.1.31.22.62.35.92H63.17V43.43A10.13,10.13,0,0,0,53.89,33.3l-.12-.09-2.61-1.77V30.13a11.17,11.17,0,0,0,6.41-6.83,3.06,3.06,0,0,0,.74.09c2,0,3.51-2.09,3.51-5,0-2.13-.89-3.71-2.3-4.27a13.15,13.15,0,0,0,.3-1.43,10.8,10.8,0,0,0-1.43-7,1.13,1.13,0,0,0-2,1.16,8.6,8.6,0,0,1,1.14,5.51q-.09.51-.18.9a4.75,4.75,0,0,0-1.34-2,2.34,2.34,0,0,0-1.78-.52,66.06,66.06,0,0,1-7.25.53,65.89,65.89,0,0,1-7.25-.53,2.36,2.36,0,0,0-1.79.52,4.75,4.75,0,0,0-1.34,2c-.06-.26-.12-.56-.17-.9a8.55,8.55,0,0,1,2-6.72C40.37,3.44,43.33,2.27,47,2.27a12.33,12.33,0,0,1,6.38,1.56,1.13,1.13,0,0,0,1.16-1.95A14.45,14.45,0,0,0,47,0c-5.54,0-8.65,2.27-10.28,4.18a10.93,10.93,0,0,0-2.52,8.54c.09.54.19,1,.3,1.43-1.41.56-2.3,2.14-2.3,4.27,0,2.88,1.48,5,3.51,5a3.06,3.06,0,0,0,.74-.09,11.17,11.17,0,0,0,6.41,6.83v1.31l-2.61,1.77-.12.09a10.14,10.14,0,0,0-9.28,10.13v33A1.14,1.14,0,0,0,32,77.53H59.93a1.14,1.14,0,0,0,0-2.28H33.15V52H83.38a11.14,11.14,0,0,0,4.74,3.64v.19h-.19a1.8,1.8,0,0,0-1.79,1.61L86,58.78A10.19,10.19,0,0,0,76.11,69v6.3H64.83a1.14,1.14,0,0,0,0,2.28h42.44a1.14,1.14,0,0,0,1.13-1.14V50.88a1.14,1.14,0,0,0-1.13-1.14ZM45,37.84a1.91,1.91,0,0,0-.27.35,1.61,1.61,0,0,1-1.13.11c-.5-.18-1.27-1.31-1.83-3.38l1.26-.86A7.42,7.42,0,0,0,45,37.84Zm4.24.35a1.91,1.91,0,0,0-.27-.35,7.42,7.42,0,0,0,2-3.78l1.27.86c-.57,2.07-1.34,3.2-1.84,3.38a1.61,1.61,0,0,1-1.13-.11ZM59.55,18.42c0,1.46-.57,2.7-1.24,2.7a1,1,0,0,1-.25,0c0-.42.07-.83.07-1.26v-2.9a4.63,4.63,0,0,0,.51-.67c.38.16.91.64.91,2.16Zm-23.81,2.7c-.67,0-1.24-1.24-1.24-2.7s.53-2,.91-2.16a4.63,4.63,0,0,0,.51.67v2.9c0,.43,0,.84.07,1.26A1,1,0,0,1,35.74,21.12Zm2.45-1.29V16.47c.16-1.32.66-3,1.21-3.42.06-.05.08-.05.1,0a65.89,65.89,0,0,0,7.52.54h0A65.89,65.89,0,0,0,54.55,13s0,0,.1,0c.55.43,1.05,2.1,1.21,3.42v3.36a8.84,8.84,0,0,1-17.67,0ZM47,30.93a11.29,11.29,0,0,0,1.86-.16v1.82a5.44,5.44,0,0,1-1.86,4,5.42,5.42,0,0,1-1.87-4V30.77a11.51,11.51,0,0,0,1.87.16ZM33.15,43.43a7.86,7.86,0,0,1,6.5-7.77c.93,3.32,2.26,4.44,3.24,4.78a3.41,3.41,0,0,0,1.14.19h.19c-.29,2.32-.64,6.17-.9,9.11H33.15ZM45.6,49.74c.37-4.23.81-8.61,1-10l.41-.29.4.29c.22,1.36.65,5.75,1,10Zm5.13,0c-.26-2.94-.61-6.79-.9-9.11H50a3.41,3.41,0,0,0,1.14-.19c1-.34,2.31-1.46,3.24-4.78a7.86,7.86,0,0,1,6.5,7.77v6.31Zm54.05-5.81c0,1.47-.57,2.71-1.24,2.71a1,1,0,0,1-.25,0,10.36,10.36,0,0,0,.07-1.25V45a22.56,22.56,0,0,0,1-2.92A2.88,2.88,0,0,1,104.78,43.93ZM97.63,28.82a8.67,8.67,0,0,1,5.18,9.06q0,.18-.06.39c-.87,5.64-2.84,12.11-10.49,12.11s-9.63-6.47-10.5-12.11l-.06-.39a8.53,8.53,0,0,1,.89-5h9.06a6.45,6.45,0,0,0,6-4ZM81,46.63c-.67,0-1.24-1.23-1.24-2.7a2.81,2.81,0,0,1,.47-1.82,21,21,0,0,0,1,2.92v.32c0,.42,0,.84.07,1.25a1,1,0,0,1-.25,0Zm8.34,7A8.75,8.75,0,0,1,85,50.3a12.49,12.49,0,0,0,14.61,0,8.77,8.77,0,0,1-4.35,3.37,1.63,1.63,0,0,0-1.09,1.54v.63H90.39v-.63a1.63,1.63,0,0,0-1.08-1.54Zm-1,4.44h7.83l.15,1.13a10.49,10.49,0,0,1-8.13,0Zm17.79,17.14H78.38V69a7.9,7.9,0,0,1,7.9-7.9h.4a12.8,12.8,0,0,0,11.16,0h.39a7.9,7.9,0,0,1,7.9,7.9ZM98.55,58.78l-.18-1.33a1.8,1.8,0,0,0-1.78-1.61h-.2v-.19A11.14,11.14,0,0,0,101.13,52h5V62.55A10.17,10.17,0,0,0,98.55,58.78Z"/><path d="M42.82,17.66a1.13,1.13,0,0,0-1.13,1.14v.6a1.14,1.14,0,1,0,2.27,0v-.6A1.14,1.14,0,0,0,42.82,17.66Z"/><path d="M51.23,20.54a1.13,1.13,0,0,0,1.13-1.14v-.6a1.14,1.14,0,1,0-2.27,0v.6A1.14,1.14,0,0,0,51.23,20.54Z"/><path d="M90.24,15.67H73.89a1.14,1.14,0,1,0,0,2.27H90.24a1.14,1.14,0,1,0,0-2.27Z"/><path d="M73.89,22h6.56a1.14,1.14,0,1,0,0-2.27H73.89a1.14,1.14,0,1,0,0,2.27Z"/><path d="M90.24,19.76H84.55a1.14,1.14,0,0,0,0,2.27h5.69a1.14,1.14,0,1,0,0-2.27Z"/><path d="M73.89,26.12H90.24a1.14,1.14,0,1,0,0-2.27H73.89a1.14,1.14,0,1,0,0,2.27Z"/><path d="M40.79,54.21a1.72,1.72,0,0,0-1.71,1.72V71.12a1.72,1.72,0,0,0,1.71,1.71H53.26A1.71,1.71,0,0,0,55,71.12V55.93a1.71,1.71,0,0,0-1.71-1.72ZM52.7,70.56H41.35V56.48H52.7Z"/></g></svg>