<svg xmlns="http://www.w3.org/2000/svg" viewBox="0 0 140.59 77.53"><defs><style>.cls-1{fill:#d6d6d6;}.cls-2{fill:#c16f38;}.cls-3{fill:#d83f3f;}.cls-4{fill:#0a0a0a;}.cls-5{fill:#4dbcb4;}.cls-6{fill:#89dbd7;}.cls-7{fill:#fff;opacity:0.35;}</style></defs><title>icon-6-02</title><g id="Ãconos"><polygon class="cls-1" points="7.99 0.99 62.12 0.99 62.12 26.91 132.6 26.91 132.6 70.78 7.99 70.78 7.99 0.99"/><rect class="cls-2" x="0.99" y="71.77" width="138.6" height="4.77"/><rect class="cls-3" x="69.97" y="36.38" width="53.72" height="34.4"/><path class="cls-4" d="M140.59,77.53H0V70.78H140.59ZM1,76.54H139.6V71.77H1Z"/><path class="cls-4" d="M133.6,71.77H7V0H63.11V25.92H133.6ZM8,70.78H132.61V26.91H62.12V1H8Z"/><rect class="cls-5" x="14.49" y="26.7" width="10.37" height="44.29"/><rect class="cls-5" x="29.72" y="26.7" width="10.37" height="44.29"/><rect class="cls-5" x="44.96" y="26.7" width="10.37" height="44.29"/><path class="cls-4" d="M25.85,20.6H13.5V8.31H25.85Zm-11.36-1H24.86V9.3H14.49Z"/><path class="cls-4" d="M41.09,20.6H28.73V8.31H41.09Zm-11.37-1H40.1V9.3H29.72Z"/><path class="cls-4" d="M56.32,20.6H44V8.31H56.32ZM45,19.61H55.33V9.3H45Z"/><path class="cls-4" d="M25.85,71.77H13.5V25.71H25.85Zm-11.36-1H24.86V26.7H14.49Z"/><path class="cls-4" d="M41.09,71.77H28.73V25.71H41.09Zm-11.37-1H40.1V26.7H29.72Z"/><path class="cls-4" d="M56.32,71.77H44V25.71H56.32ZM45,70.78H55.33V26.7H45Z"/><path class="cls-4" d="M124.68,71.77H69V35.39h55.71ZM70,70.78h53.71V36.38H70Z"/><rect class="cls-4" x="78.29" y="43.07" width="37.07" height="0.99"/><rect class="cls-4" x="78.29" y="53.09" width="37.07" height="0.99"/><rect class="cls-4" x="78.29" y="63.1" width="37.07" height="0.99"/><rect class="cls-6" x="14.49" y="9.3" width="10.37" height="10.31"/><rect class="cls-6" x="29.72" y="9.3" width="10.37" height="10.31"/><rect class="cls-6" x="44.96" y="9.3" width="10.37" height="10.31"/><path class="cls-7" d="M17.81,17.44a.5.5,0,0,1-.38-.17.43.43,0,0,1,0-.56l2.52-3.3-3.76,2a.53.53,0,0,1-.69-.16.44.44,0,0,1,.18-.63l5.75-3.11a.55.55,0,0,1,.63.08.44.44,0,0,1,0,.58l-2.79,3.65,3.64-1.53a.52.52,0,0,1,.66.23.44.44,0,0,1-.24.61L18,17.4A.52.52,0,0,1,17.81,17.44Z"/><path class="cls-7" d="M33.21,17.44a.52.52,0,0,1-.39-.17.43.43,0,0,1,0-.56l2.51-3.3-3.76,2a.53.53,0,0,1-.69-.16.44.44,0,0,1,.18-.63l5.76-3.11a.53.53,0,0,1,.62.08.43.43,0,0,1,0,.58l-2.78,3.65,3.63-1.53a.54.54,0,0,1,.67.23.45.45,0,0,1-.25.61L33.42,17.4A.52.52,0,0,1,33.21,17.44Z"/><path class="cls-7" d="M48.6,17.44a.54.54,0,0,1-.39-.17.44.44,0,0,1,0-.56l2.52-3.3-3.76,2a.53.53,0,0,1-.69-.16.44.44,0,0,1,.18-.63l5.75-3.11a.53.53,0,0,1,.62.08.44.44,0,0,1,0,.58l-2.79,3.65,3.64-1.53a.52.52,0,0,1,.66.23.44.44,0,0,1-.25.61L48.81,17.4A.52.52,0,0,1,48.6,17.44Z"/></g></svg>