<svg xmlns="http://www.w3.org/2000/svg" viewBox="0 0 140.59 77.53"><defs><style>.cls-1{fill:#dd3636;}.cls-2{fill:#0a0a0a;}.cls-3{fill:#efef00;}.cls-4{fill:#962323;}.cls-5{fill:#191919;}.cls-6{fill:#005ac6;}.cls-7{fill:#f9a95a;}</style></defs><title>icon-3-02</title><g id="Ãconos"><path class="cls-1" d="M135.58,1.44H5A3.54,3.54,0,0,0,1.47,5V72.55A3.53,3.53,0,0,0,5,76.08H135.58a3.53,3.53,0,0,0,3.54-3.53V5A3.54,3.54,0,0,0,135.58,1.44ZM4.93,74.64a2,2,0,0,1-2-2V4.85a2,2,0,0,1,2-2H22.38V74.64Z"/><path class="cls-2" d="M135.66,0H4.93A4.89,4.89,0,0,0,0,4.85V72.68a4.9,4.9,0,0,0,4.93,4.85H135.66a4.9,4.9,0,0,0,4.93-4.85V4.85A4.89,4.89,0,0,0,135.66,0Zm2,72.68a2,2,0,0,1-2,2H4.93a2,2,0,0,1-2-2V4.85a2,2,0,0,1,2-2H135.66a2,2,0,0,1,2,2Z"/><path class="cls-3" d="M114.11,43.68H101.69a4.7,4.7,0,0,0-4.7,4.7V58.63a4.7,4.7,0,0,0,4.7,4.7h12.42a4.71,4.71,0,0,0,4.7-4.7V48.38A4.71,4.71,0,0,0,114.11,43.68Z"/><path class="cls-4" d="M22.38,2.89V74.64H4.93a2,2,0,0,1-2-2V4.85a2,2,0,0,1,2-2Z"/><rect class="cls-5" x="31.39" y="57.43" width="30.07" height="4.39" rx="2.2"/><rect class="cls-5" x="-2.06" y="37.46" width="30.07" height="2.61" rx="1.3" transform="translate(51.74 25.78) rotate(90)"/><rect class="cls-5" x="77.26" y="16.96" width="40.06" height="4.39" rx="2.2"/><rect class="cls-5" x="77.26" y="29.8" width="40.06" height="4.39" rx="2.2"/><path class="cls-5" d="M114.11,43.68H101.69a4.7,4.7,0,0,0-4.7,4.7V58.63a4.7,4.7,0,0,0,4.7,4.7h12.42a4.71,4.71,0,0,0,4.7-4.7V48.38A4.71,4.71,0,0,0,114.11,43.68Zm1.7,15a1.7,1.7,0,0,1-1.7,1.7H101.69a1.7,1.7,0,0,1-1.7-1.7V48.38a1.7,1.7,0,0,1,1.7-1.7h12.42a1.7,1.7,0,0,1,1.7,1.7Z"/><path class="cls-6" d="M63.58,49.33a2,2,0,0,1-2,2.05H31.31a2,2,0,0,1-2-2.05A17.09,17.09,0,0,1,37.08,35h18.7A17.1,17.1,0,0,1,63.58,49.33Z"/><path class="cls-7" d="M56.71,26a10.22,10.22,0,0,1-3.34,7.56H39.48A10.28,10.28,0,1,1,56.71,26Z"/><path class="cls-5" d="M55.78,35a16.78,16.78,0,0,0-2.5-1.36l.09-.09a10.29,10.29,0,1,0-13.89,0l.09.09A15.82,15.82,0,0,0,37.08,35a17.09,17.09,0,0,0-7.81,14.34,2,2,0,0,0,2,2.05H61.54a2,2,0,0,0,2-2.05A17.1,17.1,0,0,0,55.78,35ZM46.43,19.78A6.2,6.2,0,1,1,40.22,26,6.21,6.21,0,0,1,46.43,19.78ZM33.51,47.29a13.08,13.08,0,0,1,25.83,0Z"/></g></svg>