<svg xmlns="http://www.w3.org/2000/svg" viewBox="0 0 140.59 77.53"><defs><style>.cls-1{fill:#fcfcfc;}.cls-2{fill:#89dbd7;}.cls-3{fill:#c16f38;}.cls-4{fill:#1e1e1e;}.cls-5{fill:#e02d4b;}.cls-6{fill:#d6d6d6;}.cls-7,.cls-8{fill:#fff;}.cls-7{opacity:0.35;}.cls-9{fill:#1e2349;}.cls-10{fill:#ed4714;}</style></defs><title>icon-2-02</title><g id="Ãconos"><path class="cls-1" d="M135.82,30.32v41H32.06V30.24l1.82-.57a8.23,8.23,0,0,0,1.13.08A7.38,7.38,0,0,0,38.22,29a6.5,6.5,0,0,0,1.21-.76,5.11,5.11,0,0,0,.59-.54l1.82-.58H43.2a7.09,7.09,0,0,0,11,0h2.72a7.07,7.07,0,0,0,11,0H70.6a7.17,7.17,0,0,0,5.86,2.65,7,7,0,0,0,6-2.86l1.36,0,1.35,0a7.05,7.05,0,0,0,6,2.86,7.21,7.21,0,0,0,5.88-2.65l1.35,0h1.38A4.68,4.68,0,0,0,101,28.37a7.37,7.37,0,0,0,6,1.17,6.23,6.23,0,0,0,1.22-.39,5.78,5.78,0,0,0,2.52-2h1.37l1.32,0A6.61,6.61,0,0,0,119,29.75a6.41,6.41,0,0,0,5.75-3.06l1.33,0,1.68.62h0a5.61,5.61,0,0,0,1,1,6.5,6.5,0,0,0,1.21.76,7.38,7.38,0,0,0,3.21.72,6.63,6.63,0,0,0,1-.07Z"/><path class="cls-2" d="M99.78,28.76v38.9H39.43V29.55l2.41-2.4H43.2a7.09,7.09,0,0,0,11,0h2.72a7.07,7.07,0,0,0,11,0H70.6a7.17,7.17,0,0,0,5.86,2.65,7,7,0,0,0,6-2.86l1.36,0,1.35,0a7.05,7.05,0,0,0,6,2.86,7.21,7.21,0,0,0,5.88-2.65l1.35,0Z"/><path class="cls-2" d="M128.71,29.55V67.66H108.26V30.22l3.89-3.07,1.32,0A6.61,6.61,0,0,0,119,29.75a6.41,6.41,0,0,0,5.75-3.06l1.33,0Z"/><rect class="cls-3" x="28.77" y="72.3" width="109.32" height="4.26"/><path class="cls-4" d="M27.55,71.33v6.2H139.31v-6.2Zm110.54,5.23H28.77V72.3H138.09Z"/><path class="cls-4" d="M135.82,30.32v41H32.06V30.24a9.55,9.55,0,0,1-1.22-.53V72.3H137V29.83A7.23,7.23,0,0,1,135.82,30.32Z"/><path class="cls-5" d="M69.9,6.19l0,19.1s.16,4.46,6.87,4.46,6.85-4.46,6.85-4.46V6.19Z"/><path class="cls-5" d="M98.48,6.19l0,19.1s.16,4.46,6.87,4.46,6.85-4.46,6.85-4.46V6.19Z"/><path class="cls-6" d="M55.55,6.19l0,19.1s.16,4.46,6.87,4.46,6.85-4.46,6.85-4.46V6.19Z"/><path class="cls-6" d="M84.38,6.19l0,19.1s.16,4.46,6.87,4.46,6.85-4.46,6.85-4.46V6.19Z"/><path class="cls-5" d="M126.36,5.71h9.93L140.14,25s-1.45,5.29-6.44,5.27-7.7-2.54-7.63-5.28S126.36,5.71,126.36,5.71Z"/><path class="cls-6" d="M41.76,5.71H31.83L28,25s1.45,5.3,6.44,5.27,7.7-2.54,7.63-5.28S41.76,5.71,41.76,5.71Z"/><path class="cls-6" d="M112.28,6.19l0,19.1s.16,4.46,6.87,4.46S126,25.29,126,25.29V6.19Z"/><path class="cls-5" d="M42.45,6.19l0,19.1s.15,4.46,6.26,4.46,6.24-4.46,6.24-4.46V6.19Z"/><path class="cls-4" d="M124.74,26.69A6.41,6.41,0,0,1,119,29.75a6.61,6.61,0,0,1-5.52-2.65l-1.32,0A7.71,7.71,0,0,0,119,30.71c3.3,0,6.11-1.71,7.08-4.06Zm1.33,0a6.13,6.13,0,0,0,2.64,2.9Zm-1.33,0A6.41,6.41,0,0,1,119,29.75a6.61,6.61,0,0,1-5.52-2.65l-1.32,0A7.71,7.71,0,0,0,119,30.71c3.3,0,6.11-1.71,7.08-4.06Zm-16.48,3.53a6.87,6.87,0,0,0,3.89-3.07Zm16.48-3.53A6.41,6.41,0,0,1,119,29.75a6.61,6.61,0,0,1-5.52-2.65l-1.32,0A7.71,7.71,0,0,0,119,30.71c3.3,0,6.11-1.71,7.08-4.06Zm-16.48,3.53a6.87,6.87,0,0,0,3.89-3.07ZM97.08,27.1a7.21,7.21,0,0,1-5.88,2.65,7.05,7.05,0,0,1-6-2.86l-1.35,0c1.11,2.24,4,3.84,7.37,3.84s6-1.48,7.23-3.59Zm-14.61-.21a7,7,0,0,1-6,2.86A7.17,7.17,0,0,1,70.6,27.1H69.24c1.19,2.11,4,3.59,7.22,3.59s6.26-1.6,7.37-3.84Zm-28.3.26a7.09,7.09,0,0,1-11,0H41.84a7.71,7.71,0,0,0,6.84,3.56,7.74,7.74,0,0,0,6.85-3.56Zm0,0a7.09,7.09,0,0,1-11,0H41.84a7.71,7.71,0,0,0,6.84,3.56,7.74,7.74,0,0,0,6.85-3.56Zm-14.74,2.4a6.45,6.45,0,0,0,2.41-2.4Zm85.31-2.86A6.41,6.41,0,0,1,119,29.75a6.61,6.61,0,0,1-5.52-2.65l-1.32,0A7.71,7.71,0,0,0,119,30.71c3.3,0,6.11-1.71,7.08-4.06Zm-16.48,3.53a6.87,6.87,0,0,0,3.89-3.07ZM97.08,27.1a7.21,7.21,0,0,1-5.88,2.65,7.05,7.05,0,0,1-6-2.86l-1.35,0c1.11,2.24,4,3.84,7.37,3.84s6-1.48,7.23-3.59Zm-42.91,0a7.09,7.09,0,0,1-11,0H41.84a7.71,7.71,0,0,0,6.84,3.56,7.74,7.74,0,0,0,6.85-3.56Zm0,0a7.09,7.09,0,0,1-11,0H41.84a7.71,7.71,0,0,0,6.84,3.56,7.74,7.74,0,0,0,6.85-3.56Zm-14.74,2.4a6.45,6.45,0,0,0,2.41-2.4Zm86.64-2.9a6.13,6.13,0,0,0,2.64,2.9Zm-1.33,0A6.41,6.41,0,0,1,119,29.75a6.61,6.61,0,0,1-5.52-2.65l-1.32,0A7.71,7.71,0,0,0,119,30.71c3.3,0,6.11-1.71,7.08-4.06Zm-14,.46a5.78,5.78,0,0,1-2.52,2,6.23,6.23,0,0,1-1.22.39,7.37,7.37,0,0,1-6-1.17,4.68,4.68,0,0,1-1.19-1.25H98.43l1.35,1.64a6.49,6.49,0,0,0,1.22.86,8.75,8.75,0,0,0,4.31,1.09,9.85,9.85,0,0,0,1.73-.16,7,7,0,0,0,1.22-.33,6.87,6.87,0,0,0,3.89-3.07Zm-13.7,0a7.21,7.21,0,0,1-5.88,2.65,7.05,7.05,0,0,1-6-2.86l-1.35,0c1.11,2.24,4,3.84,7.37,3.84s6-1.48,7.23-3.59Zm13.7,0a5.78,5.78,0,0,1-2.52,2,6.23,6.23,0,0,1-1.22.39,7.37,7.37,0,0,1-6-1.17,4.68,4.68,0,0,1-1.19-1.25H98.43l1.35,1.64a6.49,6.49,0,0,0,1.22.86,8.75,8.75,0,0,0,4.31,1.09,9.85,9.85,0,0,0,1.73-.16,7,7,0,0,0,1.22-.33,6.87,6.87,0,0,0,3.89-3.07Zm-13.7,0a7.21,7.21,0,0,1-5.88,2.65,7.05,7.05,0,0,1-6-2.86l-1.35,0c1.11,2.24,4,3.84,7.37,3.84s6-1.48,7.23-3.59Zm-42.91,0a7.09,7.09,0,0,1-11,0H41.84a7.71,7.71,0,0,0,6.84,3.56,7.74,7.74,0,0,0,6.85-3.56Zm0,0a7.09,7.09,0,0,1-11,0H41.84a7.71,7.71,0,0,0,6.84,3.56,7.74,7.74,0,0,0,6.85-3.56ZM40,27.73a5.11,5.11,0,0,1-.59.54,6.5,6.5,0,0,1-1.21.76,7.38,7.38,0,0,1-3.21.72,8.23,8.23,0,0,1-1.13-.08l-1.82.57a9.4,9.4,0,0,0,2.95.47,8.68,8.68,0,0,0,3.21-.59,6.38,6.38,0,0,0,1.21-.57,6.45,6.45,0,0,0,2.41-2.4Zm86-1.08a6.13,6.13,0,0,0,2.64,2.9Zm-1.33,0A6.41,6.41,0,0,1,119,29.75a6.61,6.61,0,0,1-5.52-2.65l-1.32,0A7.71,7.71,0,0,0,119,30.71c3.3,0,6.11-1.71,7.08-4.06Zm-14,.46a5.78,5.78,0,0,1-2.52,2,6.23,6.23,0,0,1-1.22.39,7.37,7.37,0,0,1-6-1.17,4.68,4.68,0,0,1-1.19-1.25H98.43l1.35,1.64a6.49,6.49,0,0,0,1.22.86,8.75,8.75,0,0,0,4.31,1.09,9.85,9.85,0,0,0,1.73-.16,7,7,0,0,0,1.22-.33,6.87,6.87,0,0,0,3.89-3.07Zm-13.7,0a7.21,7.21,0,0,1-5.88,2.65,7.05,7.05,0,0,1-6-2.86l-1.35,0c1.11,2.24,4,3.84,7.37,3.84s6-1.48,7.23-3.59Zm13.7,0a5.78,5.78,0,0,1-2.52,2,6.23,6.23,0,0,1-1.22.39,7.37,7.37,0,0,1-6-1.17,4.68,4.68,0,0,1-1.19-1.25H98.43l1.35,1.64a6.49,6.49,0,0,0,1.22.86,8.75,8.75,0,0,0,4.31,1.09,9.85,9.85,0,0,0,1.73-.16,7,7,0,0,0,1.22-.33,6.87,6.87,0,0,0,3.89-3.07Zm-13.7,0a7.21,7.21,0,0,1-5.88,2.65,7.05,7.05,0,0,1-6-2.86l-1.35,0c1.11,2.24,4,3.84,7.37,3.84s6-1.48,7.23-3.59Zm-42.91,0a7.09,7.09,0,0,1-11,0H41.84a7.71,7.71,0,0,0,6.84,3.56,7.74,7.74,0,0,0,6.85-3.56Zm0,0a7.09,7.09,0,0,1-11,0H41.84a7.71,7.71,0,0,0,6.84,3.56,7.74,7.74,0,0,0,6.85-3.56ZM40,27.73a5.11,5.11,0,0,1-.59.54,6.5,6.5,0,0,1-1.21.76,7.38,7.38,0,0,1-3.21.72,8.23,8.23,0,0,1-1.13-.08l-1.82.57a9.4,9.4,0,0,0,2.95.47,8.68,8.68,0,0,0,3.21-.59,6.38,6.38,0,0,0,1.21-.57,6.45,6.45,0,0,0,2.41-2.4Zm86-1.08a6.13,6.13,0,0,0,2.64,2.9Zm-1.33,0A6.41,6.41,0,0,1,119,29.75a6.61,6.61,0,0,1-5.52-2.65l-1.32,0A7.71,7.71,0,0,0,119,30.71c3.3,0,6.11-1.71,7.08-4.06Zm-14,.46a5.78,5.78,0,0,1-2.52,2,6.23,6.23,0,0,1-1.22.39,7.37,7.37,0,0,1-6-1.17,4.68,4.68,0,0,1-1.19-1.25H98.43l1.35,1.64a6.49,6.49,0,0,0,1.22.86,8.75,8.75,0,0,0,4.31,1.09,9.85,9.85,0,0,0,1.73-.16,7,7,0,0,0,1.22-.33,6.87,6.87,0,0,0,3.89-3.07Zm-13.7,0a7.21,7.21,0,0,1-5.88,2.65,7.05,7.05,0,0,1-6-2.86l-1.35,0c1.11,2.24,4,3.84,7.37,3.84s6-1.48,7.23-3.59Zm13.7,0a5.78,5.78,0,0,1-2.52,2,6.23,6.23,0,0,1-1.22.39,7.37,7.37,0,0,1-6-1.17,4.68,4.68,0,0,1-1.19-1.25H98.43l1.35,1.64a6.49,6.49,0,0,0,1.22.86,8.75,8.75,0,0,0,4.31,1.09,9.85,9.85,0,0,0,1.73-.16,7,7,0,0,0,1.22-.33,6.87,6.87,0,0,0,3.89-3.07Zm-13.7,0a7.21,7.21,0,0,1-5.88,2.65,7.05,7.05,0,0,1-6-2.86l-1.35,0c1.11,2.24,4,3.84,7.37,3.84s6-1.48,7.23-3.59Zm-42.91,0a7.09,7.09,0,0,1-11,0H41.84a7.71,7.71,0,0,0,6.84,3.56,7.74,7.74,0,0,0,6.85-3.56Zm0,0a7.09,7.09,0,0,1-11,0H41.84a7.71,7.71,0,0,0,6.84,3.56,7.74,7.74,0,0,0,6.85-3.56ZM40,27.73a5.11,5.11,0,0,1-.59.54,6.5,6.5,0,0,1-1.21.76,7.38,7.38,0,0,1-3.21.72,8.23,8.23,0,0,1-1.13-.08l-1.82.57a9.4,9.4,0,0,0,2.95.47,8.68,8.68,0,0,0,3.21-.59,6.38,6.38,0,0,0,1.21-.57,6.45,6.45,0,0,0,2.41-2.4Zm86-1.08a6.13,6.13,0,0,0,2.64,2.9ZM119,29.75a6.61,6.61,0,0,1-5.52-2.65l-1.32,0A7.71,7.71,0,0,0,119,30.71c3.3,0,6.11-1.71,7.08-4.06l-1.33,0A6.41,6.41,0,0,1,119,29.75Zm-8.21-2.6a5.78,5.78,0,0,1-2.52,2,6.23,6.23,0,0,1-1.22.39,7.37,7.37,0,0,1-6-1.17,4.68,4.68,0,0,1-1.19-1.25H98.43l1.35,1.64a6.49,6.49,0,0,0,1.22.86,8.75,8.75,0,0,0,4.31,1.09,9.85,9.85,0,0,0,1.73-.16,7,7,0,0,0,1.22-.33,6.87,6.87,0,0,0,3.89-3.07ZM91.2,29.75a7.05,7.05,0,0,1-6-2.86l-1.35,0c1.11,2.24,4,3.84,7.37,3.84s6-1.48,7.23-3.59l-1.35,0A7.21,7.21,0,0,1,91.2,29.75Zm19.58-2.6a5.78,5.78,0,0,1-2.52,2,6.23,6.23,0,0,1-1.22.39,7.37,7.37,0,0,1-6-1.17,4.68,4.68,0,0,1-1.19-1.25H98.43l1.35,1.64a6.49,6.49,0,0,0,1.22.86,8.75,8.75,0,0,0,4.31,1.09,9.85,9.85,0,0,0,1.73-.16,7,7,0,0,0,1.22-.33,6.87,6.87,0,0,0,3.89-3.07ZM91.2,29.75a7.05,7.05,0,0,1-6-2.86l-1.35,0c1.11,2.24,4,3.84,7.37,3.84s6-1.48,7.23-3.59l-1.35,0A7.21,7.21,0,0,1,91.2,29.75Zm-37-2.6a7.09,7.09,0,0,1-11,0H41.84a7.71,7.71,0,0,0,6.84,3.56,7.74,7.74,0,0,0,6.85-3.56Zm0,0a7.09,7.09,0,0,1-11,0H41.84a7.71,7.71,0,0,0,6.84,3.56,7.74,7.74,0,0,0,6.85-3.56ZM39.43,28.27a6.5,6.5,0,0,1-1.21.76,7.38,7.38,0,0,1-3.21.72,8.23,8.23,0,0,1-1.13-.08l-1.82.57a9.4,9.4,0,0,0,2.95.47,8.68,8.68,0,0,0,3.21-.59,6.38,6.38,0,0,0,1.21-.57,6.45,6.45,0,0,0,2.41-2.4L40,27.73A5.11,5.11,0,0,1,39.43,28.27Zm101.15-3.58-.3-1.56L137,5.69V0H30.84V5.65L27.79,23.32v.05l-.22,1.32a.45.45,0,0,0,0,.12c0,.17,0,.32,0,.48a5.86,5.86,0,0,0,3.27,4.42,9.55,9.55,0,0,0,1.22.53,9.4,9.4,0,0,0,2.95.47,8.68,8.68,0,0,0,3.21-.59,6.38,6.38,0,0,0,1.21-.57,6.45,6.45,0,0,0,2.41-2.4,7.71,7.71,0,0,0,6.84,3.56,7.74,7.74,0,0,0,6.85-3.56,7.74,7.74,0,0,0,6.85,3.56,7.72,7.72,0,0,0,6.86-3.59c1.19,2.11,4,3.59,7.22,3.59s6.26-1.6,7.37-3.84c1.11,2.24,4,3.84,7.37,3.84s6-1.48,7.23-3.59a5.83,5.83,0,0,0,1.35,1.64,6.49,6.49,0,0,0,1.22.86,8.75,8.75,0,0,0,4.31,1.09,9.85,9.85,0,0,0,1.73-.16,7,7,0,0,0,1.22-.33,6.87,6.87,0,0,0,3.89-3.07A7.71,7.71,0,0,0,119,30.71c3.3,0,6.11-1.71,7.08-4.06a6.13,6.13,0,0,0,2.64,2.9,6.38,6.38,0,0,0,1.21.57,8.68,8.68,0,0,0,3.21.59,9,9,0,0,0,2.69-.39,7.23,7.23,0,0,0,1.22-.49,5.9,5.9,0,0,0,3.53-4.54c0-.16,0-.31,0-.48v-.06A.13.13,0,0,0,140.58,24.69ZM39.43,28.27a6.5,6.5,0,0,1-1.21.76,7.38,7.38,0,0,1-3.21.72,8.23,8.23,0,0,1-1.13-.08,7.64,7.64,0,0,1-1.82-.51,6.62,6.62,0,0,1-1.22-.69,4.58,4.58,0,0,1-2-3.18l0-1L29,23.5s0,0,0,0h0l.45-2.57,1.38-8L32,6.19h9.23V24.33h0c0,.11,0,.21,0,.32v.21c0,.14,0,.29,0,.43h-.07A4.33,4.33,0,0,1,40,27.73,5.11,5.11,0,0,1,39.43,28.27Zm9.25,1.48a6.62,6.62,0,0,1-5.48-2.6,4.21,4.21,0,0,1-.72-1.86h-.06c0-.16,0-.31,0-.48V24.7c0-.13,0-.25,0-.37h0V6.19H54.92V24.33h0c0,.11,0,.21,0,.32v.2c0,.15,0,.29,0,.44h-.06a4.2,4.2,0,0,1-.71,1.86A6.63,6.63,0,0,1,48.68,29.75Zm13.7,0a6.61,6.61,0,0,1-5.49-2.6,4.08,4.08,0,0,1-.71-1.86h-.06c0-.16,0-.31,0-.48V24.7c0-.13,0-.25,0-.37h0V6.19H68.6V24.33h0c0,.06,0,.12,0,.18a.15.15,0,0,0,0,.11v.32c0,.11,0,.24,0,.35h-.07a4.18,4.18,0,0,1-.7,1.83A6.56,6.56,0,0,1,62.38,29.75Zm14.08,0A7.17,7.17,0,0,1,70.6,27.1a3.86,3.86,0,0,1-.73-1.81H69.8a1.53,1.53,0,0,0,0-.3v-.38a1.33,1.33,0,0,0,0-.28h0V6.19h13.5V24.33h0c0,.13,0,.27,0,.4v.15c0,.14,0,.27,0,.41h-.28a3.76,3.76,0,0,1-.6,1.6A7,7,0,0,1,76.46,29.75Zm14.74,0a7.05,7.05,0,0,1-6-2.86,3.76,3.76,0,0,1-.6-1.6h0V6.19h13.3V24.33h0c0,.1,0,.2,0,.3v.31c0,.11,0,.24,0,.35h-.06a4.08,4.08,0,0,1-.73,1.81A7.21,7.21,0,0,1,91.2,29.75Zm17.06-.6a6.23,6.23,0,0,1-1.22.39,7.37,7.37,0,0,1-6-1.17,4.68,4.68,0,0,1-1.19-1.25l0,0a3.93,3.93,0,0,1-.68-1.79h0c0-.1,0-.2,0-.3v-.31c0-.12,0-.24,0-.35h0V6.19h12.47V24.33h0a1.73,1.73,0,0,0,0,.32V25a2,2,0,0,0,0,.34h-.07a4,4,0,0,1-.72,1.86A5.78,5.78,0,0,1,108.26,29.15Zm10.73.6a6.61,6.61,0,0,1-5.52-2.65,4.23,4.23,0,0,1-.67-1.81h-.07c0-.12,0-.23,0-.35V24.7c0-.13,0-.25,0-.37h0V6.19h13V24.33h0c0,.16,0,.32,0,.48s0,.32,0,.48h-.53a3.78,3.78,0,0,1-.45,1.4A6.41,6.41,0,0,1,119,29.75ZM32.06,5.22V1H135.82V5.22ZM139.33,25.29A4.73,4.73,0,0,1,137,28.66a6.92,6.92,0,0,1-1.22.6,6.75,6.75,0,0,1-1.69.42,6.63,6.63,0,0,1-1,.07,7.38,7.38,0,0,1-3.21-.72,6.5,6.5,0,0,1-1.21-.76,5.61,5.61,0,0,1-1-1h0a4.1,4.1,0,0,1-.8-2h0V6.19h9L137,12.3l1.59,8.52.46,2.52.19,1a5.54,5.54,0,0,1,.07.76A.62.62,0,0,1,139.33,25.29ZM40,27.73a5.11,5.11,0,0,1-.59.54,6.5,6.5,0,0,1-1.21.76,7.38,7.38,0,0,1-3.21.72,8.23,8.23,0,0,1-1.13-.08l-1.82.57a9.4,9.4,0,0,0,2.95.47,8.68,8.68,0,0,0,3.21-.59,6.38,6.38,0,0,0,1.21-.57,6.45,6.45,0,0,0,2.41-2.4Zm14.15-.58a7.09,7.09,0,0,1-11,0H41.84a7.71,7.71,0,0,0,6.84,3.56,7.74,7.74,0,0,0,6.85-3.56Zm0,0a7.09,7.09,0,0,1-11,0H41.84a7.71,7.71,0,0,0,6.84,3.56,7.74,7.74,0,0,0,6.85-3.56Zm42.91,0a7.21,7.21,0,0,1-5.88,2.65,7.05,7.05,0,0,1-6-2.86l-1.35,0c1.11,2.24,4,3.84,7.37,3.84s6-1.48,7.23-3.59Zm13.7,0a5.78,5.78,0,0,1-2.52,2,6.23,6.23,0,0,1-1.22.39,7.37,7.37,0,0,1-6-1.17,4.68,4.68,0,0,1-1.19-1.25H98.43l1.35,1.64a6.49,6.49,0,0,0,1.22.86,8.75,8.75,0,0,0,4.31,1.09,9.85,9.85,0,0,0,1.73-.16,7,7,0,0,0,1.22-.33,6.87,6.87,0,0,0,3.89-3.07Zm-13.7,0a7.21,7.21,0,0,1-5.88,2.65,7.05,7.05,0,0,1-6-2.86l-1.35,0c1.11,2.24,4,3.84,7.37,3.84s6-1.48,7.23-3.59Zm13.7,0a5.78,5.78,0,0,1-2.52,2,6.23,6.23,0,0,1-1.22.39,7.37,7.37,0,0,1-6-1.17,4.68,4.68,0,0,1-1.19-1.25H98.43l1.35,1.64a6.49,6.49,0,0,0,1.22.86,8.75,8.75,0,0,0,4.31,1.09,9.85,9.85,0,0,0,1.73-.16,7,7,0,0,0,1.22-.33,6.87,6.87,0,0,0,3.89-3.07Zm14-.46A6.41,6.41,0,0,1,119,29.75a6.61,6.61,0,0,1-5.52-2.65l-1.32,0A7.71,7.71,0,0,0,119,30.71c3.3,0,6.11-1.71,7.08-4.06Zm1.33,0a6.13,6.13,0,0,0,2.64,2.9ZM40,27.73a5.11,5.11,0,0,1-.59.54,6.5,6.5,0,0,1-1.21.76,7.38,7.38,0,0,1-3.21.72,8.23,8.23,0,0,1-1.13-.08l-1.82.57a9.4,9.4,0,0,0,2.95.47,8.68,8.68,0,0,0,3.21-.59,6.38,6.38,0,0,0,1.21-.57,6.45,6.45,0,0,0,2.41-2.4Zm14.15-.58a7.09,7.09,0,0,1-11,0H41.84a7.71,7.71,0,0,0,6.84,3.56,7.74,7.74,0,0,0,6.85-3.56Zm0,0a7.09,7.09,0,0,1-11,0H41.84a7.71,7.71,0,0,0,6.84,3.56,7.74,7.74,0,0,0,6.85-3.56Zm42.91,0a7.21,7.21,0,0,1-5.88,2.65,7.05,7.05,0,0,1-6-2.86l-1.35,0c1.11,2.24,4,3.84,7.37,3.84s6-1.48,7.23-3.59Zm13.7,0a5.78,5.78,0,0,1-2.52,2,6.23,6.23,0,0,1-1.22.39,7.37,7.37,0,0,1-6-1.17,4.68,4.68,0,0,1-1.19-1.25H98.43l1.35,1.64a6.49,6.49,0,0,0,1.22.86,8.75,8.75,0,0,0,4.31,1.09,9.85,9.85,0,0,0,1.73-.16,7,7,0,0,0,1.22-.33,6.87,6.87,0,0,0,3.89-3.07Zm-13.7,0a7.21,7.21,0,0,1-5.88,2.65,7.05,7.05,0,0,1-6-2.86l-1.35,0c1.11,2.24,4,3.84,7.37,3.84s6-1.48,7.23-3.59Zm13.7,0a5.78,5.78,0,0,1-2.52,2,6.23,6.23,0,0,1-1.22.39,7.37,7.37,0,0,1-6-1.17,4.68,4.68,0,0,1-1.19-1.25H98.43l1.35,1.64a6.49,6.49,0,0,0,1.22.86,8.75,8.75,0,0,0,4.31,1.09,9.85,9.85,0,0,0,1.73-.16,7,7,0,0,0,1.22-.33,6.87,6.87,0,0,0,3.89-3.07Zm14-.46A6.41,6.41,0,0,1,119,29.75a6.61,6.61,0,0,1-5.52-2.65l-1.32,0A7.71,7.71,0,0,0,119,30.71c3.3,0,6.11-1.71,7.08-4.06Zm1.33,0a6.13,6.13,0,0,0,2.64,2.9ZM40,27.73a5.11,5.11,0,0,1-.59.54,6.5,6.5,0,0,1-1.21.76,7.38,7.38,0,0,1-3.21.72,8.23,8.23,0,0,1-1.13-.08l-1.82.57a9.4,9.4,0,0,0,2.95.47,8.68,8.68,0,0,0,3.21-.59,6.38,6.38,0,0,0,1.21-.57,6.45,6.45,0,0,0,2.41-2.4Zm14.15-.58a7.09,7.09,0,0,1-11,0H41.84a7.71,7.71,0,0,0,6.84,3.56,7.74,7.74,0,0,0,6.85-3.56Zm0,0a7.09,7.09,0,0,1-11,0H41.84a7.71,7.71,0,0,0,6.84,3.56,7.74,7.74,0,0,0,6.85-3.56Zm42.91,0a7.21,7.21,0,0,1-5.88,2.65,7.05,7.05,0,0,1-6-2.86l-1.35,0c1.11,2.24,4,3.84,7.37,3.84s6-1.48,7.23-3.59Zm13.7,0a5.78,5.78,0,0,1-2.52,2,6.23,6.23,0,0,1-1.22.39,7.37,7.37,0,0,1-6-1.17,4.68,4.68,0,0,1-1.19-1.25H98.43l1.35,1.64a6.49,6.49,0,0,0,1.22.86,8.75,8.75,0,0,0,4.31,1.09,9.85,9.85,0,0,0,1.73-.16,7,7,0,0,0,1.22-.33,6.87,6.87,0,0,0,3.89-3.07Zm-13.7,0a7.21,7.21,0,0,1-5.88,2.65,7.05,7.05,0,0,1-6-2.86l-1.35,0c1.11,2.24,4,3.84,7.37,3.84s6-1.48,7.23-3.59Zm13.7,0a5.78,5.78,0,0,1-2.52,2,6.23,6.23,0,0,1-1.22.39,7.37,7.37,0,0,1-6-1.17,4.68,4.68,0,0,1-1.19-1.25H98.43l1.35,1.64a6.49,6.49,0,0,0,1.22.86,8.75,8.75,0,0,0,4.31,1.09,9.85,9.85,0,0,0,1.73-.16,7,7,0,0,0,1.22-.33,6.87,6.87,0,0,0,3.89-3.07Zm14-.46A6.41,6.41,0,0,1,119,29.75a6.61,6.61,0,0,1-5.52-2.65l-1.32,0A7.71,7.71,0,0,0,119,30.71c3.3,0,6.11-1.71,7.08-4.06Zm1.33,0a6.13,6.13,0,0,0,2.64,2.9ZM40,27.73a5.11,5.11,0,0,1-.59.54,6.5,6.5,0,0,1-1.21.76,7.38,7.38,0,0,1-3.21.72,8.23,8.23,0,0,1-1.13-.08l-1.82.57a9.4,9.4,0,0,0,2.95.47,8.68,8.68,0,0,0,3.21-.59,6.38,6.38,0,0,0,1.21-.57,6.45,6.45,0,0,0,2.41-2.4Zm14.15-.58a7.09,7.09,0,0,1-11,0H41.84a7.71,7.71,0,0,0,6.84,3.56,7.74,7.74,0,0,0,6.85-3.56Zm0,0a7.09,7.09,0,0,1-11,0H41.84a7.71,7.71,0,0,0,6.84,3.56,7.74,7.74,0,0,0,6.85-3.56Zm42.91,0a7.21,7.21,0,0,1-5.88,2.65,7.05,7.05,0,0,1-6-2.86l-1.35,0c1.11,2.24,4,3.84,7.37,3.84s6-1.48,7.23-3.59Zm13.7,0a5.78,5.78,0,0,1-2.52,2,6.23,6.23,0,0,1-1.22.39,7.37,7.37,0,0,1-6-1.17,4.68,4.68,0,0,1-1.19-1.25H98.43l1.35,1.64a6.49,6.49,0,0,0,1.22.86,8.75,8.75,0,0,0,4.31,1.09,9.85,9.85,0,0,0,1.73-.16,7,7,0,0,0,1.22-.33,6.87,6.87,0,0,0,3.89-3.07Zm0,0a5.78,5.78,0,0,1-2.52,2,6.23,6.23,0,0,1-1.22.39,7.37,7.37,0,0,1-6-1.17,4.68,4.68,0,0,1-1.19-1.25H98.43l1.35,1.64a6.49,6.49,0,0,0,1.22.86,8.75,8.75,0,0,0,4.31,1.09,9.85,9.85,0,0,0,1.73-.16,7,7,0,0,0,1.22-.33,6.87,6.87,0,0,0,3.89-3.07Zm14-.46A6.41,6.41,0,0,1,119,29.75a6.61,6.61,0,0,1-5.52-2.65l-1.32,0A7.71,7.71,0,0,0,119,30.71c3.3,0,6.11-1.71,7.08-4.06Zm1.33,0a6.13,6.13,0,0,0,2.64,2.9Zm-86.64,2.9a6.45,6.45,0,0,0,2.41-2.4Zm14.74-2.4a7.09,7.09,0,0,1-11,0H41.84a7.71,7.71,0,0,0,6.84,3.56,7.74,7.74,0,0,0,6.85-3.56Zm0,0a7.09,7.09,0,0,1-11,0H41.84a7.71,7.71,0,0,0,6.84,3.56,7.74,7.74,0,0,0,6.85-3.56Zm42.91,0a7.21,7.21,0,0,1-5.88,2.65,7.05,7.05,0,0,1-6-2.86l-1.35,0c1.11,2.24,4,3.84,7.37,3.84s6-1.48,7.23-3.59Zm11.18,3.12a6.87,6.87,0,0,0,3.89-3.07Zm16.48-3.53A6.41,6.41,0,0,1,119,29.75a6.61,6.61,0,0,1-5.52-2.65l-1.32,0A7.71,7.71,0,0,0,119,30.71c3.3,0,6.11-1.71,7.08-4.06ZM39.43,29.55a6.45,6.45,0,0,0,2.41-2.4Zm14.74-2.4a7.09,7.09,0,0,1-11,0H41.84a7.71,7.71,0,0,0,6.84,3.56,7.74,7.74,0,0,0,6.85-3.56Zm13.7,0a7.07,7.07,0,0,1-11,0H55.53a7.74,7.74,0,0,0,6.85,3.56,7.72,7.72,0,0,0,6.86-3.59Zm14.6-.23a7,7,0,0,1-6,2.86A7.17,7.17,0,0,1,70.6,27.1H69.24c1.19,2.11,4,3.59,7.22,3.59s6.26-1.6,7.37-3.84Zm14.61.21a7.21,7.21,0,0,1-5.88,2.65,7.05,7.05,0,0,1-6-2.86l-1.35,0c1.11,2.24,4,3.84,7.37,3.84s6-1.48,7.23-3.59Zm1.35,0a5.83,5.83,0,0,0,1.35,1.64Zm9.83,3.1a6.87,6.87,0,0,0,3.89-3.07Zm16.48-3.53A6.41,6.41,0,0,1,119,29.75a6.61,6.61,0,0,1-5.52-2.65l-1.32,0A7.71,7.71,0,0,0,119,30.71c3.3,0,6.11-1.71,7.08-4.06Z"/><path class="cls-4" d="M83.33,24.73c0-.13,0-.27,0-.4H69.8a1.33,1.33,0,0,1,0,.28V25a1.53,1.53,0,0,1,0,.3H83.35c0-.14,0-.27,0-.41Zm42.39-.4h-13c0,.12,0,.24,0,.37v.24c0,.12,0,.23,0,.35h13c0-.16,0-.31,0-.48S125.71,24.49,125.72,24.33Zm-14.22,0a1.65,1.65,0,0,1,0,.32,1.73,1.73,0,0,1,0-.32Zm0,.62v-.1a3.13,3.13,0,0,1,0,.44h.07A2,2,0,0,1,111.54,25ZM99.07,24.9V25c0,.1,0,.2,0,.3h0A2.47,2.47,0,0,1,99.07,24.9Zm0-.57c0,.11,0,.23,0,.35a2,2,0,0,1,0-.35Zm-1.2.3c0-.1,0-.2,0-.3H84.55v1H97.87c0-.11,0-.24,0-.35Zm-29.25,0a.15.15,0,0,1,0-.11c0-.06,0-.12,0-.18H56.12c0,.12,0,.24,0,.37v.11c0,.17,0,.32,0,.48H68.64c0-.11,0-.24,0-.35Zm57.12-.29h-.53a2.52,2.52,0,0,1,0,.48,2.45,2.45,0,0,1,0,.48h.53c0-.16,0-.31,0-.48S125.71,24.49,125.72,24.33Zm0,0h-.53a2.52,2.52,0,0,1,0,.48,2.45,2.45,0,0,1,0,.48h.53c0-.16,0-.31,0-.48S125.71,24.49,125.72,24.33Zm0,0h-.53a2.52,2.52,0,0,1,0,.48,2.45,2.45,0,0,1,0,.48h.53c0-.16,0-.31,0-.48S125.71,24.49,125.72,24.33Zm0,0h-.53a2.52,2.52,0,0,1,0,.48,2.45,2.45,0,0,1,0,.48h.53c0-.16,0-.31,0-.48S125.71,24.49,125.72,24.33Zm0,0h-.53a2.52,2.52,0,0,1,0,.48,2.45,2.45,0,0,1,0,.48h.53c0-.16,0-.31,0-.48S125.71,24.49,125.72,24.33Zm0,0h-.53a2.52,2.52,0,0,1,0,.48,2.45,2.45,0,0,1,0,.48h.53c0-.16,0-.31,0-.48S125.71,24.49,125.72,24.33Zm1.2.48v.48h0A3.64,3.64,0,0,1,126.92,24.81Zm0-.48v.48a3.75,3.75,0,0,1,0-.48Zm-1.2,0h-.53a2.52,2.52,0,0,1,0,.48,2.45,2.45,0,0,1,0,.48h.53c0-.16,0-.31,0-.48S125.71,24.49,125.72,24.33Zm0,0h-.53a2.52,2.52,0,0,1,0,.48,2.45,2.45,0,0,1,0,.48h.53c0-.16,0-.31,0-.48S125.71,24.49,125.72,24.33Zm0,0h-.53a2.52,2.52,0,0,1,0,.48,2.45,2.45,0,0,1,0,.48h.53c0-.16,0-.31,0-.48S125.71,24.49,125.72,24.33Zm0,0h-.53a2.52,2.52,0,0,1,0,.48,2.45,2.45,0,0,1,0,.48h.53c0-.16,0-.31,0-.48S125.71,24.49,125.72,24.33Zm0,0h-.53a2.52,2.52,0,0,1,0,.48,2.45,2.45,0,0,1,0,.48h.53c0-.16,0-.31,0-.48S125.71,24.49,125.72,24.33Zm0,0h-.53a2.52,2.52,0,0,1,0,.48,2.45,2.45,0,0,1,0,.48h.53c0-.16,0-.31,0-.48S125.71,24.49,125.72,24.33Zm-70.8.32c0-.11,0-.21,0-.32H42.42c0,.12,0,.24,0,.37v.11c0,.17,0,.32,0,.48H54.94c0-.15,0-.29,0-.44Zm-13.73-.32a1.66,1.66,0,0,1,0,.32c0-.11,0-.21,0-.32Zm0,.53a3,3,0,0,1,0,.43h.07C41.25,25.15,41.22,25,41.22,24.86Zm0-.53a1.66,1.66,0,0,1,0,.32c0-.11,0-.21,0-.32Z"/><path class="cls-4" d="M125.72,24.33h-13c0,.12,0,.24,0,.37v.24c0,.12,0,.23,0,.35h13c0-.16,0-.31,0-.48S125.71,24.49,125.72,24.33ZM111.54,25v-.1a3.13,3.13,0,0,1,0,.44h.07A2,2,0,0,1,111.54,25Zm14.18-.62h-13c0,.12,0,.24,0,.37v.24c0,.12,0,.23,0,.35h13c0-.16,0-.31,0-.48S125.71,24.49,125.72,24.33ZM111.54,25v-.1a3.13,3.13,0,0,1,0,.44h.07A2,2,0,0,1,111.54,25Zm14.18-.62h-13c0,.12,0,.24,0,.37v.24c0,.12,0,.23,0,.35h13c0-.16,0-.31,0-.48S125.71,24.49,125.72,24.33Zm-14.22,0a1.65,1.65,0,0,1,0,.32,1.73,1.73,0,0,1,0-.32Zm0,.62v-.1a3.13,3.13,0,0,1,0,.44h.07A2,2,0,0,1,111.54,25Zm17.17,4.6V67.66H108.26V30.22a7,7,0,0,1-1.22.33V68.63h22.88V30.12A6.38,6.38,0,0,1,128.71,29.55Zm-1.79-5.22v.48a3.75,3.75,0,0,1,0-.48Zm0,.48v.48h0A3.64,3.64,0,0,1,126.92,24.81Zm-1.2-.48h-13c0,.12,0,.24,0,.37v.24c0,.12,0,.23,0,.35h13c0-.16,0-.31,0-.48S125.71,24.49,125.72,24.33Zm-14.22,0a1.65,1.65,0,0,1,0,.32,1.73,1.73,0,0,1,0-.32Zm0,.62v-.1a3.13,3.13,0,0,1,0,.44h.07A2,2,0,0,1,111.54,25Zm14.18-.62h-13c0,.12,0,.24,0,.37v.24c0,.12,0,.23,0,.35h13c0-.16,0-.31,0-.48S125.71,24.49,125.72,24.33Zm-14.22,0a1.65,1.65,0,0,1,0,.32,1.73,1.73,0,0,1,0-.32Zm0,.62v-.1a3.13,3.13,0,0,1,0,.44h.07A2,2,0,0,1,111.54,25Z"/><path class="cls-4" d="M56.12,25.29h0v-.48C56.14,25,56.13,25.13,56.12,25.29Zm-1.2-.44a2.12,2.12,0,0,1,0,.44h.06C54.93,25.14,54.92,25,54.92,24.85Zm-13.7,0a3,3,0,0,1,0,.43h.07C41.25,25.15,41.22,25,41.22,24.86Zm0-.53a1.66,1.66,0,0,1,0,.32c0-.11,0-.21,0-.32Zm13.73.32c0-.11,0-.21,0-.32H42.42c0,.12,0,.24,0,.37v.11c0,.17,0,.32,0,.48H54.94c0-.15,0-.29,0-.44Zm0,.2a2.12,2.12,0,0,1,0,.44h.06C54.93,25.14,54.92,25,54.92,24.85Zm0,0a2.12,2.12,0,0,1,0,.44h.06C54.93,25.14,54.92,25,54.92,24.85Zm13.68-.23a.15.15,0,0,1,0-.11c0-.06,0-.12,0-.18H56.12c0,.12,0,.24,0,.37v.11c0,.17,0,.32,0,.48H68.64c0-.11,0-.24,0-.35Zm30.45-.29c0,.11,0,.23,0,.35a2,2,0,0,1,0-.35Zm0,.57V25c0,.1,0,.2,0,.3h0A2.47,2.47,0,0,1,99.07,24.9Zm-1.22-.27c0-.1,0-.2,0-.3H84.55v1H97.87c0-.11,0-.24,0-.35Zm1.93,4.13v38.9H39.43V29.55a6.38,6.38,0,0,1-1.21.57V68.63H101v-39A6.49,6.49,0,0,1,99.78,28.76Zm-16.45-4c0-.13,0-.27,0-.4H69.8a1.33,1.33,0,0,1,0,.28V25a1.53,1.53,0,0,1,0,.3H83.35c0-.14,0-.27,0-.41Zm-28.41.12a2.12,2.12,0,0,1,0,.44h.06C54.93,25.14,54.92,25,54.92,24.85Zm0,0a2.12,2.12,0,0,1,0,.44h.06C54.93,25.14,54.92,25,54.92,24.85Zm-13.7,0a3,3,0,0,1,0,.43h.07C41.25,25.15,41.22,25,41.22,24.86Zm13.7-.21c0-.11,0-.21,0-.32H42.42c0,.12,0,.24,0,.37v.11c0,.17,0,.32,0,.48H54.94c0-.15,0-.29,0-.44Zm13.68,0a.15.15,0,0,1,0-.11c0-.06,0-.12,0-.18H56.12c0,.12,0,.24,0,.37v.11c0,.17,0,.32,0,.48H68.64c0-.11,0-.24,0-.35Zm29.25.32v-.61H84.55v1H97.87C97.86,25.18,97.85,25.05,97.85,24.94Zm-14.52-.21c0-.13,0-.27,0-.4H69.8a1.33,1.33,0,0,1,0,.28V25a1.53,1.53,0,0,1,0,.3H83.35c0-.14,0-.27,0-.41Z"/><path class="cls-4" d="M41.19,24.33a1.66,1.66,0,0,1,0,.32c0-.11,0-.21,0-.32Zm0,.53a3,3,0,0,1,0,.43h.07C41.25,25.15,41.22,25,41.22,24.86Zm0-.53a1.66,1.66,0,0,1,0,.32c0-.11,0-.21,0-.32Z"/><path class="cls-4" d="M54.88,24.33a1.12,1.12,0,0,1,0,.32c0-.11,0-.21,0-.32Zm-12.43.48c0,.17,0,.32,0,.48h.06A3.64,3.64,0,0,1,42.45,24.81Zm0-.48c0,.12,0,.24,0,.37a2.13,2.13,0,0,1,0-.37Zm0,.48c0,.17,0,.32,0,.48h.06A3.64,3.64,0,0,1,42.45,24.81Zm0,0c0,.17,0,.32,0,.48h.06A3.64,3.64,0,0,1,42.45,24.81Zm0,0c0,.17,0,.32,0,.48h.06A3.64,3.64,0,0,1,42.45,24.81Zm0,0c0,.17,0,.32,0,.48h.06A3.64,3.64,0,0,1,42.45,24.81Zm0,0c0,.17,0,.32,0,.48h.06A3.64,3.64,0,0,1,42.45,24.81Zm0,0c0,.17,0,.32,0,.48h.06A3.64,3.64,0,0,1,42.45,24.81Zm0,0c0,.17,0,.32,0,.48h.06A3.64,3.64,0,0,1,42.45,24.81Zm12.47,0a2.12,2.12,0,0,1,0,.44h.06C54.93,25.14,54.92,25,54.92,24.85Zm-12.47,0c0,.17,0,.32,0,.48h.06A3.64,3.64,0,0,1,42.45,24.81Zm0,0c0,.17,0,.32,0,.48h.06A3.64,3.64,0,0,1,42.45,24.81Zm0,0c0,.17,0,.32,0,.48h.06A3.64,3.64,0,0,1,42.45,24.81Zm12.43-.48a1.12,1.12,0,0,1,0,.32c0-.11,0-.21,0-.32Zm-12.46,0c0,.12,0,.24,0,.37a2.13,2.13,0,0,1,0-.37Zm0,.48c0,.17,0,.32,0,.48h.06A3.64,3.64,0,0,1,42.45,24.81Zm0,0c0,.17,0,.32,0,.48h.06A3.64,3.64,0,0,1,42.45,24.81Zm0,0c0,.17,0,.32,0,.48h.06A3.64,3.64,0,0,1,42.45,24.81Zm0,0c0,.17,0,.32,0,.48h.06A3.64,3.64,0,0,1,42.45,24.81Zm0,0c0,.17,0,.32,0,.48h.06A3.64,3.64,0,0,1,42.45,24.81Zm0,0c0,.17,0,.32,0,.48h.06A3.64,3.64,0,0,1,42.45,24.81Zm0,0c0,.17,0,.32,0,.48h.06A3.64,3.64,0,0,1,42.45,24.81Zm0,0c0,.17,0,.32,0,.48h.06A3.64,3.64,0,0,1,42.45,24.81Zm0,0c0,.17,0,.32,0,.48h.06A3.64,3.64,0,0,1,42.45,24.81Zm0,0c0,.17,0,.32,0,.48h.06A3.64,3.64,0,0,1,42.45,24.81Z"/><path class="cls-4" d="M56.14,24.81c0,.17,0,.32,0,.48h.06A2.45,2.45,0,0,1,56.14,24.81Zm12.43-.48a.84.84,0,0,1,0,.18v.11a.15.15,0,0,1,0-.11c0-.06,0-.12,0-.18Zm-12.45,0c0,.12,0,.24,0,.37a1.45,1.45,0,0,1,0-.37Zm12.48.61a2,2,0,0,1,0,.35h.07C68.63,25.18,68.6,25.05,68.6,24.94Zm0-.61a.84.84,0,0,1,0,.18v-.18Zm0,0a.84.84,0,0,1,0,.18v-.18Zm-12.43.48c0,.17,0,.32,0,.48h.06A2.45,2.45,0,0,1,56.14,24.81Zm12.43-.48a.84.84,0,0,1,0,.18v-.18Zm-12.45,0c0,.12,0,.24,0,.37a1.45,1.45,0,0,1,0-.37Zm12.48.61a2,2,0,0,1,0,.35h.07C68.63,25.18,68.6,25.05,68.6,24.94Zm0-.61a.84.84,0,0,1,0,.18v-.18Zm-12.45,0c0,.12,0,.24,0,.37a1.45,1.45,0,0,1,0-.37Zm0,.48v.48h0A2.45,2.45,0,0,1,56.14,24.81Zm12.46.13a2,2,0,0,1,0,.35h.07C68.63,25.18,68.6,25.05,68.6,24.94Zm0-.61a.84.84,0,0,1,0,.18v-.18Zm-12.45,0c0,.12,0,.24,0,.37a1.45,1.45,0,0,1,0-.37Zm0,.48v.48h0A2.45,2.45,0,0,1,56.14,24.81Zm12.46.13a2,2,0,0,1,0,.35h.07C68.63,25.18,68.6,25.05,68.6,24.94Zm0-.61a.84.84,0,0,1,0,.18v-.18Zm-12.45,0c0,.12,0,.24,0,.37a1.45,1.45,0,0,1,0-.37Zm0,.48v.48h0A2.45,2.45,0,0,1,56.14,24.81Zm12.46.13a2,2,0,0,1,0,.35h.07C68.63,25.18,68.6,25.05,68.6,24.94Zm0-.61a.84.84,0,0,1,0,.18v-.18Zm-12.45,0c0,.12,0,.24,0,.37a1.45,1.45,0,0,1,0-.37Zm0,.48v.48h0A2.45,2.45,0,0,1,56.14,24.81Zm12.46.13a2,2,0,0,1,0,.35h.07C68.63,25.18,68.6,25.05,68.6,24.94Zm0-.61a.84.84,0,0,1,0,.18v-.18Zm-12.45,0c0,.12,0,.24,0,.37a1.45,1.45,0,0,1,0-.37Zm0,.48v.48h0A2.45,2.45,0,0,1,56.14,24.81Zm12.46.13a2,2,0,0,1,0,.35h.07C68.63,25.18,68.6,25.05,68.6,24.94Zm0-.61a.84.84,0,0,1,0,.18v-.18Zm-12.45,0c0,.12,0,.24,0,.37a1.45,1.45,0,0,1,0-.37Zm0,.48v.48h0A2.45,2.45,0,0,1,56.14,24.81Zm0,0c0,.17,0,.32,0,.48h.06A2.45,2.45,0,0,1,56.14,24.81Zm12.46.13a2,2,0,0,1,0,.35h.07C68.63,25.18,68.6,25.05,68.6,24.94Zm0-.61a.84.84,0,0,1,0,.18v.11a.15.15,0,0,1,0-.11c0-.06,0-.12,0-.18Zm-12.45,0c0,.12,0,.24,0,.37a1.45,1.45,0,0,1,0-.37Zm0,.48v.48h0A2.45,2.45,0,0,1,56.14,24.81Zm12.43-.48a.84.84,0,0,1,0,.18v-.18Zm-12.45,0c0,.12,0,.24,0,.37a1.45,1.45,0,0,1,0-.37Zm12.48.61a2,2,0,0,1,0,.35h.07C68.63,25.18,68.6,25.05,68.6,24.94Zm-12.46-.13v.48h0A2.45,2.45,0,0,1,56.14,24.81Zm12.43-.48a.84.84,0,0,1,0,.18v-.18Zm-12.45,0c0,.12,0,.24,0,.37a1.45,1.45,0,0,1,0-.37Zm12.48.61a2,2,0,0,1,0,.35h.07C68.63,25.18,68.6,25.05,68.6,24.94Zm-12.46-.13v.48h0A2.45,2.45,0,0,1,56.14,24.81Zm12.43-.48a.84.84,0,0,1,0,.18v-.18Zm-12.45,0c0,.12,0,.24,0,.37a1.45,1.45,0,0,1,0-.37Zm12.48.61a2,2,0,0,1,0,.35h.07C68.63,25.18,68.6,25.05,68.6,24.94Zm-12.46-.13v.48h0A2.45,2.45,0,0,1,56.14,24.81Zm12.43-.48a.84.84,0,0,1,0,.18v-.18Zm-12.45,0c0,.12,0,.24,0,.37a1.45,1.45,0,0,1,0-.37Zm12.48.61a2,2,0,0,1,0,.35h.07C68.63,25.18,68.6,25.05,68.6,24.94Zm-12.46-.13v.48h0A2.45,2.45,0,0,1,56.14,24.81Zm12.43-.48a.84.84,0,0,1,0,.18v-.18Zm-12.45,0c0,.12,0,.24,0,.37a1.45,1.45,0,0,1,0-.37Zm12.48.61a2,2,0,0,1,0,.35h.07C68.63,25.18,68.6,25.05,68.6,24.94Zm-12.48-.61c0,.12,0,.24,0,.37a1.45,1.45,0,0,1,0-.37Zm0,.48v.48h0A2.45,2.45,0,0,1,56.14,24.81Zm0,0c0,.17,0,.32,0,.48h.06A2.45,2.45,0,0,1,56.14,24.81Zm12.43-.48a.84.84,0,0,1,0,.18v-.18Zm-12.45,0c0,.12,0,.24,0,.37a1.45,1.45,0,0,1,0-.37Zm12.48.61a2,2,0,0,1,0,.35h.07C68.63,25.18,68.6,25.05,68.6,24.94Zm0,0a2,2,0,0,1,0,.35h.07C68.63,25.18,68.6,25.05,68.6,24.94Zm-12.46-.13c0,.17,0,.32,0,.48h.06A2.45,2.45,0,0,1,56.14,24.81Zm12.43-.48a.84.84,0,0,1,0,.18v-.18Zm-12.45,0c0,.12,0,.24,0,.37a1.45,1.45,0,0,1,0-.37Zm0,0c0,.12,0,.24,0,.37a1.45,1.45,0,0,1,0-.37Zm12.45,0a.84.84,0,0,1,0,.18v.11a.15.15,0,0,1,0-.11c0-.06,0-.12,0-.18Z"/><path class="cls-4" d="M69.87,24.33H69.8a1.33,1.33,0,0,1,0,.28v.09A1.45,1.45,0,0,1,69.87,24.33Zm13.46.4c0-.13,0-.27,0-.4h-.28a2.52,2.52,0,0,1,0,.48,2.45,2.45,0,0,1,0,.48h.28c0-.14,0-.27,0-.41Zm-13.5.17V25a1.53,1.53,0,0,1,0,.3h.07A1.67,1.67,0,0,1,69.83,24.9Zm0-.57H69.8a1.33,1.33,0,0,1,0,.28v.09A1.45,1.45,0,0,1,69.87,24.33Zm13.46.4c0-.13,0-.27,0-.4h-.28a2.52,2.52,0,0,1,0,.48,2.45,2.45,0,0,1,0,.48h.28c0-.14,0-.27,0-.41Zm-13.5.17V25a1.53,1.53,0,0,1,0,.3h.07A1.67,1.67,0,0,1,69.83,24.9Zm0-.57H69.8a1.33,1.33,0,0,1,0,.28v.09A1.45,1.45,0,0,1,69.87,24.33Zm13.46.4c0-.13,0-.27,0-.4h-.28a2.52,2.52,0,0,1,0,.48,2.45,2.45,0,0,1,0,.48h.28c0-.14,0-.27,0-.41Zm-13.5.17V25a1.53,1.53,0,0,1,0,.3h.07A1.67,1.67,0,0,1,69.83,24.9Zm0-.57H69.8a1.33,1.33,0,0,1,0,.28v.09A1.45,1.45,0,0,1,69.87,24.33Zm13.46.4c0-.13,0-.27,0-.4h-.28a2.52,2.52,0,0,1,0,.48,2.45,2.45,0,0,1,0,.48h.28c0-.14,0-.27,0-.41Zm-13.5.17V25a1.53,1.53,0,0,1,0,.3h.07A1.67,1.67,0,0,1,69.83,24.9Zm0-.57H69.8a1.33,1.33,0,0,1,0,.28v.09A1.45,1.45,0,0,1,69.87,24.33Zm13.46.4c0-.13,0-.27,0-.4h-.28a2.52,2.52,0,0,1,0,.48,2.45,2.45,0,0,1,0,.48h.28c0-.14,0-.27,0-.41Zm-13.5.17V25a1.53,1.53,0,0,1,0,.3h.07A1.67,1.67,0,0,1,69.83,24.9Zm0-.57H69.8a1.33,1.33,0,0,1,0,.28v.09A1.45,1.45,0,0,1,69.87,24.33Zm13.46.4c0-.13,0-.27,0-.4h-.28a2.52,2.52,0,0,1,0,.48,2.45,2.45,0,0,1,0,.48h.28c0-.14,0-.27,0-.41Zm-13.5.17V25a1.53,1.53,0,0,1,0,.3h.07A1.67,1.67,0,0,1,69.83,24.9Zm0-.57H69.8a1.33,1.33,0,0,1,0,.28v.09A1.45,1.45,0,0,1,69.87,24.33Zm13.46.4c0-.13,0-.27,0-.4h-.28a2.52,2.52,0,0,1,0,.48,2.45,2.45,0,0,1,0,.48h.28c0-.14,0-.27,0-.41Zm-13.5.17V25a1.53,1.53,0,0,1,0,.3h.07A1.67,1.67,0,0,1,69.83,24.9Zm0-.57H69.8a1.33,1.33,0,0,1,0,.28v.09A1.45,1.45,0,0,1,69.87,24.33Zm13.46.4c0-.13,0-.27,0-.4h-.28a2.52,2.52,0,0,1,0,.48,2.45,2.45,0,0,1,0,.48h.28c0-.14,0-.27,0-.41Zm-13.5.17V25a1.53,1.53,0,0,1,0,.3h.07A1.67,1.67,0,0,1,69.83,24.9Zm0-.57H69.8a1.33,1.33,0,0,1,0,.28v.09A1.45,1.45,0,0,1,69.87,24.33Zm13.46.4c0-.13,0-.27,0-.4h-.28a2.52,2.52,0,0,1,0,.48,2.45,2.45,0,0,1,0,.48h.28c0-.14,0-.27,0-.41Zm-13.5.17V25a1.53,1.53,0,0,1,0,.3h.07A1.67,1.67,0,0,1,69.83,24.9Zm0-.57H69.8a1.33,1.33,0,0,1,0,.28v.09A1.45,1.45,0,0,1,69.87,24.33Zm13.46.4c0-.13,0-.27,0-.4h-.28a2.52,2.52,0,0,1,0,.48,2.45,2.45,0,0,1,0,.48h.28c0-.14,0-.27,0-.41Zm-13.5.17V25a1.53,1.53,0,0,1,0,.3h.07A1.67,1.67,0,0,1,69.83,24.9Zm0-.57H69.8a1.33,1.33,0,0,1,0,.28v.09A1.45,1.45,0,0,1,69.87,24.33Zm13.46.4c0-.13,0-.27,0-.4h-.28a2.52,2.52,0,0,1,0,.48,2.45,2.45,0,0,1,0,.48h.28c0-.14,0-.27,0-.41Zm-13.5.17V25a1.53,1.53,0,0,1,0,.3h.07A1.67,1.67,0,0,1,69.83,24.9Zm0-.57H69.8a1.33,1.33,0,0,1,0,.28v.09A1.45,1.45,0,0,1,69.87,24.33Zm13.46.4c0-.13,0-.27,0-.4h-.28a2.52,2.52,0,0,1,0,.48,2.45,2.45,0,0,1,0,.48h.28c0-.14,0-.27,0-.41Zm-13.5.17V25a1.53,1.53,0,0,1,0,.3h.07A1.67,1.67,0,0,1,69.83,24.9Zm0-.57H69.8a1.33,1.33,0,0,1,0,.28v.09A1.45,1.45,0,0,1,69.87,24.33Zm13.46.4c0-.13,0-.27,0-.4h-.28a2.52,2.52,0,0,1,0,.48,2.45,2.45,0,0,1,0,.48h.28c0-.14,0-.27,0-.41Zm-13.5.17V25a1.53,1.53,0,0,1,0,.3h.07A1.67,1.67,0,0,1,69.83,24.9Zm0-.57H69.8a1.33,1.33,0,0,1,0,.28v.09A1.45,1.45,0,0,1,69.87,24.33Zm13.46.4c0-.13,0-.27,0-.4h-.28a2.52,2.52,0,0,1,0,.48,2.45,2.45,0,0,1,0,.48h.28c0-.14,0-.27,0-.41Zm-13.5.17V25a1.53,1.53,0,0,1,0,.3h.07A1.67,1.67,0,0,1,69.83,24.9Zm0-.57H69.8a1.33,1.33,0,0,1,0,.28v.09A1.45,1.45,0,0,1,69.87,24.33Zm13.46.4c0-.13,0-.27,0-.4h-.28a2.52,2.52,0,0,1,0,.48,2.45,2.45,0,0,1,0,.48h.28c0-.14,0-.27,0-.41Zm-13.5.17V25a1.53,1.53,0,0,1,0,.3h.07A1.67,1.67,0,0,1,69.83,24.9Zm0-.57H69.8a1.33,1.33,0,0,1,0,.28v.09A1.45,1.45,0,0,1,69.87,24.33Zm13.46.4c0-.13,0-.27,0-.4h-.28a2.52,2.52,0,0,1,0,.48,2.45,2.45,0,0,1,0,.48h.28c0-.14,0-.27,0-.41Zm-13.5.17V25a1.53,1.53,0,0,1,0,.3h.07A1.67,1.67,0,0,1,69.83,24.9Zm0-.57H69.8a1.33,1.33,0,0,1,0,.28v.09A1.45,1.45,0,0,1,69.87,24.33Zm13.46.4c0-.13,0-.27,0-.4h-.28a2.52,2.52,0,0,1,0,.48,2.45,2.45,0,0,1,0,.48h.28c0-.14,0-.27,0-.41Zm-13.5.17V25a1.53,1.53,0,0,1,0,.3h.07A1.67,1.67,0,0,1,69.83,24.9Zm0-.57H69.8a1.33,1.33,0,0,1,0,.28v.09A1.45,1.45,0,0,1,69.87,24.33Zm13.46.4c0-.13,0-.27,0-.4h-.28a2.52,2.52,0,0,1,0,.48,2.45,2.45,0,0,1,0,.48h.28c0-.14,0-.27,0-.41Zm-13.5.17V25a1.53,1.53,0,0,1,0,.3h.07A1.67,1.67,0,0,1,69.83,24.9Zm0-.57H69.8a1.33,1.33,0,0,1,0,.28v.09A1.45,1.45,0,0,1,69.87,24.33Zm13.46.4c0-.13,0-.27,0-.4h-.28a2.52,2.52,0,0,1,0,.48,2.45,2.45,0,0,1,0,.48h.28c0-.14,0-.27,0-.41Zm-13.5.17V25a1.53,1.53,0,0,1,0,.3h.07A1.67,1.67,0,0,1,69.83,24.9Zm0-.57H69.8a1.33,1.33,0,0,1,0,.28v.09A1.45,1.45,0,0,1,69.87,24.33Zm13.46.4c0-.13,0-.27,0-.4h-.28a2.52,2.52,0,0,1,0,.48,2.45,2.45,0,0,1,0,.48h.28c0-.14,0-.27,0-.41Zm-13.5.17V25a1.53,1.53,0,0,1,0,.3h.07A1.67,1.67,0,0,1,69.83,24.9Zm0-.57H69.8a1.33,1.33,0,0,1,0,.28v.09A1.45,1.45,0,0,1,69.87,24.33Zm13.46.4c0-.13,0-.27,0-.4h-.28a2.52,2.52,0,0,1,0,.48,2.45,2.45,0,0,1,0,.48h.28c0-.14,0-.27,0-.41Zm-13.5.17V25a1.53,1.53,0,0,1,0,.3h.07A1.67,1.67,0,0,1,69.83,24.9Z"/><path class="cls-4" d="M97.85,24.94a1.34,1.34,0,0,1,0,.35h.06C97.86,25.18,97.85,25.05,97.85,24.94Zm0-.61a1.36,1.36,0,0,1,0,.3v-.3Zm-13.26,0v.4a2.6,2.6,0,0,1,0-.4Zm0,.51v.45h0A3.19,3.19,0,0,1,84.55,24.84Zm13.26-.51a1.36,1.36,0,0,1,0,.3v-.3Zm-13.26,0v.4a2.6,2.6,0,0,1,0-.4Zm0,.51v.45h0A3.19,3.19,0,0,1,84.55,24.84Zm13.3.1a1.34,1.34,0,0,1,0,.35h.06C97.86,25.18,97.85,25.05,97.85,24.94Zm0,0a1.34,1.34,0,0,1,0,.35h.06C97.86,25.18,97.85,25.05,97.85,24.94Zm0-.61a1.36,1.36,0,0,1,0,.3v-.3Zm-13.26,0v.4a2.6,2.6,0,0,1,0-.4Zm0,.51v.45h0A3.19,3.19,0,0,1,84.55,24.84Zm13.3.1a1.34,1.34,0,0,1,0,.35h.06C97.86,25.18,97.85,25.05,97.85,24.94Zm0-.61a1.36,1.36,0,0,1,0,.3v-.3Zm-13.26,0v.4a2.6,2.6,0,0,1,0-.4Zm0,.51v.45h0A3.19,3.19,0,0,1,84.55,24.84Zm13.3.1a1.34,1.34,0,0,1,0,.35h.06C97.86,25.18,97.85,25.05,97.85,24.94Zm0-.61a1.36,1.36,0,0,1,0,.3v-.3Zm-13.26,0v.4a2.6,2.6,0,0,1,0-.4Zm0,.51v.45h0A3.19,3.19,0,0,1,84.55,24.84Zm13.3.1a1.34,1.34,0,0,1,0,.35h.06C97.86,25.18,97.85,25.05,97.85,24.94Zm0-.61a1.36,1.36,0,0,1,0,.3v-.3Zm-13.26,0v.4a2.6,2.6,0,0,1,0-.4Zm0,.51v.45h0A3.19,3.19,0,0,1,84.55,24.84Zm13.26-.51a1.36,1.36,0,0,1,0,.3v-.3Zm-13.26,0v.4a2.6,2.6,0,0,1,0-.4Zm0,.51v.45h0A3.19,3.19,0,0,1,84.55,24.84Zm13.3.1a1.34,1.34,0,0,1,0,.35h.06C97.86,25.18,97.85,25.05,97.85,24.94Zm0,0a1.34,1.34,0,0,1,0,.35h.06C97.86,25.18,97.85,25.05,97.85,24.94Zm0-.61a1.36,1.36,0,0,1,0,.3v-.3Zm-13.26,0v.4a2.6,2.6,0,0,1,0-.4Zm13.3.61a1.34,1.34,0,0,1,0,.35h.06C97.86,25.18,97.85,25.05,97.85,24.94Zm0-.61a1.36,1.36,0,0,1,0,.3v-.3Zm-13.26,0v.4a2.6,2.6,0,0,1,0-.4Zm13.3.61a1.34,1.34,0,0,1,0,.35h.06C97.86,25.18,97.85,25.05,97.85,24.94Zm0-.61a1.36,1.36,0,0,1,0,.3c0-.1,0-.2,0-.3Zm-13.26,0v.4a2.6,2.6,0,0,1,0-.4Zm0,.51v.45h0A3.19,3.19,0,0,1,84.55,24.84Zm13.26-.51a1.36,1.36,0,0,1,0,.3v-.3Zm-13.26,0v.4a2.6,2.6,0,0,1,0-.4Zm13.3.61a1.34,1.34,0,0,1,0,.35h.06C97.86,25.18,97.85,25.05,97.85,24.94Zm0-.61a1.36,1.36,0,0,1,0,.3v-.3Zm-13.26,0v.4a2.6,2.6,0,0,1,0-.4Zm13.3.61a1.34,1.34,0,0,1,0,.35h.06C97.86,25.18,97.85,25.05,97.85,24.94Zm0-.61a1.36,1.36,0,0,1,0,.3v-.3Zm-13.26,0v.4a2.6,2.6,0,0,1,0-.4Zm13.3.61a1.34,1.34,0,0,1,0,.35h.06C97.86,25.18,97.85,25.05,97.85,24.94Zm0-.61a1.36,1.36,0,0,1,0,.3v-.3Zm-13.26,0v.4a2.6,2.6,0,0,1,0-.4Zm0,.51v.45h0A3.19,3.19,0,0,1,84.55,24.84Zm13.3.1a1.34,1.34,0,0,1,0,.35h.06C97.86,25.18,97.85,25.05,97.85,24.94Zm0-.61a1.36,1.36,0,0,1,0,.3v-.3Zm-13.26,0v.4a2.6,2.6,0,0,1,0-.4Zm0,.51v.45h0A3.19,3.19,0,0,1,84.55,24.84Zm13.3.1a1.34,1.34,0,0,1,0,.35h.06C97.86,25.18,97.85,25.05,97.85,24.94Zm0-.61a1.36,1.36,0,0,1,0,.3v-.3Zm-13.26,0v.4a2.6,2.6,0,0,1,0-.4Zm0,.51v.45h0A3.19,3.19,0,0,1,84.55,24.84Zm13.3.1a1.34,1.34,0,0,1,0,.35h.06C97.86,25.18,97.85,25.05,97.85,24.94Zm0-.61a1.36,1.36,0,0,1,0,.3v-.3Zm-13.26,0v.4a2.6,2.6,0,0,1,0-.4Zm0,.51v.45h0A3.19,3.19,0,0,1,84.55,24.84Zm13.3.1a1.34,1.34,0,0,1,0,.35h.06C97.86,25.18,97.85,25.05,97.85,24.94Zm0-.61a1.36,1.36,0,0,1,0,.3v-.3Zm-13.26,0v.4a2.6,2.6,0,0,1,0-.4Zm0,.51v.45h0A3.19,3.19,0,0,1,84.55,24.84Zm13.3.1a1.34,1.34,0,0,1,0,.35h.06C97.86,25.18,97.85,25.05,97.85,24.94Zm-13.3-.61v.4a2.6,2.6,0,0,1,0-.4Zm0,.51v.45h0A3.19,3.19,0,0,1,84.55,24.84Zm13.3.1a1.34,1.34,0,0,1,0,.35h.06C97.86,25.18,97.85,25.05,97.85,24.94Zm0-.61a1.36,1.36,0,0,1,0,.3v-.3Zm-13.26,0v.4a2.6,2.6,0,0,1,0-.4Zm0,.51v.45h0A3.19,3.19,0,0,1,84.55,24.84Zm13.3.1a1.34,1.34,0,0,1,0,.35h.06C97.86,25.18,97.85,25.05,97.85,24.94Z"/><path class="cls-4" d="M111.5,24.33a1.65,1.65,0,0,1,0,.32,1.73,1.73,0,0,1,0-.32Zm-12.43.57V25c0,.1,0,.2,0,.3h0A2.47,2.47,0,0,1,99.07,24.9Zm0-.57c0,.11,0,.23,0,.35a2,2,0,0,1,0-.35Zm12.49.62v-.1a3.13,3.13,0,0,1,0,.44h.07A2,2,0,0,1,111.54,25Zm0-.62a1.65,1.65,0,0,1,0,.32,1.73,1.73,0,0,1,0-.32Zm-12.43.57V25c0,.1,0,.2,0,.3h0A2.47,2.47,0,0,1,99.07,24.9Zm0-.57c0,.11,0,.23,0,.35a2,2,0,0,1,0-.35Zm12.49.62v-.1a3.13,3.13,0,0,1,0,.44h.07A2,2,0,0,1,111.54,25Zm0-.62a1.65,1.65,0,0,1,0,.32,1.73,1.73,0,0,1,0-.32Zm-12.43.57V25c0,.1,0,.2,0,.3h0A2.47,2.47,0,0,1,99.07,24.9Zm0-.57c0,.11,0,.23,0,.35a2,2,0,0,1,0-.35Zm12.49.62v-.1a3.13,3.13,0,0,1,0,.44h.07A2,2,0,0,1,111.54,25Zm0-.62a1.65,1.65,0,0,1,0,.32,1.73,1.73,0,0,1,0-.32Zm-12.43.57V25c0,.1,0,.2,0,.3h0A2.47,2.47,0,0,1,99.07,24.9Zm0-.57c0,.11,0,.23,0,.35a2,2,0,0,1,0-.35Zm12.49.62v-.1a3.13,3.13,0,0,1,0,.44h.07A2,2,0,0,1,111.54,25Zm0-.62a1.65,1.65,0,0,1,0,.32,1.73,1.73,0,0,1,0-.32Zm-12.43.57V25c0,.1,0,.2,0,.3h0A2.47,2.47,0,0,1,99.07,24.9Zm0-.57c0,.11,0,.23,0,.35a2,2,0,0,1,0-.35Zm12.49.62v-.1a3.13,3.13,0,0,1,0,.44h.07A2,2,0,0,1,111.54,25Zm0-.62a1.65,1.65,0,0,1,0,.32,1.73,1.73,0,0,1,0-.32Zm-12.43.57V25c0,.1,0,.2,0,.3h0A2.47,2.47,0,0,1,99.07,24.9Zm0-.57c0,.11,0,.23,0,.35a2,2,0,0,1,0-.35Zm12.49.62v-.1a3.13,3.13,0,0,1,0,.44h.07A2,2,0,0,1,111.54,25Zm0-.62a1.65,1.65,0,0,1,0,.32,1.73,1.73,0,0,1,0-.32Zm-12.43.57V25c0,.1,0,.2,0,.3h0A2.47,2.47,0,0,1,99.07,24.9Zm0-.57c0,.11,0,.23,0,.35a2,2,0,0,1,0-.35Zm12.49.62v-.1a3.13,3.13,0,0,1,0,.44h.07A2,2,0,0,1,111.54,25Zm0-.62a1.65,1.65,0,0,1,0,.32,1.73,1.73,0,0,1,0-.32Zm-12.43.57V25c0,.1,0,.2,0,.3h0A2.47,2.47,0,0,1,99.07,24.9Zm0-.57c0,.11,0,.23,0,.35a2,2,0,0,1,0-.35Zm12.49.62v-.1a3.13,3.13,0,0,1,0,.44h.07A2,2,0,0,1,111.54,25Zm0-.62a1.65,1.65,0,0,1,0,.32,1.73,1.73,0,0,1,0-.32Zm-12.43.57V25c0,.1,0,.2,0,.3h0A2.47,2.47,0,0,1,99.07,24.9Zm0-.57c0,.11,0,.23,0,.35a2,2,0,0,1,0-.35Zm12.49.62v-.1a3.13,3.13,0,0,1,0,.44h.07A2,2,0,0,1,111.54,25Zm0-.62a1.65,1.65,0,0,1,0,.32,1.73,1.73,0,0,1,0-.32Zm-12.43.57V25c0,.1,0,.2,0,.3h0A2.47,2.47,0,0,1,99.07,24.9Zm0-.57c0,.11,0,.23,0,.35a2,2,0,0,1,0-.35Zm12.49.62v-.1a3.13,3.13,0,0,1,0,.44h.07A2,2,0,0,1,111.54,25Zm0-.62a1.65,1.65,0,0,1,0,.32,1.73,1.73,0,0,1,0-.32Zm-12.43.57V25c0,.1,0,.2,0,.3h0A2.47,2.47,0,0,1,99.07,24.9Zm0-.57c0,.11,0,.23,0,.35a2,2,0,0,1,0-.35Zm12.49.62v-.1a3.13,3.13,0,0,1,0,.44h.07A2,2,0,0,1,111.54,25Zm0-.62a1.65,1.65,0,0,1,0,.32,1.73,1.73,0,0,1,0-.32Zm-12.43.57V25c0,.1,0,.2,0,.3h0A2.47,2.47,0,0,1,99.07,24.9Zm0-.57c0,.11,0,.23,0,.35a2,2,0,0,1,0-.35Zm12.49.62v-.1a3.13,3.13,0,0,1,0,.44h.07A2,2,0,0,1,111.54,25Zm0-.62a1.65,1.65,0,0,1,0,.32,1.73,1.73,0,0,1,0-.32Zm-12.43.57V25c0,.1,0,.2,0,.3h0A2.47,2.47,0,0,1,99.07,24.9Zm0-.57c0,.11,0,.23,0,.35a2,2,0,0,1,0-.35Zm12.49.62v-.1a3.13,3.13,0,0,1,0,.44h.07A2,2,0,0,1,111.54,25Zm0-.62a1.65,1.65,0,0,1,0,.32,1.73,1.73,0,0,1,0-.32Zm-12.43.57V25c0,.1,0,.2,0,.3h0A2.47,2.47,0,0,1,99.07,24.9Zm0-.57c0,.11,0,.23,0,.35a2,2,0,0,1,0-.35Zm12.45,0a1.65,1.65,0,0,1,0,.32,1.73,1.73,0,0,1,0-.32Zm0,.62v-.1a3.13,3.13,0,0,1,0,.44h.07A2,2,0,0,1,111.54,25ZM99.07,24.9V25c0,.1,0,.2,0,.3h0A2.47,2.47,0,0,1,99.07,24.9Zm0-.57c0,.11,0,.23,0,.35a2,2,0,0,1,0-.35Zm12.45,0a1.65,1.65,0,0,1,0,.32,1.73,1.73,0,0,1,0-.32Zm-12.43.57V25c0,.1,0,.2,0,.3h0A2.47,2.47,0,0,1,99.07,24.9Zm0-.57c0,.11,0,.23,0,.35a2,2,0,0,1,0-.35Zm12.49.62v-.1a3.13,3.13,0,0,1,0,.44h.07A2,2,0,0,1,111.54,25Zm0-.62a1.65,1.65,0,0,1,0,.32,1.73,1.73,0,0,1,0-.32Zm-12.43.57V25c0,.1,0,.2,0,.3h0A2.47,2.47,0,0,1,99.07,24.9Zm0-.57c0,.11,0,.23,0,.35a2,2,0,0,1,0-.35Zm12.49.62v-.1a3.13,3.13,0,0,1,0,.44h.07A2,2,0,0,1,111.54,25Zm0-.62a1.65,1.65,0,0,1,0,.32,1.73,1.73,0,0,1,0-.32Zm-12.43.57V25c0,.1,0,.2,0,.3h0A2.47,2.47,0,0,1,99.07,24.9Zm0-.57c0,.11,0,.23,0,.35a2,2,0,0,1,0-.35Zm12.49.62v-.1a3.13,3.13,0,0,1,0,.44h.07A2,2,0,0,1,111.54,25Zm0-.62a1.65,1.65,0,0,1,0,.32,1.73,1.73,0,0,1,0-.32Zm-12.43.57V25c0,.1,0,.2,0,.3h0A2.47,2.47,0,0,1,99.07,24.9Zm0-.57c0,.11,0,.23,0,.35a2,2,0,0,1,0-.35Zm12.49.62v-.1a3.13,3.13,0,0,1,0,.44h.07A2,2,0,0,1,111.54,25Zm0-.62a1.65,1.65,0,0,1,0,.32,1.73,1.73,0,0,1,0-.32Zm-12.43.57V25c0,.1,0,.2,0,.3h0A2.47,2.47,0,0,1,99.07,24.9Zm0-.57c0,.11,0,.23,0,.35a2,2,0,0,1,0-.35Zm12.49.62v-.1a3.13,3.13,0,0,1,0,.44h.07A2,2,0,0,1,111.54,25Zm0-.62a1.65,1.65,0,0,1,0,.32,1.73,1.73,0,0,1,0-.32Zm-12.43.57V25c0,.1,0,.2,0,.3h0A2.47,2.47,0,0,1,99.07,24.9Zm0-.57c0,.11,0,.23,0,.35a2,2,0,0,1,0-.35Zm12.49.62v-.1a3.13,3.13,0,0,1,0,.44h.07A2,2,0,0,1,111.54,25Zm0-.62a1.65,1.65,0,0,1,0,.32,1.73,1.73,0,0,1,0-.32Zm-12.43.57V25c0,.1,0,.2,0,.3h0A2.47,2.47,0,0,1,99.07,24.9Zm0-.57c0,.11,0,.23,0,.35a2,2,0,0,1,0-.35Zm12.49.62v-.1a3.13,3.13,0,0,1,0,.44h.07A2,2,0,0,1,111.54,25Zm0-.62a1.65,1.65,0,0,1,0,.32,1.73,1.73,0,0,1,0-.32Zm-12.43.57V25c0,.1,0,.2,0,.3h0A2.47,2.47,0,0,1,99.07,24.9Zm0-.57c0,.11,0,.23,0,.35a2,2,0,0,1,0-.35Zm12.49.62v-.1a3.13,3.13,0,0,1,0,.44h.07A2,2,0,0,1,111.54,25Zm0-.62a1.65,1.65,0,0,1,0,.32,1.73,1.73,0,0,1,0-.32Zm-12.43.57V25c0,.1,0,.2,0,.3h0A2.47,2.47,0,0,1,99.07,24.9Zm0-.57c0,.11,0,.23,0,.35a2,2,0,0,1,0-.35Zm12.49.62v-.1a3.13,3.13,0,0,1,0,.44h.07A2,2,0,0,1,111.54,25Zm0-.62a1.65,1.65,0,0,1,0,.32,1.73,1.73,0,0,1,0-.32Zm-12.43.57V25c0,.1,0,.2,0,.3h0A2.47,2.47,0,0,1,99.07,24.9Zm0-.57c0,.11,0,.23,0,.35a2,2,0,0,1,0-.35Zm12.49.62v-.1a3.13,3.13,0,0,1,0,.44h.07A2,2,0,0,1,111.54,25Zm0-.62a1.65,1.65,0,0,1,0,.32,1.73,1.73,0,0,1,0-.32Zm-12.43.57V25c0,.1,0,.2,0,.3h0A2.47,2.47,0,0,1,99.07,24.9Zm0-.57c0,.11,0,.23,0,.35a2,2,0,0,1,0-.35Zm12.49.62v-.1a3.13,3.13,0,0,1,0,.44h.07A2,2,0,0,1,111.54,25Zm0-.62a1.65,1.65,0,0,1,0,.32,1.73,1.73,0,0,1,0-.32Zm-12.43.57V25c0,.1,0,.2,0,.3h0A2.47,2.47,0,0,1,99.07,24.9Zm0-.57c0,.11,0,.23,0,.35a2,2,0,0,1,0-.35Zm12.49.62v-.1a3.13,3.13,0,0,1,0,.44h.07A2,2,0,0,1,111.54,25Zm0-.62a1.65,1.65,0,0,1,0,.32,1.73,1.73,0,0,1,0-.32Zm-12.43.57V25c0,.1,0,.2,0,.3h0A2.47,2.47,0,0,1,99.07,24.9Zm0-.57c0,.11,0,.23,0,.35a2,2,0,0,1,0-.35Zm12.49.62v-.1a3.13,3.13,0,0,1,0,.44h.07A2,2,0,0,1,111.54,25Z"/><path class="cls-4" d="M112.75,24.94c0,.12,0,.23,0,.35h.07A2,2,0,0,1,112.75,24.94Zm0-.61c0,.12,0,.24,0,.37a1.44,1.44,0,0,1,0-.37Zm13,0h-.53a2.52,2.52,0,0,1,0,.48,2.45,2.45,0,0,1,0,.48h.53c0-.16,0-.31,0-.48S125.71,24.49,125.72,24.33Zm-13,.61c0,.12,0,.23,0,.35h.07A2,2,0,0,1,112.75,24.94Zm0-.61c0,.12,0,.24,0,.37a1.44,1.44,0,0,1,0-.37Zm0,.61c0,.12,0,.23,0,.35h.07A2,2,0,0,1,112.75,24.94Zm0-.61c0,.12,0,.24,0,.37a1.44,1.44,0,0,1,0-.37Zm13,0h-.53a2.52,2.52,0,0,1,0,.48,2.45,2.45,0,0,1,0,.48h.53c0-.16,0-.31,0-.48S125.71,24.49,125.72,24.33Zm-13,.61c0,.12,0,.23,0,.35h.07A2,2,0,0,1,112.75,24.94Zm0-.61c0,.12,0,.24,0,.37a1.44,1.44,0,0,1,0-.37Zm13,0h-.53a2.52,2.52,0,0,1,0,.48,2.45,2.45,0,0,1,0,.48h.53c0-.16,0-.31,0-.48S125.71,24.49,125.72,24.33Zm-13,.61c0,.12,0,.23,0,.35h.07A2,2,0,0,1,112.75,24.94Zm0-.61c0,.12,0,.24,0,.37a1.44,1.44,0,0,1,0-.37Zm13,0h-.53a2.52,2.52,0,0,1,0,.48,2.45,2.45,0,0,1,0,.48h.53c0-.16,0-.31,0-.48S125.71,24.49,125.72,24.33Zm-13,.61c0,.12,0,.23,0,.35h.07A2,2,0,0,1,112.75,24.94Zm0-.61c0,.12,0,.24,0,.37a1.44,1.44,0,0,1,0-.37Zm13,0h-.53a2.52,2.52,0,0,1,0,.48,2.45,2.45,0,0,1,0,.48h.53c0-.16,0-.31,0-.48S125.71,24.49,125.72,24.33Zm-13,.61c0,.12,0,.23,0,.35h.07A2,2,0,0,1,112.75,24.94Zm0-.61c0,.12,0,.24,0,.37a1.44,1.44,0,0,1,0-.37Zm13,0h-.53a2.52,2.52,0,0,1,0,.48,2.45,2.45,0,0,1,0,.48h.53c0-.16,0-.31,0-.48S125.71,24.49,125.72,24.33Zm-13,.61c0,.12,0,.23,0,.35h.07A2,2,0,0,1,112.75,24.94Zm0-.61c0,.12,0,.24,0,.37a1.44,1.44,0,0,1,0-.37Z"/><path class="cls-4" d="M126.92,24.81v.48h0A3.64,3.64,0,0,1,126.92,24.81Zm0-.48v.48a3.75,3.75,0,0,1,0-.48Zm0,0v.48a3.75,3.75,0,0,1,0-.48Zm0,.48v.48h0A3.64,3.64,0,0,1,126.92,24.81Zm0,0v.48h0A3.64,3.64,0,0,1,126.92,24.81Zm0,0v.48h0A3.64,3.64,0,0,1,126.92,24.81Zm0-.48v.48a3.75,3.75,0,0,1,0-.48Zm0,.48v.48h0A3.64,3.64,0,0,1,126.92,24.81Zm0-.48v.48a3.75,3.75,0,0,1,0-.48Z"/><path class="cls-4" d="M41.22,24.33v.32c0-.11,0-.21,0-.32Zm14.9,1h0v-.48C56.14,25,56.13,25.13,56.12,25.29Zm0-1c0,.12,0,.24,0,.37v-.37Zm-1.2.32c0-.11,0-.21,0-.32H42.42c0,.12,0,.24,0,.37v.11c0,.17,0,.32,0,.48H54.94c0-.15,0-.29,0-.44Zm-13.7.21v.43h0C41.25,25.15,41.22,25,41.22,24.86Z"/><path class="cls-4" d="M139.35,25.09a.62.62,0,0,1,0,.2H127a3.64,3.64,0,0,1,0-.48,3.75,3.75,0,0,1,0-.48h12.33A5.54,5.54,0,0,1,139.35,25.09Z"/><path class="cls-4" d="M41.22,24.65v.21a3,3,0,0,1,0,.43H28.81l0-1H41.19A1.66,1.66,0,0,1,41.22,24.65Z"/><path class="cls-4" d="M54.92,24.33v.32c0-.11,0-.21,0-.32Zm0,.52v.44h0C54.93,25.14,54.92,25,54.92,24.85Zm14.88.44h0V25A1.53,1.53,0,0,1,69.8,25.29Zm0-1a1.33,1.33,0,0,1,0,.28v-.28Zm-1.2.29a.15.15,0,0,1,0-.11c0-.06,0-.12,0-.18H56.12c0,.12,0,.24,0,.37v.11c0,.17,0,.32,0,.48H68.64c0-.11,0-.24,0-.35Z"/><path class="cls-4" d="M68.6,24.33v.29a.15.15,0,0,1,0-.11c0-.06,0-.12,0-.18Zm0,0v.29a.15.15,0,0,1,0-.11c0-.06,0-.12,0-.18Zm14.73.4c0-.13,0-.27,0-.4H69.8a1.33,1.33,0,0,1,0,.28V25a1.53,1.53,0,0,1,0,.3H83.35c0-.14,0-.27,0-.41Zm-14.73.21v.35h0C68.63,25.18,68.6,25.05,68.6,24.94Zm0-.61v.29a.15.15,0,0,1,0-.11c0-.06,0-.12,0-.18Zm0,0v.29a.15.15,0,0,1,0-.11c0-.06,0-.12,0-.18Z"/><path class="cls-4" d="M83.33,24.33v.4c0-.13,0-.27,0-.4Zm0,.55v.41h0C83.34,25.15,83.33,25,83.33,24.88Zm14.52-.25c0-.1,0-.2,0-.3H84.55v1H97.87c0-.11,0-.24,0-.35Zm1.2-.3c0,.11,0,.23,0,.35v-.35Zm0,1h0V25C99.07,25.09,99.06,25.19,99.05,25.29Z"/><path class="cls-4" d="M97.85,24.33v.3c0-.1,0-.2,0-.3Zm0,0v.3c0-.1,0-.2,0-.3Zm14.88,1h0v-.35C112.75,25.06,112.74,25.17,112.73,25.29Zm0-1c0,.12,0,.24,0,.37v-.37Zm-1.23,0a1.65,1.65,0,0,1,0,.32,1.73,1.73,0,0,1,0-.32Zm0,.62v-.1a3.13,3.13,0,0,1,0,.44h.07A2,2,0,0,1,111.54,25ZM99.07,24.9V25c0,.1,0,.2,0,.3h0A2.47,2.47,0,0,1,99.07,24.9Zm0-.57c0,.11,0,.23,0,.35a2,2,0,0,1,0-.35Zm-1.2.61v.35h0C97.86,25.18,97.85,25.05,97.85,24.94Zm0-.61v.3c0-.1,0-.2,0-.3Z"/><path class="cls-4" d="M111.54,24.65v.2a3.13,3.13,0,0,1,0,.44H99.1a2.47,2.47,0,0,1,0-.39v-.22a2,2,0,0,1,0-.35h12.4A1.65,1.65,0,0,1,111.54,24.65Z"/><path class="cls-4" d="M125.72,24.33h-13c0,.12,0,.24,0,.37v.24c0,.12,0,.23,0,.35h13c0-.16,0-.31,0-.48S125.71,24.49,125.72,24.33ZM111.54,25v.34h0A2,2,0,0,1,111.54,25Zm0-.62v.32a1.73,1.73,0,0,1,0-.32Z"/><rect class="cls-1" x="32.06" y="0.97" width="103.76" height="4.26"/><circle class="cls-3" cx="124.91" cy="47.95" r="1.65"/><path class="cls-4" d="M124.91,45.47a2.48,2.48,0,1,0,2.48,2.47A2.48,2.48,0,0,0,124.91,45.47Zm0,4.12a1.65,1.65,0,1,1,1.65-1.65A1.66,1.66,0,0,1,124.91,49.59Z"/><path class="cls-7" d="M59.05,58.79a2.21,2.21,0,0,1-1.63-.69,1.82,1.82,0,0,1-.11-2.35L67.94,41.92,52.07,50.44a2.24,2.24,0,0,1-2.9-.69,1.84,1.84,0,0,1,.75-2.64l24.27-13a2.27,2.27,0,0,1,2.63.35A1.8,1.8,0,0,1,77,36.85L65.26,52.14l15.33-6.4a2.19,2.19,0,0,1,2.8.95,1.86,1.86,0,0,1-1,2.56L59.93,58.62A2.22,2.22,0,0,1,59.05,58.79Z"/><path class="cls-8" d="M31.08,15V71.56h1.64a.81.81,0,0,1,.8.82.13.13,0,0,1,0,.06H.76a.13.13,0,0,1,0-.06.81.81,0,0,1,.8-.82H3.44V15H1.68A1.2,1.2,0,0,1,.49,13.79H34A1.2,1.2,0,0,1,32.84,15Z"/><path class="cls-9" d="M33.34,12.48H1.24A1.23,1.23,0,0,0,0,13.71a.22.22,0,0,0,0,.08A1.22,1.22,0,0,0,1.24,15H3.05V71.56H1.1a.82.82,0,0,0-.82.82.13.13,0,0,0,0,.06.81.81,0,0,0,.81.77H11.88L8.23,76.05a.81.81,0,0,0-.14,1.15.77.77,0,0,0,.64.33.81.81,0,0,0,.51-.18l5.32-4.14H19l5.31,4.14a.81.81,0,0,0,.51.18.81.81,0,0,0,.65-.33.82.82,0,0,0-.14-1.15l-3.65-2.84H33.22a.81.81,0,0,0,.81-.77.13.13,0,0,0,0-.06.82.82,0,0,0-.82-.82H31.53V15h1.81a1.22,1.22,0,0,0,1.23-1.16.22.22,0,0,0,0-.08A1.24,1.24,0,0,0,33.34,12.48ZM30.7,15V71.56H3.87V15Z"/><path class="cls-10" d="M25.08,58.28a10.19,10.19,0,0,1,1.42,2.36A6.58,6.58,0,0,1,27,63.21a4.91,4.91,0,0,1-.51,2.28A3.77,3.77,0,0,1,25.08,67a3.67,3.67,0,0,1-1.91.53,3.41,3.41,0,0,1-2.36-.88,4.32,4.32,0,0,1-1.3-2.41c-.05-.21-.17-.74-.34-1.59s-.33-1.57-.47-2.18-.32-1.26-.53-2a3.5,3.5,0,0,0-2,.54,2.41,2.41,0,0,0-.62,2A4.09,4.09,0,0,0,16,62.94,3.14,3.14,0,0,0,17,64.05c.48.31.79.53.95.66a1.08,1.08,0,0,1,.23.82,1.44,1.44,0,0,1-.37,1,1.16,1.16,0,0,1-.93.41,2.91,2.91,0,0,1-1.73-.62,4.5,4.5,0,0,1-1.38-2A8.7,8.7,0,0,1,13.24,61a9.4,9.4,0,0,1,.53-3.5,3.24,3.24,0,0,1,1.66-1.8,7.27,7.27,0,0,1,3-.52h2l1.84,0a6.78,6.78,0,0,0,2-.31,6.41,6.41,0,0,1,1.33-.32,1.26,1.26,0,0,1,.94.49A1.63,1.63,0,0,1,27,56.18a1.48,1.48,0,0,1-.49,1A7.22,7.22,0,0,1,25.08,58.28Zm-4.88.22a16.6,16.6,0,0,1,.57,2.16q.3,1.41.45,2a2.63,2.63,0,0,0,.55,1,1.43,1.43,0,0,0,1.16.5,1.71,1.71,0,0,0,1.3-.59,2.12,2.12,0,0,0,.54-1.51,4,4,0,0,0-.44-1.85A2.86,2.86,0,0,0,23.2,59a5.09,5.09,0,0,0-2.52-.46Z"/><path class="cls-10" d="M10.18,49h5.15a7.87,7.87,0,0,1-1.51-1.94,5.19,5.19,0,0,1-.53-2.45,5.45,5.45,0,0,1,.8-3,5.27,5.27,0,0,1,2.31-2A8.58,8.58,0,0,1,20,39a9.59,9.59,0,0,1,2.81.39A6.84,6.84,0,0,1,25,40.51a5.41,5.41,0,0,1,1.77,5.59,4.2,4.2,0,0,1-.48,1.17,5.68,5.68,0,0,1-.63.82,11.7,11.7,0,0,1-1,.9h.33a2,2,0,0,1,1.44.45A1.53,1.53,0,0,1,27,50.61a1.44,1.44,0,0,1-.49,1.14,2.13,2.13,0,0,1-1.44.42H10.33a2.43,2.43,0,0,1-1.55-.41,1.39,1.39,0,0,1-.53-1.15,1.49,1.49,0,0,1,.5-1.2A2.16,2.16,0,0,1,10.18,49Zm10-.16a4.65,4.65,0,0,0,3.09-.92,3,3,0,0,0,1.08-2.42,2.77,2.77,0,0,0-1.1-2.19,4.81,4.81,0,0,0-3.17-.92,6.33,6.33,0,0,0-2.3.38,3.39,3.39,0,0,0-1.49,1.09,2.65,2.65,0,0,0-.52,1.64,2.94,2.94,0,0,0,.52,1.72,3.45,3.45,0,0,0,1.52,1.18A5.86,5.86,0,0,0,20.2,48.83Z"/><path class="cls-10" d="M22.8,24.19a3,3,0,0,1,1.35.38,4.61,4.61,0,0,1,1.37,1.15,5.86,5.86,0,0,1,1,1.94A8.43,8.43,0,0,1,27,30.31a6.44,6.44,0,0,1-1.82,4.88,6.73,6.73,0,0,1-4.88,1.75,8.09,8.09,0,0,1-3.67-.8,5.77,5.77,0,0,1-2.47-2.32,7.24,7.24,0,0,1-.87-3.64,7.37,7.37,0,0,1,.38-2.4,6.36,6.36,0,0,1,1-1.85,4.74,4.74,0,0,1,1.29-1.16,2.56,2.56,0,0,1,1.28-.4,1.35,1.35,0,0,1,1,.45,1.53,1.53,0,0,1,.42,1.09,1.09,1.09,0,0,1-.22.7,3.24,3.24,0,0,1-.7.62,5.06,5.06,0,0,0-1.4,1.29,2.88,2.88,0,0,0-.47,1.71A2.92,2.92,0,0,0,17,32.64a5.07,5.07,0,0,0,3.2.92A6.12,6.12,0,0,0,22,33.32a3.73,3.73,0,0,0,1.35-.68,2.87,2.87,0,0,0,.86-1.07,3.32,3.32,0,0,0,.29-1.39A3.13,3.13,0,0,0,24,28.45a4.14,4.14,0,0,0-1.44-1.28,3.63,3.63,0,0,1-.89-.67,1.35,1.35,0,0,1,.15-1.9A1.54,1.54,0,0,1,22.8,24.19Z"/></g></svg>