<svg xmlns="http://www.w3.org/2000/svg" xmlns:xlink="http://www.w3.org/1999/xlink" viewBox="0 0 140.59 77.53"><defs><style>.cls-1{fill:url(#Degradado_sin_nombre_4);}.cls-2{fill:url(#Degradado_sin_nombre_4-2);}.cls-3{fill:url(#Degradado_sin_nombre_4-3);}.cls-4{fill:url(#Degradado_sin_nombre_4-4);}</style><linearGradient id="Degradado_sin_nombre_4" x1="95.04" y1="80.77" x2="62.34" y2="11.68" gradientUnits="userSpaceOnUse"><stop offset="0" stop-color="#1e2349"/><stop offset="0.14" stop-color="#1e274e"/><stop offset="0.3" stop-color="#1f315b"/><stop offset="0.46" stop-color="#204371"/><stop offset="0.63" stop-color="#215c91"/><stop offset="0.81" stop-color="#237bb9"/><stop offset="0.98" stop-color="#26a2e9"/><stop offset="1" stop-color="#26a6ef"/></linearGradient><linearGradient id="Degradado_sin_nombre_4-2" x1="85.89" y1="85.1" x2="53.19" y2="16.01" xlink:href="#Degradado_sin_nombre_4"/><linearGradient id="Degradado_sin_nombre_4-3" x1="80.01" y1="87.89" x2="47.3" y2="18.8" xlink:href="#Degradado_sin_nombre_4"/><linearGradient id="Degradado_sin_nombre_4-4" x1="92.57" y1="81.94" x2="59.87" y2="12.85" xlink:href="#Degradado_sin_nombre_4"/></defs><title>icon-1-02</title><g id="Ãconos"><path class="cls-1" d="M49.17,15.28a32.21,32.21,0,0,0-8.84,13.84,31.75,31.75,0,0,0,3.25,6.75,32.26,32.26,0,0,0,3.47,4.53,8.53,8.53,0,0,1,3.58-4.74c3.63-2,7,.82,14.13,1.8a34.79,34.79,0,0,0,16.79-1.92A31.53,31.53,0,0,0,92.13,28.8a30.52,30.52,0,0,0,5.41-7.15C96.57,20.13,89,8.8,74.29,7.11,72.79,6.94,59.69,5.66,49.17,15.28Zm35.7-1.36a2.31,2.31,0,1,1-2.31,2.3A2.3,2.3,0,0,1,84.87,13.92Z"/><path class="cls-2" d="M47,12.77A33.86,33.86,0,0,1,64.13,6.41,32,32,0,0,1,79.73,7c-1-.77-15-11.17-31.9-5.2C32.31,7.32,27.42,22,26.9,23.65a4.82,4.82,0,0,0,9.22,2.58A33.93,33.93,0,0,1,47,12.77Z"/><path class="cls-3" d="M54.7,45.56a12.34,12.34,0,0,0,4.54-3.18,12.12,12.12,0,0,0,2.47-4.28l-4.82-1.64a12.22,12.22,0,0,1-.15,4.64A12.35,12.35,0,0,1,54.7,45.56Z"/><path class="cls-4" d="M112.94,47.61a32.38,32.38,0,0,0-12.72-18.94,32.36,32.36,0,0,1-27,22.62c-14,1.53-27.81-6.82-33.32-20.51-1.46,4.84-2.34,19.44,6.49,30.71,14.43,18.43,38.88,20.81,63.76,8A32.38,32.38,0,0,0,112.94,47.61Z"/></g></svg>