<svg xmlns="http://www.w3.org/2000/svg" viewBox="0 0 140.59 77.53"><defs><style>.cls-1{fill:#fff;}.cls-2{fill:#e62117;}</style></defs><title>icon-2</title><g id="Ãconos"><path class="cls-1" d="M88.64,35.83,53.77,15.07a3.5,3.5,0,0,0-5.29,3V59.6a3.52,3.52,0,0,0,1.77,3,3.57,3.57,0,0,0,1.73.45,3.47,3.47,0,0,0,1.79-.49L88.64,41.84a3.5,3.5,0,0,0,0-6Z"/><path class="cls-2" d="M115.49,13.38A13.2,13.2,0,0,0,106.2,4C98,1.82,65.14,1.82,65.14,1.82S32.27,1.82,24.08,4a13.16,13.16,0,0,0-9.29,9.35c-2.2,8.25-2.2,25.46-2.2,25.46s0,17.21,2.2,25.46a13,13,0,0,0,9.29,9.2c8.19,2.21,41.06,2.21,41.06,2.21s32.86,0,41.06-2.21a13,13,0,0,0,9.29-9.2c2.19-8.25,2.19-25.46,2.19-25.46S117.68,21.63,115.49,13.38ZM54.39,54.46V23.21L81.86,38.84,54.39,54.46Z"/><path d="M65.14,76.26c-1.35,0-33,0-41.21-2.23a13.47,13.47,0,0,1-9.68-9.59C12.06,56.21,12,39.54,12,38.84s0-17.38,2.21-25.6a13.76,13.76,0,0,1,9.68-9.75c8.18-2.2,39.86-2.23,41.21-2.23s33,0,41.2,2.23A13.76,13.76,0,0,1,116,13.24c2.19,8.22,2.22,24.89,2.22,25.6s0,17.37-2.22,25.6A13.47,13.47,0,0,1,106.34,74C98.17,76.24,66.48,76.26,65.14,76.26Zm0-73.89c-.33,0-32.89,0-40.92,2.19a12.66,12.66,0,0,0-8.9,9c-2.15,8.08-2.18,25.15-2.18,25.32s0,17.23,2.18,25.31A12.41,12.41,0,0,0,24.22,73c8,2.16,40.59,2.19,40.92,2.19S98,75.13,106.05,73a12.4,12.4,0,0,0,8.9-8.82c2.15-8.08,2.18-25.14,2.18-25.31s0-17.24-2.18-25.32h0a12.66,12.66,0,0,0-8.9-9C98,2.39,65.46,2.37,65.14,2.37ZM54.39,55a.57.57,0,0,1-.28-.08.56.56,0,0,1-.28-.48V23.21a.56.56,0,0,1,.28-.48.54.54,0,0,1,.55,0L82.13,38.36a.55.55,0,0,1,.28.48.56.56,0,0,1-.28.48L54.66,54.94A.53.53,0,0,1,54.39,55Zm.55-30.86V53.51l25.8-14.67Z"/></g></svg>