<svg xmlns="http://www.w3.org/2000/svg" xmlns:xlink="http://www.w3.org/1999/xlink" viewBox="0 0 140.59 77.53"><defs><style>.cls-1{fill:#ffaa01;}.cls-2{fill:#0a0a0a;}.cls-3{fill:#e8413b;}.cls-4{fill:#141414;}.cls-5{fill:#fff;}.cls-6{fill:url(#Degradado_sin_nombre_4);}.cls-7{fill:url(#Degradado_sin_nombre_4-2);}.cls-8{fill:url(#Degradado_sin_nombre_4-3);}.cls-9{fill:url(#Degradado_sin_nombre_4-4);}</style><linearGradient id="Degradado_sin_nombre_4" x1="106.45" y1="62.1" x2="91.77" y2="31.07" gradientUnits="userSpaceOnUse"><stop offset="0" stop-color="#1e2349"/><stop offset="0.14" stop-color="#1e274e"/><stop offset="0.3" stop-color="#1f315b"/><stop offset="0.46" stop-color="#204371"/><stop offset="0.63" stop-color="#215c91"/><stop offset="0.81" stop-color="#237bb9"/><stop offset="0.98" stop-color="#26a2e9"/><stop offset="1" stop-color="#26a6ef"/></linearGradient><linearGradient id="Degradado_sin_nombre_4-2" x1="102.34" y1="64.05" x2="87.66" y2="33.02" xlink:href="#Degradado_sin_nombre_4"/><linearGradient id="Degradado_sin_nombre_4-3" x1="99.7" y1="65.3" x2="85.01" y2="34.27" xlink:href="#Degradado_sin_nombre_4"/><linearGradient id="Degradado_sin_nombre_4-4" x1="105.34" y1="62.63" x2="90.66" y2="31.6" xlink:href="#Degradado_sin_nombre_4"/></defs><title>icon-4-02</title><g id="Ãconos"><rect class="cls-1" x="6.54" y="1.34" width="93.19" height="62.01" rx="2.45"/><path class="cls-2" d="M96.44,64.7H9.83A4.64,4.64,0,0,1,5.2,60.06V4.64A4.64,4.64,0,0,1,9.83,0H96.44a4.64,4.64,0,0,1,4.63,4.64V60.06A4.64,4.64,0,0,1,96.44,64.7ZM9.83,2.69A2,2,0,0,0,7.88,4.64V60.06a2,2,0,0,0,2,1.95H96.44a2,2,0,0,0,2-1.95V4.64a2,2,0,0,0-2-1.95Z"/><polygon class="cls-3" points="13.27 47.26 1.34 47.26 1.34 16.25 13.27 16.25 17.27 22.5 17.27 41.84 13.27 47.26"/><path class="cls-2" d="M13.27,48.6H1.34A1.34,1.34,0,0,1,0,47.26v-31a1.34,1.34,0,0,1,1.34-1.34H13.27a1.33,1.33,0,0,1,1.13.62l4,6.25a1.33,1.33,0,0,1,.22.72V41.84a1.35,1.35,0,0,1-.27.8l-4,5.42A1.34,1.34,0,0,1,13.27,48.6ZM2.69,45.91h9.9l3.34-4.51V22.9l-3.4-5.3H2.69Z"/><rect class="cls-4" x="5.71" y="22.59" width="1.05" height="18.32"/><rect class="cls-4" x="9.78" y="22.59" width="1.05" height="18.32"/><rect class="cls-5" x="50.09" y="18.2" width="90.5" height="59.33" rx="1.98"/><path class="cls-6" d="M85.85,32.69a14.53,14.53,0,0,0-4,6.22,14.39,14.39,0,0,0,3,5.06,3.87,3.87,0,0,1,1.61-2.13c1.63-.92,3.13.37,6.34.81a15.53,15.53,0,0,0,7.54-.86,14.15,14.15,0,0,0,4.76-3,13.63,13.63,0,0,0,2.43-3.21,14.3,14.3,0,0,0-21.73-2.86Zm16-.61a1,1,0,1,1-1,1A1,1,0,0,1,101.88,32.08Z"/><path class="cls-7" d="M84.88,31.56a15.18,15.18,0,0,1,7.69-2.85,14.66,14.66,0,0,1,3.53-.3,14.48,14.48,0,0,1,3.48.58c-.45-.35-6.75-5-14.33-2.34a15.82,15.82,0,0,0-9.4,9.8,2.22,2.22,0,0,0,1.36,2.36A2.24,2.24,0,0,0,80,37.61,15.25,15.25,0,0,1,84.88,31.56Z"/><path class="cls-8" d="M88.33,46.29a5.51,5.51,0,0,0,3.16-3.35l-2.17-.74a5.56,5.56,0,0,1-.07,2.08A5.48,5.48,0,0,1,88.33,46.29Z"/><path class="cls-9" d="M114.49,47.21a14.57,14.57,0,0,0-5.71-8.51,14.3,14.3,0,0,1-27.11.95,16.94,16.94,0,0,0,2.91,13.79c6.48,8.28,17.46,9.35,28.64,3.6A14.58,14.58,0,0,0,114.49,47.21Z"/><rect class="cls-4" x="80.95" y="66.51" width="28.79" height="2.57" rx="1.28"/></g></svg>