<svg xmlns="http://www.w3.org/2000/svg" viewBox="0 0 140.59 77.53"><defs><style>.cls-1{fill:#0170ba;}.cls-2{fill:#ecf0f1;}.cls-3{fill:#fe6c3b;}.cls-4{fill:#f8b984;}.cls-5{fill:#f64b4a;}</style></defs><title>icon-5</title><g id="Ãconos"><path class="cls-1" d="M116.23,62.06v5.42a1,1,0,0,1-1.74.76l-6.33-5.91a1.12,1.12,0,0,0-.7-.28l-29.54-.44a1,1,0,0,1-1-1v-33a1,1,0,0,1,1-1h49.72a1,1,0,0,1,1,1V60.83a1,1,0,0,1-1,1h-3.38"/><path d="M115.19,69.07a1.63,1.63,0,0,0,.64-.13,1.57,1.57,0,0,0,1-1.46V62.06a.54.54,0,0,0-.55-.55.55.55,0,0,0-.55.55v5.42a.48.48,0,0,1-.29.45.49.49,0,0,1-.53-.09l-6.33-5.91a1.6,1.6,0,0,0-1.06-.43l-29.54-.44a.49.49,0,0,1-.48-.49v-33a.48.48,0,0,1,.49-.48h49.72a.48.48,0,0,1,.49.48V60.83a.49.49,0,0,1-.49.49h-3.38a.55.55,0,0,0-.55.55.54.54,0,0,0,.55.55h3.38a1.59,1.59,0,0,0,1.59-1.59V27.57A1.6,1.6,0,0,0,127.66,26H77.94a1.59,1.59,0,0,0-1.59,1.59v33a1.59,1.59,0,0,0,1.56,1.59l29.55.44a.48.48,0,0,1,.32.13l6.33,5.91A1.56,1.56,0,0,0,115.19,69.07Z"/><circle class="cls-2" cx="117.73" cy="43.86" r="3.91"/><path d="M117.73,48.4a4.54,4.54,0,1,0-4.54-4.54A4.55,4.55,0,0,0,117.73,48.4Zm0-7.83a3.29,3.29,0,1,1-3.29,3.29A3.3,3.3,0,0,1,117.73,40.57Z"/><circle class="cls-2" cx="102.8" cy="43.86" r="3.91"/><path d="M102.8,48.4a4.54,4.54,0,1,0-4.54-4.54A4.55,4.55,0,0,0,102.8,48.4Zm0-7.83a3.29,3.29,0,1,1-3.29,3.29A3.3,3.3,0,0,1,102.8,40.57Z"/><circle class="cls-2" cx="87.87" cy="43.86" r="3.91"/><path d="M87.87,48.4a4.54,4.54,0,1,0-4.54-4.54A4.55,4.55,0,0,0,87.87,48.4Zm0-7.83a3.29,3.29,0,1,1-3.29,3.29A3.29,3.29,0,0,1,87.87,40.57Z"/><path class="cls-3" d="M67.43,39.63V45a1,1,0,0,0,1.74.75l6.29-5.87a1,1,0,0,1,.69-.28l29.38-.44a1,1,0,0,0,1-1V5.34a1,1,0,0,0-1-1H56.07a1,1,0,0,0-1,1V38.41a1,1,0,0,0,1,1h3.36"/><path d="M68.47,46.6a1.63,1.63,0,0,1-.64-.13,1.57,1.57,0,0,1-1-1.45V39.63a.55.55,0,0,1,1.1,0V45a.48.48,0,0,0,.81.35l6.3-5.87a1.57,1.57,0,0,1,1-.43l29.38-.44a.49.49,0,0,0,.48-.48V5.34a.49.49,0,0,0-.49-.49H56.07a.49.49,0,0,0-.49.49V38.41a.48.48,0,0,0,.49.48h3.36a.55.55,0,1,1,0,1.1H56.07a1.58,1.58,0,0,1-1.58-1.58V5.34a1.58,1.58,0,0,1,1.58-1.58h49.44a1.58,1.58,0,0,1,1.58,1.58V38.15a1.6,1.6,0,0,1-1.56,1.58l-29.37.44a.46.46,0,0,0-.33.13l-6.29,5.87A1.57,1.57,0,0,1,68.47,46.6Z"/><circle class="cls-2" cx="65.94" cy="21.53" r="3.89"/><path d="M65.94,26.05a4.52,4.52,0,1,1,4.52-4.52A4.52,4.52,0,0,1,65.94,26.05Zm0-7.79a3.27,3.27,0,1,0,3.27,3.27A3.28,3.28,0,0,0,65.94,18.26Z"/><circle class="cls-2" cx="80.79" cy="21.53" r="3.89"/><path d="M80.79,26.05a4.52,4.52,0,1,1,4.52-4.52A4.52,4.52,0,0,1,80.79,26.05Zm0-7.79a3.27,3.27,0,1,0,3.27,3.27A3.28,3.28,0,0,0,80.79,18.26Z"/><circle class="cls-2" cx="95.64" cy="21.53" r="3.89"/><path d="M95.64,26.05a4.52,4.52,0,1,1,4.51-4.52A4.53,4.53,0,0,1,95.64,26.05Zm0-7.79a3.27,3.27,0,1,0,3.27,3.27A3.27,3.27,0,0,0,95.64,18.26Z"/><path d="M43.63,67.08l-.15.3a.48.48,0,0,1-.27-.3Z"/><path d="M38.45,67.08a.45.45,0,0,1-.27.3l-.15-.3Z"/><path class="cls-4" d="M56.3,20.93c0,10.42-6.92,18.87-15.47,18.87S25.36,31.35,25.36,20.93,29,1.8,40.83,1.8C54.17,1.8,56.3,10.5,56.3,20.93Z"/><path d="M40.83,40.37c-8.85,0-16-8.72-16-19.44,0-12.89,5.55-19.71,16-19.71,14.1,0,16.05,9.47,16.05,19.71C56.88,31.65,49.68,40.37,40.83,40.37Zm0-38c-9.88,0-14.9,6.25-14.9,18.56,0,10.08,6.69,18.29,14.9,18.29S55.73,31,55.73,20.93C55.73,9.79,53.19,2.37,40.83,2.37Z"/><polygon class="cls-5" points="40.83 42.9 35.42 42.9 38.12 52.16 40.83 52.16 43.54 52.16 46.24 42.9 40.83 42.9"/><path d="M43.54,52.74H38.12a.58.58,0,0,1-.55-.42l-2.7-9.26a.58.58,0,0,1,.09-.51.59.59,0,0,1,.46-.23H46.24a.59.59,0,0,1,.46.23.58.58,0,0,1,.1.51l-2.71,9.26A.58.58,0,0,1,43.54,52.74Zm-5-1.15h4.55l2.37-8.12H36.19Z"/><path class="cls-1" d="M78.06,55.93c-5.15-8.56-25.4-13-25.4-13l-8.92,24v-13H37.93v13L29,42.89s-20.25,4.48-25.4,13,2.61,19.72,7,19.72H71C75.45,75.65,83.22,64.49,78.06,55.93ZM38.45,67.08a.38.38,0,0,0,0-.21V54.43h4.66V66.87a.38.38,0,0,0,.05.21h.42l-.15.3-1.25,2.54-.7,1.45a.77.77,0,0,1-1.38,0l-.72-1.45-1.25-2.54-.15-.3Z"/><path d="M78.56,55.63C73.34,47,53.62,42.52,52.79,42.33a.59.59,0,0,0-.67.37l-7.81,21V53.86a.58.58,0,0,0-.57-.58H37.93a.58.58,0,0,0-.58.58v9.81l-7.81-21a.58.58,0,0,0-.67-.37C28,42.52,8.33,47,3.1,55.63.57,59.84.74,65.34,3.57,70.36c2,3.5,4.82,5.86,7.06,5.86H71c2.24,0,5.07-2.36,7.06-5.86C80.92,65.34,81.09,59.84,78.56,55.63ZM71,75.07H10.63c-1.78,0-4.32-2.22-6.06-5.29C2,65.14,1.77,60.07,4.09,56.23,8.62,48.7,25.55,44.32,28.64,43.57l8.74,23.5a.59.59,0,0,0,.65.36.38.38,0,0,0,.15-.05l-.15-.3h.42a.38.38,0,0,0,0-.21V54.43h4.66V66.87a.38.38,0,0,0,.05.21h.42l-.15.3a.38.38,0,0,0,.15.05.59.59,0,0,0,.65-.36L53,43.57c3.09.75,20,5.13,24.55,12.66,2.32,3.84,2.14,8.91-.48,13.55C75.35,72.85,72.81,75.07,71,75.07Z"/><path class="cls-5" d="M43.48,67.38l-1.25,2.54-.7,1.45a.77.77,0,0,1-1.38,0l-.72-1.45-1.25-2.54a.45.45,0,0,0,.27-.3.38.38,0,0,0,0-.21V54.43h4.66V66.87a.38.38,0,0,0,.05.21A.48.48,0,0,0,43.48,67.38Z"/></g></svg>