<svg xmlns="http://www.w3.org/2000/svg" viewBox="0 0 140.59 77.53"><defs><style>.cls-1{fill:#ccd1d9;}.cls-2{fill:#ffaa01;}.cls-3{fill:#ce8400;}.cls-4{fill:#e02d4b;}.cls-5{fill:#d3002e;}.cls-6{fill:#c75d2d;}.cls-7{fill:#e6e9ed;}.cls-8{fill:#fcb435;}.cls-9{fill:#7daf35;}.cls-10{fill:#ffeaa7;}.cls-11{fill:#f8b984;}</style></defs><title>icon-3-03</title><g id="Ãconos"><path class="cls-1" d="M102,7.5V10a1.25,1.25,0,0,1-1.25,1.25H67.37a14.65,14.65,0,0,0-2.93-5l0,0h36.26A1.25,1.25,0,0,1,102,7.5Z"/><path class="cls-2" d="M74.48,11.25l2.5,15H68.23v-10a14.85,14.85,0,0,0-.86-5Z"/><path class="cls-2" d="M99.49,11.25l7.5,15H92l-5-15Z"/><path class="cls-3" d="M77,26.26l-2.5,5h-6.1a12,12,0,0,1-.15-1.91V26.26Z"/><path class="cls-3" d="M107,26.26l-2.5,5h-10l-2.5-5Z"/><path class="cls-4" d="M87,11.25l5,15H77l-2.5-15Z"/><path class="cls-5" d="M92,26.26l-2.5,5h-10l-2.5-5Z"/><path class="cls-1" d="M104.49,31.26V68.77h-30v-5h25V36.26H70.23a13.27,13.27,0,0,1-1.85-5h6.1l2.5-5,2.5,5h10l2.5-5,2.5,5Z"/><path class="cls-6" d="M57.75,17.51H52l-1.2-.4a3.8,3.8,0,0,1-2.54-3.36h0L46,14.87a5,5,0,0,0-2.77,4.47v9.42a7.51,7.51,0,0,0,7.51,7.5l-1.25,2.5a25.46,25.46,0,0,0-2.82.8,22.21,22.21,0,0,0-9.76,6.93l-1.85,2.69L34.76,49a6.27,6.27,0,0,1-1-9.63,14.13,14.13,0,0,0,4.43-10V16.26a15,15,0,0,1,26.22-10,14.65,14.65,0,0,1,2.93,5,14.85,14.85,0,0,1,.86,5V29.35a12,12,0,0,0,.15,1.91,13.27,13.27,0,0,0,1.85,5,15.84,15.84,0,0,0,2.43,3.08,6.27,6.27,0,0,1-1,9.63l-.31.17a22,22,0,0,0-11.59-9.58,25.92,25.92,0,0,0-2.81-.8l-1.25-2.5a7.5,7.5,0,0,0,7.5-7.5V22.51a5,5,0,0,0-5-5Z"/><path class="cls-7" d="M70.23,36.26a15.84,15.84,0,0,0,2.43,3.08,6.27,6.27,0,0,1-1,9.63l-.31.17a21.91,21.91,0,0,1,3.1,11.28v3.35h25V36.26Z"/><path class="cls-8" d="M94.49,41.26V63.77h-5V41.26Z"/><path class="cls-8" d="M89.49,46.27v17.5h-5V46.27Z"/><path class="cls-8" d="M79.48,51.27h5v12.5h-5Z"/><path class="cls-7" d="M58.23,51.27v10a2.51,2.51,0,0,0-2.5-2.5h-.22a2.47,2.47,0,0,0-1.77.74L52,61.27H45.72v-10H58.23Z"/><path class="cls-7" d="M58.23,68.77v7.51H45.72V68.77H58.23Z"/><path class="cls-9" d="M40.72,68.77h5v7.51h-5Z"/><path class="cls-9" d="M45.72,61.26H52v7.5H40.32A8.35,8.35,0,0,1,32,60.42a21.91,21.91,0,0,1,3.08-11.24l1.85-2.69a22.21,22.21,0,0,1,9.76-6.93l1.9,4.2h0L52,51.27H45.72Z"/><path class="cls-9" d="M71.38,49.14a21.91,21.91,0,0,1,3.1,11.28V76.28H58.23V68.77A3.76,3.76,0,0,0,62,65a3.76,3.76,0,0,0-3.75-3.75v-10H54.48l3.4-7.51h0l1.9-4.2A22,22,0,0,1,71.38,49.14Z"/><path class="cls-10" d="M57.88,43.76l-3.4,7.51H52l-3.41-7.51Z"/><path class="cls-11" d="M60.88,62.37a3.74,3.74,0,0,1,0,5.3,3.72,3.72,0,0,1-2.65,1.1H52v-7.5l1.76-1.76a2.47,2.47,0,0,1,1.77-.74h.22a2.51,2.51,0,0,1,2.5,2.5,3.77,3.77,0,0,1,2.65,1.1Z"/><path class="cls-11" d="M59.79,39.56l-1.9,4.2H48.56l-1.9-4.2a25.46,25.46,0,0,1,2.82-.8l1.25-2.5h5L57,38.76a25.92,25.92,0,0,1,2.81.8Z"/><path class="cls-11" d="M48.24,13.75a3.8,3.8,0,0,0,2.54,3.36l1.2.4h6.25a5,5,0,0,1,5,5v6.25a7.5,7.5,0,0,1-7.5,7.5h-5a7.51,7.51,0,0,1-7.51-7.5V19.34A5,5,0,0,1,46,14.87l2.23-1.12Z"/><path d="M50.73,28.46l-.14-.26-2.23,1.12.13.26a5.29,5.29,0,0,0,9.47,0l.14-.26L55.86,28.2l-.13.26a2.79,2.79,0,0,1-5,0Z"/><circle cx="58.23" cy="22.51" r="1.25"/><circle cx="48.22" cy="22.51" r="1.25"/><path d="M105.74,31.56l2.65-5.3-6.93-13.87A2.5,2.5,0,0,0,103.24,10V7.5a2.5,2.5,0,0,0-2.5-2.5H64.93A16.24,16.24,0,0,0,37,16.26V29.35a13,13,0,0,1-4,9.11,7.48,7.48,0,0,0,.53,11.08,23.18,23.18,0,0,0-2.73,10.88A9.6,9.6,0,0,0,39.47,70v7.55H75.73V70h30Zm-7-19.06L105,25H92.89L88.72,12.5Zm-12.63,0L90.25,25H78L76,12.5Zm-12.67,0L75.51,25h-6V16.26A16.61,16.61,0,0,0,69,12.5ZM69.48,29.35V27.51H75L73.71,30H69.52C69.5,29.79,69.48,29.57,69.48,29.35ZM90,27.51,88.72,30H80.26L79,27.51Zm15,0L103.72,30H95.26L94,27.51Zm-4.23-20V10H68.23A16.61,16.61,0,0,0,66.9,7.5ZM33.22,43.76a4.94,4.94,0,0,1,1.47-3.53,15.49,15.49,0,0,0,4.78-10.88V16.26a13.76,13.76,0,1,1,27.51,0V29.35a15.46,15.46,0,0,0,4.79,10.88,5,5,0,0,1-.07,7.13,23.45,23.45,0,0,0-13.87-9.69l-.19-.38a8.75,8.75,0,0,0,6.84-8.53V22.51a6.25,6.25,0,0,0-6.25-6.25h-.48a2.1,2.1,0,0,1-.91-.22,2,2,0,0,1-1.11-1.81v-.18a3.25,3.25,0,0,1,1.81-2.93L56.42,8.88a5.75,5.75,0,0,0-3.19,5.17v.18a4.5,4.5,0,0,0,2.5,4.05,4.55,4.55,0,0,0,2,.48h.48A3.75,3.75,0,0,1,62,22.51v6.25A6.26,6.26,0,0,1,55.73,35h-5a6.26,6.26,0,0,1-6.26-6.25V19.35A3.74,3.74,0,0,1,46.55,16l.86-.43a4.93,4.93,0,0,0,3,2.73l1.2.4.79-2.37-1.2-.4a2.49,2.49,0,0,1-.32-4.58l.43-.22L50.17,8.89l-.44.21A4.93,4.93,0,0,0,47,13l-1.59.79A6.23,6.23,0,0,0,42,19.35v9.41a8.75,8.75,0,0,0,6.84,8.53l-.19.38a23.46,23.46,0,0,0-13.86,9.68,4.94,4.94,0,0,1-1.54-3.59Zm50,18.76h-2.5v-10h2.5Zm5,0h-2.5v-15h2.5Zm5,0h-2.5v-20h2.5ZM88.24,40v5h-5v5h-5v12.5h-2.5v-2.1A23.18,23.18,0,0,0,73,49.54a7.5,7.5,0,0,0,.54-11.08,12.87,12.87,0,0,1-.87-1H98.24v25h-2.5V40ZM57,70v5H47V70Zm1.25-2.5h-5V61.79l1.4-1.4a1.22,1.22,0,0,1,.88-.37h.22A1.25,1.25,0,0,1,57,61.27v1.25h1.25a2.5,2.5,0,1,1,0,5ZM57,57.74a3.69,3.69,0,0,0-1.25-.22h-.22a3.72,3.72,0,0,0-2.65,1.1L51.46,60H47v-7.5H57ZM52.78,50l-2.27-5H56l-2.28,5Zm4.3-7.51H49.37l-1-2.17c.45-.13.9-.26,1.36-.36l.58-.12,1.18-2.35H55l1.18,2.35.58.13c.47.09.91.22,1.36.35ZM33.22,60.42A20.79,20.79,0,0,1,36.66,49l.08-.1h0A21,21,0,0,1,46,41.17L50,50H44.47V60H40.72v-.48A13.58,13.58,0,0,1,43,52l-2.08-1.39a16.13,16.13,0,0,0-2.71,9v.27c0,.53,0,1.06.08,1.59l.11,1.12H50.73v5H40.33a7.12,7.12,0,0,1-7.11-7.1ZM42,70h2.5v5H42Zm31.26,5H67V67.65L67.92,63a16,16,0,0,0,.31-3.16v-.27a16.13,16.13,0,0,0-2.71-9L63.44,52a13.58,13.58,0,0,1,2.29,7.57v.27a14.13,14.13,0,0,1-.26,2.67l-1,4.81,0,7.74h-5V69.85a5,5,0,0,0,0-9.66V50H56.42l4-8.85A21,21,0,0,1,73.23,60.42Zm2.5-7.5V65h25V35H71a12.71,12.71,0,0,1-1-2.5h5.31L77,29.05l1.73,3.46H90.26L92,29.06l1.73,3.45h9.52v35Z"/></g></svg>