<svg xmlns="http://www.w3.org/2000/svg" xmlns:xlink="http://www.w3.org/1999/xlink" viewBox="0 0 140.59 77.53"><defs><style>.cls-1{fill:#21201e;}.cls-2{fill:#e6e6e6;}.cls-3{fill:#656364;opacity:0.25;}.cls-4{fill:#fff;opacity:0.95;}.cls-5{fill:url(#Degradado_sin_nombre_4);}.cls-6{fill:url(#Degradado_sin_nombre_4-2);}.cls-7{fill:url(#Degradado_sin_nombre_4-3);}.cls-8{fill:url(#Degradado_sin_nombre_4-4);}.cls-9{fill:#ff9100;}.cls-10{fill:#c5322a;}.cls-11{fill:#0279a3;}</style><linearGradient id="Degradado_sin_nombre_4" x1="80.82" y1="65.05" x2="62.55" y2="26.46" gradientUnits="userSpaceOnUse"><stop offset="0" stop-color="#1e2349"/><stop offset="0.14" stop-color="#1e274e"/><stop offset="0.3" stop-color="#1f315b"/><stop offset="0.46" stop-color="#204371"/><stop offset="0.63" stop-color="#215c91"/><stop offset="0.81" stop-color="#237bb9"/><stop offset="0.98" stop-color="#26a2e9"/><stop offset="1" stop-color="#26a6ef"/></linearGradient><linearGradient id="Degradado_sin_nombre_4-2" x1="75.7" y1="67.47" x2="57.44" y2="28.88" xlink:href="#Degradado_sin_nombre_4"/><linearGradient id="Degradado_sin_nombre_4-3" x1="72.42" y1="69.02" x2="54.15" y2="30.43" xlink:href="#Degradado_sin_nombre_4"/><linearGradient id="Degradado_sin_nombre_4-4" x1="79.43" y1="65.7" x2="61.17" y2="27.11" xlink:href="#Degradado_sin_nombre_4"/></defs><title>icon-41</title><g id="Ãconos"><path class="cls-1" d="M114.54,16.15V70.52H19.45V16.15a2.78,2.78,0,0,1,2.68-2.87h89.73A2.79,2.79,0,0,1,114.54,16.15Z"/><path d="M114.54,71.14H19.45a.69.69,0,0,1-.74-.62V16.15a3.46,3.46,0,0,1,3.42-3.49h89.73a3.47,3.47,0,0,1,3.42,3.49V70.52A.69.69,0,0,1,114.54,71.14ZM20.18,69.9H113.8V16.15a2.14,2.14,0,0,0-1.94-2.25H22.13a2.14,2.14,0,0,0-1.95,2.25Z"/><path class="cls-2" d="M122.1,70.52c-.7,2.91-3.77,5.12-7.42,5.12H19.31c-3.66,0-6.73-2.21-7.43-5.12Z"/><path d="M114.68,76.26H19.31c-3.94,0-7.37-2.36-8.15-5.62a.55.55,0,0,1,.15-.52.81.81,0,0,1,.57-.22H122.1a.82.82,0,0,1,.58.22.57.57,0,0,1,.15.52C122,73.9,118.61,76.26,114.68,76.26ZM12.85,71.14A6.88,6.88,0,0,0,19.31,75h95.37a6.89,6.89,0,0,0,6.46-3.88Z"/><path class="cls-3" d="M77.46,70.93v.19A2.06,2.06,0,0,1,75.26,73H58.73a2.06,2.06,0,0,1-2.2-1.86v-.19a1.4,1.4,0,0,1,.06-.41H77.4A1.4,1.4,0,0,1,77.46,70.93Z"/><rect class="cls-4" x="24.33" y="17.44" width="85.34" height="48.6"/><path class="cls-5" d="M55.19,28.47a18.12,18.12,0,0,0-4.94,7.73A18.16,18.16,0,0,0,52.07,40,17.86,17.86,0,0,0,54,42.5a4.75,4.75,0,0,1,2-2.65c2-1.14,3.9.46,7.89,1a19.57,19.57,0,0,0,9.38-1.07A17.76,17.76,0,0,0,79.19,36a17.06,17.06,0,0,0,3-4,17.78,17.78,0,0,0-27-3.56Zm19.94-.76A1.29,1.29,0,1,1,73.84,29,1.28,1.28,0,0,1,75.13,27.71Z"/><path class="cls-6" d="M54,27.07a18.92,18.92,0,0,1,9.56-3.56,18.23,18.23,0,0,1,4.39-.36,17.31,17.31,0,0,1,4.32.72c-.55-.43-8.39-6.24-17.82-2.91C45.78,24,43,32.23,42.76,33.15a2.75,2.75,0,0,0,1.68,2.93,2.8,2.8,0,0,0,3.47-1.49A18.8,18.8,0,0,1,54,27.07Z"/><path class="cls-7" d="M58.28,45.38a6.8,6.8,0,0,0,3.92-4.16l-2.69-.92a6.8,6.8,0,0,1-1.23,5.08Z"/><path class="cls-8" d="M90.81,46.53A18.13,18.13,0,0,0,83.71,36,17.79,17.79,0,0,1,50,37.13a21.11,21.11,0,0,0,3.62,17.15c8.06,10.29,21.72,11.62,35.62,4.47A18.06,18.06,0,0,0,90.81,46.53Z"/><path class="cls-9" d="M129.15,1.56a103.83,103.83,0,0,1-10.84,15.73,173.88,173.88,0,0,1-12.67,13.89c-3.06,3-6.22,5.93-9.5,8.72a16.36,16.36,0,0,0-5.76-5.81q4.26-4.86,8.86-9.4a175.54,175.54,0,0,1,14-12.49A103.88,103.88,0,0,1,129.15,1.56Z"/><path d="M96.14,40.2h0a.32.32,0,0,1-.21-.15,16.15,16.15,0,0,0-5.65-5.7.3.3,0,0,1-.15-.21.29.29,0,0,1,.07-.24c2.78-3.17,5.77-6.34,8.88-9.42A173.51,173.51,0,0,1,113.09,12,105.22,105.22,0,0,1,129,1.3a.3.3,0,0,1,.35.05.32.32,0,0,1,0,.36,105.27,105.27,0,0,1-10.86,15.77,175.9,175.9,0,0,1-12.7,13.91c-3.17,3.13-6.38,6.07-9.51,8.74A.31.31,0,0,1,96.14,40.2ZM90.84,34a16.78,16.78,0,0,1,5.38,5.42c3-2.6,6.14-5.45,9.21-8.48A174.57,174.57,0,0,0,118.08,17.1,106.34,106.34,0,0,0,128.39,2.31a105.87,105.87,0,0,0-14.92,10.13,176.19,176.19,0,0,0-14,12.46C96.44,27.89,93.54,31,90.84,34Z"/><path class="cls-10" d="M96.14,39.9q-2.23,1.92-4.54,3.76A105.12,105.12,0,0,1,75.73,54.3,105.54,105.54,0,0,1,86.58,38.58c1.24-1.52,2.5-3,3.8-4.49A16.36,16.36,0,0,1,96.14,39.9Z"/><path d="M75.73,54.6a.3.3,0,0,1-.26-.44A106.82,106.82,0,0,1,86.35,38.39c1.21-1.48,2.49-3,3.8-4.49a.29.29,0,0,1,.38-.06,16.62,16.62,0,0,1,5.87,5.91.3.3,0,0,1-.06.38c-1.48,1.27-3,2.53-4.56,3.76A106.36,106.36,0,0,1,75.87,54.57.32.32,0,0,1,75.73,54.6ZM90.44,34.48c-1.25,1.43-2.47,2.88-3.63,4.29A108.63,108.63,0,0,0,76.49,53.55,108,108,0,0,0,91.41,43.42c1.47-1.17,2.94-2.37,4.35-3.58A16.13,16.13,0,0,0,90.44,34.48Z"/><path class="cls-11" d="M85.06,53.36c-2.44,2.33-18.43,2.92-16.67,2.43,3.59-1,6.69-6.12,8.21-9.14,2-4,6.7-3.32,8.94-.8S87.56,51,85.06,53.36Z"/><path d="M69.73,56.27a5.76,5.76,0,0,1-1.58-.12.35.35,0,0,1-.2-.32c0-.24.27-.3.36-.33,3.67-1,6.83-6.63,8-9a5.19,5.19,0,0,1,4-3,6.43,6.43,0,0,1,5.45,2.1c2.34,2.62,2.17,5.36-.5,7.92h0C83.37,55.39,73.64,56.27,69.73,56.27Zm-.21-.6h0c3.49,0,13.51-.8,15.32-2.53l.21.22-.21-.22c2.43-2.33,2.59-4.72.47-7.09a5.77,5.77,0,0,0-4.93-1.9,4.49,4.49,0,0,0-3.52,2.63C75.49,49.52,72.81,54.05,69.52,55.67Z"/></g></svg>