<svg xmlns="http://www.w3.org/2000/svg" viewBox="0 0 140.59 77.53"><defs><style>.cls-1{fill:#21201e;}.cls-2{fill:#e6e6e6;}.cls-3{fill:#656364;opacity:0.25;}.cls-4{fill:#0076c6;}.cls-5{fill:#ff9100;}.cls-6{fill:#e6f7ff;}.cls-7{fill:#89c6e5;}.cls-8{fill:#091f5b;}.cls-9{fill:#ffb000;}.cls-10{fill:#828282;}.cls-11{fill:#eceff1;}</style></defs><title>icon-6</title><g id="Ãconos"><path class="cls-1" d="M102.71,16.8V70.58H23.41V16.8c0-1.56,1-2.84,2.24-2.84h74.83C101.71,14,102.71,15.24,102.71,16.8Z"/><path d="M102.71,71.2H23.41a.61.61,0,0,1-.61-.62V16.8c0-1.9,1.28-3.45,2.85-3.45h74.83c1.57,0,2.85,1.55,2.85,3.45V70.58A.62.62,0,0,1,102.71,71.2ZM24,70H102.1V16.8c0-1.2-.74-2.22-1.62-2.22H25.65c-.88,0-1.62,1-1.62,2.22Z"/><path class="cls-2" d="M109,70.58a6.35,6.35,0,0,1-6.19,5.07H23.3a6.34,6.34,0,0,1-6.19-5.07Z"/><path d="M102.83,76.26H23.3a7,7,0,0,1-6.8-5.56.62.62,0,0,1,.13-.51.63.63,0,0,1,.48-.23H109a.63.63,0,0,1,.48.23.62.62,0,0,1,.12.51A7,7,0,0,1,102.83,76.26ZM17.91,71.2A5.73,5.73,0,0,0,23.3,75h79.53a5.71,5.71,0,0,0,5.38-3.83Z"/><path class="cls-3" d="M71.79,71v.2A1.84,1.84,0,0,1,70,73H56.17a1.83,1.83,0,0,1-1.83-1.83V71a2.71,2.71,0,0,1,0-.4H71.74A1.83,1.83,0,0,1,71.79,71Z"/><rect class="cls-4" x="27.48" y="18.08" width="71.16" height="48.08"/><polygon class="cls-5" points="63.43 53.74 32.08 28.4 47.75 15.18 63.43 1.96 79.11 15.18 94.79 28.4 63.43 53.74"/><path d="M63.43,54.44a.66.66,0,0,1-.44-.16L31.64,28.94a.7.7,0,0,1-.26-.54.69.69,0,0,1,.25-.53L63,1.43a.7.7,0,0,1,.9,0L95.24,27.87a.71.71,0,0,1,.24.53.69.69,0,0,1-.25.54L63.87,54.28A.68.68,0,0,1,63.43,54.44Zm-30.26-26L63.43,52.85,93.7,28.39,63.43,2.87Z"/><polygon class="cls-6" points="90.18 14.22 90.18 61.28 36.68 61.28 36.68 2.17 78.13 2.17 83.84 7.88 90.18 14.22"/><path d="M90.18,62.11H36.68a.83.83,0,0,1-.83-.83V2.18a.83.83,0,0,1,.83-.83H78.13a.82.82,0,0,1,.59.24l12,12.05a.82.82,0,0,1,.24.59V61.28A.83.83,0,0,1,90.18,62.11ZM37.51,60.45H89.36V14.57L77.79,3H37.51Z"/><polygon class="cls-7" points="78.13 14.22 78.13 2.17 84.48 8.52 90.18 14.22 78.13 14.22"/><path d="M90.18,15.05H78.13a.83.83,0,0,1-.83-.82v-12a.84.84,0,0,1,.52-.77.82.82,0,0,1,.9.18l12,12.05a.82.82,0,0,1,.18.9A.83.83,0,0,1,90.18,15.05ZM79,13.4h9.22L79,4.18Z"/><rect class="cls-8" x="46.5" y="19.52" width="33.87" height="3.32" rx="1.66"/><rect class="cls-8" x="46.5" y="26.55" width="33.87" height="3.32" rx="1.66"/><rect class="cls-8" x="46.5" y="33.59" width="33.87" height="3.32" rx="1.66"/><rect class="cls-8" x="46.5" y="40.62" width="33.87" height="3.32" rx="1.66"/><polygon class="cls-9" points="94.79 28.4 94.79 63.62 32.08 63.62 32.08 28.4 32.45 28.4 47.95 41.53 63.42 54.67 78.92 41.53 94.4 28.4 94.79 28.4"/><path d="M94.79,64.32H32.08a.7.7,0,0,1-.7-.7V28.4a.7.7,0,0,1,.7-.7h.37a.7.7,0,0,1,.45.17L63.42,53.76,94,27.87a.68.68,0,0,1,.45-.17h.39a.69.69,0,0,1,.69.7V63.62A.69.69,0,0,1,94.79,64.32Zm-62-1.39H94.09V29.57L63.87,55.2a.68.68,0,0,1-.89,0L32.77,29.58Z"/><polygon class="cls-9" points="63.43 63.62 32.46 63.62 47.94 50.48 63.43 37.35 78.92 50.48 94.4 63.62 63.43 63.62"/><path d="M94.4,64.32H32.46A.7.7,0,0,1,32,63.09L63,36.82a.7.7,0,0,1,.9,0l31,26.27a.7.7,0,0,1,.2.77A.69.69,0,0,1,94.4,64.32Zm-60-1.39H92.51L63.43,38.26Z"/><path class="cls-10" d="M101.49,50.77a5.51,5.51,0,0,1,1.2-4.12,5,5,0,0,1,2-1.41,7.24,7.24,0,0,0,4.09-5.4,5.67,5.67,0,0,1-.34,4.19,5.37,5.37,0,0,1-1.64,1.88,6.28,6.28,0,0,0-2.07,4.86Z"/><path d="M104.75,51h-3.26a.25.25,0,0,1-.24-.23,5.66,5.66,0,0,1,1.25-4.3A5.32,5.32,0,0,1,104.62,45a7,7,0,0,0,3.94-5.21.26.26,0,0,1,.23-.21.24.24,0,0,1,.25.18,6,6,0,0,1-.35,4.37,5.63,5.63,0,0,1-1.73,2,6.21,6.21,0,0,0-1.48,2.09,6.08,6.08,0,0,0-.48,2.56.29.29,0,0,1-.07.18A.25.25,0,0,1,104.75,51Zm-3-.5h2.78a6.63,6.63,0,0,1,2.15-4.8,5.08,5.08,0,0,0,1.59-1.81,5.26,5.26,0,0,0,.54-2.91,7.55,7.55,0,0,1-4,4.47,4.83,4.83,0,0,0-1.93,1.34A5.21,5.21,0,0,0,101.72,50.52Z"/><path class="cls-10" d="M107.12,50.77H110a3.38,3.38,0,0,1-.15-1.35,2.29,2.29,0,0,1,.23-1,5.19,5.19,0,0,0,.72-1.78,4.28,4.28,0,0,0-.54-2.77,4.06,4.06,0,0,1-1.36,3.47,4.29,4.29,0,0,0-.68.58A4.41,4.41,0,0,0,107.12,50.77Z"/><path d="M110,51h-2.84a.23.23,0,0,1-.18-.08.21.21,0,0,1-.07-.18,4.61,4.61,0,0,1,1.13-3,3.92,3.92,0,0,1,.72-.62A3.78,3.78,0,0,0,110,43.9a.24.24,0,0,1,.17-.26.24.24,0,0,1,.29.11,4.52,4.52,0,0,1,.58,2.93,4.4,4.4,0,0,1-.61,1.61l-.14.25a2.14,2.14,0,0,0-.2.9,3.3,3.3,0,0,0,.13,1.25.27.27,0,0,1,0,.23A.26.26,0,0,1,110,51Zm-2.58-.5h2.25a3.82,3.82,0,0,1-.07-1.12,2.4,2.4,0,0,1,.26-1.09c0-.09.09-.18.14-.27a3.59,3.59,0,0,0,.55-1.43,4,4,0,0,0-.08-1.57,4.86,4.86,0,0,1-.25.87A4.24,4.24,0,0,1,109,47.53a4.57,4.57,0,0,0-.65.57A4.06,4.06,0,0,0,107.38,50.52Z"/><path class="cls-11" d="M123.17,58.9a3.68,3.68,0,0,0-.91-1.27,4.72,4.72,0,0,0-1.57-.91,4.14,4.14,0,0,0-1.36-.29h-3.87V53.71A1.43,1.43,0,0,0,114,52.29H97.28a1.43,1.43,0,0,0-1.43,1.42V74.46a1.44,1.44,0,0,0,1.43,1.43H114a1.44,1.44,0,0,0,1.43-1.43v-4.3a10.45,10.45,0,0,0,5.89-3.26,8.84,8.84,0,0,0,2.37-5.78A6.09,6.09,0,0,0,123.17,58.9Zm-2.26,3.59a8.25,8.25,0,0,1-5.45,5V59.2l3.93,0a1.65,1.65,0,0,1,1.08.53A2.54,2.54,0,0,1,120.91,62.49Z"/><path d="M114,76.26H97.28a1.81,1.81,0,0,1-1.8-1.8V53.71a1.81,1.81,0,0,1,1.8-1.8H114a1.81,1.81,0,0,1,1.8,1.8v2.34h3.5a4.67,4.67,0,0,1,1.49.32,4.89,4.89,0,0,1,1.68,1,3.92,3.92,0,0,1,1,1.38h0a6.51,6.51,0,0,1,.58,2.37,9.16,9.16,0,0,1-2.46,6.05,10.78,10.78,0,0,1-5.8,3.32v4A1.81,1.81,0,0,1,114,76.26ZM97.28,52.66a1,1,0,0,0-1,1.05V74.46a1,1,0,0,0,1,1.05H114a1,1,0,0,0,1-1.05v-4.3a.38.38,0,0,1,.31-.37,10,10,0,0,0,5.67-3.14,8.44,8.44,0,0,0,2.29-5.51,6,6,0,0,0-.51-2.07h0a3.27,3.27,0,0,0-.81-1.14,4.1,4.1,0,0,0-1.47-.85,3.5,3.5,0,0,0-1.27-.28h-3.83a.37.37,0,0,1-.38-.37V53.71a1,1,0,0,0-1-1.05Zm18.18,15.17a.39.39,0,0,1-.23-.07.38.38,0,0,1-.15-.3V59.2a.39.39,0,0,1,.11-.27.31.31,0,0,1,.27-.11l3.93,0a2,2,0,0,1,1.33.63,2.91,2.91,0,0,1,.54,3.15h0a8.63,8.63,0,0,1-5.7,5.19Zm.37-8.26v7.37a7.91,7.91,0,0,0,4.73-4.58,2.18,2.18,0,0,0-.35-2.34,1.29,1.29,0,0,0-.84-.43Zm5.08,2.92h0Z"/></g></svg>