<svg xmlns="http://www.w3.org/2000/svg" viewBox="0 0 140.59 77.53"><defs><style>.cls-1{fill:#e02d4b;}.cls-2{fill:#ffaa01;}.cls-3{fill:#0ed2b3;}.cls-4{fill:#005ac6;}.cls-5{fill:#e8edf2;}.cls-6{fill:#c5d3dd;}.cls-7{fill:#01c0fa;}.cls-8{fill:#0290cf;}</style></defs><title>icon-2-03</title><g id="Ãconos"><path class="cls-1" d="M54.1,66.51v3.77a1.32,1.32,0,0,0,1.32,1.32h48.79a1.32,1.32,0,0,0,1.32-1.32V66.51a1.32,1.32,0,0,0-1.32-1.32H55.42a1.32,1.32,0,0,0-1.32,1.32Z"/><path class="cls-2" d="M54.1,66.51v3.77a1.32,1.32,0,0,0,1.32,1.32h36.5a1.32,1.32,0,0,0,1.32-1.32V66.51a1.32,1.32,0,0,0-1.32-1.32H55.42a1.32,1.32,0,0,0-1.32,1.32Z"/><path class="cls-3" d="M30.34,66.44v3.9A1.26,1.26,0,0,0,31.6,71.6H44.94a1.26,1.26,0,0,0,1.26-1.26v-3.9a1.26,1.26,0,0,0-1.26-1.25H31.6A1.26,1.26,0,0,0,30.34,66.44Z"/><path class="cls-4" d="M74.64,58.85,72.7,60.48a2.19,2.19,0,0,1-2.79,0L68,58.85a1.08,1.08,0,0,1-.39-.83v-5A1.08,1.08,0,0,1,68.67,52H74A1.08,1.08,0,0,1,75,53.06v5a1.08,1.08,0,0,1-.39.83Z"/><path class="cls-5" d="M100.48,45.57H35.4a5.06,5.06,0,0,1-5.06-5V6.46a5.06,5.06,0,0,1,5.06-5h65.08a5,5,0,0,1,5,5.05V40.52a5,5,0,0,1-5,5Z"/><path class="cls-6" d="M100.48,1.41h-4.3a5,5,0,0,1,5,5.05V40.52a5,5,0,0,1-5,5h4.3a5,5,0,0,0,5-5V6.46A5,5,0,0,0,100.48,1.41Z"/><circle class="cls-7" cx="88.05" cy="22.07" r="6.21"/><path class="cls-8" d="M91.38,16.83a6.12,6.12,0,0,1,.51,2.46,6.21,6.21,0,0,1-9.54,5.25,6.21,6.21,0,1,0,9-7.71Z"/><path d="M104.21,63.84H72.65V62.06a3.93,3.93,0,0,0,.92-.55l1.94-1.63A2.42,2.42,0,0,0,76.38,58v-5A2.45,2.45,0,0,0,74,50.63H68.67a2.44,2.44,0,0,0-2.43,2.43v5a2.42,2.42,0,0,0,.87,1.86l1.94,1.63a3.74,3.74,0,0,0,.92.55v1.78H55.41a2.67,2.67,0,0,0-2.65,2.67v3.77a2.66,2.66,0,0,0,2.65,2.66H70v3.23a1.34,1.34,0,1,0,2.68,0V72.94h31.56a2.66,2.66,0,0,0,2.66-2.66V66.51A2.67,2.67,0,0,0,104.21,63.84ZM55.45,70.25V66.53H70v3.72Zm16.39-10.8a.88.88,0,0,1-.53.19h0a.85.85,0,0,1-.52-.19l-1.85-1.56V53.32h4.76v4.57Zm20,10.8H72.65V66.53H91.89Zm12.3,0H94.58V66.53h9.61Z"/><path d="M44.94,63.84H31.6a2.61,2.61,0,0,0-2.6,2.6v3.91a2.6,2.6,0,0,0,2.6,2.59H44.94a2.61,2.61,0,0,0,2.61-2.59V66.44A2.62,2.62,0,0,0,44.94,63.84Zm-.09,6.41H31.68V66.53H44.85Z"/><path d="M100.48.07H35.4A6.4,6.4,0,0,0,29,6.46V40.52a6.4,6.4,0,0,0,6.4,6.39h9.09a1.34,1.34,0,0,0,0-2.68H35.4a3.72,3.72,0,0,1-3.71-3.71V6.46a3.71,3.71,0,0,1,3.71-3.7h65.08a3.7,3.7,0,0,1,3.7,3.7V40.52a3.71,3.71,0,0,1-3.7,3.71H49.86a1.34,1.34,0,0,0,0,2.68h50.62a6.4,6.4,0,0,0,6.39-6.39V6.46A6.4,6.4,0,0,0,100.48.07Z"/><path d="M95.61,22.07a7.56,7.56,0,1,0-7.56,7.56A7.57,7.57,0,0,0,95.61,22.07Zm-12.43,0a4.87,4.87,0,1,1,4.87,4.87A4.87,4.87,0,0,1,83.18,22.07Z"/><path d="M76.12,19.3a18.33,18.33,0,0,0-13.34,5.8A24.75,24.75,0,0,0,41.36,12.78a1.35,1.35,0,0,0,0,2.69,22,22,0,0,1,12,3.5,22.35,22.35,0,0,1,8,9.1,1.35,1.35,0,0,0,2.29.22A15.65,15.65,0,0,1,76.12,22a1.34,1.34,0,1,0,0-2.68Z"/><path d="M76.12,24.9A12.66,12.66,0,0,0,63.9,34.22a1.36,1.36,0,0,0,.94,1.65,1.49,1.49,0,0,0,.36.05,1.34,1.34,0,0,0,1.29-1,10,10,0,0,1,4.05-5.64,9.9,9.9,0,0,1,5.58-1.71,1.34,1.34,0,1,0,0-2.68Z"/><path d="M41.36,21.07A16.51,16.51,0,0,1,57.62,34.8a1.35,1.35,0,0,0,1.32,1.12l.23,0a1.34,1.34,0,0,0,1.1-1.55,19.2,19.2,0,0,0-18.91-16,1.35,1.35,0,0,0,0,2.69Z"/></g></svg>