<svg xmlns="http://www.w3.org/2000/svg" viewBox="0 0 140.59 77.53"><defs><style>.cls-1{fill:#d1d2d4;}.cls-2{fill:#0076c6;}.cls-3{fill:#e6e6e6;}.cls-4{fill:#656364;opacity:0.15;}.cls-10,.cls-5{fill:#ffa300;}.cls-6,.cls-9{fill:#ff0;}.cls-6{opacity:0.5;}.cls-7{fill:#e5e5e5;}.cls-8{fill:#fff;}.cls-9{opacity:0.72;}.cls-10{opacity:0.96;}.cls-11{fill:#bb0300;}.cls-12{fill:#e6e7e9;}.cls-13{fill:#aea5a8;}.cls-14{fill:#fe0000;}.cls-15{fill:#26a0e3;}.cls-16{fill:#f7df1e;}.cls-17{fill:#0170ba;}.cls-18{fill:#e44d26;}</style></defs><title>icon-3</title><g id="Ãconos"><polygon class="cls-1" points="89.19 74.31 67.39 74.31 69.73 64.55 86.85 64.55 89.19 74.31"/><path d="M89.19,74.56H67.39a.24.24,0,0,1-.19-.1.23.23,0,0,1,0-.21l2.33-9.76a.26.26,0,0,1,.25-.2H86.85a.26.26,0,0,1,.25.2l2.33,9.76a.26.26,0,0,1,0,.21A.28.28,0,0,1,89.19,74.56Zm-21.48-.51H88.87L86.65,64.8H69.93Z"/><path class="cls-2" d="M116,15.42V55.67H40.57V15.42a2.14,2.14,0,0,1,2.13-2.13h71.18A2.13,2.13,0,0,1,116,15.42Z"/><path class="cls-3" d="M94.79,73.14a2,2,0,0,1-2,1.94H63.74a1.94,1.94,0,0,1-1.66-3H94.5A2,2,0,0,1,94.79,73.14Z"/><path d="M92.84,75.34H63.74A2.2,2.2,0,0,1,61.86,72a.27.27,0,0,1,.22-.12H94.5a.27.27,0,0,1,.22.12A2.18,2.18,0,0,1,95,73.14,2.21,2.21,0,0,1,92.84,75.34Zm-30.61-3a1.7,1.7,0,0,0-.18.76,1.63,1.63,0,0,0,.5,1.19,1.67,1.67,0,0,0,1.19.5h29.1a1.69,1.69,0,0,0,1.69-1.69,1.83,1.83,0,0,0-.17-.76Z"/><path class="cls-3" d="M116,55.67V63.5a2.13,2.13,0,0,1-2.13,2.12H42.7a2.13,2.13,0,0,1-2.13-2.12V55.67Z"/><path d="M113.88,65.88H42.7a2.39,2.39,0,0,1-2.38-2.38V55.67a.25.25,0,0,1,.25-.25H116a.25.25,0,0,1,.25.25V63.5A2.38,2.38,0,0,1,113.88,65.88Zm-73.06-10V63.5a1.88,1.88,0,0,0,1.88,1.87h71.18a1.88,1.88,0,0,0,1.88-1.87V55.92Z"/><circle class="cls-4" cx="78.29" cy="60.65" r="2.3"/><path class="cls-5" d="M78.19,19.81,81.4,20a137.87,137.87,0,0,1-.82,17.27,94.28,94.28,0,0,1-2.86,15.11,128.76,128.76,0,0,1-2.33-16.72c-.49-6.44-.49-12-.4-15.94Z"/><path d="M77.91,52.9c-.06.15-.13.23-.21.22s-.17-.16-.22-.38a130.92,130.92,0,0,1-2.35-17,160.4,160.4,0,0,1-.41-16.16c0-.42.13-.74.28-.74l6.4.28c.14,0,.26.34.27.76a138.45,138.45,0,0,1-.83,17.55,95.69,95.69,0,0,1-2.91,15.36A.64.64,0,0,0,77.91,52.9ZM75.25,20.47c-.1,5,0,10.07.41,15a128,128,0,0,0,2.09,15.5,95.22,95.22,0,0,0,2.57-14,133.07,133.07,0,0,0,.81-16.25Z"/><path class="cls-6" d="M78.12,21.93l2.68-.07A57.51,57.51,0,0,1,80.25,32,42.28,42.28,0,0,1,78,41a53.53,53.53,0,0,1-2.07-9.7A65.2,65.2,0,0,1,75.45,22Z"/><path class="cls-7" d="M97.78,24.79a2.19,2.19,0,1,1,.77-4.3,2.26,2.26,0,0,1,.82-1.74,2.17,2.17,0,0,1,1.58-.42,3.72,3.72,0,0,1,7.19.07,2.17,2.17,0,0,1,1.56.37,2.22,2.22,0,0,1,.87,1.76,2.34,2.34,0,0,1,2.75,2.11,2.29,2.29,0,0,1-2.13,2.15Z"/><path class="cls-7" d="M45.68,30.61a2,2,0,1,1,.7-3.9,1.92,1.92,0,0,1,2.17-2,3.37,3.37,0,0,1,6.51.07,2,2,0,0,1,1.41.33,2,2,0,0,1,.79,1.6,2.11,2.11,0,0,1,2.49,1.91,2.08,2.08,0,0,1-1.93,1.95Z"/><path class="cls-8" d="M53.24,31.92a1.57,1.57,0,1,1,.55-3.08,1.59,1.59,0,0,1,.59-1.24,1.56,1.56,0,0,1,1.13-.31,2.66,2.66,0,0,1,5.14.06,1.52,1.52,0,0,1,1.12.26,1.59,1.59,0,0,1,.62,1.26,1.68,1.68,0,0,1,2,1.51,1.65,1.65,0,0,1-1.53,1.54Z"/><path class="cls-8" d="M92.27,27.11a1.73,1.73,0,1,1,.61-3.4,1.76,1.76,0,0,1,.65-1.37A1.78,1.78,0,0,1,94.78,22a2.94,2.94,0,0,1,5.68.06,1.69,1.69,0,0,1,1.24.29,1.76,1.76,0,0,1,.68,1.39,1.85,1.85,0,0,1,2.18,1.67,1.82,1.82,0,0,1-1.69,1.7Z"/><path class="cls-9" d="M74,53.22a4.63,4.63,0,0,1-.72,2.45c-.12.19-.25.37-.39.55a3.45,3.45,0,0,0-.07-.55H40.57V44.12l.18-.15a5.19,5.19,0,0,1,3.76-1,8.85,8.85,0,0,1,17.11.18,5.09,5.09,0,0,1,3.72.86,5.34,5.34,0,0,1,2.07,4.2,5.84,5.84,0,0,1,5.31,1.9A4.77,4.77,0,0,1,74,53.22Z"/><path class="cls-9" d="M109.76,53.77a3.19,3.19,0,0,1-.76,2,5.76,5.76,0,0,1-.42.45,1.76,1.76,0,0,0-.07-.45H74.44V46.33l.2-.12a6.88,6.88,0,0,1,4-.83c1.14-3.16,4.93-5.35,9.17-5.3s7.89,2.3,8.94,5.45a6.71,6.71,0,0,1,3.93.71,4,4,0,0,1,2.19,3.43,7.27,7.27,0,0,1,5.62,1.55A3.5,3.5,0,0,1,109.76,53.77Z"/><path class="cls-9" d="M116,35.16V55.67H95.28a5.54,5.54,0,0,1-1.08-1.14s0,0,0,0a5.29,5.29,0,0,1-1-2.87,4.37,4.37,0,0,1,.16-1.39A4.77,4.77,0,0,1,93.89,49a5.52,5.52,0,0,1,5.86-2.41,5.48,5.48,0,0,1,.54-2.4,4.87,4.87,0,0,1,3.2-2.62,5.16,5.16,0,0,1,2-.13,8.39,8.39,0,0,1,1-2.25,8.87,8.87,0,0,1,7.68-4.24A8.59,8.59,0,0,1,116,35.16Z"/><path class="cls-10" d="M72.78,55.67H40.57V51.94a4.68,4.68,0,0,1,1.86,0,4.57,4.57,0,0,1,1.68-3.58,4.47,4.47,0,0,1,3.25-.88,7.66,7.66,0,0,1,14.81.16,4.39,4.39,0,0,1,3.22.75,4.54,4.54,0,0,1,1.79,3.63,5.06,5.06,0,0,1,2.73.31A4.72,4.72,0,0,1,72.78,55.67Z"/><path class="cls-10" d="M98.28,55.67h-25c-.12.19-.25.37-.39.55a3.45,3.45,0,0,0-.07-.55h-7.7a4.79,4.79,0,0,1,4.36-1.22,4.72,4.72,0,0,1,.47-2.08,4.16,4.16,0,0,1,1.21-1.5,4.26,4.26,0,0,1,1.6-.77A4.72,4.72,0,0,1,74.37,50a7.66,7.66,0,0,1,14.81.16,4.46,4.46,0,0,1,3.19.72l0,0a4,4,0,0,1,.78.74,4.81,4.81,0,0,1,1,2.87v0h0A5.1,5.1,0,0,1,98.28,55.67Z"/><path class="cls-10" d="M88.73,52.46h-25a4,4,0,0,1-.39.55,2.59,2.59,0,0,0-.07-.55h-7.7a4.83,4.83,0,0,1,4.36-1.22,4.9,4.9,0,0,1,.48-2.07,4.18,4.18,0,0,1,1.21-1.51,4.38,4.38,0,0,1,1.59-.77,4.73,4.73,0,0,1,1.65-.11,7.67,7.67,0,0,1,14.82.16,4.44,4.44,0,0,1,3.18.72l0,0a4,4,0,0,1,.79.74,4.73,4.73,0,0,1,1,2.88h0A5.1,5.1,0,0,1,88.73,52.46Z"/><path class="cls-10" d="M110.62,52.31h-25a4.91,4.91,0,0,1-.38.55,5.17,5.17,0,0,0-.07-.55h-7.7a4.81,4.81,0,0,1,4.35-1.22A4.9,4.9,0,0,1,82.26,49a4.18,4.18,0,0,1,1.21-1.51,4.42,4.42,0,0,1,1.6-.77,4.67,4.67,0,0,1,1.64-.11,7.67,7.67,0,0,1,14.82.16,4.47,4.47,0,0,1,3.19.72l0,0a3.76,3.76,0,0,1,.79.74,4.84,4.84,0,0,1,1,2.88h0A5.09,5.09,0,0,1,110.62,52.31Z"/><path class="cls-10" d="M116,42.45V55.67H93.62a4.39,4.39,0,0,1-1.4-4.35,4,4,0,0,1,.15-.45A4.19,4.19,0,0,1,93.89,49a4.63,4.63,0,0,1,3.68-.73,4.46,4.46,0,0,1,.35-1.78,4.06,4.06,0,0,1,1.27-1.69,4.19,4.19,0,0,1,1.1-.61,4.45,4.45,0,0,1,2-.23,7.18,7.18,0,0,1,1.16-2.39,7.41,7.41,0,0,1,2.94-2.38,7.27,7.27,0,0,1,3.15-.66A7.45,7.45,0,0,1,116,42.45Z"/><path d="M115.65,56.28H40.93a.61.61,0,0,1-.61-.61V15.42A2.73,2.73,0,0,1,43,12.68h70.51a2.73,2.73,0,0,1,2.71,2.74V55.67A.61.61,0,0,1,115.65,56.28ZM41.54,55.05h73.51V15.42a1.51,1.51,0,0,0-1.5-1.51H43a1.51,1.51,0,0,0-1.5,1.51Z"/><polygon class="cls-11" points="69.69 24.97 67.08 29.4 66.89 41.23 69.4 41.23 73.96 34.72 71.11 24.93 69.69 24.97"/><path d="M69.59,41.43a.26.26,0,0,1-.19.07H66.9a.27.27,0,0,1-.28-.28l.18-11.83a.2.2,0,0,1,0-.13l2.61-4.43a.27.27,0,0,1,.23-.14l1.42,0a.29.29,0,0,1,.28.2l2.85,9.79a.26.26,0,0,1,0,.23l-4.56,6.52S69.6,41.41,69.59,41.43ZM67.17,41h2.09l4.4-6.28-2.75-9.46-1.07,0-2.49,4.23Z"/><polygon class="cls-11" points="87.17 25.07 89.69 29.56 89.62 41.39 87.11 41.34 82.69 34.73 85.74 25 87.17 25.07"/><path d="M89.81,41.58a.24.24,0,0,1-.2.08l-2.5,0a.27.27,0,0,1-.22-.12l-4.43-6.61a.23.23,0,0,1,0-.23l3-9.73a.27.27,0,0,1,.28-.19l1.42.07a.25.25,0,0,1,.23.14l2.52,4.48a.32.32,0,0,1,0,.14L89.9,41.39a.34.34,0,0,1-.09.19Zm-2.55-.51,2.09,0,.06-11.48L87,25.34l-1.06-.05-3,9.4Z"/><path class="cls-12" d="M82.49,35.28l-.07.26-4.11,0h-.16L74,35.41,74,35.15c-3.46-9.22-3.76-11.52-3-18.52a24.33,24.33,0,0,1,3.18-8.58,51.35,51.35,0,0,1,4.47-6.59l.1-.12.09.12a51.41,51.41,0,0,1,4.26,6.72A24.12,24.12,0,0,1,86,16.86C86.61,23.89,86.23,26.17,82.49,35.28Z"/><path d="M82.61,35.74a.32.32,0,0,1-.19.07l-4.08,0h-.23L74,35.68a.26.26,0,0,1-.26-.21l-.06-.24c-3.4-9.07-3.79-11.51-3-18.63A24,24,0,0,1,74,7.91a51.52,51.52,0,0,1,4.5-6.63l.06-.08,0,0a.28.28,0,0,1,.22-.11.39.39,0,0,1,.22.11l0,0,.07.1a50.87,50.87,0,0,1,4.29,6.76,23.73,23.73,0,0,1,2.94,8.78c.59,7.14.13,9.57-3.55,18.53l-.06.24A.35.35,0,0,1,82.61,35.74Zm-4.32-.51h0l3.89,0,0,0s0,0,0,0c3.68-9,4.1-11.18,3.51-18.28a23.47,23.47,0,0,0-2.88-8.58,50.54,50.54,0,0,0-4.12-6.52,51.24,51.24,0,0,0-4.32,6.39,23.33,23.33,0,0,0-3.14,8.48c-.81,7.09-.45,9.32,2.95,18.39,0,0,0,0,0,0v.06l3.9.08h.13Z"/><path class="cls-11" d="M83.11,8.18a9.51,9.51,0,0,1-4.48,1,9.62,9.62,0,0,1-4.44-1.17,51.35,51.35,0,0,1,4.47-6.59l.1-.12.09.12A51.41,51.41,0,0,1,83.11,8.18Z"/><path d="M83.3,8.38l-.06,0a9.82,9.82,0,0,1-4.61,1.06,9.82,9.82,0,0,1-4.57-1.2.28.28,0,0,1-.13-.17.31.31,0,0,1,0-.21,51.52,51.52,0,0,1,4.5-6.63l.06-.08,0,0a.29.29,0,0,1,.22-.11.39.39,0,0,1,.22.11l0,0,.07.1a50.87,50.87,0,0,1,4.29,6.76.26.26,0,0,1,0,.21A.19.19,0,0,1,83.3,8.38Zm-8.73-.44a9.23,9.23,0,0,0,4.07,1,9.2,9.2,0,0,0,4.1-.88,51,51,0,0,0-4-6.27A51.59,51.59,0,0,0,74.57,7.94Z"/><polygon class="cls-13" points="74.04 35.41 74.94 36.53 81.44 36.63 82.42 35.54 74.04 35.41"/><path d="M81.63,36.82a.27.27,0,0,1-.19.08l-6.51-.1a.28.28,0,0,1-.21-.1l-.89-1.12a.26.26,0,0,1,0-.29.26.26,0,0,1,.25-.16l8.38.13a.27.27,0,0,1,.24.17.26.26,0,0,1,0,.29l-1,1.09Zm-6.56-.57,6.25.1.49-.55-7.19-.11Z"/><rect class="cls-14" x="77.82" y="24.97" width="0.87" height="16.31" transform="translate(0.51 -1.19) rotate(0.87)"/><path d="M78.76,41.48a.28.28,0,0,1-.2.08l-.86,0a.26.26,0,0,1-.27-.28L77.67,25a.28.28,0,0,1,.28-.27h.87a.27.27,0,0,1,.19.08.28.28,0,0,1,.08.2l-.25,16.31A.27.27,0,0,1,78.76,41.48ZM78,41h.32l.24-15.76h-.32Z"/><circle class="cls-11" cx="78.52" cy="16.05" r="3.56"/><path d="M81.18,18.8a3.83,3.83,0,1,1,.09-5.42A3.83,3.83,0,0,1,81.18,18.8Zm-5-5.11a3.28,3.28,0,1,0,4.64.07A3.29,3.29,0,0,0,76.23,13.69Z"/><circle class="cls-15" cx="78.52" cy="16.05" r="2.64"/><path d="M80.55,18.14A2.91,2.91,0,1,1,80.61,14,2.92,2.92,0,0,1,80.55,18.14Zm-3.68-3.79a2.37,2.37,0,1,0,3.34.05A2.38,2.38,0,0,0,76.87,14.35Z"/><circle class="cls-8" cx="78.97" cy="14.76" r="0.72"/><path d="M79.67,15.48a1,1,0,1,1,0-1.41A1,1,0,0,1,79.67,15.48Zm-1-1a.45.45,0,0,0,0,.63.44.44,0,0,0,.63,0,.44.44,0,0,0,0-.63A.45.45,0,0,0,78.66,14.44Z"/><rect class="cls-16" x="99.15" y="39.5" width="35.29" height="35.29"/><path d="M134.44,75.08H99.15a.29.29,0,0,1-.29-.29V39.5a.29.29,0,0,1,.29-.29h35.29a.29.29,0,0,1,.29.29V74.79A.29.29,0,0,1,134.44,75.08Zm-35-.58h34.72V39.79H99.44Z"/><path class="cls-16" d="M118.36,67c0,3.44-2,5-5,5a5.17,5.17,0,0,1-5-3l2.71-1.63c.52.92,1,1.7,2.13,1.7S115,68.64,115,67V55.7h3.32Z"/><path d="M113.4,72.31a5.42,5.42,0,0,1-5.24-3.19.29.29,0,0,1,.11-.37L111,67.12a.28.28,0,0,1,.22,0,.31.31,0,0,1,.18.14c.54,1,.94,1.56,1.88,1.56s1.49-.31,1.49-1.8V55.7a.28.28,0,0,1,.29-.28h3.32a.27.27,0,0,1,.28.28V67C118.64,70.38,116.73,72.31,113.4,72.31Zm-4.6-3.21a4.84,4.84,0,0,0,4.6,2.64c3,0,4.67-1.68,4.67-4.72V56h-2.74V67c0,1.64-.64,2.37-2.07,2.37A2.53,2.53,0,0,1,111,67.76Z"/><path class="cls-16" d="M126.2,72a6.37,6.37,0,0,1-6-3.39l2.7-1.56a3.61,3.61,0,0,0,3.27,2c1.37,0,2.25-.68,2.25-1.63,0-1.14-.89-1.54-2.41-2.21l-.83-.35c-2.4-1-4-2.3-4-5,0-2.49,1.9-4.38,4.85-4.38a4.89,4.89,0,0,1,4.71,2.66l-2.58,1.65A2.26,2.26,0,0,0,126,58.41a1.44,1.44,0,0,0-1.59,1.41c0,1,.62,1.4,2,2l.83.35c2.82,1.21,4.4,2.45,4.4,5.22C131.69,70.39,129.35,72,126.2,72Z"/><path d="M126.2,72.31a6.72,6.72,0,0,1-6.3-3.54.29.29,0,0,1,.12-.38l2.7-1.56a.29.29,0,0,1,.39.1,3.29,3.29,0,0,0,3,1.88c1.18,0,2-.55,2-1.35s-.69-1.26-2.25-1.95l-.82-.35c-2.16-.91-4.16-2.19-4.16-5.27,0-2.74,2.12-4.66,5.14-4.66a5.12,5.12,0,0,1,5,2.8.28.28,0,0,1-.09.38l-2.58,1.66a.31.31,0,0,1-.23,0,.28.28,0,0,1-.18-.14A2,2,0,0,0,126,58.69a1.16,1.16,0,0,0-1.3,1.13c0,.81.47,1.14,1.87,1.76l.82.35c2.9,1.24,4.58,2.53,4.58,5.48S129.71,72.31,126.2,72.31Zm-5.65-3.56a6,6,0,0,0,5.65,3c3.21,0,5.21-1.66,5.21-4.33s-1.49-3.78-4.23-4.95l-.83-.36c-1.34-.58-2.21-1.05-2.21-2.28a1.73,1.73,0,0,1,1.87-1.7,2.44,2.44,0,0,1,2.23,1.3l2.1-1.34A4.62,4.62,0,0,0,126,55.8c-2.68,0-4.56,1.68-4.56,4.09,0,2.6,1.52,3.77,3.8,4.74l.83.36c1.56.68,2.59,1.14,2.59,2.47,0,1.13-1,1.92-2.54,1.92a3.81,3.81,0,0,1-3.36-1.91Z"/><path d="M131.69,67.41c0,3-2.34,4.62-5.49,4.62a6.37,6.37,0,0,1-6-3.39l2.7-1.56a3.61,3.61,0,0,0,3.27,2c1.37,0,2.25-.68,2.25-1.63,0-1.14-.89-1.54-2.41-2.21l-.83-.35c-2.4-1-4-2.3-4-5,0-2.49,1.9-4.38,4.85-4.38a4.89,4.89,0,0,1,4.71,2.66l-2.58,1.65A2.26,2.26,0,0,0,126,58.41a1.44,1.44,0,0,0-1.59,1.41c0,1,.62,1.4,2,2l.83.35C130.11,63.4,131.69,64.64,131.69,67.41Z"/><path d="M118.36,55.7V67c0,3.44-2,5-5,5a5.17,5.17,0,0,1-5-3l2.71-1.63c.52.92,1,1.7,2.13,1.7S115,68.64,115,67V55.7Z"/><polygon class="cls-17" points="3.54 48.86 5.65 53.43 15.49 74.81 27.4 74.54 36.77 67.2 31.19 45.85 29.55 39.55 3.54 48.86"/><path d="M27.49,74.79l-.09,0-11.9.27a.26.26,0,0,1-.24-.16L3.3,49a.26.26,0,0,1,0-.21.28.28,0,0,1,.15-.15l26-9.3a.26.26,0,0,1,.21,0,.31.31,0,0,1,.13.17L37,67.14a.24.24,0,0,1-.09.27l-9.37,7.34Zm-11.83-.24,11.64-.27,9.17-7.18L29.36,39.9,3.9,49Z"/><polygon class="cls-17" points="27.5 50.01 20.89 56.14 20.87 56.16 28.42 53.45 31.11 63.69 25.15 68.01 17.75 68.43 15.53 63.58 18.84 62.4 19.99 64.91 23.87 64.54 27.2 62.17 25.96 57.91 14.69 61.91 14.68 61.9 14.67 61.91 13.31 58.86 19.77 52.98 20.14 52.64 11.82 55.62 10.28 52.56 26.68 46.69 27.5 50.01"/><path d="M17.75,68.8a.39.39,0,0,1-.34-.21l-2.22-4.85a.35.35,0,0,1,0-.3.36.36,0,0,1,.21-.21L18.72,62a.37.37,0,0,1,.46.2l1,2.27,3.52-.34,3-2.15L25.71,58.4l-10.9,3.86a.37.37,0,0,1-.18,0h0a.36.36,0,0,1-.29-.21L13,59a.37.37,0,0,1,.09-.43l5.44-4.95L12,56a.38.38,0,0,1-.47-.18L10,52.73a.37.37,0,0,1,0-.31.4.4,0,0,1,.22-.22l16.41-5.86a.35.35,0,0,1,.3,0,.41.41,0,0,1,.19.24l.82,3.32a.37.37,0,0,1-.11.36l-5.29,4.9L28.3,53.1a.35.35,0,0,1,.3,0,.36.36,0,0,1,.18.24L31.47,63.6a.37.37,0,0,1-.14.39l-6,4.33a.4.4,0,0,1-.2.07l-7.39.41ZM16,63.8,18,68l7-.39,5.66-4.11-2.52-9.6L21,56.51a.38.38,0,0,1-.46-.17.39.39,0,0,1,.1-.48l6.45-6-.67-2.7L10.81,52.77,12,55.16l8-2.87a.37.37,0,0,1,.44.16.36.36,0,0,1-.07.47l-6.63,6,1.11,2.48,11-3.88a.35.35,0,0,1,.3,0,.38.38,0,0,1,.19.22l1.24,4.27a.37.37,0,0,1-.14.41l-3.33,2.36a.34.34,0,0,1-.18.07L20,65.29a.37.37,0,0,1-.37-.22l-1-2.2Z"/><polygon class="cls-8" points="20.89 56.14 20.87 56.16 28.42 53.45 31.11 63.69 25.15 68.01 17.75 68.43 15.53 63.58 18.84 62.4 19.99 64.91 23.87 64.54 27.2 62.17 25.96 57.91 14.69 61.91 14.68 61.9 14.67 61.91 13.31 58.86 19.77 52.98 20.14 52.64 11.82 55.62 10.28 52.56 26.68 46.69 27.5 50.01 20.89 56.14"/><polygon class="cls-18" points="19.69 39.5 20.06 43.72 22.27 68.76 22.41 70.35 25.77 71.47 31.96 73.53 34.62 74.42 46.9 70.35 47.28 66.12 48.98 46.77 49.62 39.5 19.69 39.5"/><path d="M34.62,74.7h-.09L22.32,70.62a.28.28,0,0,1-.19-.24L19.41,39.52a.29.29,0,0,1,.07-.22.31.31,0,0,1,.21-.09H49.62a.31.31,0,0,1,.21.09.3.3,0,0,1,.08.22L47.19,70.38a.29.29,0,0,1-.2.24L34.71,74.69ZM22.68,70.14l11.94,4,12-4,2.67-30.36H20Z"/><polygon class="cls-18" points="26.92 64.89 26.45 58.98 30.17 58.98 30.45 61.95 34.62 63.08 38.8 61.95 39.27 57.1 26.26 57.1 25.26 45.75 44.06 45.75 43.71 49.47 29.39 49.47 29.71 53.32 43.4 53.32 42.34 64.89 34.7 66.99 34.7 67.01 34.62 67.01 26.92 64.89"/><path d="M34.7,67.3h-.16l-7.69-2.13a.28.28,0,0,1-.21-.25L26.17,59a.3.3,0,0,1,.08-.22.31.31,0,0,1,.21-.09h3.71a.29.29,0,0,1,.29.26l.25,2.77,3.91,1.06,3.92-1.06L39,57.38H26.26a.28.28,0,0,1-.28-.26L25,45.77a.26.26,0,0,1,.07-.21.3.3,0,0,1,.21-.1h18.8a.3.3,0,0,1,.21.1.27.27,0,0,1,.07.21L44,49.49a.29.29,0,0,1-.29.26h-14L30,53H43.39a.28.28,0,0,1,.21.1.25.25,0,0,1,.08.21L42.62,64.91a.29.29,0,0,1-.21.25l-7.53,2.08A.28.28,0,0,1,34.7,67.3Zm0-.31Zm-7.51-2.33,7.43,2.06h0l7.44-2.06,1-11.06H29.71a.28.28,0,0,1-.29-.26l-.32-3.85a.3.3,0,0,1,.08-.22.31.31,0,0,1,.21-.09H43.46L43.75,46H25.57l.95,10.78H39.27a.28.28,0,0,1,.21.1.26.26,0,0,1,.07.22L39.09,62a.29.29,0,0,1-.21.25l-4.19,1.13h-.15l-4.17-1.13a.29.29,0,0,1-.21-.25l-.25-2.71H26.76Z"/><polygon class="cls-8" points="43.71 49.47 29.39 49.47 29.71 53.32 43.4 53.32 42.34 64.89 34.7 66.99 34.7 67.01 34.62 67.01 26.92 64.89 26.45 58.98 30.17 58.98 30.45 61.95 34.62 63.08 38.8 61.95 39.27 57.1 26.26 57.1 25.26 45.75 44.06 45.75 43.71 49.47"/></g></svg>