<svg xmlns="http://www.w3.org/2000/svg" viewBox="0 0 140.59 77.53"><defs><style>.cls-1{fill:#ccd1d9;}.cls-2{fill:#c75d2d;}.cls-3{fill:#d66d3c;}.cls-4{fill:#f64b4a;}.cls-5{fill:#dd3636;}.cls-6{fill:#b27946;}.cls-7{fill:#7daf35;}.cls-8{fill:#567c13;}.cls-9{fill:#656d78;}.cls-10{fill:#ebad88;}.cls-11{fill:#aab2bd;}.cls-12{fill:#ff826e;}</style></defs><title>icon-5-03</title><g id="Ãconos"><path class="cls-1" d="M57.79,61.27h25v15h-25Z"/><path class="cls-2" d="M87.8,68.77v7.5h-5v-15h-25v15h-5V57.52A1.25,1.25,0,0,1,54,56.27H86.55a1.25,1.25,0,0,1,1.25,1.25Z"/><path class="cls-3" d="M105.31,53.42a1.89,1.89,0,0,1-.12.67l-4.4,13.21a2.14,2.14,0,0,1-2,1.47h-11V57.52a1.25,1.25,0,0,0-1.25-1.25H54a1.25,1.25,0,0,0-1.25,1.25V68.77H41.84a2.13,2.13,0,0,1-2-1.47L35.4,54.09a1.89,1.89,0,0,1-.12-.67,2.15,2.15,0,0,1,2.15-2.15h65.73A2.15,2.15,0,0,1,105.31,53.42Z"/><path class="cls-4" d="M71.55,43.76l3.75,7.51h-10L69,43.76Z"/><path class="cls-5" d="M72.72,40.23l-1.17,3.53H69l-1.17-3.53,2.42-1.47Z"/><path class="cls-6" d="M95.3,46.27v5h-15l.77-3.12a2.5,2.5,0,0,1,2.43-1.88H95.3Z"/><path class="cls-7" d="M64,42.51l3.83-2.28L69,43.76l-3.75,7.51H49.88A21.36,21.36,0,0,1,62.94,37Z"/><path class="cls-7" d="M72.72,40.23l3.83,2.28,1.1-5.5A21.23,21.23,0,0,1,88.6,46.27H83.5a2.5,2.5,0,0,0-2.43,1.88l-.77,3.12h-5l-3.75-7.51Z"/><path class="cls-8" d="M77.65,37h0l-1.1,5.5-3.83-2.28-2.43-1.47,5-2.5a21.35,21.35,0,0,1,2.35.74Z"/><path class="cls-8" d="M70.29,38.76l-2.42,1.47L64,42.51,62.94,37a21.35,21.35,0,0,1,2.35-.74Z"/><path class="cls-9" d="M59,18.76a3.74,3.74,0,0,0-2.86,1.32,25,25,0,0,1-.74-3.82,24.75,24.75,0,0,1-.15-2.71,12.29,12.29,0,0,1,12.3-12.3H73a12.29,12.29,0,0,1,12.3,12.3,24.43,24.43,0,0,1-.89,6.53,3.74,3.74,0,0,0-2.86-1.32H80.3v-2.5a2.52,2.52,0,0,0-2.5-2.51H71.55a6.26,6.26,0,0,1-5-2.5H65.29a5,5,0,0,0-5,5v2.5Z"/><path class="cls-10" d="M72.8,33.76a7.12,7.12,0,0,0,1.47-.15l1,2.65-5,2.5-5-2.5,1-2.65a7.12,7.12,0,0,0,1.47.15Z"/><path class="cls-10" d="M84.41,20.08a3.75,3.75,0,0,1-2.86,6.18H80.3v-7.5h1.25a3.74,3.74,0,0,1,2.86,1.32Z"/><path class="cls-10" d="M80.3,18.76v7.5a2.53,2.53,0,0,0-2.5,2.5,2.53,2.53,0,0,0,1,2,7.47,7.47,0,0,1-4.53,2.85,7.12,7.12,0,0,1-1.47.15h-5a7.12,7.12,0,0,1-1.47-.15,7.48,7.48,0,0,1-6-7.35v-10a5,5,0,0,1,5-5h1.25a6.26,6.26,0,0,0,5,2.5H77.8a2.52,2.52,0,0,1,2.5,2.51Z"/><path class="cls-10" d="M60.29,18.76v7.5H59a3.73,3.73,0,0,1-1.5-.31,3.52,3.52,0,0,1-1.15-.79l-.85-1.31A3.74,3.74,0,0,1,59,18.76Z"/><path class="cls-11" d="M81.55,26.26H82.8a2.51,2.51,0,0,1,2.5,2.5,2.53,2.53,0,0,1-2.5,2.5H80.3a2.5,2.5,0,0,1-2.5-2.5,2.53,2.53,0,0,1,2.5-2.5Z"/><path class="cls-12" d="M65.29,23.76h10a5,5,0,0,1-8.54,3.54A5.07,5.07,0,0,1,65.29,23.76Z"/><circle cx="65.29" cy="18.76" r="1.25"/><circle cx="75.3" cy="18.76" r="1.25"/><path d="M64,22.51v1.25a6.26,6.26,0,0,0,12.51,0V22.51Zm6.26,5A3.75,3.75,0,0,1,66.76,25h7.07A3.75,3.75,0,0,1,70.3,27.51Z"/><path d="M59,37.51,64.44,35C60.16,36.53,59,37.48,59,37.51Z"/><path d="M89.05,75V70h9.7A3.39,3.39,0,0,0,102,67.7l4.4-13.21a3.21,3.21,0,0,0,.18-1.07,3.41,3.41,0,0,0-3.41-3.4h-6.6V36.26a8.76,8.76,0,0,0-8.75-8.75H86.32A3.82,3.82,0,0,0,85.2,25.9a4.94,4.94,0,0,0,.56-6.07,25.61,25.61,0,0,0,.79-6.28A13.57,13.57,0,0,0,73,0H67.59A13.57,13.57,0,0,0,54,13.55c0,.49,0,1,.05,1.45l.27,2.51c.12.78.28,1.55.47,2.32a5.08,5.08,0,0,0-.69,1.66,5.84,5.84,0,0,0,.42,3.19A5,5,0,0,0,56,26.46h0l0,0a4,4,0,0,0,.49.31l.15.07.08.05a5.82,5.82,0,0,0,1.25.44l.25.05.14,0c.2,0,.4.06.6.06h.1a8.76,8.76,0,0,0,5.53,6.91l-.23.59L59,37.51h0A22.66,22.66,0,0,0,49,50H37.44A3.41,3.41,0,0,0,34,53.42a3.21,3.21,0,0,0,.18,1.07l4.4,13.21A3.39,3.39,0,0,0,41.84,70h9.7v5h-20v2.51h77.53V75ZM86.32,30H87.8a6.25,6.25,0,0,1,6.25,6.25V45H89.28a22.73,22.73,0,0,0-13-9.77l-.31-.81a8.65,8.65,0,0,0,3.2-2.13,3.51,3.51,0,0,0,1.17.21h2.5A3.75,3.75,0,0,0,86.32,30Zm-16,7.35-3.43-1.71.26-.67.66,0h5c.22,0,.44,0,.65,0l.27.68Zm5.11.24c.27.07.53.16.8.25l-.54,2.68-2.78-1.67ZM70.3,40.22l.92.56-.58,1.73h-.7l-.57-1.73ZM69.82,45h1l2.5,5h-6Zm3.07-1.34.53-1.57,4,2.4,1.15-5.75A20.38,20.38,0,0,1,86.27,45H83.5a3.75,3.75,0,0,0-3.64,2.84L79.32,50H76.07Zm9.4,4.79a1.24,1.24,0,0,1,1.21-.94H94.05V50H81.9Zm.51-20.95a1.25,1.25,0,0,1,0,2.5H80.3a1.25,1.25,0,0,1,0-2.5ZM81.55,25V20a2.5,2.5,0,0,1,0,5ZM59,25a2.5,2.5,0,0,1,0-5Zm0-8.75v1.25A5,5,0,0,0,57,18a23.48,23.48,0,0,1-.43-4.42,11.07,11.07,0,0,1,11.05-11H73a11.07,11.07,0,0,1,11,11.05A23.48,23.48,0,0,1,83.62,18a5,5,0,0,0-2.07-.46V16.26A3.76,3.76,0,0,0,77.8,12.5H71.55a5,5,0,0,1-5-5H64a7.34,7.34,0,0,0,.47,2.58A6.24,6.24,0,0,0,59,16.26Zm2.5,10v-10a3.77,3.77,0,0,1,3.75-3.76H66A7.47,7.47,0,0,0,71.55,15H77.8a1.25,1.25,0,0,1,1.25,1.26v9a3.72,3.72,0,0,0-1.92,5.51,6.19,6.19,0,0,1-4.33,1.76h-5A6.26,6.26,0,0,1,61.54,26.26ZM65.17,37.6l2.53,1.26-2.78,1.67-.54-2.71ZM62,38.75l1.15,5.75,4-2.4.52,1.57L64.52,50H51.6A20.18,20.18,0,0,1,62,38.75ZM81.55,75H59V62.52H81.55Zm5,0h-2.5V60H56.54V75H54V57.52H86.55Zm0-20H54a2.5,2.5,0,0,0-2.5,2.5v10h-9.7A.9.9,0,0,1,41,66.9l-4.4-13.2a.92.92,0,0,1,0-.28.9.9,0,0,1,.91-.9h65.72a.9.9,0,0,1,.9.9.92.92,0,0,1,0,.28l-4.4,13.21a.91.91,0,0,1-.86.61h-9.7v-10A2.5,2.5,0,0,0,86.55,55Z"/><path d="M106.56,22.51h2.5V25h-2.5Z"/><path d="M101.56,22.51h2.5V25h-2.5Z"/><path d="M96.55,22.51h2.5V25h-2.5Z"/><path d="M91.55,17.51h17.51V20H91.55Z"/><path d="M91.55,12.5h17.51V15H91.55Z"/><path d="M91.55,7.5h17.51V10H91.55Z"/><path d="M64.44,35,59,37.51S60.16,36.53,64.44,35Z"/></g></svg>