<svg id="Capa_1" data-name="Capa 1" xmlns="http://www.w3.org/2000/svg" viewBox="0 0 33.6 33.6"><defs><style>.cls-1{fill:#fff;}.cls-2{fill:#21759b;}</style></defs><title>logo</title><circle class="cls-1" cx="16.79" cy="16.79" r="16.09"/><path class="cls-2" d="M33.52,15.74c-.07-.65-.1-1.3-.22-2A16.41,16.41,0,0,0,27.6,4,16.34,16.34,0,0,0,13.44.35a16,16,0,0,0-9.35,5.5A16.27,16.27,0,0,0,.36,20.13,16.28,16.28,0,0,0,7.28,30.59,16.18,16.18,0,0,0,15,33.46l1.33.14h.92l1.32-.14a16.15,16.15,0,0,0,7.69-2.85,16.46,16.46,0,0,0,6.93-10.4c.18-.82.23-1.68.34-2.52,0-.13,0-.25.07-.38v-1C33.58,16.09,33.54,15.92,33.52,15.74ZM16.78,32.87a16.09,16.09,0,1,1,16.1-16.1A16.07,16.07,0,0,1,16.78,32.87Z"/><path class="cls-2" d="M26.18,14a11.71,11.71,0,0,0-1.3-2.63A6,6,0,0,1,23.9,9a2.63,2.63,0,0,1,1.94-2.88c.16,0,.31,0,.57-.07a14.23,14.23,0,0,0-11.82-3.5A14.18,14.18,0,0,0,4.81,8.8l.43,0,4.2-.15c.43,0,.69.18.73.53a.62.62,0,0,1-.6.71c-.51.07-1,.11-1.56.17l5.17,15.38c.05-.07.07-.08.07-.1,1-3,2-6,3-9a.65.65,0,0,0,0-.34l-2.08-5.73A.35.35,0,0,0,13.8,10a11,11,0,0,1-1.14-.12c-.48-.06-.67-.28-.63-.69s.29-.57.75-.55c.85.05,1.71.14,2.56.13,1.65,0,3.3-.09,4.95-.13a.61.61,0,0,1,.71.56.62.62,0,0,1-.6.68l-1.56.17L24,25.4c.76-2.56,1.51-5,2.22-7.49A6.58,6.58,0,0,0,26.18,14Z"/><path class="cls-2" d="M12.76,30.6a14.64,14.64,0,0,0,8.74-.22c-1.49-4.07-3-8.1-4.46-12.22C15.6,22.35,14.19,26.46,12.76,30.6Z"/><path class="cls-2" d="M3.7,22.74a13.71,13.71,0,0,0,6.68,6.85L3.64,11.1A14,14,0,0,0,3.7,22.74Z"/><path class="cls-2" d="M24.33,28.54l-.17.51a13.8,13.8,0,0,0,6.34-7.93,14,14,0,0,0-.94-10.85c0,.19,0,.38,0,.58a11.73,11.73,0,0,1-.64,4.44C27.4,19.71,25.86,24.12,24.33,28.54Z"/></svg>