<svg id="Capa_1" data-name="Capa 1" xmlns="http://www.w3.org/2000/svg" viewBox="0 0 33.6 33.6"><defs><style>.cls-1{fill:#f7df1e;}</style></defs><title>logo</title><g id="js-logo"><rect id="background" class="cls-1" width="33.6" height="33.6"/><path id="j" d="M8.83,28.08l2.58-1.56c.49.88.94,1.63,2,1.63s1.69-.41,1.69-2V15.43h3.15V26.21c0,3.27-1.91,4.76-4.71,4.76a4.92,4.92,0,0,1-4.74-2.89"/><path id="s" d="M20,27.74l2.57-1.49a3.44,3.44,0,0,0,3.11,1.92c1.31,0,2.15-.66,2.15-1.56,0-1.08-.86-1.46-2.3-2.09l-.79-.34C22.46,23.21,21,22,21,19.42c0-2.37,1.8-4.17,4.62-4.17a4.66,4.66,0,0,1,4.49,2.52L27.6,19.35a2.15,2.15,0,0,0-2-1.35,1.37,1.37,0,0,0-1.51,1.35c0,.95.59,1.33,1.94,1.92l.79.34c2.68,1.15,4.19,2.32,4.19,5,0,2.84-2.23,4.4-5.23,4.4A6.06,6.06,0,0,1,20,27.74"/></g></svg>