<svg id="Capa_1" data-name="Capa 1" xmlns="http://www.w3.org/2000/svg" viewBox="0 0 29.59 33.56"><defs><style>.cls-1{fill:#1572b6;}.cls-2{fill:#33a9dc;}.cls-3{fill:#fff;}.cls-4{fill:#ebebeb;}</style></defs><title>logo</title><path class="cls-1" d="M2.69,30.2,0,0H29.59l-2.7,30.2L14.77,33.56Z"/><path class="cls-2" d="M14.79,31l9.79-2.73L26.9,2.47H14.79Z"/><path class="cls-3" d="M14.79,13.41H19.7L20,9.61H14.79V5.91h9.28L24,6.9l-.91,10.22H14.79Z"/><path class="cls-4" d="M14.82,23h0l-4.12-1.1-.26-3H6.69l.51,5.81,7.59,2.11h0Z"/><path class="cls-3" d="M19.37,17l-.44,5L14.79,23v3.86l7.59-2.11.06-.63L23.09,17Z"/><path class="cls-4" d="M14.81,5.91v3.7h-9l-.07-.83L5.61,6.9l-.09-1Zm0,7.5v3.71H10.72l-.08-.84-.17-1.87-.09-1Z"/></svg>