<svg id="Capa_1" data-name="Capa 1" xmlns="http://www.w3.org/2000/svg" viewBox="0 0 29.53 33.52"><defs><style>.cls-1{fill:#e34f26;}.cls-2{fill:#ef652a;}.cls-3{fill:#ebebeb;}.cls-4{fill:#fff;}</style></defs><title>logo</title><path class="cls-1" d="M2.68,30.12,0,0H29.53L26.85,30.12l-12.12,3.4"/><path class="cls-2" d="M14.8,30.91l9.75-2.69,2.3-25.8h-12"/><path class="cls-3" d="M14.8,13.62H9.89l-.33-3.8H14.8V6.15H5.5l.07,1,.91,10.21H14.8Zm0,9.62h-.07l-4.12-1.11-.26-2.94H6.68L7.14,25l7.59,2.1h.07Z"/><path class="cls-4" d="M14.73,13.62v3.73h4.59l-.46,4.78-4.13,1.11v3.87l7.6-2.1.06-.65.85-9.76.14-1H14.73Zm0-7.47V9.82h9L23.77,9l.2-1.9.06-1Z"/></svg>