<svg id="Capa_1" data-name="Capa 1" xmlns="http://www.w3.org/2000/svg" viewBox="0 0 63.87 33.6"><defs><style>.cls-1{fill:#fff;}</style></defs><title>oscuro_logo</title><path class="cls-1" d="M19,12.72H17.06L16,18.38h1.39a4.75,4.75,0,0,0,2.88-.69,3.84,3.84,0,0,0,1.21-2.37,2.51,2.51,0,0,0-.17-2.06C21.09,13.06,20.55,12.72,19,12.72Z"/><path class="cls-1" d="M47.63,12.72H45.69l-1.1,5.66H46a4.79,4.79,0,0,0,2.88-.69,3.84,3.84,0,0,0,1.21-2.37,2.6,2.6,0,0,0-.17-2.06C49.72,13.06,49.18,12.72,47.63,12.72Z"/><path class="cls-1" d="M31.94,0C14.3,0,0,7.52,0,16.8S14.3,33.6,31.94,33.6s31.93-7.52,31.93-16.8S49.58,0,31.94,0ZM55.22,15.84a8,8,0,0,1-.89,2.46,8.23,8.23,0,0,1-1.62,2A7.3,7.3,0,0,1,50,22a11.79,11.79,0,0,1-3.64.47H43.8L43,26.34a.69.69,0,0,1-.68.56H38.69a.69.69,0,0,1-.53-.25.7.7,0,0,1-.15-.57l.74-3.79a.7.7,0,0,1-.39.13h-3.7a.67.67,0,0,1-.53-.25A.66.66,0,0,1,34,21.6l1.45-7.45c.14-.73,0-1.06,0-1.13s-.24-.24-1.32-.24H31.76L30,21.86a.69.69,0,0,1-.68.56H25.68a.71.71,0,0,1-.54-.25A.69.69,0,0,1,25,21.6l.61-3.17a8.14,8.14,0,0,1-1.53,1.91A7.15,7.15,0,0,1,21.38,22a11.72,11.72,0,0,1-3.63.47H15.18l-.76,3.92a.7.7,0,0,1-.69.56H10.07a.68.68,0,0,1-.68-.82L12.66,9.24a.69.69,0,0,1,.68-.56h7.05a6.54,6.54,0,0,1,5.17,1.91A4.84,4.84,0,0,1,26.67,13l1.6-8.24A.7.7,0,0,1,29,4.2h3.64a.68.68,0,0,1,.68.83l-.71,3.65H35c2.24,0,3.78.41,4.69,1.25a3.38,3.38,0,0,1,1,2.38l.6-3.07A.68.68,0,0,1,42,8.68H49c2.32,0,4.06.64,5.16,1.91A5.89,5.89,0,0,1,55.22,15.84Z"/></svg>